<?xml version="1.0" encoding="utf-8"?>
<!-- Generator: Adobe Illustrator 25.2.3, SVG Export Plug-In . SVG Version: 6.00 Build 0)  -->
<svg version="1.1" id="Layer_1" xmlns="http://www.w3.org/2000/svg" xmlns:xlink="http://www.w3.org/1999/xlink" x="0px" y="0px"
	 viewBox="0 0 200 200" style="enable-background:new 0 0 200 200;" xml:space="preserve">
<style type="text/css">
	.st0{fill:#EF4136;}
	.st1{fill:#1C75BC;}
	.st2{fill:#EC008C;}
	.st3{fill:#00A79D;}
	.st4{fill:#92278F;}
	.st5{fill:#2B3990;}
	.st6{fill:#F7941D;}
	.st7{fill:#009444;}
	.st8{fill:#F9ED32;}
	.st9{fill:#8DC63F;}
	.st10{fill:#FFFFFF;}
	.st11{fill:#39B54A;}
</style>
<path d="M191.7,133.73c0.88,4,1.26,7.94,0.73,11.94c-0.16,1.18-0.85,1.89-1.7,1.75c-1-0.16-1.75-0.71-1.86-1.75
	c-0.24-2.44-0.38-4.9-0.6-7.35c-0.08-0.89-0.28-1.77-0.41-2.62c-2.05-0.57-3.8,0.17-5.3,0.1c-1.46,1.39-1.4,2.82-1.17,4.16
	c0.3,1.79,0.2,3.68,1.31,5.32c0.58,0.85,0.33,1.78-0.42,2.49c-0.73,0.7-2.11,0.7-2.92-0.16c-0.6-0.64-1.11-1.47-1.35-2.31
	c-0.39-1.32-0.49-2.72-0.77-4.07c-0.31-1.48-0.68-2.96-1.01-4.39c-1.6-0.73-2.97-1.36-4.82-0.75c-0.16,0.78-0.51,1.64-0.48,2.5
	c0.05,1.68,0.25,3.35,0.5,5.01c0.14,0.97,0.28,1.88-0.83,2.31c-0.98,0.38-1.78-0.11-2.47-0.79c-1.04-1.02-1.5-2.29-1.55-3.73
	c-0.07-1.67-0.18-3.34-0.28-5.21c-1.12-0.14-2.04-0.49-2.86-0.32c-5.89,1.22-10.54-1.1-14.52-5.11c-2.38-2.4-4.58-4.97-6.78-7.54
	c-1.5-1.75-2.68-3.7-3.39-5.96c-0.83-2.62-1.89-5.18-3.77-7.22c-3.29,0.72-4.52,2-4.46,4.78c0.02,1.22,0.21,2.45,0.45,3.65
	c0.52,2.63-0.24,4.94-1.98,6.82c-1.96,2.12-4.08,4.15-7.09,4.82c-0.42,0.09-0.78,0.42-1.46,0.8c-0.16,3.21-0.33,6.53-0.51,10.13
	c-1.02-0.16-1.91-0.04-2.4-0.42c-1.36-1.08-2.2-2.53-2.17-4.37c0.03-1.53,0.01-3.06,0.01-4.64c-1.38-1.25-2.88-0.63-4.53-0.41
	c-1.45,3.31-0.82,6.88-1.07,10.69c-1.02-0.16-2.01-0.03-2.61-0.45c-2.03-1.42-3.15-3.3-2.35-5.94c0.38-1.26,0.52-2.6,0.82-4.12
	c-2.06-0.11-4.01-0.22-6.05-0.33c-1.17,2.38-0.12,4.75-0.63,6.93c-0.52,2.2-1.37,4.32-2.07,6.46c-2.43-0.06-3.08-0.48-2.98-2.22
	c0.16-2.9,0.47-5.8,0.68-8.7c0.04-0.57-0.05-1.16-0.09-1.73c-0.5,0.03-0.97-0.07-1.06,0.08c-2.39,3.59-6.34,3.06-9.83,3.69
	c-0.69,0.13-1.57-0.11-2.2-0.46c-5.53-3.11-8.22-7.19-6.46-13.64c0.48-1.77,1.1-3.53,1.89-5.18c1.97-4.13,5.73-5.86,9.91-6.7
	c1.64-0.33,3.31,0.26,4.47,1.82c1.18,1.59,2.52,3.06,4.18,5.06c2.67,1.37,6.23,2.14,9.71,3.2c3.48,1.06,6.98,1.05,10.51,0.88
	c1.97-0.09,3.26-1.27,3.45-3.06c0.35-3.32,0.59-6.65,0.9-10.35c2.63-1.37,4.28-4.12,5.92-6.78c2.33-0.62,4.54-1.22,6.76-1.79
	c2.64-0.69,5.17-0.54,7.55,0.96c0.9,0.57,1.82,1.27,2.82,1.5c4.52,1.04,6.32,4.44,7.76,8.34c1.11,3.01,2.28,6.04,3.8,8.86
	c2.75,5.1,8.17,7.61,13.93,6.83c0.61-0.08,1.21-0.25,1.82-0.27c3.43-0.1,6.63-0.96,9.62-2.7c1.88-1.09,3.89-1.7,6.14-1.67
	c2.75,0.05,5.08,0.88,7.18,2.65c2.73,2.3,3.16,5.85,0.84,8.51C193.4,132.35,192.53,132.99,191.7,133.73z M125.95,107.25
	c-0.69,2.43-2.27,4.64-1.77,7.47c0.57,0.51,1.21,1.09,2.12,1.9c0.31-2.33,0.6-4.21,0.79-6.11c0.13-1.26-0.38-2.36-1.16-3.28
	c2.89,0.87,4.11-1.75,6.81-2.82c-2.19-0.57-3.36-0.15-4.43,0.86C127.57,105.98,126.74,106.6,125.95,107.25z M88.42,114.63
	c-1-0.48-1.44-0.89-1.8-0.84c-2.52,0.36-4.73,1.43-6.04,3.68c-1.4,2.41-2.13,5.07-2.18,7.9c-0.03,1.33,0.35,2.45,1.27,3.33
	c0.88,0.84,1.84,1.63,2.86,2.29c1.41,0.9,2.94,0.6,4.44,0.16c1.29-0.37,1.31-1.47,1.58-2.5c0.17-0.65,0.68-1.21,1.12-1.94
	c-3.03-0.09-3.81-0.64-4.06-2.81c-0.1-0.89,0.31-1.96-0.05-2.68C83.99,118.12,85.41,116.29,88.42,114.63z M164.91,132.22
	c0.54-1.6,0.55-2.64-0.69-3.18c-1.68-0.72-3.45-1.23-5.09-2.02c-1.6-0.77-3.09-1.79-4.74-2.76c-1,1.47-1.82,2.67-2.67,3.92
	C155.38,132.47,159.97,132.61,164.91,132.22z M94.93,121.11c-0.76,1.9-0.77,3.59-0.24,5.24c4.36,1.61,8.58,1.35,12.8,0.41
	c0.41-0.09,0.76-0.45,1.45-0.89c-1.32-0.85-2.12-1.68-3.07-1.92c-2.35-0.61-4.76-1.2-7.17-1.31
	C97.23,122.58,96.26,121.83,94.93,121.11z M151.44,121.47c-1.95-2.1-4.79-2.17-6.38-4.42c0.67-1.36,1.34-2.7,1.99-4.01
	c-0.78-1.13-0.78-2.68-2.36-3.46c-1.14,1.41-2.17,2.67-3.08,3.79c1.31,5.08,4.96,10.37,8.72,12.67
	C150.7,124.53,151.05,123.07,151.44,121.47z M191.84,126.64c-3.59-1.14-6.48,0.16-9.25,1.76c-0.37,0.21-0.24,1.3-0.34,2.01
	c1.15,0.06,2.23-0.19,2.88,0.22c1.22,0.79,2.27,0.75,3.4,0.11c1.04-0.59,2.13-1.15,2.96-1.97
	C191.89,128.38,191.73,127.42,191.84,126.64z M179.12,129.19c-3,0-5.7-0.03-8.4,0.02c-1,0.02-1.71,1.03-1.31,1.87
	c0.22,0.47,0.84,1.12,1.21,1.09c2.68-0.28,5.34-0.67,7.99-1.15C178.84,130.97,178.9,130.02,179.12,129.19z M123.04,125.22
	c2.52-1.47,4.53-2.88,4.03-6.16c-0.94-0.3-1.78-0.61-2.65-0.83c-0.25-0.06-0.56,0.14-1.07,0.28
	C123.21,120.54,121.14,122.41,123.04,125.22z M137.85,104.56c0.13,2.51,0.4,4.5,2.48,6.25c0.98-1.57,1.83-2.93,2.62-4.19
	C142.04,104.11,140.31,104.17,137.85,104.56z M112.53,125.46c1.4,1.42,2.69,1.55,4.01,1.32c0.42-0.07,0.77-0.58,1.68-1.32
	C116.01,125.46,114.54,125.46,112.53,125.46z M87.6,121.06c0.99,0.54,1.36,0.8,1.77,0.95c0.23,0.08,0.73,0.04,0.77-0.06
	c0.14-0.39,0.22-0.84,0.15-1.25c-0.03-0.2-0.46-0.52-0.64-0.47C89.1,120.36,88.58,120.64,87.6,121.06z"/>
<path d="M18.54,86.47c0.62-1.55,0.79-3.16,1.69-3.96c1.69-1.52,3.79-2.53,6.21-2.76c3.51-0.33,4.77,0.48,7.68,5.57
	c5.46-0.35,8.54,3.73,12.08,6.84c0.09,1.71-1.05,2.32-2.02,3.05c-1.69,1.28-2.05,2.96-1.47,4.91c0.22,0.74,0.41,1.49,0.68,2.2
	c1.19,3.12,1,6.15,0.29,9.44c-1.38,6.38-3.98,12.24-6.51,18.17c-0.9,2.11-1.5,4.34-2.32,6.49c-0.67,1.77-2.43,2.44-3.62,1.1
	c-1.82-2.04-4.13-3.47-5.94-5.58c-5.02-5.86-6.61-13.05-8.67-20.08c-0.47-1.61-0.91-3.28-1.03-4.94c-0.13-1.78-1.01-2.83-2.47-3.57
	c-1.51-0.77-3.08-1.42-4.53-2.28c-1.18-0.7-2.29-1.56-3.28-2.51c-1.13-1.08-1.17-2.44-0.24-3.75c1.81-2.54,4.04-4.61,6.98-5.79
	C14.18,88.18,16.31,87.35,18.54,86.47z M20.09,106.82c0.64,6.46,2.8,12.49,5.78,18.21c1.2,2.31,3.19,4,5.84,5.04
	c1.17-2.17,2.35-4.13,3.33-6.19c1.64-3.45,3.3-6.93,4.03-10.72c0.81-4.22,1.33-8.45-1.13-12.32c-0.44-0.08-0.77-0.24-1.02-0.16
	c-0.71,0.24-1.39,0.59-2.08,0.89c-0.82,0.36-1.72,1.15-2.45,1.02c-3.13-0.57-6.01,1.05-9.01,0.61
	C22.24,104.46,21.22,105.58,20.09,106.82z M22.4,85.75c2.02,0.73,2.02,0.73,7.11-1.17c-0.64-0.57-1.11-1.36-1.66-1.42
	C25.6,82.92,23.73,83.68,22.4,85.75z M16.55,93.1c-3.02,1.23-5.54,0.88-7.08,3.26C11.73,95.97,14.43,96.81,16.55,93.1z M19.93,94.39
	c2.12,0.31,2.17-1.04,2.41-2.14c0.04-0.2-0.25-0.47-0.39-0.71C20.65,92.18,20.65,92.18,19.93,94.39z M33.58,90.53
	c-1.09-0.12-1.8,0.26-1.7,1.44c0.06,0.76,0.72,0.97,1.32,0.74C34.45,92.23,34.04,91.36,33.58,90.53z M27.7,90.72
	c-0.31-0.07-0.61-0.13-0.92-0.2c-0.33,0.73-0.74,1.45-0.95,2.21c-0.07,0.25,0.32,0.81,0.62,0.93c0.67,0.26,1.15-0.16,1.23-0.82
	C27.77,92.14,27.7,91.43,27.7,90.72z M38.9,90.36c-0.27,0.26-0.45,0.42-0.63,0.59c0.26,0.27,0.49,0.61,0.81,0.77
	c0.1,0.05,0.45-0.41,0.68-0.63C39.47,90.85,39.18,90.6,38.9,90.36z M31.99,97.75c-0.1-0.38-0.18-0.86-0.24-0.85
	c-0.4,0.02-0.79,0.13-1.18,0.21c0.11,0.34,0.21,0.68,0.32,1.03C31.26,98.01,31.63,97.88,31.99,97.75z M26.03,98.44
	c-0.06-0.25-0.06-0.65-0.2-0.71c-0.22-0.09-0.54,0.05-0.82,0.1c0.11,0.35,0.22,0.69,0.34,1.04C25.57,98.73,25.8,98.59,26.03,98.44z"
	/>
<path class="st0" d="M88.42,114.63c-3.01,1.66-4.42,3.49-2.87,6.59c0.36,0.72-0.05,1.79,0.05,2.68c0.25,2.17,1.03,2.72,4.06,2.81
	c-0.44,0.73-0.95,1.29-1.12,1.94c-0.27,1.04-0.29,2.13-1.58,2.5c-1.5,0.44-3.03,0.74-4.44-0.16c-1.02-0.65-1.98-1.44-2.86-2.29
	c-0.91-0.88-1.29-2-1.27-3.33c0.06-2.83,0.78-5.49,2.18-7.9c1.31-2.25,3.51-3.32,6.04-3.68C86.98,113.74,87.41,114.15,88.42,114.63z
	"/>
<path class="st1" d="M164.91,132.22c-4.94,0.4-9.53,0.25-13.19-4.04c0.85-1.25,1.67-2.45,2.67-3.92c1.65,0.98,3.14,1.99,4.74,2.76
	c1.64,0.79,3.41,1.3,5.09,2.02C165.47,129.57,165.46,130.61,164.91,132.22z"/>
<path class="st2" d="M94.93,121.11c1.33,0.71,2.3,1.47,3.76,1.53c2.41,0.11,4.82,0.7,7.17,1.31c0.95,0.25,1.75,1.07,3.07,1.92
	c-0.69,0.43-1.04,0.8-1.45,0.89c-4.22,0.94-8.44,1.2-12.8-0.41C94.16,124.7,94.17,123.01,94.93,121.11z"/>
<path class="st3" d="M151.44,121.47c-0.39,1.6-0.75,3.06-1.12,4.58c-3.75-2.3-7.41-7.59-8.72-12.67c0.91-1.12,1.93-2.38,3.08-3.79
	c1.58,0.78,1.58,2.33,2.36,3.46c-0.65,1.3-1.31,2.65-1.99,4.01C146.66,119.3,149.49,119.37,151.44,121.47z"/>
<path class="st4" d="M191.84,126.64c-0.11,0.78,0.05,1.74-0.35,2.13c-0.83,0.82-1.93,1.39-2.96,1.97c-1.13,0.64-2.19,0.67-3.4-0.11
	c-0.64-0.42-1.73-0.16-2.88-0.22c0.1-0.71-0.03-1.79,0.34-2.01C185.36,126.8,188.25,125.5,191.84,126.64z"/>
<path class="st5" d="M179.12,129.19c-0.22,0.83-0.28,1.78-0.51,1.82c-2.65,0.48-5.31,0.88-7.99,1.15c-0.38,0.04-0.99-0.62-1.21-1.09
	c-0.4-0.85,0.31-1.85,1.31-1.87C173.42,129.16,176.12,129.19,179.12,129.19z"/>
<path class="st6" d="M123.04,125.22c-1.9-2.81,0.17-4.68,0.31-6.71c0.51-0.14,0.83-0.34,1.07-0.28c0.86,0.22,1.71,0.53,2.65,0.83
	C127.57,122.34,125.57,123.75,123.04,125.22z"/>
<path class="st7" d="M137.85,104.56c2.46-0.39,4.19-0.45,5.1,2.06c-0.79,1.26-1.64,2.62-2.62,4.19
	C138.25,109.07,137.97,107.08,137.85,104.56z"/>
<path class="st8" d="M125.89,107.2c0.82,0.95,1.33,2.05,1.2,3.31c-0.19,1.89-0.48,3.77-0.79,6.11c-0.91-0.81-1.55-1.38-2.12-1.9
	c-0.5-2.82,1.08-5.04,1.77-7.47L125.89,107.2z"/>
<path class="st9" d="M125.95,107.25c0.79-0.66,1.62-1.27,2.36-1.98c1.06-1.01,2.24-1.43,4.43-0.86c-2.7,1.06-3.92,3.69-6.83,2.8
	C125.89,107.2,125.95,107.25,125.95,107.25z"/>
<path class="st0" d="M112.53,125.46c2.01,0,3.48,0,5.69,0c-0.91,0.74-1.26,1.25-1.68,1.32
	C115.22,127.01,113.93,126.88,112.53,125.46z"/>
<path class="st10" d="M87.6,121.06c0.99-0.42,1.5-0.7,2.05-0.83c0.18-0.04,0.61,0.28,0.64,0.47c0.06,0.4-0.01,0.86-0.15,1.25
	c-0.04,0.11-0.54,0.14-0.77,0.06C88.95,121.86,88.58,121.6,87.6,121.06z"/>
<path class="st11" d="M20.09,106.82c1.13-1.24,2.15-2.36,3.28-3.61c3,0.44,5.88-1.18,9.01-0.61c0.73,0.13,1.63-0.66,2.45-1.02
	c0.69-0.31,1.37-0.65,2.08-0.89c0.25-0.08,0.58,0.08,1.02,0.16c2.47,3.86,1.95,8.1,1.13,12.32c-0.73,3.79-2.38,7.26-4.03,10.72
	c-0.98,2.06-2.15,4.03-3.33,6.19c-2.65-1.04-4.64-2.73-5.84-5.04C22.9,119.31,20.73,113.28,20.09,106.82z"/>
<path class="st10" d="M22.4,85.75c1.33-2.07,3.19-2.83,5.45-2.59c0.55,0.06,1.02,0.85,1.66,1.42C24.42,86.48,24.42,86.48,22.4,85.75
	z"/>
<path class="st10" d="M16.55,93.1c-2.12,3.71-4.82,2.87-7.08,3.26C11,93.98,13.53,94.33,16.55,93.1z"/>
<path class="st10" d="M19.93,94.39c0.72-2.21,0.72-2.21,2.02-2.84c0.14,0.24,0.43,0.51,0.38,0.71C22.1,93.35,22.05,94.7,19.93,94.39
	z"/>
<path class="st10" d="M33.58,90.53c0.46,0.83,0.87,1.7-0.38,2.18c-0.61,0.23-1.26,0.02-1.32-0.74
	C31.78,90.79,32.49,90.41,33.58,90.53z"/>
<path class="st10" d="M27.7,90.72c0,0.71,0.07,1.43-0.02,2.13c-0.08,0.66-0.56,1.08-1.23,0.82c-0.3-0.12-0.69-0.68-0.62-0.93
	c0.21-0.77,0.62-1.48,0.95-2.21C27.09,90.58,27.39,90.65,27.7,90.72z"/>
<path class="st10" d="M38.9,90.36c0.28,0.24,0.57,0.48,0.86,0.73c-0.23,0.23-0.58,0.68-0.68,0.63c-0.32-0.16-0.55-0.5-0.81-0.77
	C38.45,90.79,38.63,90.62,38.9,90.36z"/>
<path class="st10" d="M31.99,97.75c-0.36,0.13-0.73,0.26-1.1,0.39c-0.11-0.34-0.21-0.68-0.32-1.03c0.39-0.08,0.78-0.2,1.18-0.21
	C31.81,96.89,31.88,97.37,31.99,97.75z"/>
<path class="st10" d="M26.03,98.44c-0.23,0.14-0.46,0.28-0.69,0.43c-0.11-0.35-0.22-0.69-0.34-1.04c0.28-0.04,0.59-0.19,0.82-0.1
	C25.97,97.79,25.97,98.2,26.03,98.44z"/>
</svg>
