<?xml version="1.0" encoding="utf-8"?>
<!-- Generator: Adobe Illustrator 26.3.1, SVG Export Plug-In . SVG Version: 6.00 Build 0)  -->
<svg version="1.1" id="Layer_1" xmlns="http://www.w3.org/2000/svg" xmlns:xlink="http://www.w3.org/1999/xlink" x="0px" y="0px"
	 viewBox="0 0 215.99 215.99" style="enable-background:new 0 0 215.99 215.99;" xml:space="preserve">
<style type="text/css">
	.st0{fill:#8DC63F;}
	.st1{fill:#FFFFFF;}
</style>
<path d="M121.34,113.1c0.24,0.09,0.49,0.17,0.73,0.26c-0.3,0.41-0.5,0.97-0.9,1.21c-3.87,2.28-7.96,4.08-12.29,5.29
	c-0.7,0.2-1.37,0.49-2.09,0.75c-0.07,1.04-0.14,1.96-0.2,2.88c-0.01,0.21-0.13,0.5-0.03,0.62c1.51,1.93,0.54,4.58,2.07,6.53
	c-0.5,0.65-1.09,1.16-1.31,1.8c-0.19,0.55,0.05,1.24,0.12,1.87c0.61,5.39,1.24,10.79,1.84,16.18c0.28,2.54,0.63,5.08,0.28,7.65
	c-0.06,0.44,0.25,0.94,0.37,1.36c0.41,0,0.65,0.07,0.82-0.01c2.76-1.43,5.58-1.22,8.39-0.23c1.61,0.57,3.19,1.18,4.66,0.32
	c0.38,0.34,0.62,0.45,0.68,0.63c1.09,3.09-0.27,3.48-2.54,3.68c-1.9,0.16-3.81,0.3-5.73-0.1c-1.14-0.24-2.34-0.17-3.51-0.28
	c-1.2-0.11-2.25,0.1-3.33,0.77c-1.44,0.91-1.75,0.75-2.86-0.67c-0.2-0.25-0.38-0.51-0.55-0.74c0.12-0.74,0.5-1.54,0.29-2.14
	c-0.53-1.5-0.24-2.87-0.02-4.37c0.35-2.39,0.39-4.79-0.01-7.25c-1.05-6.52-1.8-13.1-2.64-19.65c-0.3-2.32-0.54-4.65-0.81-6.98
	c-0.17-1.44-0.64-1.93-2.04-1.84c-0.59,0.04-1.16,0.42-1.74,0.65l0.08-0.08c-0.65,0.07-1.58-0.35-1.56,0.93
	c0,0.18-0.45,0.4-0.73,0.53c-1.72,0.77-3.89,0-5.4,1.54c-1.81-0.58-3.88,0.36-5.58-0.92c-0.13-0.1-0.37-0.03-0.72-0.05
	c-0.15,0.56-0.45,1.16-0.44,1.75c0.01,0.73,0.38,1.44,0.41,2.17c0.19,4.38,0.46,8.76,0.45,13.13c0,3.3-0.37,6.6-0.58,9.91
	c-0.03,0.43-0.12,0.86-0.09,1.28c0.17,2.85,0.36,5.71,0.55,8.79c-0.31,0.32-0.77,0.74-1.17,1.22c-1.08,1.27-2.27,1.95-3.55,0.98
	c-2.56,0.93-4.86,1.73-7.14,2.62c-0.99,0.38-1.89,1-2.87,1.39c-0.67,0.27-1.41,0.4-2.13,0.47c-0.21,0.02-0.58-0.31-0.67-0.56
	c-0.08-0.24,0.01-0.68,0.19-0.85c0.38-0.34,0.84-0.64,1.32-0.81c2.21-0.78,4.45-1.51,6.67-2.28c0.17-0.06,0.29-0.29,0.59-0.59
	c-0.99-0.4-1.86-0.11-2.69,0.18c-1.11,0.38-2.18,0.88-3.27,1.31c-0.54,0.21-1.05,0.16-1.45-0.31c-0.47-0.56-0.48-1.61,0.02-2.06
	c0.31-0.28,0.68-0.54,1.06-0.69c3.22-1.25,6.48-2.27,9.97-1.05c0.28,0.1,0.61,0.05,1.09,0.09c0.9-2.48,0.35-5.07,0.66-7.57
	c0.31-2.54,0.32-5.12,0.35-7.69c0.02-2.45-0.13-4.91-0.16-7.36c-0.03-2.55,0.07-5.11-0.04-7.66c-0.11-2.56-0.4-5.11-0.64-7.94
	c-0.58-0.42-1.3-1.08-2.14-1.51c-1.33-0.69-2.19-1.78-2.62-3.11c-0.6-1.82-1.06-3.7-1.4-5.58c-0.71-4.02-0.7-8.08-0.64-12.15
	c0.03-2.45-0.18-4.9-0.28-7.53c-0.58-0.14-1.17-0.45-1.74-0.4c-1.37,0.11-2.5-0.36-3.61-1.07c-2.97-1.91-5.96-3.78-8.94-5.67
	c-1.53-0.97-3.1-1.9-4.55-2.97c-2.5-1.85-4.82-3.91-6.73-6.38c-0.73-0.94-1.55-1.27-2.79-0.88c-2.67,0.84-4.2,0.08-5.37-2.41
	c-1.77-3.79,0.06-8.89,3.84-10.68c0.97-0.46,1.94-0.33,2.63,0.45c0.72,0.81,1.41,1.71,1.04,2.87c-0.32,1-0.17,1.86,0.22,2.78
	c0.29,0.68,0.58,1.46,0.51,2.16c-0.17,1.59,0.47,2.63,1.7,3.53c0.76,0.56,1.34,1.37,2.05,2.01c2.07,1.86,4.17,3.66,6.69,4.92
	c1.23,0.62,2.32,1.5,3.48,2.26c2.67,1.75,5.34,3.49,8,5.25c1.03,0.68,2.11,1.03,3.53,0.5c0.03-0.41,0.2-0.94,0.08-1.4
	c-0.66-2.43-0.45-4.88-0.35-7.34c0.24-5.55,0.43-11.11,0.68-16.67c0.04-0.94,0.29-1.88,0.45-2.81c0.12-0.67,0.46-1.28,1.12-1.44
	c1.47-0.37,2.01-1.62,2.46-2.76c0.84-2.14,2.3-3.83,3.59-5.65c1.06-1.49,2.47-2.34,4.14-2.82c2.67-0.76,5.34-1.52,8.18-1.47
	c1.04,0.02,2.08-0.32,3-0.47c0.55-0.98,0.12-1.61-0.31-2.21c-0.48-0.65-1.21-0.87-1.98-0.87c-0.85,0.01-1.71,0.14-2.56,0.1
	c-1.16-0.05-2.03-0.88-2.12-2.01c-0.06-0.74-0.06-1.51,0.05-2.24c0.54-3.42,3.2-5.2,6.54-4.28c1.64,0.45,3.21,1.14,4.81,1.74
	c1.19,0.45,1.95,1.26,2.19,2.54c0.35,1.87,0.73,3.74,1.14,5.84c0.7-0.03,1.52-0.02,2.33-0.12c2.12-0.25,4.23-0.69,6.36-0.81
	c3.97-0.21,7.93-0.07,11.57,1.82c2.56,1.33,3.98,3.53,4.13,6.37c0.08,1.54,0.38,2.87,1.19,4.22c1.44,2.43,1.82,5.19,1.97,7.98
	c0.2,3.66,0.45,7.32,0.7,11.26c5.17-6.01,10.4-11.48,15.73-16.86c0.75-0.76,1.3-1.41,1.27-2.71c-0.02-1.14,0.79-2.41,1.52-3.42
	c1.59-2.2,3.34-2.63,5.88-1.69c0.39,0.14,0.75,0.4,1.01,0.54c1.42,2.28,0.03,4.46,0.13,6.6c-0.99,1.02-1.94,2-2.94,3.03
	c-0.13,0.03-0.35,0.14-0.53,0.1c-3.17-0.78-3.19-0.8-5.33,1.29c-2.29,2.24-4.58,4.47-6.79,6.78c-1.33,1.38-2.45,2.97-3.77,4.36
	c-2.2,2.32-4.51,4.55-6.73,6.86c-0.41,0.43-0.92,1.15-0.83,1.63c0.49,2.58-1.1,5.03-0.38,7.6c0.1,0.35-0.22,0.81-0.31,1.23
	c-0.99,4.48-1.86,8.99-3.01,13.42c-0.62,2.36-1.75,4.59-3.59,6.32c-1.09,1.02-2.28,1.94-3.37,2.96c-0.24,0.23-0.22,0.73-0.34,1.09
	c-0.24-0.09-0.46-0.17-0.06-0.03C120.89,113.01,121.11,113.06,121.34,113.1z M77.9,61.78c-0.08,0.18-0.17,0.27-0.17,0.37
	c-0.1,5.94-0.26,11.88-0.71,17.81c-0.06,0.84,0.07,1.7,0.12,2.55c0.22,3.72,1,7.41,0.39,11.16c-0.08,0.51,0.03,1.06,0.06,1.59
	c0.13,2.13,0.44,4.26,0.37,6.38c-0.16,4.84,0.26,9.58,1.88,14.16c0.64,0.71,1.48,0.8,2.36,0.8c1.07,0.01,2.15-0.05,3.2,0.07
	c3.83,0.45,7.64,0.39,11.5,0.09c7.59-0.59,14.67-2.72,21.3-6.36c3.71-2.04,6.22-5.13,7.27-9.31c0.7-2.8,0.98-5.66,1.22-8.52
	c0.11-1.27,0.14-2.57,0.38-3.82c0.66-3.46,1.36-6.91,2.13-10.34c0.71-3.17,0.92-6.32,0.05-9.48c-0.86-3.09-1.17-6.27-1.66-9.42
	c-0.16-1,0.2-2.18-0.98-2.9c-0.15-0.09,0.01-0.76,0.1-1.14c0.1-0.46,0.75-0.86,0.01-1.5c-1.66,0.14-2.58,1.53-3.86,2.7
	c-4.82,0.59-9.8,1.19-14.78,1.79c-0.32,0.04-0.64,0.02-0.96,0.01c-3.63-0.05-7.26-0.12-10.89-0.15c-1.28-0.01-2.56,0.06-3.84,0.14
	c-0.75,0.05-1.48,0.12-1.77,1.06c-0.19,0.62-0.91,0.69-1.35,0.48c-1.28-0.62-2.49-0.25-3.74,0c-1.57,0.32-3.15,0.58-4.73,0.8
	C79.72,60.94,78.66,61.02,77.9,61.78z M102.22,43.84c0-1.29,0.06-2.53-0.03-3.76c-0.04-0.59-0.18-1.4-0.58-1.71
	c-1.83-1.41-3.96-2.06-6.28-1.72c-0.59,0.09-1.27,0.4-0.91,1.41c0.35,0.08,0.76,0.18,1.17,0.26c2.27,0.46,3.91,1.64,4.58,3.95
	c0.12,0.41,0.28,0.82,0.5,1.18C101.07,44.11,101.64,44.18,102.22,43.84z M121.22,53.47c0.89-0.75,1.6-1.34,2.45-2.05
	c-1.57-0.16-3.04-1.35-4.14,0.7C120,52.5,120.48,52.88,121.22,53.47z M127.13,49.58c-0.16-0.38-0.21-0.7-0.39-0.92
	c-0.72-0.88-1.58-1.03-2.38-0.32c-0.74,0.65-0.22,1.3,0.21,1.89c0.05,0.07,0.17,0.1,0.47,0.27
	C125.63,50.23,126.36,49.91,127.13,49.58z M118.66,45.73c-0.22,0.78-0.28,1.28-0.5,1.71c-0.24,0.49-0.61,0.91-1.19,1.74
	c1.68-0.34,2.39-1.16,3.31-2.09C119.71,46.6,119.29,46.25,118.66,45.73z M88.79,52.28c1.01-1.05,0.58-1.78-0.04-2.16
	c-0.81-0.51-1.61-0.23-2.21,0.82C87.26,51.37,87.96,51.79,88.79,52.28z M107.9,54.2c-2.1-1.67-2.1-1.67-3.45-0.32
	c0.42,0.29,0.79,0.65,1.23,0.82c0.36,0.14,0.81,0.14,1.2,0.08C107.15,54.74,107.39,54.5,107.9,54.2z M115.28,53.81
	c1.35,0.8,2.64,0.61,3.92,0.28c-0.02-0.71-0.33-1.14-0.95-1.03C117.25,53.25,116.27,53.55,115.28,53.81z M82.89,55.24
	c0.72-0.08,1.39-0.23,1.77-0.92c0.12-0.22,0.12-0.65-0.03-0.84c-0.12-0.16-0.62-0.25-0.78-0.13C83.3,53.76,82.63,54.16,82.89,55.24z
	 M107.68,46.97c-1.06-0.23-1.83-0.32-2.31,0.64C106.26,48.08,106.98,48.03,107.68,46.97z M92.93,48.69
	c-0.39,0.2-0.66,0.34-0.92,0.47c0.17,0.21,0.33,0.57,0.52,0.59c0.25,0.03,0.54-0.21,0.81-0.33C93.21,49.2,93.09,48.98,92.93,48.69z
	 M98.96,53.97c-0.16,0.12-0.32,0.23-0.47,0.35c0.16,0.21,0.29,0.54,0.5,0.6c0.25,0.07,0.58-0.07,0.85-0.17
	c0.03-0.01,0.02-0.42-0.08-0.49C99.53,54.11,99.24,54.06,98.96,53.97z M109.44,50.17c0.08-0.03,0.23-0.06,0.24-0.1
	c0.01-0.09-0.05-0.2-0.08-0.3c-0.07,0.06-0.17,0.11-0.21,0.19C109.37,50.01,109.42,50.1,109.44,50.17z M99.75,48.35l0.03-0.19
	l-0.24,0.07L99.75,48.35z"/>
<path d="M97.23,127.72c-0.16,0.08-0.32,0.17-0.48,0.25c-0.05-0.18-0.18-0.39-0.13-0.53c0.05-0.13,0.3-0.19,0.45-0.28
	C97.13,127.35,97.18,127.54,97.23,127.72z"/>
<path d="M142.03,151.07c-0.05-0.06-0.11-0.11-0.16-0.17c0.07-0.04,0.15-0.11,0.21-0.1c0.06,0.01,0.12,0.1,0.18,0.16
	C142.18,151,142.1,151.03,142.03,151.07z"/>
<polygon points="95.57,129.48 95.75,129.48 95.66,129.69 "/>
<path d="M92.48,128.92c-0.09-0.16-0.19-0.31-0.25-0.47c-0.01-0.03,0.14-0.12,0.21-0.19c0.09,0.15,0.19,0.3,0.24,0.47
	C92.7,128.76,92.55,128.85,92.48,128.92z"/>
<path d="M99,121.3c0.17-0.04,0.35-0.13,0.52-0.11c0.07,0.01,0.12,0.24,0.18,0.36c-0.09,0.02-0.21,0.08-0.25,0.04
	c-0.14-0.11-0.25-0.26-0.37-0.38C99.07,121.22,99,121.3,99,121.3z"/>
<polygon points="97.86,125.24 97.86,125.41 97.68,125.32 "/>
<path class="st0" d="M77.9,61.78c0.76-0.77,1.82-0.84,2.89-0.99c1.58-0.22,3.17-0.48,4.73-0.8c1.26-0.26,2.46-0.62,3.74,0
	c0.44,0.21,1.15,0.14,1.35-0.48c0.29-0.94,1.02-1.02,1.77-1.06c1.28-0.08,2.56-0.15,3.84-0.14c3.63,0.03,7.26,0.1,10.89,0.15
	c0.32,0,0.64,0.02,0.96-0.01c4.98-0.6,9.96-1.21,14.78-1.79c1.28-1.18,2.2-2.56,3.86-2.7c0.75,0.64,0.1,1.04-0.01,1.5
	c-0.09,0.38-0.25,1.05-0.1,1.14c1.17,0.71,0.82,1.9,0.98,2.9c0.49,3.15,0.8,6.33,1.66,9.42c0.88,3.16,0.66,6.31-0.05,9.48
	c-0.77,3.43-1.47,6.88-2.13,10.34c-0.24,1.25-0.27,2.54-0.38,3.82c-0.24,2.86-0.52,5.73-1.22,8.52c-1.05,4.18-3.56,7.27-7.27,9.31
	c-6.63,3.64-13.71,5.77-21.3,6.36c-3.86,0.3-7.67,0.36-11.5-0.09c-1.06-0.12-2.13-0.06-3.2-0.07c-0.87-0.01-1.71-0.1-2.36-0.8
	c-1.63-4.58-2.04-9.31-1.88-14.16c0.07-2.12-0.23-4.25-0.37-6.38c-0.03-0.53-0.15-1.08-0.06-1.59c0.61-3.75-0.17-7.44-0.39-11.16
	c-0.05-0.85-0.18-1.71-0.12-2.55c0.44-5.93,0.6-11.87,0.71-17.81C77.73,62.05,77.82,61.96,77.9,61.78z M95.73,59.89
	c-1.46-0.9-1.46-0.9-2.97,0.09c0.88,0.17,1.57,0.36,2.27,0.41c0.2,0.01,0.42-0.36,0.65-0.54c0.78,0.22,1.55,0.58,2.36,0.1
	C97.23,59.32,97.23,59.31,95.73,59.89z M97.92,106.5c0.58-0.18,1.36-0.18,1.71-0.57c0.83-0.93,1.82-1.42,2.95-1.81
	c0.59-0.21,1.18-0.52,1.68-0.9c2.3-1.75,2.15-4.85-0.32-6.4c-1.47-0.92-2.99-1.57-4.84-1.06c-0.89,0.24-1.9,0.06-2.85,0.08
	c-0.42,0.01-0.85-0.01-1.26,0.06c-0.78,0.13-1.26,1.13-0.78,1.73c0.38,0.46,0.93,0.97,1.48,1.07c1.04,0.19,2.12,0.12,3.19,0.13
	c0.85,0.01,1.7-0.07,2.55-0.03c0.55,0.03,1.12,0.27,1.11,0.9c0,0.36-0.25,0.88-0.55,1.05c-1.01,0.58-2.11,1-3.15,1.53
	c-2.1,1.07-2.16,1.61-0.45,3.43c0.12,0.13,0.17,0.34,0.25,0.51c-0.24,0.09-0.47,0.19-0.68,0.29c0.35,1.25-0.95,1.5-1.43,2.27
	c0.36,0.03,0.69,0.14,0.98,0.07c1.08-0.29,1.26-0.74,0.76-1.82C98.19,106.83,98.04,106.67,97.92,106.5z M102.43,91.53
	c1.36-0.26,2.16,0.27,2.7,1.34c0.75,1.5,2.09,1.82,3.53,1.31c2.3-0.82,4.65-1.62,6.76-2.81c1.99-1.12,2.8-3.36,3.77-5.35
	c0.13-0.27,0.19-0.67,0.09-0.94c-0.6-1.62-0.09-3.12,0.33-4.66c0.16-0.6,0.16-1.25,0.21-1.88c0.16-1.92-0.42-3.72-0.86-5.56
	c-0.39-1.66-1.09-2.96-2.78-3.94c-0.76,0-1.72,0.06-2.67-0.01c-2.86-0.22-5.42,0.54-7.85,2.05c-1.04,0.65-1.6,1.34-1.28,2.58
	c0.11,0.41,0.25,0.83,0.22,1.24c-0.09,1.26-0.2,2.52-0.41,3.76c-0.21,1.24,0.35,2.67-0.54,3.72c-1.03,1.21,0.29,2.41-0.2,3.57
	c-0.12,0.29-0.19,0.62-0.38,0.85c-0.36,0.43-0.5,0.84-0.46,1.44C102.66,89.17,102.52,90.11,102.43,91.53z M96.65,74.82
	c-0.2-0.79-0.24-1.47-0.54-2c-0.68-1.24-1.05-2.46-1.1-3.92c-0.06-1.7-1.52-2.83-3.22-3.03c-2.57-0.3-4.54,0.66-6.07,2.76
	c-1.06,1.46-1.2,3.44-2.69,4.65c-0.15,0.12-0.01,0.58-0.02,0.87c-0.03,0.63,0.09,1.34-0.14,1.89c-0.56,1.33-0.48,2.71-0.64,4.09
	c-0.49,4.02,0.99,7.56,2.68,11c0.97,1.97,2.95,2.42,4.95,1.45c2.2-1.07,3.95-2.56,4.35-5.17c0.24-1.58,0.74-3.18,0.63-4.74
	c-0.13-1.9,0.33-3.55,1.03-5.24C96.24,76.57,96.42,75.62,96.65,74.82z M113.15,101.23c-1,0.49-1.33,1.56-1.91,2.42
	c-0.29,0.43-0.64,1.12-1,1.15c-1.52,0.13-2.14,1.3-2.97,2.24c-1.88,2.14-4.16,3.67-6.87,4.54c-1.83,0.58-3.68,1.12-5.54,1.55
	c-0.55,0.12-1.26-0.11-1.79-0.39c-0.65-0.34-1.15-0.96-1.78-1.36c-1.54-0.99-2.41-2.38-2.77-4.14c-0.13-0.62-0.21-1.32-0.55-1.81
	c-0.25-0.35-0.89-0.58-1.36-0.59c-0.55-0.01-1.04,0.45-0.99,1.05c0.19,2.38,0.81,4.68,2.4,6.48c1.12,1.26,2.56,2.26,3.95,3.26
	c1.27,0.92,2.68,1.27,4.24,0.56c0.67-0.31,1.42-0.48,2.16-0.62c4.83-0.89,8.97-3.4,13.2-5.68c0.36-0.19,0.68-0.53,0.92-0.86
	c0.49-0.66,0.35-1.56-0.34-2.28c-0.26-0.27-0.61-0.47-1.1-0.83c0.78-0.73,1.44-1.26,1.99-1.89c0.4-0.47,0.74-1.04,0.93-1.63
	C114.12,101.86,113.87,101.36,113.15,101.23z M106.6,60.06c0.38,0.08,0.76,0.21,1.15,0.23c2.31,0.13,4.62-0.2,6.93,0.17
	c0.11,0.02,0.26-0.25,0.39-0.39C113.47,59.12,111.1,58.99,106.6,60.06z M103.09,106.73c0.23-0.35,0.47-0.72,0.71-1.09
	c-0.15-0.1-0.42-0.31-0.45-0.28c-0.33,0.32-0.62,0.67-0.92,1.02C102.6,106.47,102.76,106.55,103.09,106.73z M93.77,111.71
	c0.14-0.23,0.28-0.45,0.41-0.68c-0.17-0.1-0.41-0.32-0.49-0.27c-0.21,0.14-0.36,0.38-0.53,0.58
	C93.33,111.45,93.5,111.55,93.77,111.71z M104.67,59.66c-0.37-0.05-0.64-0.1-0.91-0.1c-0.06,0-0.13,0.15-0.2,0.23
	c0.23,0.13,0.45,0.29,0.7,0.35C104.32,60.16,104.46,59.9,104.67,59.66z M122.92,60.74c-0.09,0-0.17,0-0.26,0
	c0.05,0.12,0.11,0.25,0.16,0.37c0.07-0.05,0.19-0.09,0.2-0.14C123.04,60.9,122.96,60.81,122.92,60.74z M107.65,62.82
	c0.13,0.11,0.26,0.23,0.4,0.32c0.01,0.01,0.12-0.13,0.19-0.2c-0.14-0.12-0.27-0.25-0.41-0.37
	C107.77,62.65,107.71,62.74,107.65,62.82z M89.72,101.77l0.23,0.03l-0.08-0.26L89.72,101.77z M88.86,94.22
	c-0.06-0.07-0.13-0.14-0.19-0.21c-0.09,0.14-0.19,0.28-0.26,0.44c-0.01,0.03,0.12,0.13,0.19,0.2C88.69,94.5,88.77,94.36,88.86,94.22
	z M80.37,65.74c-0.04-0.07-0.09-0.15-0.13-0.22c-0.01,0.14-0.02,0.28-0.02,0.42C80.27,65.88,80.32,65.81,80.37,65.74z M115.72,63.64
	c-0.06-0.06-0.12-0.17-0.18-0.17c-0.06,0-0.13,0.1-0.19,0.16c0.1,0.08,0.19,0.16,0.29,0.24C115.67,63.8,115.7,63.72,115.72,63.64z
	 M119.95,60.46c-0.06-0.07-0.14-0.21-0.18-0.2c-0.16,0.04-0.31,0.12-0.47,0.19c0.06,0.07,0.13,0.22,0.17,0.21
	C119.63,60.62,119.79,60.53,119.95,60.46z M116.83,59.92c-0.08,0.16-0.17,0.31-0.22,0.48c-0.01,0.03,0.14,0.11,0.22,0.17
	c0.07-0.15,0.16-0.3,0.21-0.46C117.03,60.06,116.9,59.98,116.83,59.92z M100.3,60c-0.02-0.08-0.04-0.17-0.06-0.25
	c-0.05,0.1-0.1,0.21-0.16,0.31C100.15,60.04,100.23,60.02,100.3,60z M100.97,107.71c-0.05-0.07-0.09-0.14-0.14-0.21
	c-0.06,0.06-0.19,0.15-0.18,0.16c0.06,0.1,0.15,0.18,0.22,0.27C100.9,107.86,100.93,107.78,100.97,107.71z M91.64,107.82
	c-0.08,0.02-0.17,0.05-0.25,0.07c0.11,0.04,0.22,0.09,0.32,0.13C91.69,107.95,91.67,107.89,91.64,107.82z"/>
<path class="st1" d="M102.22,43.84c-0.58,0.34-1.15,0.27-1.55-0.4c-0.22-0.36-0.38-0.77-0.5-1.18c-0.68-2.31-2.32-3.49-4.58-3.95
	c-0.41-0.08-0.82-0.18-1.17-0.26c-0.36-1.01,0.31-1.32,0.91-1.41c2.32-0.34,4.45,0.31,6.28,1.72c0.4,0.31,0.54,1.12,0.58,1.71
	C102.28,41.3,102.22,42.55,102.22,43.84z"/>
<path class="st1" d="M121.22,53.47c-0.74-0.59-1.21-0.97-1.69-1.35c1.1-2.05,2.57-0.85,4.14-0.7
	C122.82,52.13,122.11,52.72,121.22,53.47z"/>
<path class="st1" d="M127.13,49.58c-0.77,0.33-1.5,0.65-2.1,0.91c-0.3-0.16-0.42-0.19-0.47-0.27c-0.42-0.59-0.95-1.23-0.21-1.89
	c0.8-0.7,1.66-0.56,2.38,0.32C126.92,48.88,126.98,49.2,127.13,49.58z"/>
<path class="st1" d="M118.66,45.73c0.63,0.52,1.05,0.87,1.63,1.35c-0.92,0.93-1.63,1.75-3.31,2.09c0.58-0.83,0.95-1.25,1.19-1.74
	C118.38,47.01,118.44,46.51,118.66,45.73z"/>
<path class="st1" d="M88.79,52.28c-0.83-0.49-1.53-0.91-2.25-1.34c0.6-1.05,1.4-1.33,2.21-0.82C89.37,50.51,89.8,51.23,88.79,52.28z
	"/>
<path class="st1" d="M107.9,54.2c-0.51,0.3-0.76,0.54-1.03,0.58c-0.39,0.06-0.84,0.07-1.2-0.08c-0.44-0.18-0.8-0.53-1.23-0.82
	C105.8,52.53,105.8,52.53,107.9,54.2z"/>
<path class="st1" d="M115.28,53.81c0.99-0.26,1.97-0.56,2.97-0.75c0.62-0.11,0.93,0.31,0.95,1.03
	C117.93,54.42,116.63,54.61,115.28,53.81z"/>
<path class="st1" d="M82.89,55.24c-0.26-1.08,0.41-1.48,0.97-1.89c0.16-0.12,0.66-0.03,0.78,0.13c0.14,0.19,0.15,0.62,0.03,0.84
	C84.28,55.01,83.61,55.16,82.89,55.24z"/>
<path class="st1" d="M107.68,46.97c-0.7,1.06-1.42,1.1-2.31,0.64C105.85,46.65,106.62,46.74,107.68,46.97z"/>
<path class="st1" d="M92.93,48.69c0.16,0.29,0.29,0.51,0.41,0.73c-0.27,0.12-0.55,0.36-0.81,0.33c-0.19-0.02-0.35-0.38-0.52-0.59
	C92.27,49.03,92.53,48.89,92.93,48.69z"/>
<path class="st1" d="M98.96,53.97c0.27,0.09,0.57,0.15,0.8,0.3c0.1,0.06,0.11,0.47,0.08,0.49c-0.27,0.1-0.6,0.24-0.85,0.17
	c-0.21-0.06-0.34-0.39-0.5-0.6C98.65,54.2,98.81,54.08,98.96,53.97z"/>
<path class="st1" d="M109.44,50.17c-0.02-0.07-0.07-0.16-0.04-0.22c0.04-0.08,0.14-0.13,0.21-0.19c0.03,0.1,0.09,0.21,0.08,0.3
	C109.67,50.12,109.52,50.14,109.44,50.17z"/>
<polygon class="st1" points="99.75,48.35 99.54,48.22 99.78,48.16 "/>
<path class="st1" d="M121.34,113.1c-0.23-0.04-0.46-0.08-0.03,0c-0.4-0.14-0.18-0.06,0.06,0.03
	C121.39,113.14,121.34,113.1,121.34,113.1z"/>
<path d="M102.43,91.53c0.09-1.42,0.23-2.36,0.17-3.29c-0.04-0.59,0.1-1.01,0.46-1.44c0.19-0.23,0.26-0.57,0.38-0.85
	c0.49-1.15-0.83-2.35,0.2-3.57c0.89-1.05,0.33-2.48,0.54-3.72c0.21-1.24,0.32-2.5,0.41-3.76c0.03-0.41-0.12-0.83-0.22-1.24
	c-0.32-1.24,0.24-1.93,1.28-2.58c2.42-1.5,4.99-2.27,7.85-2.05c0.95,0.07,1.91,0.01,2.67,0.01c1.69,0.98,2.39,2.29,2.78,3.94
	c0.44,1.84,1.01,3.64,0.86,5.56c-0.05,0.63-0.05,1.28-0.21,1.88c-0.42,1.54-0.93,3.04-0.33,4.66c0.1,0.27,0.04,0.67-0.09,0.94
	c-0.96,1.99-1.77,4.24-3.77,5.35c-2.11,1.19-4.46,1.98-6.76,2.81c-1.44,0.52-2.78,0.19-3.53-1.31
	C104.59,91.8,103.79,91.27,102.43,91.53z M105.54,87.75c0.86,1.49,1.06,2.76,2.02,3.75c0.78-0.27,1.47-0.5,2.15-0.75
	c0.59-0.22,1.18-0.46,1.75-0.72c0.61-0.27,1.21-0.57,1.81-0.86c-0.98-0.08-1.84,0-2.73-0.48c-1-0.55-2.1-0.96-3.2-1.29
	C106.96,87.28,106.44,87.56,105.54,87.75z"/>
<path d="M96.65,74.82c-0.23,0.8-0.42,1.75-0.78,2.62c-0.7,1.68-1.16,3.33-1.03,5.24c0.1,1.56-0.39,3.16-0.63,4.74
	c-0.4,2.6-2.15,4.1-4.35,5.17c-2,0.97-3.98,0.52-4.95-1.45c-1.7-3.44-3.17-6.98-2.68-11c0.17-1.37,0.08-2.76,0.64-4.09
	c0.23-0.55,0.11-1.25,0.14-1.89c0.01-0.3-0.12-0.75,0.02-0.87c1.49-1.21,1.63-3.19,2.69-4.65c1.53-2.1,3.49-3.06,6.07-2.76
	c1.7,0.2,3.16,1.33,3.22,3.03c0.05,1.46,0.42,2.69,1.1,3.92C96.41,73.35,96.45,74.03,96.65,74.82z M86.15,85.58
	c0.3,1.07,0.52,2.18,0.95,3.2c0.14,0.34,1,0.73,1.25,0.59c0.79-0.45,1.52-1.07,2.14-1.75c0.38-0.41,0.77-1.03,0.24-1.64
	C89.19,85.86,87.67,85.72,86.15,85.58z"/>
<path d="M113.15,101.23c0.72,0.13,0.97,0.63,0.8,1.17c-0.19,0.58-0.53,1.16-0.93,1.63c-0.54,0.63-1.2,1.16-1.99,1.89
	c0.49,0.36,0.83,0.56,1.1,0.83c0.69,0.72,0.84,1.61,0.34,2.28c-0.25,0.33-0.56,0.67-0.92,0.86c-4.23,2.28-8.37,4.79-13.2,5.68
	c-0.73,0.14-1.48,0.31-2.16,0.62c-1.56,0.71-2.97,0.36-4.24-0.56c-1.38-1-2.83-1.99-3.95-3.26c-1.59-1.8-2.21-4.1-2.4-6.48
	c-0.05-0.61,0.43-1.06,0.99-1.05c0.47,0.01,1.12,0.23,1.36,0.59c0.34,0.49,0.42,1.19,0.55,1.81c0.36,1.77,1.24,3.16,2.77,4.14
	c0.63,0.4,1.13,1.02,1.78,1.36c0.53,0.28,1.24,0.51,1.79,0.39c1.87-0.42,3.72-0.96,5.54-1.55c2.71-0.86,4.99-2.4,6.87-4.54
	c0.83-0.94,1.45-2.11,2.97-2.24c0.37-0.03,0.71-0.72,1-1.15C111.82,102.79,112.15,101.72,113.15,101.23z"/>
<path d="M97.95,106.5c0.24-0.09,0.47-0.19,0.71-0.28c-0.08-0.17-0.13-0.38-0.25-0.51c-1.72-1.82-1.66-2.36,0.45-3.43
	c1.04-0.53,2.14-0.96,3.15-1.53c0.3-0.17,0.55-0.69,0.55-1.05c0-0.64-0.57-0.88-1.11-0.9c-0.85-0.04-1.7,0.04-2.55,0.03
	c-1.07-0.01-2.15,0.06-3.19-0.13c-0.55-0.1-1.1-0.61-1.48-1.07c-0.49-0.59,0-1.6,0.78-1.73c0.41-0.07,0.84-0.05,1.26-0.06
	c0.95-0.02,1.96,0.16,2.85-0.08c1.85-0.5,3.37,0.15,4.84,1.06c2.47,1.55,2.63,4.65,0.32,6.4c-0.5,0.38-1.09,0.69-1.68,0.9
	c-1.13,0.39-2.13,0.88-2.95,1.81c-0.34,0.39-1.12,0.39-1.71,0.57L97.95,106.5z"/>
<path d="M106.6,60.06c4.5-1.07,6.87-0.94,8.47,0.01c-0.13,0.14-0.28,0.41-0.39,0.39c-2.3-0.37-4.62-0.03-6.93-0.17
	C107.37,60.28,106.99,60.15,106.6,60.06z"/>
<path d="M97.92,106.5c0.12,0.17,0.27,0.33,0.36,0.52c0.5,1.08,0.32,1.53-0.76,1.82c-0.29,0.08-0.62-0.04-0.98-0.07
	c0.49-0.77,1.78-1.02,1.42-2.28C97.95,106.5,97.92,106.5,97.92,106.5z"/>
<path d="M95.67,59.84c-0.21,0.2-0.44,0.57-0.63,0.55c-0.7-0.05-1.39-0.24-2.27-0.41c1.51-0.99,1.51-0.99,2.97-0.09L95.67,59.84z"/>
<path d="M103.09,106.73c-0.33-0.18-0.49-0.27-0.66-0.35c0.3-0.35,0.59-0.7,0.92-1.02c0.03-0.03,0.29,0.18,0.45,0.28
	C103.57,106.01,103.33,106.38,103.09,106.73z"/>
<path d="M93.77,111.71c-0.27-0.16-0.44-0.26-0.6-0.36c0.17-0.2,0.32-0.45,0.53-0.58c0.07-0.05,0.32,0.17,0.49,0.27
	C94.04,111.26,93.9,111.49,93.77,111.71z"/>
<path d="M95.73,59.89c1.49-0.58,1.49-0.57,2.32,0.06c-0.82,0.48-1.59,0.12-2.37-0.11C95.67,59.84,95.73,59.89,95.73,59.89z"/>
<path d="M104.67,59.66c-0.2,0.24-0.35,0.5-0.42,0.48c-0.25-0.07-0.47-0.23-0.7-0.35c0.07-0.08,0.13-0.23,0.2-0.23
	C104.03,59.56,104.3,59.62,104.67,59.66z"/>
<path d="M122.92,60.74c0.03,0.07,0.11,0.16,0.1,0.23c-0.01,0.06-0.13,0.1-0.2,0.14c-0.05-0.12-0.11-0.25-0.16-0.37
	C122.75,60.74,122.84,60.74,122.92,60.74z"/>
<path d="M107.65,62.82c0.06-0.08,0.12-0.17,0.18-0.25c0.14,0.12,0.27,0.25,0.41,0.37c-0.06,0.07-0.17,0.21-0.19,0.2
	C107.91,63.05,107.78,62.93,107.65,62.82z"/>
<polygon points="89.72,101.77 89.87,101.54 89.95,101.8 "/>
<path d="M88.86,94.22c-0.09,0.14-0.17,0.28-0.26,0.42c-0.07-0.07-0.2-0.16-0.19-0.2c0.06-0.15,0.17-0.29,0.26-0.44
	C88.73,94.08,88.79,94.15,88.86,94.22z"/>
<path d="M80.37,65.74c-0.05,0.07-0.1,0.14-0.15,0.2c0.01-0.14,0.02-0.28,0.02-0.42C80.28,65.6,80.32,65.67,80.37,65.74z"/>
<path d="M115.72,63.64c-0.03,0.08-0.05,0.15-0.08,0.23c-0.1-0.08-0.19-0.16-0.29-0.24c0.06-0.06,0.13-0.16,0.19-0.16
	C115.6,63.47,115.66,63.58,115.72,63.64z"/>
<path d="M119.95,60.46c-0.16,0.07-0.31,0.16-0.48,0.2c-0.04,0.01-0.11-0.13-0.17-0.21c0.16-0.07,0.31-0.15,0.47-0.19
	C119.81,60.25,119.89,60.39,119.95,60.46z"/>
<path d="M116.83,59.92c0.07,0.06,0.21,0.15,0.2,0.19c-0.04,0.16-0.13,0.31-0.21,0.46c-0.08-0.06-0.23-0.14-0.22-0.17
	C116.66,60.23,116.75,60.08,116.83,59.92z"/>
<path d="M100.3,60c-0.07,0.02-0.14,0.04-0.21,0.06c0.05-0.1,0.1-0.21,0.16-0.31C100.26,59.84,100.28,59.92,100.3,60z"/>
<path d="M100.97,107.71c-0.03,0.07-0.06,0.15-0.09,0.22c-0.08-0.09-0.16-0.17-0.22-0.27c-0.01-0.01,0.12-0.1,0.18-0.16
	C100.87,107.57,100.92,107.64,100.97,107.71z"/>
<path d="M91.64,107.82c0.02,0.07,0.05,0.13,0.07,0.2c-0.11-0.04-0.22-0.09-0.32-0.13C91.48,107.87,91.56,107.84,91.64,107.82z"/>
<path class="st1" d="M105.54,87.75c0.9-0.19,1.42-0.47,1.81-0.35c1.1,0.33,2.2,0.74,3.2,1.29c0.88,0.48,1.75,0.4,2.73,0.48
	c-0.6,0.29-1.2,0.59-1.81,0.86c-0.58,0.26-1.16,0.5-1.75,0.72c-0.68,0.26-1.37,0.48-2.15,0.75
	C106.61,90.51,106.41,89.24,105.54,87.75z"/>
<path class="st1" d="M86.15,85.58c1.51,0.14,3.03,0.27,4.59,0.41c0.53,0.61,0.14,1.22-0.24,1.64c-0.62,0.68-1.35,1.3-2.14,1.75
	c-0.25,0.14-1.11-0.26-1.25-0.59C86.67,87.77,86.45,86.66,86.15,85.58z"/>
</svg>
