<?xml version="1.0" encoding="utf-8"?>
<!-- Generator: Adobe Illustrator 25.2.3, SVG Export Plug-In . SVG Version: 6.00 Build 0)  -->
<svg version="1.1" id="Layer_1" xmlns="http://www.w3.org/2000/svg" xmlns:xlink="http://www.w3.org/1999/xlink" x="0px" y="0px"
	 viewBox="0 0 200 200" style="enable-background:new 0 0 200 200;" xml:space="preserve">
<style type="text/css">
	.st0{fill:#A97C50;}
	.st1{fill:#FFFFFF;}
	.st2{fill:#603913;}
</style>
<path d="M83.92,129.81c-1.12,0.05-5.33-0.02-7.89-0.8c-0.03-0.65-0.16-1.17-0.05-1.64c0.27-1.23,0.74-1.61,1.92-1.53
	c1.32,0.09,2.63,0.3,4.08,0.48c1.24-4.08,1.51-8.13,1.63-12.27c-0.76-0.64-1.46-1.23-2.15-1.83c-1.91-1.65-3.28-3.67-4-6.1
	c-0.67-2.26-1.26-4.55-1.92-6.82c-0.71-2.46-1.57-4.89-2.16-7.37c-0.35-1.46-0.75-2.91-0.82-4.49c-0.13-2.93-0.76-5.85-1.18-8.74
	c-2.91-0.92-5.67,0.08-8.41-0.15c-2.65-0.22-5.33-0.05-7.88-0.05c-0.42,0.58-0.65,1.26-1.11,1.49c-0.8,0.39-1.74-0.01-2.28-0.55
	c-1.21-1.23-2.35-2.56-3.31-3.99c-0.78-1.15-0.44-2.13,0.9-2.7c0.73-0.31,1.19-0.74,1.61-1.32c1.49-2.08,3.73-1.89,5.87-1.89
	c0.8,0,1.55,0.96,1.65,1.99c0.09,0.9,0.02,1.82,0.02,2.88c4.24,0.69,8.37,1.02,12.74,0.03c0.5-3.08,0.01-6.19,0.43-9.22
	c0.41-2.94,0.85-5.88,1.31-8.98c-0.28-0.31-0.61-0.68-0.95-1.05c-0.62-0.68-0.75-1.45-0.4-2.29c1.01-2.45,1.99-4.83,3.79-6.96
	c2.14-2.53,4.26-4.99,6.92-6.96c0.66-0.49,1.33-0.96,2.05-1.36c3.22-1.8,6.47-3.56,9.69-5.35c0.16-0.09,0.26-0.3,0.53-0.64
	c-0.54-0.27-1.02-0.55-1.54-0.76c-0.75-0.31-1.71-0.38-2.24-0.9c-0.87-0.85-1.87-0.6-3.01-0.7c0.22-3.15-0.14-6.29,2.16-8.95
	c1.21-1.4,2.41-2.1,4.27-1.5c1.95,0.63,3.95,1.11,5.93,1.68c2.61,0.76,4.19,2.49,4.79,5.12c0.27,1.19,0.5,2.38,0.74,3.53
	c1.66,0.49,3.28,1.06,4.94,1.44c1.77,0.4,3.21,1.41,4.59,2.45c1.38,1.04,2.45,2.5,3.81,3.56c1.43,1.12,1.1,3.38,2.87,4.18
	c0.84-0.03,1.22-1.32,2.18-0.76c1.02,0.6,1.24,1.63,1.1,2.68c-0.16,1.21-0.46,2.41-0.73,3.61c-0.34,1.5-0.7,2.99-1.07,4.48
	c-0.31,1.27-0.87,2.31-2.36,2.52c-0.38,0.05-0.73,0.32-1.24,0.56c0.38,2.14,0.59,4.28,1.15,6.33c1.02,3.72,1.39,7.45,0.85,11.27
	c-0.01,0.07,0.1,0.16,0.23,0.37c1.18-0.53,2.35-1.13,3.58-1.6c0.86-0.33,1.76-0.57,2.67-0.74c1.78-0.32,3.27-1.12,4.47-2.48
	c0.47-0.54,1.01-1.03,1.56-1.5c1.02-0.88,2.05-0.87,3,0.08c0.43,0.43,0.7,1,1.03,1.47c-0.61,2.63-1.29,5.17-2.95,7.32
	c-2.65,0.81-2.65,0.81-4.92-1.23c-4.13,0.2-7.5,2.19-10.44,5.06c-0.34,0.33-0.47,0.88-0.68,1.34c-1.04,2.34-2.07,4.69-3.11,7.03
	c-0.5,1.12-1.17,2.2-1.51,3.37c-1.24,4.15-3.76,7.48-6.55,10.65c-2.03,2.31-4.12,4.57-6.17,6.85c0.63,3.97-0.19,7.81-0.94,11.61
	c-0.32,1.64-0.49,3.23-0.35,5.04c1.58,1.1,3.51,1.36,5.4,1.71c0.5,0.09,1.03,0.04,1.54,0.08c1.43,0.11,1.96,0.46,2.09,1.36
	c0.21,1.45-0.24,2.07-1.88,2.6c-0.09,0.03-2.81-0.61-2.93-0.6c-2.9-0.68-3.18-0.74-6.06-1.45c-1.43-0.35-1.91-0.99-1.91-2.34
	c0-0.2,0.04-0.41,0.07-0.61c0.44-3.14,0.89-6.28,1.33-9.42c0.15-1.08,0.5-2.16,0.01-3.51c-0.63,0.42-1.12,0.73-1.58,1.07
	c-2.46,1.82-4.99,3.27-8.21,1.96c-0.34-0.14-0.78-0.02-1.21-0.02c-0.14,0.52-0.33,0.91-0.35,1.3c-0.15,4.52-0.66,9-1.41,13.45
	 M13.75,161.27 M195.95,177.04 M77.18,54.98c-0.33,1.5-0.56,2.59-0.81,3.68c-0.39,1.68-0.85,3.36-1.2,5.05
	c-1.02,4.98-0.86,10.01-0.34,15.01c0.26,2.53,0.85,5.03,1.09,7.59c0.52,5.54,2.18,10.85,3.71,16.17c0.28,0.98,0.6,1.96,0.97,2.92
	c0.8,2.08,2.08,3.91,4.14,4.71c2.26,0.88,4.71,1.3,6.66,1.81c3.56-1.24,5.7-3.55,7.7-6.08c1.84-2.33,3.73-4.64,5.74-6.84
	c2.92-3.21,5.55-6.57,6.82-10.82c0.23-0.78,0.7-1.48,1.03-2.23c1.08-2.43,2.21-4.85,3.21-7.31c0.53-1.32,0.91-2.72,1.23-4.11
	c0.62-2.73,0.49-5.52,0.3-8.27c-0.12-1.75-0.12-3.46-0.03-5.21c0.13-2.65-0.23-5.27-1.47-7.73c-0.94-0.1-1.75-0.27-2.56-0.25
	c-2.97,0.07-5.95,0.06-8.91,0.34c-7.46,0.7-14.9,1.74-22.43,1.04c-0.71-0.07-1.44-0.04-2.15,0.05
	C78.98,54.6,78.09,54.81,77.18,54.98z M90.43,24.75c0.63,1.18,1.23,2.21,2.47,2.71c1.04,0.41,2.04,0.96,3.11,1.28
	c1.66,0.5,3.35,0.89,5.05,1.23c0.24,0.05,0.76-0.38,0.84-0.68c0.12-0.45,0.11-1.04-0.1-1.44c-1.8-3.37-1.81-3.36-5.5-4.71
	c-0.67-0.25-1.32-0.6-2.01-0.74c-0.77-0.16-1.57-0.13-2.38-0.19C91.36,23.14,90.9,23.92,90.43,24.75z M85.72,43.54
	c-0.72-1.27-1.16-1.51-1.76-0.96c-0.71,0.65-1.37,1.36-2.19,2.19C83.69,45.48,84.64,44.35,85.72,43.54z M94.51,41.27
	c-1.71,0.35-2.56,0.9-3.2,2.24C93,43.59,93.48,42.54,94.51,41.27z M87.63,39.71c0.6,0.33,1,0.72,1.22,0.64
	c0.81-0.28,1.75-0.57,1.49-2C89.47,38.79,88.71,39.17,87.63,39.71z M102.39,43.9c1.8,0.55,1.89,0.47,1.95-1.2
	C103.79,43.04,103.28,43.35,102.39,43.9z M98.58,48.36c-0.05-0.8-0.42-1.04-0.99-0.92c-0.64,0.14-1.04,0.5-0.8,1.43
	C97.4,48.7,98.01,48.53,98.58,48.36z M107.23,38.02c0.28-0.15,0.64-0.32,0.96-0.54c0.13-0.09,0.27-0.38,0.22-0.44
	c-0.16-0.21-0.42-0.52-0.61-0.5c-0.37,0.04-0.77,0.22-1.06,0.46c-0.15,0.12-0.15,0.5-0.1,0.75
	C106.66,37.84,106.95,37.9,107.23,38.02z M108.66,46.58c-0.02-0.13-0.05-0.26-0.07-0.39c-0.48,0.05-0.96,0.07-1.43,0.16
	c-0.14,0.03-0.23,0.28-0.34,0.42c0.17,0.05,0.35,0.17,0.51,0.14C107.77,46.84,108.21,46.7,108.66,46.58z M120.32,46.82
	c-0.46,0.73-0.59,1.31-0.01,1.99C120.79,48.12,121.08,47.54,120.32,46.82z M115.1,38.34c0.05-0.13,0.11-0.26,0.13-0.4
	c0.01-0.03-0.16-0.14-0.2-0.12c-0.12,0.06-0.22,0.17-0.33,0.26C114.83,38.16,114.96,38.25,115.1,38.34z M77.73,50.54
	c-0.11-0.13-0.2-0.27-0.33-0.39c-0.02-0.02-0.15,0.09-0.23,0.13c0.11,0.13,0.21,0.27,0.33,0.39C77.53,50.69,77.65,50.59,77.73,50.54
	z M110.69,40.92c-0.05-0.16-0.09-0.32-0.14-0.48c-0.09,0.03-0.23,0.04-0.26,0.1c-0.07,0.14-0.08,0.3-0.12,0.45
	C110.34,40.97,110.52,40.95,110.69,40.92z M104.53,34.69l0.24,0.14l0.04-0.2L104.53,34.69z M112.44,43.47l-0.1,0.17l0.16,0.02
	L112.44,43.47z M87.41,46.55l0.26-0.11l-0.26-0.09L87.41,46.55z"/>
<path class="st0" d="M77.18,54.98c0.91-0.17,1.8-0.38,2.7-0.49c0.71-0.08,1.44-0.11,2.15-0.05c7.53,0.7,14.97-0.34,22.43-1.04
	c2.95-0.28,5.94-0.27,8.91-0.34c0.81-0.02,1.62,0.16,2.56,0.25c1.24,2.46,1.6,5.07,1.47,7.73c-0.09,1.75-0.09,3.46,0.03,5.21
	c0.19,2.76,0.32,5.54-0.3,8.27c-0.31,1.39-0.69,2.79-1.23,4.11c-1,2.47-2.13,4.88-3.21,7.31c-0.33,0.75-0.8,1.45-1.03,2.23
	c-1.27,4.25-3.9,7.61-6.82,10.82c-2,2.2-3.89,4.5-5.74,6.84c-2,2.53-4.14,4.83-7.7,6.08c-1.96-0.51-4.4-0.93-6.66-1.81
	c-2.07-0.8-3.34-2.63-4.14-4.71c-0.37-0.96-0.68-1.93-0.97-2.92c-1.53-5.32-3.19-10.63-3.71-16.17c-0.24-2.56-0.83-5.05-1.09-7.59
	c-0.51-5.01-0.68-10.03,0.34-15.01c0.35-1.69,0.81-3.37,1.2-5.05C76.62,57.57,76.85,56.48,77.18,54.98z M96.72,69.67
	c0.16,1.75,0.31,3.49,0.48,5.22c0.3,3.04,2.71,4.77,5.61,3.95c0.77-0.22,1.48-0.67,2.22-1c2.19-0.99,3.7-2.89,5.65-4.2
	c0.32-0.22,0.58-0.59,0.77-0.94c1.2-2.22,1.67-4.64,1.4-7.11c-0.24-2.24-1.38-4.08-3.57-5c-1.66-0.7-2.97-1.73-3.96-3.25
	c-0.37-0.57-0.99-1.04-1.6-1.39c-0.4-0.23-1.01-0.33-1.45-0.2c-2.67,0.8-4.37,2.6-4.74,5.38C97.15,63.97,96.98,66.83,96.72,69.67z
	 M92.01,64.19c-0.13-2.34-0.22-4.69-0.42-7.02c-0.11-1.3-1.07-1.99-2.36-1.81c-1.95,0.27-3.77,0.84-5.25,2.26
	c-2.47,2.37-4.49,5.01-5.18,8.46c-0.71,3.56-1.06,7.06,0.73,10.48c0.95,1.81,1.77,2.53,3.79,2.37c1.85-0.14,3.77-0.47,5.08-1.87
	c1.23-1.32,2.57-2.85,2.67-4.7C91.21,69.61,92.23,66.97,92.01,64.19z M80.66,95.6c-0.1,2.63,0.48,5.17,1.92,7.31
	c1.74,2.57,4.39,4.47,8.53,3.06c2.06-0.7,3.93-1.73,5.58-3.18c2.08-1.83,4.22-3.58,6.32-5.38c0.31-0.26,0.6-0.56,0.81-0.9
	c0.4-0.67,0.24-1.65-0.32-2.3c-0.44-0.51-1.21-0.62-1.97-0.2c-0.54,0.29-1.06,0.64-1.53,1.03c-1.57,1.32-3.07,2.72-4.69,3.98
	c-1.53,1.19-3.16,2.26-4.79,3.31c-1.04,0.67-2.15,0.5-3.25,0.03c-1.2-0.52-1.96-1.43-2.49-2.6c-0.96-2.12-1.19-4.33-0.84-6.61
	c0.09-0.6,0.23-1.21,0.24-1.81c0.01-0.57-0.64-1.15-1.21-1.2c-0.93-0.08-1.95,0.61-2.05,1.48C80.79,92.94,80.74,94.27,80.66,95.6z
	 M93.6,88.31c0.53,1.66,1.67,2.21,3.32,1.83c0.2-0.05,0.41-0.08,0.61-0.08c2.04,0.04,3.18-1.13,3.92-2.88
	c0.79-1.86,0.12-4.16-1.72-4.98c-2.52-1.12-5.16-1.15-7.8-0.34c-0.7,0.22-1.04,1.14-0.87,2.09c0.13,0.71,0.63,1.08,1.28,1.11
	c1.22,0.07,2.45,0,3.68,0.07c0.56,0.03,1.11,0.25,1.64,0.38c-0.13,1.24-0.85,1.18-1.6,1.08C94.73,86.45,93.87,86.96,93.6,88.31z"/>
<path class="st1" d="M107.49,129.8c-0.9,0.12-1.8,0.34-2.7,0.35c-1.43,0.01-2.87-0.11-4.3-0.2c-2.29-0.14-4.48,0.19-6.64,1.02
	c-2.4,0.92-4.89,1.45-7.43,1.31c-0.75-0.79-1.1-1.59-0.93-2.59c0.75-4.45,1.26-8.93,1.41-13.45c0.01-0.39,0.2-0.78,0.35-1.3
	c0.43,0,0.87-0.12,1.21,0.02c3.22,1.31,5.75-0.15,8.21-1.96c0.46-0.34,0.95-0.65,1.58-1.07c0.49,1.35,0.14,2.43-0.01,3.51
	c-0.44,3.14-0.89,6.28-1.33,9.42c-0.03,0.2-0.07,0.41-0.07,0.61c0,1.35,0.49,1.99,1.91,2.34c2.88,0.71,5.77,1.38,8.67,2.06
	C107.44,129.85,107.49,129.8,107.49,129.8z"/>
<path class="st2" d="M90.43,24.75c0.48-0.83,0.93-1.61,1.48-2.56c0.81,0.06,1.61,0.03,2.38,0.19c0.69,0.14,1.34,0.5,2.01,0.74
	c3.69,1.35,3.7,1.34,5.5,4.71c0.21,0.4,0.22,0.99,0.1,1.44c-0.08,0.29-0.6,0.73-0.84,0.68c-1.7-0.34-3.39-0.73-5.05-1.23
	c-1.07-0.32-2.07-0.86-3.11-1.28C91.65,26.96,91.06,25.93,90.43,24.75z"/>
<path class="st1" d="M85.72,43.54c-1.08,0.81-2.03,1.94-3.95,1.23c0.82-0.83,1.48-1.54,2.19-2.19C84.56,42.03,85,42.27,85.72,43.54z
	"/>
<path class="st1" d="M94.51,41.27c-1.03,1.27-1.51,2.32-3.2,2.24C91.95,42.17,92.8,41.62,94.51,41.27z"/>
<path class="st1" d="M87.63,39.71c1.07-0.54,1.84-0.92,2.71-1.36c0.26,1.43-0.68,1.72-1.49,2C88.63,40.43,88.24,40.04,87.63,39.71z"
	/>
<path class="st1" d="M102.39,43.9c0.89-0.54,1.4-0.86,1.95-1.2C104.29,44.37,104.19,44.44,102.39,43.9z"/>
<path class="st1" d="M98.58,48.36c-0.57,0.16-1.18,0.34-1.79,0.52c-0.24-0.93,0.16-1.29,0.8-1.43
	C98.16,47.32,98.52,47.56,98.58,48.36z"/>
<path class="st1" d="M107.23,38.02c-0.28-0.13-0.57-0.18-0.59-0.28c-0.04-0.25-0.05-0.63,0.1-0.75c0.29-0.24,0.69-0.42,1.06-0.46
	c0.19-0.02,0.45,0.29,0.61,0.5c0.05,0.06-0.1,0.36-0.22,0.44C107.87,37.7,107.51,37.87,107.23,38.02z"/>
<path class="st1" d="M108.66,46.58c-0.44,0.12-0.88,0.25-1.34,0.33c-0.16,0.03-0.34-0.09-0.51-0.14c0.11-0.15,0.21-0.39,0.34-0.42
	c0.47-0.1,0.95-0.11,1.43-0.16C108.61,46.32,108.63,46.45,108.66,46.58z"/>
<path class="st1" d="M120.32,46.82c0.76,0.72,0.47,1.3-0.01,1.99C119.73,48.12,119.86,47.55,120.32,46.82z"/>
<path class="st1" d="M115.1,38.34c-0.13-0.09-0.27-0.18-0.4-0.27c0.11-0.09,0.21-0.2,0.33-0.26c0.04-0.02,0.21,0.09,0.2,0.12
	C115.21,38.08,115.15,38.21,115.1,38.34z"/>
<path class="st1" d="M77.73,50.54c-0.08,0.05-0.21,0.15-0.22,0.13c-0.12-0.11-0.22-0.25-0.33-0.39c0.08-0.05,0.21-0.15,0.23-0.13
	C77.53,50.27,77.63,50.41,77.73,50.54z"/>
<path class="st1" d="M110.69,40.92c-0.17,0.02-0.34,0.05-0.51,0.07c0.04-0.15,0.05-0.31,0.12-0.45c0.03-0.06,0.17-0.07,0.26-0.1
	C110.59,40.6,110.64,40.76,110.69,40.92z"/>
<polygon class="st1" points="104.53,34.69 104.8,34.62 104.77,34.82 "/>
<polygon class="st1" points="112.44,43.47 112.49,43.67 112.33,43.65 "/>
<polygon class="st1" points="87.41,46.55 87.41,46.34 87.67,46.43 "/>
<path d="M96.72,69.67c0.26-2.83,0.44-5.7,0.82-8.54c0.38-2.78,2.07-4.57,4.74-5.38c0.43-0.13,1.05-0.03,1.45,0.2
	c0.6,0.35,1.22,0.82,1.6,1.39c0.99,1.52,2.3,2.55,3.96,3.25c2.19,0.92,3.32,2.76,3.57,5c0.27,2.47-0.2,4.89-1.4,7.11
	c-0.19,0.35-0.45,0.72-0.77,0.94c-1.95,1.31-3.46,3.21-5.65,4.2c-0.74,0.33-1.45,0.78-2.22,1c-2.89,0.82-5.31-0.9-5.61-3.95
	C97.03,73.15,96.88,71.42,96.72,69.67z M100.59,72.11c1.15,2.7,1.71,2.86,3.87,1.5C103.29,73.16,102.19,72.73,100.59,72.11z
	 M106.85,72.3c0-0.08,0-0.16,0-0.24c-0.16,0.03-0.33,0.04-0.46,0.12c-0.05,0.03,0,0.22,0,0.34C106.55,72.45,106.7,72.37,106.85,72.3
	z"/>
<path d="M92.01,64.19c0.22,2.78-0.81,5.43-0.95,8.17c-0.09,1.86-1.44,3.38-2.67,4.7c-1.31,1.4-3.22,1.73-5.08,1.87
	c-2.03,0.16-2.84-0.56-3.79-2.37c-1.79-3.42-1.43-6.92-0.73-10.48c0.69-3.45,2.71-6.09,5.18-8.46c1.48-1.42,3.3-1.99,5.25-2.26
	c1.29-0.18,2.24,0.51,2.36,1.81C91.79,59.5,91.88,61.85,92.01,64.19z M81.78,69.76c-0.24,2.22,0.46,3.38,1.58,4.34
	c0.62,0.53,1.37,0.47,2.14-0.19c0.27-0.23,0.45-0.57,1.01-1.3C84.11,72.94,83.14,71.42,81.78,69.76z"/>
<path d="M80.66,95.6c0.09-1.33,0.14-2.66,0.27-3.98c0.09-0.88,1.11-1.57,2.05-1.48c0.57,0.05,1.22,0.63,1.21,1.2
	c-0.01,0.61-0.15,1.21-0.24,1.81c-0.34,2.28-0.12,4.49,0.84,6.61c0.53,1.17,1.29,2.08,2.49,2.6c1.1,0.47,2.21,0.64,3.25-0.03
	c1.63-1.05,3.25-2.13,4.79-3.31c1.62-1.25,3.12-2.66,4.69-3.98c0.47-0.39,0.99-0.74,1.53-1.03c0.76-0.42,1.53-0.31,1.97,0.2
	c0.55,0.64,0.72,1.62,0.32,2.3c-0.2,0.34-0.5,0.64-0.81,0.9c-2.1,1.8-4.25,3.55-6.32,5.38c-1.65,1.45-3.51,2.48-5.58,3.18
	c-4.14,1.4-6.79-0.49-8.53-3.06C81.13,100.76,80.56,98.22,80.66,95.6z"/>
<path d="M93.6,88.31c0.28-1.35,1.14-1.86,2.46-1.69c0.75,0.1,1.47,0.16,1.6-1.08c-0.53-0.13-1.08-0.35-1.64-0.38
	c-1.22-0.07-2.45,0-3.68-0.07c-0.64-0.04-1.15-0.4-1.28-1.11c-0.17-0.95,0.17-1.87,0.87-2.09c2.63-0.82,5.28-0.78,7.8,0.34
	c1.84,0.82,2.52,3.12,1.72,4.98c-0.74,1.74-1.88,2.91-3.92,2.88c-0.2,0-0.41,0.03-0.61,0.08C95.26,90.52,94.12,89.98,93.6,88.31z"/>
<path class="st1" d="M100.59,72.11c1.6,0.62,2.7,1.05,3.87,1.5C102.29,74.97,101.74,74.81,100.59,72.11z"/>
<path class="st1" d="M106.85,72.3c-0.15,0.07-0.31,0.15-0.46,0.22c0-0.12-0.05-0.31,0-0.34c0.13-0.08,0.3-0.08,0.46-0.12
	C106.85,72.14,106.85,72.22,106.85,72.3z"/>
<path class="st1" d="M81.78,69.76c1.36,1.66,2.33,3.18,4.74,2.85c-0.56,0.73-0.74,1.07-1.01,1.3c-0.77,0.66-1.52,0.73-2.14,0.19
	C82.25,73.14,81.54,71.98,81.78,69.76z"/>
</svg>
