<?xml version="1.0" encoding="utf-8"?>
<!-- Generator: Adobe Illustrator 26.3.1, SVG Export Plug-In . SVG Version: 6.00 Build 0)  -->
<svg version="1.1" id="Layer_1" xmlns="http://www.w3.org/2000/svg" xmlns:xlink="http://www.w3.org/1999/xlink" x="0px" y="0px"
	 viewBox="0 0 216 216" style="enable-background:new 0 0 216 216;" xml:space="preserve">
<style type="text/css">
	.st0{fill:#FFFFFF;}
	.st1{fill:#D7DF23;}
	.st2{fill:#754C29;}
	.st3{fill:#A97C50;}
</style>
<g id="VZHyBE_00000049928622083345772040000012485726779870961554_">
	<g>
		<path class="st0" d="M138.08,65.96c-0.2,1.02-0.96,1.92-2.3,1.93c-1.63,0.02-3.26,0.1-4.89,0.21c-0.28,0.4-0.7,0.73-1.3,0.91
			c-4.27,1.25-8.58,0.87-12.9,0.42c-0.06,0.05-0.12,0.09-0.19,0.13c-4.33,2.73-9.99,2.38-14.87,1.84c-3.58-0.4-7.12-1.1-10.69-1.65
			c-1.1,0.38-2.16,0.85-3.15,1.43v118.8h119.15V65.96H138.08z M176.92,148.55c-3.91,0.5-5.92-2.09-6.22-5.51
			c-0.14-1.6-0.63-3.06-1.71-4.21c-0.62-0.66-1.36-1.06-2.5-0.7c-2.46,0.78-2.69,1.07-2.84,3.64c-0.16,2.7-0.56,5.39-0.87,8.08
			c-0.19,1.63-0.37,3.26-0.63,4.88c-0.08,0.51-0.31,1.05-0.62,1.46c-1.42,1.91-2.57,4.22-4.42,5.55c-2.06,1.48-3.2,4.12-5.92,4.7
			c-0.11,0.02-0.19,0.21-0.39,0.46c1.31,0.86,1.31,1.96,1.18,3.3c-0.34,3.68,0.02,7.23,2.96,9.96c0.71,0.66,2.89,0.37,3.92-0.4
			c0.47-0.35,1.44-0.79,1.61-0.61c0.69,0.68,1.31,1.53,1.61,2.43c0.11,0.34-0.6,1.23-1.12,1.47c-3.41,1.56-9-0.04-10.6-3.34
			c-0.96-1.99-1.24-4.36-1.56-6.6c-0.24-1.63-0.05-3.33-0.05-5.27c-4.1,1.97-8.28,1.03-12.41,0.87c0.3,2.79,0.74,5.2,0.78,7.62
			c0.05,2.57,0.53,5.01,1.3,7.42c0.32,1.03,0.9,1.91,2.27,1.65c0.83-0.16,1.69-0.17,2.52-0.36c0.26-0.06,0.52-0.42,0.65-0.7
			c0.31-0.7,0.55-1.43,0.81-2.11c2.09,0.38,2.38,0.96,2.21,4.11c-2.27,1.79-4.93,2.11-7.68,2.09c-1.13-0.01-3.63-1.71-3.8-2.76
			c-0.48-2.94-0.91-5.9-1.24-8.86c-0.22-2-0.26-4.02-0.3-6.03c-0.01-0.67,0.23-1.34,0.39-2.16c-1.91-0.87-4.03-1.73-6.06-2.78
			c-1.11-0.57-2.15-1.36-3.05-2.22c-1.57-1.49-3.15-3.01-4.45-4.72c-1.09-1.43-1.97-3.1-2.59-4.79c-0.96-2.63-1.63-5.36-2.4-8.06
			c-0.28-0.99-0.47-2-0.59-2.54c-1.26-0.16-2.16-0.17-2.99-0.41c-1.06-0.31-2.55,0.66-2.48,1.77c0.14,2.4,0.29,4.79,0.43,7.19
			c0.1,1.68-3.17,4.37-4.78,3.97c-0.99-0.24-1.7-0.79-1.58-1.83c0.11-0.89,0.16-1.85,1.64-1.9c0.76-0.02,1.59-0.83,1.37-2.11
			c-0.32-1.86-0.48-3.76-0.59-5.66c-0.08-1.52,1.61-3.72,3.09-4.14c0.81-0.23,1.64-0.46,2.47-0.49c0.82-0.03,1.65,0.21,2.66,0.36
			c-0.43-2.33-0.84-4.54-1.23-6.76c-0.42-2.4-0.86-4.8-1.21-7.21c-0.45-3.11-0.86-6.23-1.22-9.36c-0.26-2.29-0.41-4.6-0.62-6.89
			c-0.11-1.21-0.56-2.22-1.8-2.68c-1.58-0.58-1.55-2.21-2.1-3.41c-0.61-1.32-0.99-2.78-1.23-4.21c-0.4-2.37-0.24-4.71,0.91-6.91
			c0.96-1.85,1.85-3.74,2.88-5.55c0.26-0.46,0.95-0.68,1.46-1c0.25-0.16,0.62-0.21,0.78-0.43c1.68-2.21,4.28-2.04,6.58-2.82
			c2.23-0.75,4.49-0.9,6.72-1.33c1.62-0.31,3.3-0.61,4.93-0.5c1.73,0.11,2.21-0.95,2.47-2.12c0.53-2.42-1.3-4.58-3.76-4.64
			c-1.29-0.03-1.29-0.03-1.94-2.25c2.29-1.89,3.6-1.62,5.8,0.38c2.38,2.17,2.46,4.93,2.62,7.72c0.05,0.88,0.2,1.14,1.05,0.95
			c2.85-0.63,5.66-0.44,8.42,0.5c0.09,0.03,0.2,0.12,0.28,0.09c2.52-0.7,4.7,0.79,7.02,1.23c4.66,0.87,8.14,3.56,9.8,8.2
			c0.1,0.29-0.08,0.68,0.03,0.96c0.21,0.54,0.53,1.03,0.79,1.55c0.32,0.62,0.94,1.29,0.87,1.87c-0.34,2.8-1.85,5.23-2.83,7.83
			c-0.33,0.88-0.86,1.83-1.58,2.39c-1.38,1.08-0.39,2.21-0.19,3.19c0.38,1.86,1.2,3.64,1.66,5.49c0.51,2.08,0.64,4.26,1.28,6.29
			c1.38,4.34,1.58,8.86,2.39,13.29c0.14,0.77,0.38,1.06,1.19,0.84c2.4-0.65,4.85,0.02,6.42,1.5c1.49,1.39,2.64,3.53,2.77,5.86
			c0.02,0.39,0.28,0.79,0.22,1.15c-0.22,1.2,0.27,1.68,1.43,1.67c1.17-0.01,1.64-0.58,1.37-1.7c1.68-0.08,2.38,0.53,2.46,1.97
			C179.31,147.24,178.42,148.36,176.92,148.55z"/>
		<path d="M150.78,166.91c1.31,0.86,1.31,1.96,1.18,3.3c-0.34,3.68,0.02,7.23,2.96,9.96c0.71,0.66,2.89,0.37,3.92-0.4
			c0.47-0.35,1.44-0.79,1.61-0.61c0.69,0.68,1.31,1.53,1.61,2.43c0.11,0.34-0.6,1.23-1.12,1.47c-3.41,1.56-9-0.04-10.6-3.34
			c-0.96-1.99-1.24-4.36-1.56-6.6c-0.24-1.63-0.05-3.33-0.05-5.27c-4.1,1.97-8.28,1.03-12.41,0.87c0.3,2.79,0.74,5.2,0.78,7.62
			c0.05,2.57,0.53,5.01,1.3,7.42c0.32,1.03,0.9,1.91,2.27,1.65c0.83-0.16,1.69-0.17,2.52-0.36c0.26-0.06,0.52-0.42,0.65-0.7
			c0.31-0.7,0.55-1.43,0.81-2.11c2.09,0.38,2.38,0.96,2.21,4.11c-2.27,1.79-4.93,2.11-7.68,2.09c-1.13-0.01-3.63-1.71-3.8-2.76
			c-0.48-2.94-0.91-5.9-1.24-8.86c-0.22-2-0.26-4.02-0.3-6.03c-0.01-0.67,0.23-1.34,0.39-2.16c-1.91-0.87-4.03-1.73-6.06-2.78
			c-1.11-0.57-2.15-1.36-3.05-2.22c-1.57-1.49-3.15-3.01-4.45-4.72c-1.09-1.43-1.97-3.1-2.59-4.79c-0.96-2.63-1.63-5.36-2.4-8.06
			c-0.28-0.99-0.47-2-0.59-2.54c-1.26-0.16-2.16-0.17-2.99-0.41c-1.06-0.31-2.55,0.66-2.48,1.77c0.14,2.4,0.29,4.79,0.43,7.19
			c0.1,1.68-3.17,4.37-4.78,3.97c-0.99-0.24-1.7-0.79-1.58-1.83c0.11-0.89,0.16-1.85,1.64-1.9c0.76-0.02,1.59-0.83,1.37-2.11
			c-0.32-1.86-0.48-3.76-0.59-5.66c-0.08-1.52,1.61-3.72,3.09-4.14c0.81-0.23,1.64-0.46,2.47-0.49c0.82-0.03,1.65,0.21,2.66,0.36
			c-0.43-2.33-0.84-4.54-1.23-6.76c-0.42-2.4-0.86-4.8-1.21-7.21c-0.45-3.11-0.86-6.23-1.22-9.36c-0.26-2.29-0.41-4.6-0.62-6.89
			c-0.11-1.21-0.56-2.22-1.8-2.68c-1.58-0.58-1.55-2.21-2.1-3.41c-0.61-1.32-0.99-2.78-1.23-4.21c-0.4-2.37-0.24-4.71,0.91-6.91
			c0.96-1.85,1.85-3.74,2.88-5.55c0.26-0.46,0.95-0.68,1.46-1c0.25-0.16,0.62-0.21,0.78-0.43c1.68-2.21,4.28-2.04,6.58-2.82
			c2.23-0.75,4.49-0.9,6.72-1.33c1.62-0.31,3.3-0.61,4.93-0.5c1.73,0.11,2.21-0.95,2.47-2.12c0.53-2.42-1.3-4.58-3.76-4.64
			c-1.29-0.03-1.29-0.03-1.94-2.25c2.29-1.89,3.6-1.62,5.8,0.38c2.38,2.17,2.46,4.93,2.62,7.72c0.05,0.88,0.2,1.14,1.05,0.95
			c2.85-0.63,5.66-0.44,8.42,0.5c0.09,0.03,0.2,0.12,0.28,0.09c2.52-0.7,4.7,0.79,7.02,1.23c4.66,0.87,8.14,3.56,9.8,8.2
			c0.1,0.29-0.08,0.68,0.03,0.96c0.21,0.54,0.53,1.03,0.79,1.55c0.32,0.62,0.94,1.29,0.87,1.87c-0.34,2.8-1.85,5.23-2.83,7.83
			c-0.33,0.88-0.86,1.83-1.58,2.39c-1.38,1.08-0.39,2.21-0.19,3.19c0.38,1.86,1.2,3.64,1.66,5.49c0.51,2.08,0.64,4.26,1.28,6.29
			c1.38,4.34,1.58,8.86,2.39,13.29c0.14,0.77,0.38,1.06,1.19,0.84c2.4-0.65,4.85,0.02,6.42,1.5c1.49,1.39,2.64,3.53,2.77,5.86
			c0.02,0.39,0.28,0.79,0.22,1.15c-0.22,1.2,0.27,1.68,1.43,1.67c1.17-0.01,1.64-0.58,1.37-1.7c1.68-0.08,2.38,0.53,2.46,1.97
			c0.09,1.78-0.8,2.9-2.3,3.09c-3.91,0.5-5.92-2.09-6.22-5.51c-0.14-1.6-0.63-3.06-1.71-4.21c-0.62-0.66-1.36-1.06-2.5-0.7
			c-2.46,0.78-2.69,1.07-2.84,3.64c-0.16,2.7-0.56,5.39-0.87,8.08c-0.19,1.63-0.37,3.26-0.63,4.88c-0.08,0.51-0.31,1.05-0.62,1.46
			c-1.42,1.91-2.57,4.22-4.42,5.55c-2.06,1.48-3.2,4.12-5.92,4.7C151.06,166.47,150.99,166.66,150.78,166.91z M112.95,109.33
			c0.13,1.33,0.31,2.89,0.44,4.46c0.23,2.81,0.41,5.62,0.63,8.43c0.07,0.83,0.2,1.66,0.37,2.48c0.25,1.2,0.61,2.38,0.82,3.59
			c0.69,4.01,1.27,8.04,2.02,12.04c0.42,2.23,1.18,4.39,1.6,6.62c0.21,1.11,0.16,2.22,1.22,2.96c0.2,0.14,0.34,0.53,0.32,0.78
			c-0.21,2.47,1.48,4.16,2.55,6.05c0.69,1.22,1.93,2.12,2.91,3.18c0.56,0.61,0.96,1.64,1.62,1.82c2.85,0.78,4.9,3.32,8.2,3.26
			c1.85-0.03,3.76,0.71,5.7,0.59c0.64-0.04,1.31-0.35,1.91-0.23c2.82,0.6,4.94-1.07,7.09-2.31c1.68-0.97,3.11-2.42,4.52-3.8
			c1.1-1.08,2.33-2.22,2.92-3.58c0.9-2.06,1.48-4.3,1.86-6.52c0.42-2.45,0.64-4.96,0.62-7.44c-0.03-3.41-0.24-6.84-0.61-10.23
			c-0.33-2.99-0.88-5.96-1.51-8.91c-0.6-2.79-1.42-5.52-2.16-8.28c-0.24-0.9-0.24-2.15-0.83-2.61c-1.23-0.96-1.1-2.14-0.88-3.23
			c0.27-1.31-0.33-1.74-1.32-1.98c-0.91-0.23-1.84-0.37-2.78-0.48c-2.33-0.27-4.68-0.75-7-0.65c-1.79,0.08-3.55,0.92-5.55,1.49
			c-0.15-0.21-0.45-0.72-0.83-1.17c-0.21-0.25-0.52-0.56-0.8-0.57c-0.76-0.03-1.53,0.07-2.3,0.16c-2.68,0.3-5.36,0.67-8.05,0.89
			c-1.19,0.1-2.39-0.11-3.31,0.93c-0.16,0.19-0.63,0.36-0.79,0.26c-1.56-0.89-2.78,0-4.14,0.59
			C116.04,108.55,114.52,108.86,112.95,109.33z M118.08,98.23c-0.6-1.65-1.18-3.19-1.72-4.76c-0.4-1.17-0.92-2.34-1.06-3.54
			c-0.07-0.63,0.39-1.68,0.91-1.94c0.97-0.48,1.49,0.32,1.76,1.26c0.32,1.14,0.71,2.26,1.08,3.39c0.34,1.04,0.84,2.06,1.01,3.12
			c0.16,1.06,0.45,1.41,1.52,1.01c1.29-0.48,2.66-0.79,3.93-1.31c0.28-0.11,0.45-0.81,0.45-1.23c0-0.53-0.37-1.05-0.35-1.57
			c0.05-1.74-0.23-3.35-1.12-4.89c-0.51-0.87,0.02-1.78,0.88-2.08c0.31-0.11,1.23,0.59,1.38,1.07c0.54,1.78,0.81,3.64,1.31,5.43
			c0.22,0.79,0.84,2.15,1.18,2.12c2.15-0.18,4.39-0.19,6.21-1.15c-0.59-3.13-1.13-6.03-1.69-9.03c-2.88,0.14-5.56,0.19-8.23,0.43
			c-1.72,0.15-3.4,0.68-5.12,0.88c-3.97,0.45-7.64,1.44-9.86,4.73c0.99,2.79,1.97,5.39,2.83,8.03c0.28,0.85,0.66,1.46,1.55,1.24
			C115.92,99.2,116.86,98.71,118.08,98.23z M145.5,92.2c1.24,0.08,2.44,0.18,3.63,0.23c0.78,0.04,1.57,0.02,2.35,0.02
			c0-0.79-0.08-1.59,0.04-2.36c0.09-0.56,0.35-1.16,0.71-1.59c0.16-0.19,0.98-0.15,1.14,0.05c0.39,0.52,0.63,1.18,0.82,1.82
			c0.24,0.79,0.11,2.02,0.61,2.33c0.8,0.51,1.97,0.46,3,0.54c0.11,0.01,0.48-0.74,0.38-1c-0.97-2.5-2.68-4.52-5.18-5.34
			c-2.71-0.89-5.6-1.21-8.42-1.76c-1.35-0.26-2.69-0.54-4.05-0.71c-1.2-0.15-2.41-0.16-3.7-0.24c0.34,2.39,0.75,4.5,0.91,6.64
			c0.17,2.27,0.6,2.69,2.85,2.19c0.39-0.08,0.77-0.19,1.15-0.26c1.38-0.26,1.49-0.81,1.15-2.13c-0.27-1.09-0.13-2.36,0.14-3.47
			c0.09-0.34,1.22-0.42,1.93-0.64C145.16,88.57,145.32,90.26,145.5,92.2z M145.34,95.98c0,1.04,0.04,1.73-0.01,2.41
			c-0.11,1.65,0.9,3.67,2.24,4c1.46,0.36,2.98,0.5,4.49,0.67c0.15,0.02,0.49-0.43,0.52-0.69c0.09-0.92,0.02-1.85,0.13-2.77
			c0.28-2.29-0.68-3.84-2.69-4.04c-1.06-0.11-2.14-0.09-3.21-0.02C146.26,95.58,145.72,95.86,145.34,95.98z M135.82,96.95
			c-1.38,0.16-2.67,0.26-3.95,0.47c-0.76,0.13-1.75,0.2-2.16,0.7c-0.66,0.78,0.16,1.49,0.74,2.09c0.03,0.03,0.01,0.1,0.01,0.15
			c0.09,1.3,0.83,1.68,2.05,1.58c0.47-0.04,1.01,0.31,1.45,0.2c0.88-0.21,2.41-0.56,2.44-0.95
			C136.49,99.85,136.07,98.47,135.82,96.95z M139.03,101.85c0.96,0.05,2.16,0.16,3.35,0.11c0.22-0.01,0.59-0.71,0.59-1.09
			c0.01-1.41-0.11-2.82-0.2-4.46c-1.36,0-2.84,0-4.42,0C138.59,98.29,138.79,99.92,139.03,101.85z M159.4,96.72
			c-1.67,0-2.94,0-4.32,0c0.11,1.75,0.14,3.22,0.32,4.68c0.05,0.4,0.5,0.74,0.76,1.11c0.37-0.3,0.83-0.54,1.08-0.91
			c0.42-0.64,0.74-1.37,1.05-2.08C158.65,98.69,158.96,97.84,159.4,96.72z M108.95,94.61c-0.16,0.05-0.32,0.1-0.48,0.15
			c-0.37,2.39-0.73,4.79,0.38,7.1c0.28,0.59,0.94,1.52,1.27,1.45c0.83-0.15,1.46-0.89,1.13-1.89
			C110.51,99.14,109.72,96.88,108.95,94.61z M121.48,100.65c0.42,0.65,0.71,1.61,1.17,1.71c1.43,0.29,2.93,0.26,4.41,0.34
			c0.07,0,0.21-0.15,0.2-0.2c-0.34-1.15-0.68-2.3-1.06-3.44c-0.03-0.08-0.37-0.13-0.51-0.08
			C124.36,99.49,123.04,100.03,121.48,100.65z M119.7,103.41c-0.3-0.4-0.53-1.04-0.87-1.1c-1.05-0.19-2.79,1.3-2.83,2.42
			C117.12,104.33,118.2,103.94,119.7,103.41z"/>
		<path class="st1" d="M112.95,109.33c1.57-0.47,3.09-0.78,4.49-1.38c1.36-0.59,2.58-1.48,4.14-0.59c0.17,0.1,0.63-0.07,0.79-0.26
			c0.92-1.04,2.12-0.84,3.31-0.93c2.69-0.22,5.37-0.6,8.05-0.89c0.76-0.08,1.53-0.18,2.3-0.16c0.28,0.01,0.59,0.32,0.8,0.57
			c0.37,0.45,0.68,0.96,0.83,1.17c2-0.57,3.76-1.41,5.55-1.49c2.32-0.1,4.67,0.38,7,0.65c0.93,0.11,1.87,0.25,2.78,0.48
			c0.99,0.25,1.59,0.68,1.32,1.98c-0.23,1.08-0.35,2.27,0.88,3.23c0.6,0.47,0.59,1.71,0.83,2.61c0.74,2.76,1.56,5.49,2.16,8.28
			c0.63,2.94,1.19,5.92,1.51,8.91c0.37,3.39,0.58,6.82,0.61,10.23c0.02,2.48-0.2,4.99-0.62,7.44c-0.38,2.22-0.96,4.47-1.86,6.52
			c-0.6,1.36-1.82,2.51-2.92,3.58c-1.41,1.37-2.84,2.83-4.52,3.8c-2.15,1.24-4.26,2.91-7.09,2.31c-0.59-0.13-1.27,0.19-1.91,0.23
			c-1.94,0.12-3.86-0.62-5.7-0.59c-3.3,0.06-5.36-2.48-8.2-3.26c-0.65-0.18-1.06-1.21-1.62-1.82c-0.97-1.06-2.22-1.96-2.91-3.18
			c-1.07-1.9-2.76-3.59-2.55-6.05c0.02-0.26-0.12-0.65-0.32-0.78c-1.06-0.74-1.01-1.85-1.22-2.96c-0.43-2.23-1.19-4.39-1.6-6.62
			c-0.75-4-1.33-8.03-2.02-12.04c-0.21-1.21-0.58-2.39-0.82-3.59c-0.17-0.82-0.3-1.65-0.37-2.48c-0.23-2.81-0.41-5.62-0.63-8.43
			C113.26,112.22,113.08,110.66,112.95,109.33z M141.42,111.83c-0.93,0.27-1.99,0.42-2.89,0.87c-2.02,1.02-2.6,3.03-3.22,5.03
			c-0.67,2.19,0.33,3.94,1.05,5.89c0.98,2.65,3.46,3.18,5.4,4.5c1.4,0.95,2.82-0.19,4.24-0.03c0.26,0.03,0.6-0.16,0.81-0.36
			c1.11-1.05,2.22-2.11,3.28-3.22c0.84-0.88,1.21-1.85,0.54-3.06c-0.2-0.37,0.03-0.95-0.07-1.41c-0.2-0.95-0.24-2.46-0.8-2.7
			c-1.62-0.69-2.27-2.3-3.42-3.34C144.81,112.61,143.25,112.35,141.42,111.83z M126.45,130.87c2.44,0,4.6-1.33,5.74-3.42
			c1.53-2.79,1.05-5.82-0.17-8.24c-0.93-1.85-1.84-4.46-4.58-4.95c-0.08-0.02-0.18-0.12-0.22-0.2c-0.82-1.97-2.9-1.32-4.22-1.57
			c-2.67-0.5-5.47,2.59-5.56,5.42c-0.02,0.77-0.12,1.55-0.07,2.32c0.15,2.59,1.09,4.93,2.63,6.98
			C121.58,129.33,123.57,130.93,126.45,130.87z M125,143.87c0.24,0.45,0.42,0.77,0.58,1.1c0.62,1.34,1.06,2.81,1.89,4.01
			c1.09,1.58,2.39,3.03,3.76,4.38c1.02,1.01,2.21,1.96,3.5,2.56c1.17,0.54,2.59,0.82,3.88,0.75c1.26-0.07,2.58-0.55,3.71-1.16
			c1.39-0.74,2.53-1.93,3.91-2.69c2.01-1.11,2.74-3.13,3.69-4.92c1.13-2.14,0.79-4.58,0.45-6.89c-0.09-0.59-0.78-1.26-1.36-1.53
			c-0.29-0.14-1.25,0.44-1.4,0.87c-0.38,1.09-0.65,2.29-0.64,3.44c0.01,2-0.3,3.8-1.87,5.2c-1.24,1.12-2.35,2.43-3.73,3.33
			c-1.75,1.15-3.47,2.12-5.63,0.19c-0.65-0.58-1.34-1.11-2.07-1.58c-2.47-1.59-3.61-4.09-4.78-6.63c-0.39-0.85-1.27-1.53-2.08-2.08
			c-0.15-0.1-1,0.81-1.52,1.26C125.18,143.6,125.1,143.74,125,143.87z M131.97,129.26c0.11,2.66,0.86,5.2,1.91,7.68
			c0.56,1.31,1.64,1.75,2.88,2.19c1.6,0.55,2.89-0.07,4.22-0.72c2.03-0.99,2.23-2.55,0.53-4.01c-0.2-0.17-0.23-0.54-0.42-0.75
			c-0.25-0.29-0.58-0.51-0.67-0.59c-0.78,1.07-1.37,2.03-2.13,2.82c-0.21,0.23-1.22,0.15-1.34-0.06c-0.6-1.12-1.1-2.31-1.46-3.52
			c-0.13-0.42,0.49-1.07,0.37-1.49c-0.24-0.8-0.64-1.63-1.21-2.22c-0.88-0.91-1.49,0.56-2.34,0.48
			C132.23,129.06,132.15,129.16,131.97,129.26z"/>
		<path class="st2" d="M118.08,98.23c-1.22,0.48-2.16,0.97-3.16,1.22c-0.9,0.23-1.27-0.38-1.55-1.24c-0.86-2.64-1.83-5.24-2.83-8.03
			c2.22-3.3,5.89-4.28,9.86-4.73c1.72-0.2,3.4-0.72,5.12-0.88c2.67-0.24,5.35-0.29,8.23-0.43c0.56,3,1.11,5.9,1.69,9.03
			c-1.82,0.96-4.06,0.97-6.21,1.15c-0.34,0.03-0.95-1.33-1.18-2.12c-0.51-1.79-0.77-3.65-1.31-5.43c-0.15-0.48-1.06-1.18-1.38-1.07
			c-0.86,0.3-1.39,1.21-0.88,2.08c0.9,1.54,1.18,3.15,1.12,4.89c-0.02,0.52,0.35,1.05,0.35,1.57c0,0.42-0.17,1.12-0.45,1.23
			c-1.28,0.52-2.64,0.83-3.93,1.31c-1.07,0.4-1.36,0.05-1.52-1.01c-0.16-1.07-0.66-2.08-1.01-3.12c-0.37-1.13-0.76-2.25-1.08-3.39
			c-0.26-0.94-0.79-1.74-1.76-1.26c-0.52,0.26-0.99,1.31-0.91,1.94c0.14,1.21,0.65,2.38,1.06,3.54
			C116.9,95.03,117.48,96.58,118.08,98.23z"/>
		<path class="st2" d="M145.5,92.2c-0.18-1.95-0.34-3.64-0.53-5.67c-0.7,0.22-1.84,0.3-1.93,0.64c-0.28,1.11-0.42,2.38-0.14,3.47
			c0.33,1.32,0.23,1.87-1.15,2.13c-0.39,0.07-0.77,0.18-1.15,0.26c-2.25,0.49-2.67,0.08-2.85-2.19c-0.16-2.13-0.57-4.25-0.91-6.64
			c1.29,0.08,2.51,0.09,3.7,0.24c1.36,0.17,2.7,0.45,4.05,0.71c2.82,0.55,5.71,0.87,8.42,1.76c2.5,0.82,4.21,2.84,5.18,5.34
			c0.1,0.26-0.27,1.01-0.38,1c-1.02-0.08-2.2-0.03-3-0.54c-0.49-0.31-0.37-1.54-0.61-2.33c-0.19-0.64-0.43-1.3-0.82-1.82
			c-0.16-0.21-0.97-0.24-1.14-0.05c-0.37,0.43-0.63,1.03-0.71,1.59c-0.12,0.77-0.03,1.57-0.04,2.36c-0.78-0.01-1.57,0.01-2.35-0.02
			C147.94,92.38,146.74,92.29,145.5,92.2z"/>
		<path class="st2" d="M145.34,95.98c0.38-0.12,0.92-0.4,1.48-0.44c1.06-0.07,2.15-0.09,3.21,0.02c2,0.2,2.97,1.75,2.69,4.04
			c-0.11,0.91-0.04,1.85-0.13,2.77c-0.03,0.26-0.36,0.71-0.52,0.69c-1.5-0.17-3.02-0.31-4.49-0.67c-1.34-0.33-2.35-2.35-2.24-4
			C145.38,97.71,145.34,97.02,145.34,95.98z"/>
		<path class="st2" d="M135.82,96.95c0.25,1.52,0.67,2.9,0.57,4.24c-0.03,0.39-1.56,0.74-2.44,0.95c-0.44,0.11-0.97-0.24-1.45-0.2
			c-1.21,0.11-1.96-0.28-2.05-1.58c0-0.05,0.01-0.12-0.01-0.15c-0.57-0.6-1.39-1.31-0.74-2.09c0.41-0.49,1.41-0.57,2.16-0.7
			C133.15,97.21,134.44,97.11,135.82,96.95z"/>
		<path class="st3" d="M139.03,101.85c-0.24-1.93-0.44-3.56-0.68-5.45c1.58,0,3.06,0,4.42,0c0.08,1.64,0.2,3.05,0.2,4.46
			c0,0.38-0.37,1.08-0.59,1.09C141.19,102.01,139.99,101.9,139.03,101.85z"/>
		<path class="st3" d="M159.4,96.72c-0.44,1.12-0.75,1.97-1.11,2.8c-0.31,0.71-0.63,1.43-1.05,2.08c-0.25,0.38-0.71,0.61-1.08,0.91
			c-0.26-0.37-0.71-0.72-0.76-1.11c-0.17-1.46-0.21-2.93-0.32-4.68C156.46,96.72,157.73,96.72,159.4,96.72z"/>
		<path class="st3" d="M108.95,94.61c0.77,2.27,1.56,4.53,2.3,6.81c0.33,1.01-0.31,1.74-1.13,1.89c-0.33,0.06-0.99-0.87-1.27-1.45
			c-1.11-2.31-0.75-4.71-0.38-7.1C108.63,94.71,108.79,94.66,108.95,94.61z"/>
		<path class="st3" d="M121.48,100.65c1.57-0.63,2.88-1.16,4.21-1.67c0.15-0.06,0.49,0,0.51,0.08c0.38,1.14,0.72,2.29,1.06,3.44
			c0.01,0.05-0.13,0.2-0.2,0.2c-1.47-0.08-2.97-0.05-4.41-0.34C122.18,102.27,121.9,101.31,121.48,100.65z"/>
		<path class="st3" d="M119.7,103.41c-1.49,0.53-2.57,0.92-3.7,1.32c0.04-1.12,1.78-2.61,2.83-2.42
			C119.16,102.37,119.4,103.01,119.7,103.41z"/>
		<path d="M141.42,111.83c1.83,0.52,3.39,0.78,4.91,2.16c1.15,1.04,1.8,2.65,3.42,3.34c0.56,0.24,0.59,1.75,0.8,2.7
			c0.1,0.46-0.13,1.04,0.07,1.41c0.68,1.21,0.3,2.19-0.54,3.06c-1.06,1.11-2.16,2.17-3.28,3.22c-0.21,0.19-0.55,0.39-0.81,0.36
			c-1.42-0.16-2.84,0.99-4.24,0.03c-1.93-1.32-4.42-1.84-5.4-4.5c-0.72-1.95-1.72-3.7-1.05-5.89c0.61-2,1.19-4.01,3.22-5.03
			C139.44,112.25,140.5,112.1,141.42,111.83z M138.74,119.58c2.01-1.6,4.25-1.99,6.67-1.76c-0.89-1.96-2.34-2.97-3.69-2.64
			C139.64,115.69,138.71,116.99,138.74,119.58z"/>
		<path d="M126.45,130.87c-2.88,0.06-4.87-1.54-6.47-3.66c-1.54-2.04-2.48-4.38-2.63-6.98c-0.04-0.77,0.05-1.55,0.07-2.32
			c0.09-2.83,2.89-5.93,5.56-5.42c1.33,0.25,3.4-0.4,4.22,1.57c0.04,0.09,0.13,0.19,0.22,0.2c2.74,0.49,3.65,3.11,4.58,4.95
			c1.22,2.42,1.7,5.45,0.17,8.24C131.05,129.54,128.9,130.87,126.45,130.87z M121.77,122.59c1.9-1.56,3.86-3,6.57-1.86
			c0.12-0.25,0.29-0.43,0.27-0.59c-0.22-1.94-2.09-3.92-4.03-4.19c-0.8-0.11-1.93-0.4-2.37,0
			C120.7,117.31,119.69,120.37,121.77,122.59z M128.81,124.43c-1.09,0.59-2.03,1.11-2.97,1.62c0.67,0.38,1.42,1.16,2,1.04
			c0.74-0.14,1.34-1,1.99-1.55C129.55,125.23,129.26,124.92,128.81,124.43z"/>
		<path d="M125,143.87c0.1-0.13,0.18-0.27,0.29-0.36c0.52-0.45,1.36-1.37,1.52-1.26c0.81,0.54,1.69,1.23,2.08,2.08
			c1.17,2.54,2.31,5.04,4.78,6.63c0.73,0.47,1.42,1,2.07,1.58c2.15,1.93,3.87,0.95,5.63-0.19c1.38-0.9,2.49-2.22,3.73-3.33
			c1.56-1.4,1.88-3.2,1.87-5.2c-0.01-1.15,0.26-2.34,0.64-3.44c0.15-0.43,1.11-1,1.4-0.87c0.58,0.28,1.28,0.94,1.36,1.53
			c0.34,2.31,0.68,4.74-0.45,6.89c-0.95,1.8-1.68,3.82-3.69,4.92c-1.38,0.76-2.53,1.95-3.91,2.69c-1.13,0.61-2.45,1.09-3.71,1.16
			c-1.29,0.07-2.71-0.21-3.88-0.75c-1.29-0.6-2.47-1.55-3.5-2.56c-1.37-1.35-2.67-2.8-3.76-4.38c-0.83-1.2-1.27-2.67-1.89-4.01
			C125.42,144.64,125.24,144.32,125,143.87z"/>
		<path d="M131.97,129.26c0.18-0.11,0.27-0.2,0.34-0.2c0.85,0.08,1.46-1.39,2.34-0.48c0.57,0.59,0.97,1.43,1.21,2.22
			c0.13,0.42-0.49,1.07-0.37,1.49c0.36,1.22,0.87,2.4,1.46,3.52c0.12,0.22,1.13,0.29,1.34,0.06c0.76-0.8,1.35-1.75,2.13-2.82
			c0.09,0.08,0.42,0.3,0.67,0.59c0.19,0.21,0.21,0.58,0.42,0.75c1.69,1.46,1.5,3.01-0.53,4.01c-1.33,0.65-2.62,1.27-4.22,0.72
			c-1.25-0.43-2.33-0.87-2.88-2.19C132.83,134.46,132.08,131.92,131.97,129.26z"/>
		<path class="st0" d="M138.74,119.58c-0.03-2.6,0.9-3.89,2.99-4.4c1.34-0.33,2.8,0.68,3.69,2.64
			C142.99,117.6,140.75,117.99,138.74,119.58z"/>
		<path class="st0" d="M121.77,122.59c-2.07-2.22-1.07-5.28,0.44-6.64c0.44-0.39,1.57-0.11,2.37,0c1.94,0.27,3.81,2.25,4.03,4.19
			c0.02,0.16-0.15,0.34-0.27,0.59C125.63,119.59,123.67,121.03,121.77,122.59z"/>
		<path class="st0" d="M128.81,124.43c0.45,0.49,0.74,0.8,1.02,1.11c-0.66,0.55-1.26,1.41-1.99,1.55c-0.58,0.11-1.32-0.66-2-1.04
			C126.79,125.54,127.73,125.03,128.81,124.43z"/>
	</g>
</g>
</svg>
