<?xml version="1.0" encoding="utf-8"?>
<!-- Generator: Adobe Illustrator 25.4.1, SVG Export Plug-In . SVG Version: 6.00 Build 0)  -->
<svg version="1.1" xmlns="http://www.w3.org/2000/svg" xmlns:xlink="http://www.w3.org/1999/xlink" x="0px" y="0px"
	 viewBox="0 0 710.91 1699.68" style="enable-background:new 0 0 710.91 1699.68;" xml:space="preserve">
<style type="text/css">
	.st0{fill:#FFFFFF;}
	.st1{fill:#13A342;}
	.st2{fill:#911279;}
	.st3{fill:none;stroke:#000000;stroke-width:7;stroke-linecap:round;stroke-linejoin:round;stroke-miterlimit:10;}
</style>
<g id="Layer_1">
	<path class="st0" d="M652.87,237.89c-3.42-0.18-6.69-0.78-9.79-1.73c-0.1,5.57-0.52,11.11-2.14,16.49
		c-0.4,1.34-1.42,2.39-2.65,3.01c0.12,2.14-0.55,4.25-1.69,6.2c1.27,1.22,2.04,2.95,1.34,4.76c-1.55,4.05-4.21,7.29-7.48,9.68
		c4.76,0.8,9.48,2.23,14.06,4.14c0.15-0.23,0.31-0.46,0.45-0.7c0-0.01,0.01-0.01,0.01-0.02c-1.46-2.58-2.79-5.24-3.72-8.12
		c-1.3-4.02,2.67-6.65,6.15-6.15c0.6,0.09,1.21,0.17,1.81,0.25c-0.74-5.43-1.11-10.91-1.16-16.38c-0.02-3.11,2.95-5.13,5.66-4.94
		c0-0.02,0-0.03,0-0.05c-0.35-0.6-0.6-1.26-0.68-1.99C652.92,240.88,652.86,239.39,652.87,237.89z"/>
	<path class="st0" d="M609.37,287.94c5.58,1.89,11.34,3.24,17.48,1.64c2.76-0.72,5.61-1.19,8.32-2.01
		C626.54,284.83,617.55,284.32,609.37,287.94z"/>
	<path class="st0" d="M664.91,236.69c0.4,1.43,0.82,2.86,1.29,4.28c0.08-1.54,0.07-3.08-0.03-4.63
		C665.76,236.46,665.34,236.58,664.91,236.69z"/>
	<path d="M650.52,303.98c-0.47-3.24-0.45-6.31-0.05-9.26c-4.78-2.93-9.97-5.46-15.3-7.15c-2.72,0.82-5.56,1.29-8.32,2.01
		c-6.14,1.6-11.9,0.25-17.48-1.64c-2.64,1.16-5.19,2.74-7.62,4.83c-0.44,0.38-0.9,0.66-1.36,0.86c0.24,0.24,0.47,0.47,0.71,0.72
		c-0.27,2.95,0.54,8.02-1.4,11.61c-2.24,4.17-3.07,8.57-4.43,12.84c-1.43,4.49-1.64,9.38-2.34,14.1c-0.55,3.72-1.43,7.44-1.46,11.16
		c-0.04,6.45-0.76,12.68-3.05,18.77c-1.29,3.43-1.64,7.21-2.93,10.64c-1.69,4.5-3.95,8.79-5.84,13.22
		c-2.94,6.85-5.91,13.69-8.61,20.64c-1.44,3.71-2.89,7.19-6.19,9.76c-1.79,1.4-3.17,3.37-4.54,5.23
		c-3.57,4.85-7.34,9.59-10.45,14.73c-2.71,4.46-6.78,5.63-11.28,5.85c-6.07,0.3-12.17,0.21-18.25,0.1
		c-1.71-0.03-3.56-0.46-5.09-1.22c-6.61-3.28-11.85-8.37-17.2-13.33c-3.51-3.25-7.3-6.2-11-9.23c-4.14-3.39-8.34-6.7-12.49-10.07
		c-1.53-1.24-2.82-2.91-4.53-3.77c-5.89-2.95-10.05-7.92-14.85-12.16c-7.23-6.37-14.6-12.58-21.65-19.14
		c-10-9.32-21.06-17.04-32.84-23c0.24-2.03,0.81-3.99,0.65-5.9c-0.67-7.78-4.3-14.98-3.91-23.07c0.31-6.48-3.59-12.69-1.96-19.44
		c0.15-0.62-0.29-1.37-0.42-2.07c-0.75-3.84-1.68-7.66-2.18-11.54c-0.61-4.76-0.12-9.77-1.43-14.3c-1.7-5.9-2.71-11.71-2.59-17.82
		c0.05-2.43-0.84-4.88-1.19-7.33c-0.57-4.03-1.21-8.06-1.53-12.12c-0.44-5.48-0.18-11.05-1.01-16.46
		c-0.96-6.33-2.73-12.53-4.22-18.78c-0.45-1.9-1.52-3.74-1.59-5.64c-0.27-7.68-3.52-14.45-6.12-21.42
		c-3.06-8.2-6.3-16.32-9.36-24.52c-1.31-3.5-2.01-7.27-3.63-10.6c-3.13-6.4-6.48-12.75-11.53-17.93c-3.59-3.68-6.9-7.82-11.05-10.72
		c-7.16-4.99-14.64-9.64-22.43-13.55c-5.83-2.93-12.22-4.99-18.59-6.49c-6.73-1.58-13.71-2.06-20.6-2.93
		c-1.52-0.19-3.43,0.53-4.57-0.15c-2.18-1.31-4.01-0.83-6.13-0.21c-2.03,0.59-4.19,0.77-6.28,1.16c-2.25,0.42-4.54,0.73-6.73,1.37
		c-4.23,1.23-8.33,3.03-12.62,3.89c-5.9,1.19-11.24,3.41-16.08,6.86c-4.94,3.52-9.79,7.18-14.62,10.84
		c-0.81,0.62-1.69,1.51-1.95,2.43c-1.96,7.06-7,12.26-10.91,18.11c-4.92,7.37-8.6,15.14-9.72,24.03
		c-0.76,6.03-1.83,12.03-2.55,18.07c-0.67,5.64-1.04,11.31-1.55,16.97c-0.32,3.54-0.65,7.08-0.97,10.61
		c-4.05,2.76-1.22,8.74-5.38,11.45c-1.24,6.25-1.95,12.58-1.91,18.94c0.02,2.63,0.4,5.43,1.38,7.84c0.75,1.84,0.88,3.24,0.26,5.04
		c-0.44,1.28-0.38,2.75-0.39,4.14c-0.05,3.73,0.65,7.62-0.19,11.15c-1.22,5.14-0.61,10.24-0.7,15.31
		c-0.13,7.67,0.55,15.35,0.89,23.03c0.24,5.35,0.2,10.74,0.78,16.06c0.94,8.68,2.26,17.32,3.47,25.97c0.43,3.1,0.98,6.19,1.51,9.52
		c-0.41,0.16-1.04,0.54-1.71,0.62c-4.96,0.61-8.97,3.84-11.45,7.23c-2.51,3.42-5.57,5.85-8.47,8.64c-0.89,0.86-1.73,1.85-2.3,2.94
		c-3,5.64-6.97,10.84-7.95,17.41c-0.18,1.22-0.84,2.36-1.14,3.57c-1.04,4.12-2.02,8.26-3.01,12.4c-0.44,1.87-0.74,3.77-1.26,5.62
		c-1.82,6.53-3.85,13.01-5.5,19.58c-0.54,2.15,0.03,4.55-0.22,6.8c-0.41,3.71-1.1,7.39-1.61,11.09c-0.97,7.03-1.93,14.07-2.84,21.11
		c-0.39,2.99-1.36,6.13-0.81,8.96c0.9,4.67-0.76,9.12-0.22,13.73c0.23,1.97-0.59,4.38-1.68,6.13c-3.17,5.09-2.98,10.91-4.15,16.44
		c-1.14,5.36-1.84,10.86-3.54,16.04c-1.75,5.32-2.22,10.54-0.69,15.78c1.1,3.78,0.96,7.54,0.05,11.05
		c-1.49,5.69-1.1,11.35-1.14,17.05c-0.05,8.92-0.71,17.77-2.29,26.59c-0.83,4.63-2.11,9.29-1.08,14.23
		c0.52,2.48-0.35,5.24-0.56,7.88c-0.3,3.74-1.24,7.59-0.7,11.21c1.16,7.75,2.44,15.39,1.58,23.29c-0.28,2.6,0.51,5.31,0.77,7.97
		c0.12,1.22,0.31,2.47,0.19,3.68c-0.78,7.69-0.5,15.3,0.83,22.94c1.09,6.28,1.64,12.65,2.53,18.97c1.15,8.21,1.21,16.53,3.93,24.57
		c2.97,8.8,6.57,17.23,10.72,25.52c2.27,4.54,5.47,8.7,6.05,14.13c0.46,4.35,3.23,7.86,5.99,11.18c1.43,1.72,3.07,3.12,5.54,2.21
		c1.95-0.72,2.83,0.76,4.12,1.69c7.73,5.57,14.08,13.39,25.99,14.71c-7.22,2.84-6.43,7.65-4.85,11.73c1.8,4.64,3.39,9.26,4.14,14.14
		c0.77,5.03,1.63,10.09,1.89,15.16c0.14,2.78-1.06,5.61-1.32,8.45c-0.32,3.46-0.15,6.96-0.44,10.42c-0.76,9.04-1.94,18.05-2.38,27.1
		c-0.29,6.02,0.61,12.1,0.6,18.15c0,7.79-0.25,15.58-0.64,23.36c-0.24,4.77-0.9,9.52-1.46,14.27c-0.89,7.43-1.87,14.86-2.79,22.29
		c-0.18,1.42-0.3,2.85-0.34,4.28c-0.33,10.48-0.65,20.97-0.93,31.45c-0.22,8-0.26,16-0.61,24c-0.2,4.59-1.03,9.16-1.26,13.75
		c-0.38,7.63-0.69,15.27-0.7,22.91c-0.01,6.95,0.24,13.91,0.69,20.84c0.5,7.66,1.5,15.29,2.03,22.95
		c0.97,14.01,1.89,28.03,2.55,42.05c0.32,6.9-0.01,13.82-0.04,20.73c-0.02,4.25-0.5,8.56,0.07,12.73c1.18,8.61,3.08,17.13,4.4,25.73
		c2.08,13.63,3.67,27.28,0.07,40.96c-1.03,3.89,0.6,6.53,4.24,8.12c1.12,0.49,2.25,0.94,3.17,1.32c0.23,4.07,1,7.86,0.55,11.5
		c-0.87,7.02-1.39,13.93,0.41,20.87c0.4,1.55,0.52,3.18,0.69,4.78c0.76,7.09,1.51,14.18,2.24,21.27c0.29,2.84,0.87,5.7,0.7,8.52
		c-0.98,16.12,1.24,32.09,1.96,48.13c0.23,5.13,0.04,10.28,0.04,16c-2.01,0.39-4.07,1.21-6.09,1.11c-4.25-0.2-8.16-0.06-11.15,3.61
		c-0.6,0.74-1.87,1.04-2.89,1.32c-7.45,2.11-13.38,6.66-18.91,11.81c-5.39,5.03-9.68,10.89-13.05,17.46
		c-0.25,0.48-0.54,0.94-0.84,1.39c-0.34,2.51-0.73,5.01-1.15,7.5c1.27,1.5,2.45,3.08,3.51,4.75c0.79-0.12,1.54,0.55,2.55,2.06
		c0.44,0.29,0.88,0.59,1.31,0.9c0.05,0.01,0.1,0.01,0.15,0.02c1.62,0.24,3.22,0.55,4.82,0.88h0.2c1.99,0.01,3.94,0.15,5.85,0.42
		c5.57-0.15,10.92-0.3,16.18-0.44c1.94-0.29,3.88-0.45,5.81-0.45c2.36,0,4.66,0.21,6.89,0.58c4.13-0.53,8.25-0.81,12.44-0.59
		c1.91-0.03,3.8-0.11,5.69-0.25c1.87-0.37,3.73-0.81,5.57-1.28c0.3-0.09,0.6-0.17,0.89-0.26c2.85-1.03,5.75-1.96,8.73-2.79
		c0.06-0.02,0.12-0.04,0.18-0.05c3.05-1.34,6.11-2.68,9.17-4.01c0.03-0.04,0.07-0.07,0.1-0.1c-0.62,0.26-1.25,0.53-1.87,0.79
		c0.67-0.3,1.33-0.6,1.99-0.92c0.21-0.23,0.42-0.46,0.64-0.68c0.1-0.1,0.2-0.19,0.3-0.29c4.51-6.27,7.87-10.05,12.91-14.05
		c0.85-3.2,2.11-6.19,3.72-8.94c1.31-7.89,2.86-15.75,3.35-23.67c0.45-7.17,1.88-14.55-0.8-21.76c-0.78-2.1-0.5-4.59-0.67-6.9
		c-0.32-4.09-0.34-8.22-0.97-12.27c-1.88-12.26-1.96-24.5-0.17-36.77c0.13-0.87,0.14-1.78,0.05-2.65
		c-0.58-5.28-1.36-10.54-1.74-15.83c-0.17-2.44,0.51-4.92,0.63-7.4c0.16-3.39-0.04-6.8,0.25-10.18c0.23-2.63,1.04-5.21,1.51-7.82
		c1.25-6.96,0.38-13.87-0.64-20.75c-0.98-6.63,0.95-12.76,3.06-18.85c2.55-7.4,5.41-14.69,7.89-22.11
		c2.7-8.08,5.08-16.26,6.25-24.74c0.05-0.35,0.13-0.72,0.29-1.03c3.9-8,4.34-16.85,6.13-25.36c2.59-12.32,5.33-24.63,7.19-37.06
		c0.91-6.08,2.31-12.15,1.8-18.55c-0.51-6.34,0.42-12.81,0.95-19.21c0.76-9.23,1.29-18.46,1.25-27.73
		c-0.03-6.37,0.63-12.74,0.96-19.11c0.05-0.88,0.28-1.98-0.13-2.63c-1.7-2.66-0.88-5.48-1.05-8.29c-0.69-10.95,2.18-21.5,3.48-32.21
		c0.43-3.56,1.59-6.79-0.12-10.23c-0.27-0.54-0.11-1.37,0.03-2.03c1.93-8.91,2.35-18,3.09-27.05c0.11-1.4,0.54-2.78,0.87-4.16
		c2.39-9.87,4.76-19.74,7.22-29.59c0.38-1.54,1.17-2.99,1.79-4.47c0.89-2.13,2.07-4.17,0.96-6.65c-0.34-0.74-0.24-1.79-0.07-2.64
		c1.59-7.82,3.26-15.63,4.86-23.45c0.31-1.53,0.31-3.12,0.64-4.65c0.27-1.27,0.8-2.47,1.44-4.35c4.61,4.06,6.82,8.76,8.93,13.3
		c2.68,5.74,5.48,11.48,6.23,18.05c0.26,2.24,2.42,4.24,0.24,6.59c1.61,1.84,2.03,4.32,3.2,6.26c1.3,2.16,1.4,4.32,2,6.5
		c0.36,1.32,1.38,2.47,2.46,4.3c0.07-0.11-0.8,0.67-0.66,1.18c1.48,5.28,2.16,10.72,3.47,16.03c0.72,2.93,1.12,5.95,1.61,8.94
		c1.47,8.93,3.02,17.85,4.33,26.8c1.05,7.19,2.83,14.24,3.25,21.56c0.32,5.66,2.46,11.19,1.32,17c-0.06,0.33,0.01,0.76,0.19,1.04
		c2.56,3.97,2.29,8.47,2.57,12.9c0.24,3.81-0.42,7.63,1.22,11.46c0.86,2-0.1,4.77-0.23,7.22c0.58,0.18,1.22,0.37,2.25,0.68
		c-1.07,1.24-1.94,2.26-2.95,3.43c1.98,3.16,2.27,6.43,2.22,10.09c-0.1,6.55,0.86,13.12,1.51,19.67c0.3,3.02,0.87,6.01,1.34,9.01
		c0.92,5.79,2.12,11.55,2.71,17.38c0.6,6.02,1.07,12.13,0.73,18.16c-0.35,6.34,0.23,12.48,1.42,18.65c0.51,2.62,1.05,5.24,1.36,7.89
		c1.09,9.38,2.09,18.76,3.09,28.15c0.15,1.42,0.1,2.86,0.14,4.29c0.31,10.73,0.05,21.52,1.11,32.18c0.71,7.16,1.54,14.42,3.58,21.49
		c0.98,3.39,0.82,7.08,3.54,9.82c-0.98,4.18,2.85,5.73,4.56,8.45c0.61,0.97,1.13,2.2,1.15,3.33c0.15,8.22,0.03,16.44,0.27,24.65
		c0.13,4.61,0.85,9.21,1.2,13.82c0.44,5.84,0.78,11.69,1.13,17.54c0.54,9.06,1.01,18.13,1.57,27.19c0.36,5.87,0.86,11.74,1.23,17.61
		c0.44,7.06,0.73,14.13,1.24,21.18c0.66,9.22-0.1,18.56,2.36,27.62c0.13,0.47,0.02,1.01,0.02,2.11c-0.05-0.01-0.1-0.02-0.14-0.03
		c0.05,0.53,0.1,1.07,0.14,1.61c0.54,2.5,0.9,5.06,1.02,7.68c0.05,1.21,0.02,2.43-0.08,3.67c0.08,0.48,0.13,0.97,0.19,1.45
		c0.58,1.25,1.1,2.54,1.56,3.85c3.08,5.84,6.05,11.48,9.08,17.22c1.25,1.42,2.4,2.93,3.45,4.51c1.08,0.25,2.17,0.49,3.26,0.69
		c16.18,1.84,32.85,3.22,49.06,1.86c2.08-0.41,4.14-0.88,6.18-1.43l7.5-2.77c1.75-0.97,3.48-1.99,5.17-3.09
		c2.15-1.9,4.46-3.53,6.9-4.92c0.54-0.67,1.09-1.35,1.56-2.1c3.21-5.08,3-11.8-0.79-15.38c-4.96-4.69-10.34-8.63-17.46-9.87
		c-3.59-0.63-6.95-2.64-10.36-4.13c-2.45-1.07-4.87-2.26-7.24-3.51c-4.21-2.22-8.38-4.51-12.24-6.6c0-6.19-0.07-11.51,0.03-16.83
		c0.05-3.01,0.39-6.01,0.55-9.01c0.48-8.92,1.1-17.85,1.34-26.78c0.24-8.88,2.39-17.53,2.37-26.49c-0.02-8.89,3.3-17.57,2.81-26.62
		c-0.04-0.68,0.49-1.37,0.53-2.07c0.32-5.87,1.14-11.78,0.71-17.6c-0.42-5.6-0.07-11,0.87-16.47c0.6-3.51,1.34-7.05,1.36-10.58
		c0.02-2.34,0.13-5.16-2.26-6.85c-2.46-1.74-2.38-4.03-1.99-6.69c0.78-5.3,1.3-10.64,1.84-15.97c0.49-4.85-0.19-9.86,2.04-14.48
		c0.38-0.8,0.71-1.68,0.79-2.55c0.7-7.28,1.63-14.56,1.91-21.86c0.27-7.14-0.17-14.3-0.24-21.45c-0.01-1.05,0.28-2.1,0.37-3.16
		c0.24-2.82,0.5-5.65,0.66-8.48c0.23-4.08,0.24-8.18,0.59-12.25c0.57-6.59,1.75-13.14,1.92-19.73c0.2-7.63-0.43-15.29-0.63-22.93
		c-0.03-1.22,0.39-2.46,0.53-3.69c0.17-1.41,0.39-2.83,0.37-4.24c-0.1-4.81-0.27-9.63-0.46-14.44c-0.06-1.59,0.14-3.39-0.51-4.74
		c-1.79-3.72-1.69-7.63-1.83-11.56c-0.09-2.68-0.12-5.38-0.49-8.03c-1.03-7.36-1.68-14.66,0.45-21.97c0.43-1.48,0.49-3.28,0.07-4.74
		c-1.17-4.1-1.11-8.07,0.02-12.15c0.42-1.52,0.44-3.2,0.38-4.8c-0.19-4.96-0.9-9.94-0.69-14.88c0.26-5.99,1.26-11.95,1.92-17.92
		c0.14-1.23,0.36-2.48,0.27-3.7c-0.38-4.96-1.05-9.9-1.26-14.86c-0.27-6.4-0.34-12.81-0.21-19.21c0.05-2.26,0.51-4.73,1.56-6.69
		c1.6-3.01,0.71-5.03-1.39-6.56c0.41-1.94,1.11-3.51,0.99-5.02c-0.46-6.04-1.28-12.05-1.77-18.08c-0.42-5.15-3.62-9.88-2.22-15.33
		c0.24-0.94-0.41-2.08-0.58-3.14c-0.54-3.33-1.08-6.67-1.53-10.01c-0.24-1.77-0.2-3.57-0.43-5.34c-0.64-5.07-1.31-10.13-2.04-15.18
		c-0.45-3.12-1.15-6.2-1.55-9.33c-1.29-10.04-2.51-20.09-3.7-30.15c-0.37-3.17-0.01-6.54-0.92-9.53
		c-2.92-9.58-3.45-19.43-4.29-29.29c-0.36-4.19-2.01-8.24-1.73-12.58c0.06-0.92-0.92-1.88-1.37-2.85c-0.44-0.94-1.13-1.89-1.19-2.87
		c-0.35-6.06-0.58-12.13-0.79-18.2c-0.15-4.13-2.71-7.88-1.83-12.19c0.11-0.53-0.61-1.24-0.96-1.86
		c-5.27-9.36-9.18-19.24-11.46-29.75c-0.26-1.22-0.71-2.4-1.06-3.6c-2.15-7.33-4.33-14.66-6.45-22.01
		c-0.84-2.89-1.81-5.78-2.26-8.74c-0.83-5.44-1.46-10.92-1.87-16.41c-0.2-2.62,0.35-5.29,0.45-7.94c0.08-2.26,0.34-4.58-0.06-6.76
		c-1.03-5.59-2.62-11.08-3.54-16.68c-1.98-11.96-3.69-23.96-5.49-35.95c-0.1-0.69,0.12-1.42,0.08-2.13
		c-0.26-5.15-0.64-10.3-0.8-15.45c-0.29-9.06-0.5-18.12-0.65-27.19c-0.02-1.21,0.78-2.42,0.8-3.64c0.02-1.93-0.03-3.93-0.53-5.78
		c-0.8-2.97-1.99-5.84-3.14-9.1c2.46-0.16,4.27-0.05,5.95-0.45c2.22-0.53,4.9-0.89,6.42-2.34c5.1-4.88,9.81-10.18,14.54-15.43
		c0.6-0.67,0.65-2,0.66-3.03c0.12-9.76-0.29-19.55,0.41-29.26c0.44-6.16-0.27-12.1-0.92-18.12c-0.43-4.01-1-8-1.62-12.91
		c5.3,1.56,9.46,3.48,12.83,7.1c3.37,3.62,6.74,7.25,10.34,10.63c3.77,3.54,8.71,6.18,11.5,10.32c3.86,5.73,8.71,10.3,13.92,14.35
		c7.69,5.99,16.06,11.11,24.15,16.58c3.38,2.29,6.58,4.94,10.21,6.72c9.78,4.79,20.16,8.18,30.67,10.77
		c8.34,2.05,16.23,6.35,25.21,5.66c0.54-0.04,1.14,0.76,1.71,1.16c2.87,2,5.74,2.27,8.98,0.63c2.84-1.44,6.03-2.2,8.89-3.62
		c4.44-2.2,9.57-3.89,12.89-7.28c4.77-4.87,8.54-10.87,12.09-16.77c4.16-6.94,8.83-13.68,11.23-21.56c0.2-0.67,0.42-1.5,0.92-1.89
		c3.82-2.96,4.25-7.69,6.26-11.59c1.86-3.6,3.79-7.16,5.68-10.75c0.41-0.78,1.03-1.56,1.1-2.38c0.42-5.07,3.61-8.86,5.76-13.15
		c1.26-2.51,2.32-5.2,2.92-7.93c1.15-5.21,1.17-10.79,3.05-15.68c1.81-4.71,3.3-9.35,3.99-14.3c0.17-1.23,0.3-2.48,0.53-3.7
		c0.57-2.96,1.1-5.81,3.67-8.03c1.11-0.96,1.32-3.13,1.59-4.81c0.22-1.38-0.55-3-0.1-4.23c3.08-8.49,2.3-18.14,7.79-25.89
		c0.29-0.41,0.3-1.02,0.4-1.55C652.34,323.69,651.93,313.74,650.52,303.98z M377.88,213.51c1.19,2.21,1.23,5.2,1.27,7.85
		c0.09,5.92,0.18,11.79,2.11,17.5c0.49,1.46,0.27,3.15,0.42,4.74c0.22,2.26,0.55,4.51,0.69,6.77c0.11,1.89-0.19,3.82,0.04,5.69
		c0.48,3.89,1.23,7.74,1.81,11.61c1.17,7.75,2.37,15.5,3.42,23.26c0.47,3.51,0.47,7.07,0.91,10.58c1.07,8.5,3.17,16.99,3.12,25.48
		c-0.04,6.5,2.05,12.43,2.93,18.39c-5.02,0-9.57,0-14.12,0c-0.18,0-0.37-0.09-0.53-0.05c-7.42,1.67-14.98,2.56-22.21,5.26
		c-8.28,3.09-16.11,7.57-25.35,7.89c-3.82,0.13-7.6,1.53-11.48,2.38c-1.25-11.16-2.47-22.05-3.69-32.97c1.53-1,2.69-1.78,3.88-2.54
		c5.9-3.75,11.28-7.98,15.22-13.97c1.72-2.62,4.5-4.52,6.6-6.92c2.09-2.38,3.87-5.03,5.92-7.46c1.37-1.63,2.92-3.13,4.48-4.59
		c2.43-2.29,5.08-4.37,7.33-6.83c1-1.09,1.14-2.93,1.82-4.36c1.68-3.54,3.54-6.99,5.15-10.57c0.85-1.9,1-3.91,1.11-6.09
		c0.15-3.14,1.7-6.48,3.48-9.19c2.4-3.66,0.91-7.64,1.7-11.39c0.21-0.99-2.46-2.58-4.2-4.28c4.29-5.6,3.19-12.35,3.94-18.54
		c0.73-6-0.32-12.22-0.59-18.47c0.92,0.18,1.47,0.19,1.49,0.3C375.24,206.63,376.06,210.13,377.88,213.51z M350.68,258.16
		c-0.55-3.74-1.19-6.95-1.38-10.18c-0.06-1.03,0.83-2.65,1.73-3.1c4.12-2.05,8.38-3.8,12.63-5.59c0.36-0.15,0.96,0.27,1.78,0.53
		c-0.51,2.69-0.94,4.93-1.43,7.52C357.96,248.51,355.33,254.4,350.68,258.16z M368.1,245.76v-2.19c0.4,0.1,0.81,0.19,1.21,0.29
		c-0.17,0.68-0.34,1.36-0.52,2.04C368.56,245.85,368.33,245.8,368.1,245.76z M280.14,97.05c3.1,0.53,6.16,1.02,9.34,1.24
		c5.77,0.4,11.74,1.83,17.04,4.17c7.81,3.45,15.01,8.24,22.62,12.16c8.64,4.44,14.07,11.82,19.09,19.7
		c1.63,2.55,3.82,4.82,5.04,7.54c2.34,5.18,4.27,10.55,6.2,15.9c1.56,4.33,3.28,8.49,5.5,12.59c2.59,4.77,3.85,10.31,5.35,15.61
		c0.58,2.05,0.95,3.89,2.39,5.71c1.15,1.46,1.06,3.96,1.3,6.03c0.03,0.28-1.2,0.71-1.69,0.98c-0.39-2.32-0.26-4.08-0.97-5.38
		c-4.4-7.98-8.69-16.16-15.7-22.17c-5.75-4.92-10.92-10.52-17.63-14.37c-5.71-3.28-10.89-7.48-16.48-11
		c-4.95-3.12-10.02-6.1-15.25-8.7c-8.8-4.36-15.52-11.28-22.69-17.68c-0.74-0.66-1.18-1.76-1.5-2.74
		c-1.49-4.57-2.94-9.16-4.27-13.78c-0.53-1.84-0.71-3.79-1.13-6.17C278.19,96.85,279.18,96.89,280.14,97.05z M189.84,153.28
		c0.27,0.01,0.54,0.02,0.81,0.03c-0.09,1.46-0.19,2.92-0.28,4.38c-0.3,0.06-0.59,0.11-0.89,0.17
		C189.6,156.33,189.72,154.8,189.84,153.28z M188.66,193.71c0.05-0.51,0.58-1.02,0.52-1.49c-1.26-11.02,3.18-21.31,4.16-32.07
		c0.84-9.18,4.29-17.58,10.65-24.88c3.74-4.3,5.76-10.07,8.61-15.16c2.03-3.63,3.56-7.47,8.34-8.91c3.32-0.99,6.09-3.71,9.35-5.05
		c3.74-1.54,7.77-2.39,11.66-3.6c4.24-1.32,8.46-2.7,12.68-4.06c4.61-1.49,9.25-1.6,13.69-0.93c1.72,4.44,0.2,7.38-2.3,10.26
		c-5.47,6.31-10.67,12.86-16.16,19.15c-4.07,4.66-8.59,8.92-12.6,13.63c-3.45,4.05-6.86,8.27-6.8,14.51
		c-1.66,0.23-2.71,0.51-3.74,0.48c-2.5-0.09-3.92,1.18-5,3.3c-0.79,1.55-1.86,2.99-2.97,4.34c-4.69,5.73-9.43,11.42-14.17,17.12
		c-0.57,0.69-1.09,1.59-1.84,1.92c-6.5,2.85-9.37,9.18-14.14,14.88C188.63,195.5,188.57,194.6,188.66,193.71z M191.57,206.29
		c4.11-6.41,7.62-13.11,14.59-17.03c0.87-0.49,1.37-1.61,2.09-2.39c1.79-1.95,3.67-3.82,5.4-5.82c1.49-1.72,2.85-3.55,4.21-5.37
		c2.33-3.11,4.61-6.25,6.23-8.44c3.37-0.71,5.83-1.14,8.24-1.76c2.07-0.53,4.19-1.06,6.11-1.95c7.12-3.31,13.87-2.29,20.54,1.32
		c1.37,0.74,2.97,1.32,4.51,1.44c2.13,0.16,3.82-0.98,4.48-3.11c0.59-1.9-0.04-3.53-1.68-4.7c-0.87-0.62-1.71-1.44-2.7-1.74
		c-5.28-1.63-10.58-3.25-15.94-4.58c-1.4-0.35-3.08,0.32-4.6,0.63c-1.51,0.31-2.99,0.75-4.96,1.25c0.15-1.21-0.02-2.08,0.34-2.45
		c4.02-4.15,6.14-9.91,11.19-13.18c0.44-0.28,0.8-0.73,1.1-1.17c3.58-5.13,7.99-9.44,12.79-13.41c1.07-0.89,1.91-2.11,2.66-3.3
		c1.02-1.63,1.7-3.48,2.82-5.03c1.13-1.57,2.63-2.88,4.05-4.4c0.42,0.37,1.17,0.77,1.12,1.02c-1.13,5.78,1.65,10.37,5.45,13.84
		c6.29,5.75,13.01,11.12,19.99,16.02c5.48,3.85,11.63,6.75,17.46,10.11c0.42,0.24,0.67,0.78,1.18,1.4
		c-2.91,0.39-5.68,0.49-8.31,1.17c-4.28,1.11-8.51,2.45-12.66,3.97c-2.19,0.8-3.16,2.83-3.23,5.16c-0.08,2.42,1.3,3.81,3.66,3.4
		c1.74-0.3,3.56-0.77,5.09-1.63c4.64-2.59,9.73-2.15,14.69-2.29c1.56-0.04,3.26,1.03,4.73,1.88c5.78,3.33,5.98,3.35,10.76-1.81
		c3.73,2.38,7.76,4.59,11.36,7.37c3.64,2.82,6.85,6.19,10.23,9.34c0.52,0.48,0.99,1.05,1.39,1.63c3.39,4.97,6.51,10.16,10.25,14.86
		c1.96,2.46,1.81,5.05,1.71,7.54c-0.24,6.22-0.95,12.42-1.56,18.61c-0.16,1.59-0.49,3.21-1.04,4.7c-0.42,1.13-1.25,2.91-2.01,2.98
		c-4.56,0.37-7.03,4.54-11.07,5.75c-1.18,0.35-2.68,0.62-3.37,1.46c-3,3.69-6.28,2.51-9.66,0.9c-8.11-3.89-15.13-9.41-22.07-15.02
		c-2.25-1.81-4.35-3.63-7.57-3.42c-1.15,0.08-2.48-0.51-3.52-1.14c-4.08-2.45-8.07-5.03-12.65-7.91c0.65-3.32-2.5-4.6-5.5-5.7
		c-0.8-0.3-2.09,0.71-3.15,1.12c1.87,3.15-1.89,3.98-2.62,6.1c-0.85,2.45-1.78,2.4-3.77,0.57c-3.18-2.91-3.18-2.91-6.41-0.37
		c-0.42,0.33-0.8,0.88-1.26,0.95c-8.31,1.3-14.87,6.64-22.41,9.69c-0.97,0.39-2.07,0.5-3.42,0.8c-0.08,2.87-1.98,4.29-4.59,4.82
		c-5.54,1.12-10.62,4.28-16.64,3.36c-3.03-0.46-4.88,1.63-5.91,3.86c-2.74,0.46-5.16,0.87-8.1,1.36c-1.76-1.84-3.45-4.65-5.94-6.01
		c-5.48-2.98-9.16-7.15-11.14-12.96C186.41,214.91,188.52,211.05,191.57,206.29z M210.76,264.25c-0.47,0.13-0.94,0.27-1.41,0.4
		c0.11-2.06-3.5-3.31-0.52-6.72C209.61,260.47,210.18,262.36,210.76,264.25z M181.73,241.54c0.14-6.41,0.39-12.81,0.8-19.21
		c0.1-1.6,0.94-3.16,1.89-4.64c0.73,6.17,2.86,11.11,7.81,14.99c5.28,4.14,10.09,8.88,15.26,13.5c-0.65,2.14-1.34,4.44-2.07,6.89
		c-6.32-3.14-11.24-7.66-15.71-12.73c-1.87-2.12-3.79-2.73-5.5-1.52c-2.07,1.45-1.19,3.3-0.21,4.73c1.48,2.16,3.31,4.09,5.04,6.07
		c3.77,4.31,8.66,7.47,11.18,13.1c2.81,6.28,6.67,12.11,10.18,18.06c0.7,1.19,1.91,2.08,2.91,3.08c2.77,2.76,5.54,5.52,8.34,8.25
		c1.89,1.84,3.68,3.82,5.77,5.41c4.68,3.56,9.49,6.94,14.32,10.31c1.14,0.79,2.52,1.22,3.79,1.82c3.53,1.68,7.07,3.34,10.6,5.05
		c0.64,0.31,1.48,0.64,1.75,1.19c3.16,6.32,9.33,5.62,14.82,6.3c4.66,0.57,9.38,1.12,14.05,0.98c3.68-0.11,7.44-0.98,10.43-3.61
		c1.81-1.59,3.74-2.56,6.34-1.65c1.06,0.37,2.61,0.26,3.6-0.27c5.34-2.83,10.92-5.39,15.78-8.93c7.18-5.23,13.68-11.27,16.98-20.01
		c0.78-2.07,2.53-3.94,4.22-5.48c3.57-3.25,5.69-7.09,6.03-11.92c0.03-0.49,0.3-0.99,0.56-1.43c3.01-4.96,7.2-8.8,11.77-12.45
		c-0.11,5.74-1.91,10.77-4.27,15.73c-2.89,6.05-7.09,10.88-11.92,15.48c-4.07,3.88-7.06,8.88-10.72,13.23
		c-5.52,6.57-11.37,12.98-18.79,17.32c-5.94,3.48-6.36,8.24-5.59,13.98c1.1,8.14,1.98,16.31,3.18,24.43
		c0.43,2.93-0.4,4.03-3.32,4.81c-7.11,1.9-14.16,3.75-21.63,3.12c-1.4-0.12-2.96-0.04-4.26,0.44c-6.42,2.39-12.79,2.51-18.7,0.01
		c-0.75-5.75-1.6-11.53-2.22-17.34c-0.45-4.23-0.92-8.5-0.76-12.72c0.08-2.22-0.46-3.44-2.29-4.22c-1.48-0.63-2.99-1.31-4.55-1.6
		c-11.94-2.28-21.09-9.14-29.3-17.6c-1.61-1.66-3.39-3.18-4.85-4.96c-2.24-2.71-4.58-5.27-6.26-8.53
		c-1.93-3.73-5.12-6.79-7.66-10.22c-1.91-2.58-3.69-5.26-5.49-7.91c-0.4-0.59-0.49-1.46-1-1.88c-5.37-4.54-7.49-11.1-10.75-16.96
		c-2.85-5.11-5.96-10.09-8.69-15.26C181.85,245.27,181.69,243.29,181.73,241.54z M179.65,261.77c0.45-0.24,0.9-0.48,1.35-0.72
		c0.83,0.88,1.83,1.65,2.47,2.64c3.36,5.2,6.34,10.67,10,15.65c5.52,7.51,11.82,14.47,17.13,22.12c2.42,3.48,4.79,6.88,7.57,10.13
		c6.19,7.22,13.38,13.25,20.92,18.91c4.73,3.56,9.83,6.49,16.4,6.73c1.28,9.8,2.54,19.45,3.9,29.86c-2.3,0.43-4.64,1.12-7.01,1.26
		c-14.06,0.81-26.4-3.62-38.19-11.28c-8.37-5.44-17.91-9.02-28.06-6.15c0-2.85,0.17-5.17-0.04-7.46c-0.24-2.61-0.89-5.17-1.21-7.77
		c-0.34-2.79-0.46-5.61-0.77-8.4c-0.27-2.46-0.76-4.91-0.98-7.37c-0.28-3-0.41-6.02-0.56-9.03c-0.29-5.69-0.6-11.38-0.8-17.08
		c-0.27-7.77-0.46-15.54-0.65-23.31c-0.02-0.69,0.15-1.43,0.41-2.07C182.56,265.93,183.06,263.56,179.65,261.77z M282.86,1064.04
		c-0.24-0.03-0.47-0.06-0.71-0.09c0.09-1.5,0.18-2.99,0.27-4.49c0.44,0.13,0.87,0.26,1.31,0.39L282.86,1064.04z M281.71,1055.62
		v-2.58c0.4,0.05,0.81,0.11,1.21,0.16c-0.12,0.83-0.24,1.65-0.35,2.48C282.28,1055.66,281.99,1055.64,281.71,1055.62z
		 M282.24,1048.17c-0.21-0.47-0.05-1.1-0.05-1.66c0.29-0.05,0.59-0.09,0.88-0.14c0.27,0.86,0.54,1.71,1.14,3.59
		C283.04,1048.93,282.45,1048.63,282.24,1048.17z M426.36,797.92c2.28,11.18,3.96,22.42,4.96,33.8c0.81,9.25,2.11,18.45,3.2,27.68
		c0.04,0.36,0.04,0.74,0.18,1.06c2.59,6.31,2.61,13.04,3.18,19.68c0.12,1.39-0.03,2.82,0.16,4.2c0.32,2.29,0.76,4.56,1.24,6.82
		c0.51,2.41,1.44,4.78,1.61,7.2c0.39,5.71,0.49,11.44,0.56,17.16c0.02,1.57-0.64,3.13-0.74,4.71c-0.11,1.71,0.02,3.45,0.13,5.16
		c0.04,0.68,0.47,1.36,0.46,2.03c-0.07,3.54,0.13,7.13-0.42,10.6c-0.96,6.16-0.32,12.02,1.86,17.8c0.3,0.8,0.32,1.79,0.2,2.65
		c-0.95,6.49-2.4,12.95-2.82,19.47c-0.33,5.24-0.83,10.45-0.3,15.89c0.64,6.52,1.8,13.46-0.33,20.13c-0.37,1.16-0.61,2.53-0.37,3.69
		c1.09,5.22,0.07,10.16-0.85,15.32c-0.78,4.4,0.37,9.18,0.88,13.76c0.55,4.96,1.09,9.95,2.1,14.83c2.01,9.79,0.53,19.6,0.72,29.4
		c0.07,3.54,0.43,7.08,0.68,10.61c0.05,0.7,0.32,1.41,0.28,2.1c-0.38,7.41-0.61,14.84-1.27,22.23c-0.49,5.51-1.62,10.97-2.33,16.47
		c-0.2,1.56,0.03,3.19,0.14,4.79c0.15,2.13,0.83,4.32,0.51,6.37c-1.65,10.65,0.16,21.39-1.02,32.03
		c-0.69,6.22-1.43,12.43-2.22,18.64c-1.36,10.65-2.77,21.3-4.18,31.94c-0.11,0.84-0.43,1.65-0.7,2.66
		c-9.8-1.75-19.46-1.22-29.04-0.65c-5.79,0.35-11.56,2.03-17.19,3.62c-2.02,0.57-3.62,2.66-5.85,4.4c-3.32-2.91-4.18-7.35-4.4-11.31
		c-0.4-7.01-1.85-13.78-2.81-20.67c-0.92-6.67-0.6-13.52-0.84-20.29c-0.17-4.66-0.61-9.21-1.99-13.77
		c-0.83-2.75-0.02-5.97-0.16-8.97c-0.13-2.62-0.57-5.23-0.86-7.84c-0.34-3-1.16-6.05-0.9-8.99c0.56-6.2-0.79-12.05-2.01-18.01
		c-0.6-2.92-0.51-6-0.54-9.01c-0.03-3.9,0.45-7.83,0.15-11.71c-0.66-8.35-1.55-16.69-2.61-25.01c-0.41-3.21-1.77-6.29-2.25-9.5
		c-0.47-3.13-0.38-6.34-0.52-9.51c-0.02-0.35,0.19-0.78,0.06-1.04c-1.59-3.07-1.83-6.05-1.31-9.63c0.71-4.89,0.15-10.02-0.26-15.01
		c-0.29-3.5-1.4-6.93-1.85-10.42c-0.27-2.09,0.27-4.28,0.02-6.38c-1.09-9.2-2.39-18.38-3.49-27.58c-0.82-6.88-0.9-13.9-2.28-20.65
		c-2.66-12.95-4.9-25.94-6.51-39.05c-0.57-4.6-1.74-9.13-2.76-13.66c-1.37-6.1-2.65-12.23-4.36-18.23
		c-2.38-8.35-5.61-16.49-7.55-24.94c-1.49-6.51-6.12-11.15-8.38-17.09c-0.12-0.33-0.3-0.7-0.57-0.9c-3.45-2.5-4.67-6.12-4.91-10.02
		c-7.46-2.47-9.59-1.27-12.41,5.57c-2.01,4.87-2.4,9.98-3.4,15c-0.41,2.08-0.94,4.13-1.37,6.21c-0.76,3.62-0.97,7.31-1.88,10.93
		c-0.9,3.61-0.72,7.48-1.46,11.14c-0.88,4.34-2.26,8.57-3.37,12.86c-2.85,11.06-6.15,22.03-6.58,33.58
		c-0.1,2.64-1.21,5.22-1.47,7.87c-1.03,10.29-1.8,20.62-2.9,30.9c-0.56,5.25-1.93,10.41-2.35,15.66
		c-0.52,6.57-0.68,13.19-0.57,19.78c0.16,9.26,1.32,18.46-0.14,27.79c-0.98,6.29-0.3,12.82-0.5,19.25
		c-0.24,7.34-0.88,14.67-0.9,22.01c-0.02,9.72-2.03,19.13-3.81,28.59c-0.93,4.92-1.67,9.89-2.33,14.85
		c-1.49,11.34-4.52,22.36-7.04,33.48c-1.89,8.35-3.9,16.68-6.21,24.92c-1.39,4.97-3.5,9.73-5.24,14.61
		c-1.38,3.86-2.78,7.72-3.98,11.64c-1.71,5.6-3.25,11.25-4.86,16.9c-16.48,2.93-32.87,5.84-49.09,8.71c0-8.36,0.3-16.9-0.1-25.4
		c-0.28-6.04-1.42-12.05-2.34-18.05c-0.92-5.99-2.26-11.91-3.03-17.91c-0.84-6.54-1.86-13.14-1.72-19.69
		c0.28-13.22,0.12-26.43-0.79-39.59c-0.5-7.25-0.16-14.59-2.07-21.8c-0.99-3.72-0.49-7.82-0.87-11.73c-0.27-2.77,0.4-4.92,3.38-6.19
		c-6.2-8.66-5.63-18.25-4.91-27.87c0.23-3.03,0.76-6.08,0.56-9.09c-0.52-7.96,1.46-15.63,2.24-23.43c0.09-0.88,0.48-1.79,0.36-2.63
		c-1.07-7.84-0.55-15.65,0.02-23.49c0.63-8.72,0.92-17.46,1.29-26.19c0.07-1.59-0.21-3.2-0.38-4.8c-0.57-5.24,0.36-10.21,2.52-15.76
		c0.79,1.59,1.26,2.53,1.83,3.69c2.33-3.62,2.12-4.92-0.57-6.96c-0.72-0.55-1.47-1.51-1.55-2.35c-0.18-1.94-0.13-3.95,0.15-5.88
		c0.74-5.07,3.88-9.72,2.57-15.19c-0.35-1.47-0.04-3.09,0-4.65c0.05-1.75,0.11-3.5,0.22-5.25c0.05-0.88,0.51-1.84,0.28-2.61
		c-1.63-5.47-0.24-10.95-0.25-16.42c-0.01-2.8-0.75-5.6-1.16-8.4c-0.08-0.52-0.3-1.04-0.25-1.55c0.5-5.44,1.13-10.86,1.54-16.31
		c0.46-6.21,0.69-12.44,1.07-18.66c0.12-1.95,0-4.02,0.66-5.8c2.08-5.62,1.78-11.12,0.24-16.79c-1.02-3.73-1.36-7.64-2.27-11.41
		c-0.54-2.21-1.5-4.33-2.46-6.4c-0.88-1.88-0.46-3.08,0.87-4.72c7.15-8.84,14.11-17.84,21.07-26.83c0.85-1.1,1.41-2.48,1.91-3.81
		c3.82-10.15,8.03-20.18,8.66-31.23c0.17-3.07,2.89-5.91,0.54-8.76c3.28-1.02,6.12-1.91,8.98-2.78c0.51-0.15,1.1-0.37,1.57-0.24
		c4.56,1.19,8.87-0.72,13.13-1.49c5.19-0.95,10.21-3.22,15.09-5.4c5.18-2.32,10.27-3.74,16.07-3c3.08,0.39,6.34-0.7,9.52-1.03
		c6.35-0.65,12.7-1.41,19.07-1.81c11.03-0.69,22.08-1.25,33.12-1.66c4.61-0.17,9.24,0.14,13.86,0.29c6.23,0.2,12.41,0.42,18.41,2.74
		c3.04,1.18,4.65,2.63,5.27,5.88c1.65,8.66,4.6,16.81,9.38,24.36c2.68,4.24,5.1,8.52,9.39,11.37c0.56,0.38,1.02,1.04,1.32,1.67
		c3.43,7.27,9.76,11.67,16.01,16.12c3.77,2.69,7.68,5.18,11.46,7.86C424.83,793.59,425.84,795.38,426.36,797.92z M207.4,769.56
		c-8.88-5.76-15.53-12.66-21.39-21.11c4.42-1.79,8.55-4.05,12.96-5.08c4.6-1.08,9.48-0.97,15.59-1.5
		C212.06,751.56,209.82,760.21,207.4,769.56z M393.78,757.96c0.41-0.31,0.82-0.61,1.23-0.92c0.87,1.2,1.74,2.41,2.61,3.61
		c-0.34,0.25-0.67,0.51-1.01,0.76C395.67,760.26,394.73,759.11,393.78,757.96z M405.67,770.97c3.07,0.48,2.4,2.49,2.37,4.16
		C407.27,773.87,406.55,772.56,405.67,770.97z M408.36,775.36c1.34,0.17,2.68,0.33,4.01,0.5c-0.05,0.28-0.11,0.56-0.16,0.83
		C410.93,776.24,409.65,775.8,408.36,775.36z M425.01,784.85c-4.42,2.35-4.82-2.88-8.07-2.81c1.07-2.3,0.88-4-0.92-5.79
		c-6.42-6.37-12.63-12.95-18.86-19.52c-0.7-0.74-1.04-1.85-1.45-2.84c-1.02-2.5-2.7-3.65-5.22-2.66c-0.51-1.2-0.7-2.44-1.41-3.19
		c-3.8-3.97-6.45-8.4-6.72-14.06c-0.11-2.4-0.58-4.77-0.88-7.16c2.39-0.13,4.78-0.43,7.16-0.34c4.45,0.18,8.89,0.59,13.34,0.91
		c0.35,0.03,0.87-0.02,1.03,0.19c3.62,4.47,9.46,4.41,14.19,6.81C419.88,751.63,422.45,768.29,425.01,784.85z M407.64,477.04
		c0.04,5.88-3.58,9.89-6.71,14.18c-1.04,1.43-2.31,2.74-3.66,3.89c-1.03,0.88-2.27,1.73-3.55,2.07c-1.96,0.51-4.03,0.57-7.24,0.97
		c-0.28-1.28-0.85-2.72-0.87-4.17c-0.04-2.66,0.99-5.58,0.23-7.95c-1.43-4.44-1.2-9.06-2.14-13.31c-1.02-4.6-0.4-8.82-0.15-13.09
		c0.29-5.09,1.49-10.18,2.29-15.23c0.85-5.36,2.58-10.99,6.1-15.65c0.89-1.18,1.28-2.82,1.61-4.31c1.02-4.62,5.61-7.01,9.2-4.51
		c1.01,0.7,1.99,2.14,2.12,3.33c1.12,9.71,2.4,19.42,2.91,29.17C408.22,460.62,407.59,468.84,407.64,477.04z M642.27,303.05
		c-0.53,4.42-0.57,8.92-0.58,13.38c-0.02,8.42-1.15,16.67-3.31,24.81c-1.46,5.51-2.67,11.08-3.89,16.65
		c-0.22,1.01-0.08,2.13,0.06,3.18c0.4,2.9-0.35,5.22-1.71,7.98c-2.25,4.56-3.01,9.84-4.39,14.83c-1.09,3.94-2.16,7.88-3.23,11.83
		c-0.79,2.92-2.05,5.81-2.24,8.77c-0.4,6.31-3.53,11.45-6.13,16.88c-2.83,5.93-5.23,12.07-8.13,17.96
		c-3.3,6.69-6.96,13.21-10.47,19.8c-0.25,0.47-0.76,0.84-0.89,1.33c-1.8,6.86-6.32,12.18-9.94,18.04c-2.1,3.41-4.82,6.33-6.55,10.16
		c-1.41,3.12-5.69,5.14-9.01,7.14c-2.72,1.63-5.86,2.6-8.88,3.69c-1.7,0.61-3.35,2.03-5.39,0.06c-0.67-0.64-2.7,0.08-4.1,0.25
		c-4.31,0.53-8.45,0.35-12.67-1.19c-7.21-2.63-14.46-5.79-21.96-6.84c-6.22-0.87-11.28-4.14-17.13-5.5c-1.85-0.43-3.56-1.64-5.2-2.7
		c-5.99-3.87-11.7-8.21-17.92-11.65c-7.07-3.91-13.51-8.59-19.4-14c-3.25-2.99-5.85-6.68-8.74-10.06
		c-3.46-4.05-6.59-8.36-11.44-11.07c-1.76-0.98-2.8-3.18-4.3-4.7c-3.73-3.79-7.15-8.05-11.41-11.1c-4-2.86-8.93-4.45-13.47-6.54
		c-2.09-0.96-4.33-1.64-6.35-2.72c-6.81-3.64-14.01-0.58-16.55,6.74c-1.56,4.49-3.82,8.74-5.71,13.12
		c-0.84,1.96-1.91,3.93-2.23,5.99c-2.04,13.38-5.31,26.63-2.44,40.4c1.56,7.5,1.79,15.27,2.88,22.87c0.78,5.4,2.43,10.7,2.89,16.11
		c0.55,6.4,0.72,12.92,0.18,19.31c-1.08,12.7,0.09,25.16,2.34,37.63c0.66,3.67,0.45,7.49,1.01,11.19
		c1.77,11.82,3.7,23.61,5.58,35.41c0.22,1.41,0.89,2.88,0.69,4.21c-1.84,11.81,1.54,23.01,3.47,34.43c1.46,8.67,3.78,17,6.58,25.26
		c2.57,7.59,5.13,15.18,7.69,22.78c0.23,0.68,0.4,1.38,0.7,2.03c2.49,5.45,5,10.89,7.5,16.33c-0.31,0.24-0.63,0.49-0.94,0.73
		c-3.62-1.73-7.14-3.71-10.89-5.1c-2.8-1.04-5.9-1.29-8.85-1.96c-4.32-0.98-8.63-2.03-12.95-3.02c-0.68-0.16-1.46-0.44-2.08-0.26
		c-6.61,1.91-13.16,0.06-19.68-0.45c-6.61-0.52-13.14-0.78-19.78-0.45c-11.01,0.55-22.06,0.42-33.09,0.6
		c-1.42,0.02-2.85,0.17-4.27,0.29c-12.25,1.08-24.51,2.11-36.76,3.28c-2.96,0.28-5.74,1.25-8.61,2.28
		c-7.34,2.63-14.36,6.15-22.33,7.27c-10.55,1.48-21.04,3.62-31.09,7.45c-1.59,0.61-3.56,0.76-5.25,0.49
		c-6.95-1.12-12.26,2.47-17.86,5.82c-2.12-0.34-3.16-1.56-3.29-3.95c-0.41-7.85-0.88-15.71-1.54-23.54
		c-0.43-5.09-1.21-10.15-1.86-15.22c-0.29-2.24-0.62-4.36-0.41-6.76c0.52-5.97-0.2-12.03,0.04-18.04c0.16-4.18,0.56-8.49,1.79-12.45
		c2.36-7.64,5.38-15.07,8.11-22.59c0.24-0.67,0.53-1.39,0.51-2.07c-0.19-8.02,2.36-15.69,5.22-22.74
		c2.98-7.35,2.29-15.62,6.73-22.38c0.35-0.53,0.36-1.42,0.26-2.1c-0.75-4.87,0.65-9.59,0.92-14.36c0.41-7.23-0.52-14.52-0.51-21.79
		c0.01-4.56-0.78-9.2,1.64-13.67c0.97-1.79,0.01-4.53,0.31-6.79c0.5-3.76,0.74-7.42-0.76-11.04c-0.33-0.8-0.56-1.85-0.33-2.64
		c1.13-3.87,0.46-7.55-0.09-11.47c-0.52-3.68-0.14-7.44-2.03-10.89c-0.31-0.57-0.45-1.5-0.21-2.07c1.6-3.93,0.19-7.8-0.13-11.68
		c-0.21-2.47-0.6-4.74,0.81-7.21c1.56-2.73-0.03-5.66-1.39-8.11c-1.1-1.98-4.86-1.24-5.72,0.95c-0.26,0.65-0.37,1.4-0.37,2.11
		c-0.02,6.05-0.37,12.12,0.08,18.13c1.4,18.8,3.1,37.56,1.92,56.46c-0.63,10.12-0.23,20.33-1.29,30.4
		c-0.7,6.64-1.1,13.33-2.63,20.02c-2.08,9.05-6.17,17.62-7.07,26.81c-0.85,8.68-4.43,16.48-6.63,24.68
		c-1.45,5.43-3.51,10.79-5.13,16.27c-1.78,6.06-1.41,12.1-1.45,18.11c-0.07,9.52,0.71,19.04,2.15,28.5
		c0.86,5.64,1.04,11.41,1.23,17.13c0.22,6.67,1.55,13.07,3.95,19.27c0.78,2.02,1.69,3.73,3.81,4.93c2.11,1.2,3.9,3.08,5.55,4.92
		c2.14,2.39,4.1,4.95,5.93,7.59c1.1,1.58,2.06,3.36,2.6,5.2c1.09,3.64,3.16,5.87,7.02,6.43c0.97,0.14,1.86,0.9,3.27,1.63
		c-1.26,1.82-2.3,3.43-3.44,4.96c-2.88,3.87-5.74,7.77-8.73,11.55c-3.25,4.1-5.65,5.16-10.17,2.75
		c-5.46-2.91-10.41-6.78-15.51-10.36c-1.59-1.12-2.94-2.59-4.37-3.94c-2.76-2.6-5.48-5.25-9.01-4.61
		c-4.77-10.29-9.44-19.88-13.68-29.65c-2.81-6.47-5.25-13.13-7.39-19.85c-0.93-2.93-0.64-6.25-1.01-9.38
		c-0.45-3.84-0.98-7.66-1.55-11.48c-0.91-6.17-1.87-12.34-2.84-18.5c-1.16-7.44-2.02-14.87-0.34-22.36
		c0.25-1.13-0.23-2.42-0.33-3.64c-0.45-5.51-0.91-11.02-1.32-16.53c-0.16-2.13-0.02-4.31-0.38-6.41
		c-1.49-8.88-1.18-17.71,0.39-26.54c0.34-1.91,0.09-3.93,0.16-5.9c0.09-2.85-0.63-6.12,0.5-8.48c3.34-6.99,0.95-14.34,2.15-21.3
		c1.87-10.8-1.05-21.67,1.49-32.4c0.74-3.14-0.72-6.76-0.14-9.97c1.24-6.78,3.19-13.43,4.79-20.15c0.69-2.92,1.47-5.85,1.79-8.82
		c0.38-3.59,0.98-7.02,2.81-10.21c3.71-6.47,5.08-13.61,5.8-20.94c0.58-5.99,1.33-11.96,2.05-17.93c0.11-0.87,0.32-1.81,0.77-2.54
		c4.2-6.86,2.67-14.86,4.42-22.21c0.13-0.54-0.49-1.26-0.9-2.23c-1.58,0.6-2.97,1.12-5.29,2c4.81-18.27,6.35-36.8,16.03-53.71
		c0.1-0.02,0.95-0.33,1.78-0.29c2.59,0.11,4.29-1.18,4.61-3.57c1.02-7.62,6.97-11.21,12.2-15.41c0.52-0.42,1.27-0.66,1.95-0.78
		c10.58-1.87,20.52-0.05,30.02,4.96c6.62,3.49,13.33,6.84,20.19,9.81c7.81,3.38,16.17,2.36,24.32,1.81
		c5.33-0.36,10.54-1.37,15.98-0.53c4.52,0.7,9.23,1.16,13.55-1.68c1.16-0.76,3.15-0.4,4.74-0.33c6.66,0.28,13.2-0.18,19.44-2.78
		c0.16-0.07,0.35-0.13,0.52-0.13c8.81-0.1,17.12-3.06,25.68-4.53c7.73-1.32,15.38-2.81,22.46-6.52c7.61-3.99,16.06-4.88,24.44-5.43
		c4.06-0.27,8.01-0.09,11.78,3.08c3.72,3.12,8.8,4.58,13.23,6.89c8.76,4.57,16.29,10.71,23.13,17.85c4.78,4.98,9.8,9.71,15.76,13.48
		c4.47,2.82,8.23,6.78,12.26,10.28c4.65,4.05,9.12,8.33,13.91,12.21c5.07,4.12,10.47,7.83,15.64,11.83
		c1.53,1.18,2.86,2.66,4.12,4.15c3.09,3.64,7.38,5.85,10.54,9.62c2.35,2.8,7.09,4.38,10.98,4.94c6.05,0.87,12.29,0.4,18.45,0.51
		c2.48,0.04,4.97,0.05,7.44,0.16c4.68,0.21,9.02-0.14,11.16-5.33c0.3-0.72,1.12-1.26,1.78-1.79c0.69-0.55,1.95-0.84,2.15-1.48
		c2.26-7.45,10.62-10.42,12.98-17.8c0.28-0.87,1.46-1.46,2.22-2.18c2.47-2.35,4.24-4.91,5.35-8.38c1.88-5.85,4.91-11.32,7.39-16.97
		c0.86-1.95,1.47-4,2.31-5.96c1.34-3.11,2.83-6.15,4.13-9.27c0.68-1.63,1.34-3.32,1.61-5.05c0.91-5.94,2.66-11.56,4.78-17.21
		c1.58-4.21,1.41-9.12,1.68-13.75c0.36-6.25,0.72-12.42,2.92-18.42c2.38-6.48,4.46-13.1,6.28-19.76c0.78-2.84,0.56-5.95,0.83-9.26
		c1.49,0.34,2.55,0.43,3.49,0.82c8.17,3.35,16.11,0.52,24.09-0.87c1.56-0.27,3.09-0.75,4.6-1.13
		C642.29,297.8,642.61,300.17,642.27,303.05z"/>
	<path class="st1" d="M634.56,361.07c-0.14-1.05-0.28-2.17-0.06-3.18c1.22-5.57,2.43-11.14,3.89-16.65
		c2.15-8.14,3.29-16.38,3.31-24.81c0.01-4.47,0.04-8.96,0.58-13.38c0.35-2.88,0.02-5.25-2.02-7.61c-1.51,0.38-3.04,0.86-4.6,1.13
		c-7.99,1.39-15.92,4.22-24.09,0.87c-0.94-0.39-2-0.48-3.49-0.82c-0.26,3.31-0.05,6.42-0.83,9.26c-1.82,6.66-3.9,13.28-6.28,19.76
		c-2.2,6-2.56,12.17-2.92,18.42c-0.27,4.62-0.1,9.54-1.68,13.75c-2.12,5.65-3.86,11.27-4.78,17.21c-0.27,1.73-0.93,3.42-1.61,5.05
		c-1.31,3.12-2.8,6.16-4.13,9.27c-0.84,1.96-1.46,4.01-2.31,5.96c-2.49,5.65-5.52,11.13-7.39,16.97c-1.11,3.47-2.88,6.02-5.35,8.38
		c-0.76,0.72-1.94,1.31-2.22,2.18c-2.35,7.38-10.72,10.35-12.98,17.8c-0.2,0.65-1.46,0.93-2.15,1.48c-0.66,0.53-1.48,1.07-1.78,1.79
		c-2.14,5.18-6.48,5.54-11.16,5.33c-2.48-0.11-4.96-0.12-7.44-0.16c-6.16-0.1-12.4,0.36-18.45-0.51c-3.9-0.56-8.63-2.13-10.98-4.94
		c-3.17-3.77-7.45-5.98-10.54-9.62c-1.26-1.48-2.59-2.96-4.12-4.15c-5.17-4-10.57-7.72-15.64-11.83
		c-4.79-3.88-9.25-8.16-13.91-12.21c-4.03-3.51-7.79-7.46-12.26-10.28c-5.96-3.77-10.98-8.5-15.76-13.48
		c-6.84-7.13-14.37-13.27-23.13-17.85c-4.42-2.31-9.51-3.77-13.23-6.89c-3.77-3.16-7.72-3.34-11.78-3.08
		c-8.38,0.55-16.83,1.44-24.44,5.43c-7.08,3.71-14.73,5.2-22.46,6.52c-8.57,1.46-16.87,4.43-25.68,4.53c-0.17,0-0.36,0.07-0.52,0.13
		c-6.24,2.6-12.78,3.06-19.44,2.78c-1.6-0.07-3.58-0.43-4.74,0.33c-4.32,2.84-9.03,2.38-13.55,1.68
		c-5.44-0.84-10.65,0.17-15.98,0.53c-8.16,0.55-16.51,1.57-24.32-1.81c-6.86-2.97-13.57-6.33-20.19-9.81
		c-9.5-5.01-19.43-6.83-30.02-4.96c-0.68,0.12-1.43,0.36-1.95,0.78c-5.23,4.2-11.18,7.8-12.2,15.41c-0.32,2.39-2.02,3.67-4.61,3.57
		c-0.83-0.03-1.67,0.27-1.78,0.29c-9.68,16.91-11.22,35.43-16.03,53.71c2.32-0.88,3.71-1.41,5.29-2c0.41,0.97,1.03,1.69,0.9,2.23
		c-1.75,7.34-0.22,15.34-4.42,22.21c-0.45,0.73-0.66,1.67-0.77,2.54c-0.72,5.97-1.47,11.94-2.05,17.93
		c-0.72,7.33-2.09,14.47-5.8,20.94c-1.83,3.19-2.43,6.62-2.81,10.21c-0.31,2.97-1.09,5.9-1.79,8.82c-1.6,6.72-3.55,13.37-4.79,20.15
		c-0.59,3.21,0.88,6.84,0.14,9.97c-2.54,10.73,0.38,21.61-1.49,32.4c-1.2,6.96,1.18,14.3-2.15,21.3c-1.13,2.37-0.41,5.63-0.5,8.48
		c-0.06,1.97,0.18,3.98-0.16,5.9c-1.58,8.84-1.88,17.66-0.39,26.54c0.35,2.1,0.22,4.27,0.38,6.41c0.42,5.51,0.87,11.02,1.32,16.53
		c0.1,1.22,0.58,2.51,0.33,3.64c-1.68,7.5-0.82,14.93,0.34,22.36c0.96,6.16,1.92,12.33,2.84,18.5c0.57,3.82,1.09,7.65,1.55,11.48
		c0.37,3.13,0.07,6.44,1.01,9.38c2.14,6.72,4.58,13.38,7.39,19.85c4.25,9.77,8.91,19.36,13.68,29.65c3.53-0.64,6.26,2.01,9.01,4.61
		c1.43,1.35,2.78,2.82,4.37,3.94c5.09,3.57,10.05,7.45,15.51,10.36c4.52,2.41,6.92,1.35,10.17-2.75c3-3.78,5.85-7.68,8.73-11.55
		c1.14-1.53,2.18-3.14,3.44-4.96c-1.41-0.73-2.3-1.49-3.27-1.63c-3.86-0.56-5.94-2.79-7.02-6.43c-0.55-1.83-1.51-3.62-2.6-5.2
		c-1.83-2.64-3.79-5.2-5.93-7.59c-1.65-1.84-3.44-3.73-5.55-4.92c-2.12-1.2-3.02-2.91-3.81-4.93c-2.4-6.2-3.73-12.59-3.95-19.27
		c-0.19-5.72-0.37-11.49-1.23-17.13c-1.44-9.46-2.22-18.97-2.15-28.5c0.04-6.01-0.33-12.05,1.45-18.11
		c1.61-5.48,3.67-10.84,5.13-16.27c2.2-8.2,5.78-16,6.63-24.68c0.9-9.19,4.99-17.76,7.07-26.81c1.54-6.69,1.94-13.37,2.63-20.02
		c1.06-10.07,0.66-20.28,1.29-30.4c1.18-18.9-0.52-37.66-1.92-56.46c-0.45-6.01-0.1-12.09-0.08-18.13c0-0.71,0.11-1.46,0.37-2.11
		c0.86-2.19,4.62-2.93,5.72-0.95c1.36,2.45,2.94,5.38,1.39,8.11c-1.41,2.47-1.02,4.74-0.81,7.21c0.33,3.88,1.74,7.75,0.13,11.68
		c-0.24,0.58-0.1,1.5,0.21,2.07c1.9,3.45,1.52,7.21,2.03,10.89c0.55,3.92,1.21,7.6,0.09,11.47c-0.23,0.79,0,1.84,0.33,2.64
		c1.49,3.61,1.26,7.28,0.76,11.04c-0.3,2.26,0.66,5-0.31,6.79c-2.41,4.47-1.63,9.11-1.64,13.67c-0.02,7.26,0.91,14.56,0.51,21.79
		c-0.27,4.77-1.66,9.48-0.92,14.36c0.1,0.68,0.09,1.57-0.26,2.1c-4.44,6.76-3.75,15.04-6.73,22.38c-2.86,7.05-5.41,14.72-5.22,22.74
		c0.02,0.69-0.27,1.4-0.51,2.07c-2.73,7.52-5.75,14.95-8.11,22.59c-1.22,3.96-1.62,8.28-1.79,12.45
		c-0.24,6.01,0.48,12.07-0.04,18.04c-0.21,2.4,0.12,4.51,0.41,6.76c0.65,5.07,1.43,10.13,1.86,15.22
		c0.66,7.84,1.13,15.69,1.54,23.54c0.12,2.39,1.17,3.61,3.29,3.95c5.6-3.34,10.9-6.93,17.86-5.82c1.69,0.27,3.66,0.12,5.25-0.49
		c10.05-3.84,20.55-5.97,31.09-7.45c7.97-1.12,14.99-4.65,22.33-7.27c2.87-1.03,5.65-1.99,8.61-2.28c12.25-1.17,24.5-2.2,36.76-3.28
		c1.42-0.12,2.84-0.27,4.27-0.29c11.03-0.18,22.08-0.04,33.09-0.6c6.64-0.33,13.17-0.07,19.78,0.45c6.52,0.51,13.07,2.37,19.68,0.45
		c0.62-0.18,1.39,0.11,2.08,0.26c4.32,1,8.63,2.04,12.95,3.02c2.95,0.67,6.04,0.92,8.85,1.96c3.74,1.39,7.27,3.37,10.89,5.1
		c0.31-0.24,0.63-0.49,0.94-0.73c-2.5-5.44-5.01-10.88-7.5-16.33c-0.3-0.65-0.47-1.35-0.7-2.03c-2.56-7.59-5.12-15.19-7.69-22.78
		c-2.8-8.26-5.12-16.59-6.58-25.26c-1.93-11.43-5.31-22.63-3.47-34.43c0.21-1.33-0.46-2.8-0.69-4.21
		c-1.88-11.8-3.81-23.59-5.58-35.41c-0.55-3.7-0.34-7.52-1.01-11.19c-2.26-12.46-3.42-24.93-2.34-37.63
		c0.54-6.39,0.37-12.91-0.18-19.31c-0.46-5.41-2.12-10.71-2.89-16.11c-1.09-7.61-1.32-15.38-2.88-22.87
		c-2.87-13.77,0.4-27.02,2.44-40.4c0.32-2.06,1.39-4.03,2.23-5.99c1.88-4.38,4.15-8.63,5.71-13.12c2.54-7.33,9.74-10.38,16.55-6.74
		c2.02,1.08,4.26,1.76,6.35,2.72c4.54,2.09,9.47,3.68,13.47,6.54c4.27,3.05,7.69,7.31,11.41,11.1c1.5,1.52,2.54,3.72,4.3,4.7
		c4.85,2.71,7.98,7.02,11.44,11.07c2.89,3.38,5.49,7.07,8.74,10.06c5.89,5.41,12.33,10.09,19.4,14c6.22,3.44,11.94,7.78,17.92,11.65
		c1.64,1.06,3.36,2.26,5.2,2.7c5.84,1.37,10.91,4.63,17.13,5.5c7.5,1.05,14.74,4.21,21.96,6.84c4.21,1.54,8.35,1.71,12.67,1.19
		c1.4-0.17,3.43-0.89,4.1-0.25c2.04,1.96,3.69,0.54,5.39-0.06c3.02-1.08,6.16-2.05,8.88-3.69c3.32-1.99,7.6-4.02,9.01-7.14
		c1.74-3.83,4.45-6.75,6.55-10.16c3.62-5.86,8.14-11.18,9.94-18.04c0.13-0.49,0.64-0.86,0.89-1.33c3.51-6.59,7.17-13.11,10.47-19.8
		c2.91-5.89,5.3-12.03,8.13-17.96c2.6-5.44,5.73-10.58,6.13-16.88c0.19-2.96,1.45-5.85,2.24-8.77c1.07-3.95,2.14-7.89,3.23-11.83
		c1.38-4.98,2.14-10.27,4.39-14.83C634.21,366.29,634.95,363.96,634.56,361.07z M361.83,439.24c-0.54,2.79-0.81,5.65-0.97,8.49
		c-0.36,6.41-3.45,10.63-9.65,12.4c-4.61,1.32-9.22,2.74-13.91,3.69c-8.37,1.69-15.6-1.23-21.7-6.71c-3.45-3.1-4.57-7.77-4.78-12.22
		c-0.19-3.88-3.33-7.29-1.59-11.37c-3.59-3.43-2.99-7.53-1.98-11.76c0.12-0.51-0.34-1.38-0.8-1.77c-2.53-2.12-2.26-4.96-1.33-7.39
		c1.11-2.87,4.05-2.31,6.55-2.21c0.89,0.04,1.79-0.09,2.83-0.16c5.02,1.25,9.81-0.61,14.51-2.14c4.9-1.59,9.82-1.74,14.82-1.36
		c3.37,0.26,6.73,0.78,10.06,1.39c3.96,0.73,8.03,5.49,8.96,9.42C364.6,424.92,363.21,432.05,361.83,439.24z"/>
	<path class="st2" d="M431.88,1238.79c-9.8-1.75-19.46-1.22-29.04-0.65c-5.79,0.35-11.56,2.03-17.19,3.62
		c-2.02,0.57-3.62,2.66-5.85,4.4c-3.32-2.91-4.18-7.35-4.4-11.31c-0.4-7.01-1.85-13.78-2.81-20.67c-0.92-6.67-0.6-13.52-0.84-20.29
		c-0.17-4.66-0.61-9.21-1.99-13.77c-0.83-2.75-0.02-5.97-0.16-8.97c-0.13-2.62-0.57-5.23-0.86-7.84c-0.34-3-1.16-6.05-0.9-8.99
		c0.56-6.2-0.79-12.05-2.01-18.01c-0.6-2.92-0.51-6-0.54-9.01c-0.03-3.9,0.45-7.83,0.15-11.71c-0.66-8.35-1.55-16.69-2.61-25.01
		c-0.41-3.21-1.77-6.29-2.25-9.5c-0.47-3.13-0.38-6.34-0.52-9.51c-0.02-0.35,0.19-0.78,0.06-1.04c-1.59-3.07-1.83-6.05-1.31-9.63
		c0.71-4.89,0.15-10.02-0.26-15.01c-0.29-3.5-1.4-6.93-1.85-10.42c-0.27-2.09,0.27-4.28,0.02-6.38c-1.09-9.2-2.39-18.38-3.49-27.58
		c-0.82-6.88-0.9-13.9-2.28-20.65c-2.66-12.95-4.9-25.94-6.51-39.05c-0.57-4.6-1.74-9.13-2.76-13.66
		c-1.37-6.1-2.65-12.23-4.36-18.23c-2.38-8.35-5.61-16.49-7.55-24.94c-1.49-6.51-6.12-11.15-8.38-17.09c-0.12-0.33-0.3-0.7-0.57-0.9
		c-3.45-2.5-4.67-6.12-4.91-10.02c-7.46-2.47-9.59-1.27-12.41,5.57c-2.01,4.87-2.4,9.98-3.4,15c-0.41,2.08-0.94,4.13-1.37,6.21
		c-0.76,3.62-0.97,7.31-1.88,10.93c-0.9,3.61-0.72,7.48-1.46,11.14c-0.88,4.34-2.26,8.57-3.37,12.86
		c-2.85,11.06-6.15,22.03-6.58,33.58c-0.1,2.64-1.21,5.22-1.47,7.87c-1.03,10.29-1.8,20.62-2.9,30.9
		c-0.56,5.25-1.93,10.41-2.35,15.66c-0.52,6.57-0.68,13.19-0.57,19.78c0.16,9.26,1.32,18.46-0.14,27.79
		c-0.98,6.29-0.3,12.82-0.5,19.25c-0.24,7.34-0.88,14.67-0.9,22.01c-0.02,9.72-2.03,19.13-3.81,28.59
		c-0.93,4.92-1.67,9.89-2.33,14.85c-1.49,11.34-4.52,22.36-7.04,33.48c-1.89,8.35-3.9,16.68-6.21,24.92
		c-1.39,4.97-3.5,9.73-5.24,14.61c-1.38,3.86-2.78,7.72-3.98,11.64c-1.71,5.6-3.25,11.25-4.86,16.9
		c-16.48,2.93-32.87,5.84-49.09,8.71c0-8.36,0.3-16.9-0.1-25.4c-0.28-6.04-1.42-12.05-2.34-18.05c-0.92-5.99-2.26-11.91-3.03-17.91
		c-0.84-6.54-1.86-13.14-1.72-19.69c0.28-13.22,0.12-26.43-0.79-39.59c-0.5-7.25-0.16-14.59-2.07-21.8
		c-0.99-3.72-0.49-7.82-0.87-11.73c-0.27-2.77,0.4-4.92,3.38-6.19c-6.2-8.66-5.63-18.25-4.91-27.87c0.23-3.03,0.76-6.08,0.56-9.09
		c-0.52-7.96,1.46-15.63,2.24-23.43c0.09-0.88,0.48-1.79,0.36-2.63c-1.07-7.84-0.55-15.65,0.02-23.49
		c0.63-8.72,0.92-17.46,1.29-26.19c0.07-1.59-0.21-3.21-0.38-4.8c-0.57-5.24,0.36-10.21,2.52-15.76c0.79,1.59,1.26,2.53,1.83,3.69
		c2.33-3.62,2.12-4.92-0.57-6.96c-0.72-0.55-1.47-1.51-1.55-2.35c-0.18-1.94-0.13-3.95,0.15-5.88c0.74-5.07,3.88-9.72,2.57-15.19
		c-0.35-1.47-0.04-3.09,0-4.65c0.05-1.75,0.11-3.5,0.22-5.25c0.05-0.88,0.51-1.84,0.28-2.61c-1.63-5.47-0.24-10.95-0.25-16.42
		c-0.01-2.8-0.75-5.6-1.16-8.4c-0.08-0.52-0.3-1.04-0.25-1.55c0.5-5.44,1.13-10.86,1.54-16.31c0.46-6.21,0.69-12.44,1.07-18.66
		c0.12-1.95,0-4.02,0.66-5.8c2.08-5.62,1.78-11.12,0.24-16.79c-1.02-3.73-1.36-7.64-2.27-11.41c-0.54-2.21-1.5-4.33-2.46-6.4
		c-0.88-1.88-0.46-3.08,0.87-4.72c7.15-8.84,14.11-17.84,21.07-26.83c0.85-1.1,1.41-2.48,1.91-3.81
		c3.82-10.15,8.03-20.18,8.66-31.23c0.17-3.07,2.89-5.91,0.54-8.76c3.28-1.02,6.12-1.91,8.98-2.78c0.51-0.15,1.1-0.37,1.57-0.24
		c4.56,1.19,8.87-0.72,13.13-1.49c5.19-0.95,10.21-3.22,15.09-5.4c5.18-2.32,10.27-3.74,16.07-3c3.08,0.39,6.34-0.7,9.52-1.03
		c6.35-0.65,12.7-1.41,19.07-1.81c11.03-0.69,22.08-1.25,33.12-1.66c4.61-0.17,9.24,0.14,13.86,0.29c6.23,0.2,12.41,0.42,18.41,2.74
		c3.04,1.18,4.65,2.63,5.27,5.88c1.65,8.66,4.6,16.81,9.38,24.36c2.68,4.24,5.1,8.52,9.39,11.37c0.56,0.38,1.02,1.04,1.32,1.67
		c3.43,7.27,9.76,11.67,16.01,16.12c3.77,2.69,7.68,5.18,11.46,7.86c1.94,1.37,2.95,3.17,3.46,5.7c2.28,11.18,3.96,22.42,4.96,33.8
		c0.81,9.25,2.11,18.45,3.2,27.68c0.04,0.36,0.04,0.74,0.18,1.06c2.59,6.31,2.61,13.04,3.18,19.68c0.12,1.39-0.03,2.82,0.16,4.2
		c0.32,2.29,0.76,4.56,1.24,6.82c0.51,2.41,1.44,4.78,1.61,7.2c0.39,5.71,0.49,11.44,0.56,17.16c0.02,1.57-0.64,3.13-0.74,4.71
		c-0.11,1.71,0.02,3.45,0.13,5.16c0.04,0.68,0.47,1.36,0.46,2.03c-0.07,3.54,0.13,7.13-0.42,10.6c-0.96,6.16-0.32,12.02,1.86,17.8
		c0.3,0.8,0.32,1.79,0.2,2.65c-0.95,6.49-2.4,12.95-2.82,19.47c-0.33,5.24-0.83,10.45-0.3,15.89c0.64,6.52,1.8,13.46-0.33,20.13
		c-0.37,1.16-0.61,2.53-0.37,3.69c1.09,5.22,0.07,10.16-0.85,15.32c-0.78,4.4,0.37,9.18,0.88,13.76c0.55,4.96,1.09,9.95,2.1,14.83
		c2.01,9.79,0.53,19.6,0.72,29.4c0.07,3.54,0.43,7.08,0.68,10.61c0.05,0.7,0.32,1.41,0.28,2.1c-0.38,7.41-0.61,14.84-1.27,22.23
		c-0.49,5.51-1.62,10.97-2.33,16.47c-0.2,1.56,0.03,3.19,0.14,4.79c0.15,2.13,0.83,4.32,0.51,6.37
		c-1.65,10.65,0.16,21.39-1.02,32.03c-0.69,6.22-1.43,12.43-2.22,18.64c-1.36,10.65-2.77,21.3-4.18,31.94
		C432.47,1236.97,432.15,1237.78,431.88,1238.79z M191.52,980.74c-2-6.1,1.66-12.63-1.74-18.78c-0.61,0.41-1.12,0.58-1.12,0.77
		c-0.15,5.24-0.31,10.47-0.31,15.71C188.34,979.92,189.05,981.16,191.52,980.74z M187.73,1023.05c0.03-4.15,3.36-8.45-0.88-13.59
		c-0.19,3.04,0.2,5.21-0.55,6.88C185.13,1018.97,185.57,1020.97,187.73,1023.05z M188.24,995.91c-0.29,2.44-0.27,3.95,2.06,4.77
		C191.37,998.6,190.97,997.31,188.24,995.91z M188.96,983.34c-1.26,1.08-1.73,2.21-0.25,3.4c0.24,0.19,1.13-0.01,1.38-0.32
		C191.3,984.93,190.78,983.94,188.96,983.34z M188.12,1005.33c-0.7,0.82-1.42,1.3-1.45,1.83c-0.03,0.39,0.87,1.22,1.27,1.17
		c0.53-0.06,1.24-0.72,1.39-1.26C189.43,1006.7,188.7,1006.11,188.12,1005.33z M186.6,1034.73c0.53-0.75,1.04-1.16,0.99-1.49
		c-0.06-0.39-0.54-0.9-0.93-1.01c-0.28-0.07-1.05,0.51-1.02,0.67C185.76,1033.44,186.14,1033.91,186.6,1034.73z"/>
	<path class="st0" d="M346.24,1373.81c22.33,0,39.09,17.53,41.29,38.82c0.05,0.01,0.09,0.02,0.14,0.03c0-1.1,0.11-1.64-0.02-2.11
		c-2.46-9.07-1.7-18.41-2.36-27.62c-0.51-7.05-0.79-14.12-1.24-21.18c-0.37-5.87-0.87-11.74-1.23-17.61
		c-0.56-9.06-1.03-18.13-1.57-27.19c-0.35-5.85-0.69-11.7-1.13-17.54c-0.34-4.61-1.06-9.21-1.2-13.82
		c-0.24-8.21-0.12-16.43-0.27-24.65c-0.02-1.12-0.53-2.35-1.15-3.33c-1.72-2.72-5.54-4.27-4.56-8.45c-2.72-2.74-2.56-6.43-3.54-9.82
		c-2.03-7.07-2.86-14.32-3.58-21.49c-1.06-10.66-0.81-21.44-1.11-32.18c-0.04-1.43,0.01-2.87-0.14-4.29
		c-1-9.39-2.01-18.77-3.09-28.15c-0.31-2.65-0.85-5.27-1.36-7.89c-1.19-6.16-1.77-12.31-1.42-18.65c0.33-6.02-0.13-12.13-0.73-18.16
		c-0.58-5.83-1.79-11.59-2.71-17.38c-0.47-3-1.05-5.99-1.34-9.01c-0.64-6.55-1.61-13.12-1.51-19.67c0.06-3.67-0.23-6.93-2.22-10.09
		c1.01-1.18,1.89-2.19,2.95-3.43c-1.03-0.31-1.67-0.5-2.25-0.68c0.14-2.44,1.09-5.21,0.23-7.22c-1.64-3.83-0.98-7.65-1.22-11.46
		c-0.28-4.43-0.01-8.93-2.57-12.9c-0.18-0.28-0.26-0.71-0.19-1.04c1.14-5.8-1-11.34-1.32-17c-0.41-7.32-2.2-14.37-3.25-21.56
		c-1.31-8.95-2.86-17.87-4.33-26.8c-0.49-2.99-0.89-6-1.61-8.94c-1.3-5.31-1.99-10.76-3.47-16.03c-0.14-0.5,0.72-1.29,0.66-1.18
		c-1.08-1.83-2.1-2.98-2.46-4.3c-0.6-2.19-0.7-4.35-2-6.5c-1.17-1.94-1.59-4.42-3.2-6.26c2.18-2.35,0.02-4.35-0.24-6.59
		c-0.75-6.57-3.55-12.3-6.23-18.05c-2.12-4.54-4.33-9.23-8.93-13.3c-0.63,1.87-1.17,3.08-1.44,4.35c-0.32,1.53-0.32,3.12-0.64,4.65
		c-1.6,7.82-3.27,15.62-4.86,23.45c-0.17,0.85-0.27,1.89,0.07,2.64c1.12,2.48-0.06,4.52-0.96,6.65c-0.62,1.48-1.41,2.93-1.79,4.47
		c-2.46,9.85-4.83,19.72-7.22,29.59c-0.33,1.38-0.76,2.76-0.87,4.16c-0.74,9.05-1.16,18.13-3.09,27.05
		c-0.14,0.66-0.3,1.49-0.03,2.03c1.71,3.45,0.56,6.67,0.12,10.23c-1.3,10.7-4.16,21.26-3.48,32.21c0.18,2.81-0.65,5.64,1.05,8.29
		c0.41,0.64,0.18,1.74,0.13,2.63c-0.33,6.37-0.98,12.74-0.96,19.11c0.04,9.28-0.49,18.5-1.25,27.73c-0.53,6.4-1.46,12.87-0.95,19.21
		c0.51,6.4-0.89,12.47-1.8,18.55c-1.86,12.44-4.6,24.75-7.19,37.06c-1.79,8.51-2.23,17.36-6.13,25.36
		c-0.15,0.32-0.24,0.68-0.29,1.03c-1.17,8.48-3.55,16.66-6.25,24.74c-2.48,7.42-5.34,14.71-7.89,22.11
		c-2.1,6.09-4.04,12.22-3.06,18.85c1.02,6.88,1.89,13.79,0.64,20.75c-0.47,2.62-1.28,5.19-1.51,7.82c-0.3,3.37-0.1,6.79-0.25,10.18
		c-0.11,2.47-0.8,4.96-0.63,7.4c0.38,5.29,1.16,10.55,1.74,15.83c0.1,0.87,0.08,1.78-0.05,2.65c-1.79,12.27-1.71,24.51,0.17,36.77
		c0.62,4.04,0.65,8.18,0.97,12.27c0.18,2.31-0.1,4.81,0.67,6.9c2.67,7.21,1.25,14.59,0.8,21.76c-0.5,7.93-2.04,15.79-3.35,23.67
		c8.24-14.08,25.41-21.92,41.53-19.75c5.75,0.77,10.9,2.56,15.62,5.31c0.47-0.44,0.95-0.86,1.44-1.27c1.97-3.63,4.4-6.94,7.07-9.61
		C324.42,1378.44,335.6,1373.81,346.24,1373.81z"/>
	<path class="st0" d="M355.93,181.71c-0.4-0.59-0.87-1.15-1.39-1.63c-3.38-3.15-6.59-6.53-10.23-9.34
		c-3.59-2.78-7.63-4.98-11.36-7.37c-4.78,5.16-4.98,5.15-10.76,1.81c-1.47-0.85-3.16-1.93-4.73-1.88
		c-4.96,0.13-10.05-0.3-14.69,2.29c-1.53,0.85-3.35,1.33-5.09,1.63c-2.36,0.4-3.74-0.98-3.66-3.4c0.08-2.33,1.04-4.35,3.23-5.16
		c4.15-1.52,8.38-2.86,12.66-3.97c2.63-0.68,5.4-0.78,8.31-1.17c-0.51-0.62-0.76-1.16-1.18-1.4c-5.83-3.36-11.98-6.26-17.46-10.11
		c-6.98-4.9-13.7-10.27-19.99-16.02c-3.8-3.47-6.58-8.06-5.45-13.84c0.05-0.25-0.7-0.65-1.12-1.02c-1.42,1.52-2.91,2.83-4.05,4.4
		c-1.12,1.55-1.8,3.4-2.82,5.03c-0.75,1.19-1.59,2.42-2.66,3.3c-4.8,3.97-9.21,8.28-12.79,13.41c-0.3,0.44-0.67,0.88-1.1,1.17
		c-5.05,3.27-7.17,9.03-11.19,13.18c-0.36,0.37-0.19,1.24-0.34,2.45c1.97-0.5,3.45-0.95,4.96-1.25c1.53-0.31,3.2-0.97,4.6-0.63
		c5.36,1.33,10.66,2.95,15.94,4.58c0.99,0.3,1.82,1.12,2.7,1.74c1.64,1.17,2.27,2.8,1.68,4.7c-0.66,2.13-2.35,3.26-4.48,3.11
		c-1.53-0.11-3.13-0.69-4.51-1.44c-6.67-3.6-13.41-4.62-20.54-1.32c-1.93,0.89-4.04,1.42-6.11,1.95c-2.41,0.62-4.87,1.05-8.24,1.76
		c-1.62,2.19-3.9,5.33-6.23,8.44c-1.36,1.82-2.72,3.65-4.21,5.37c-1.73,2-3.61,3.87-5.4,5.82c-0.72,0.78-1.22,1.9-2.09,2.39
		c-6.97,3.91-10.48,10.62-14.59,17.03c-3.05,4.76-5.16,8.62,0.92,12.33c1.98,5.81,5.66,9.98,11.14,12.96
		c2.49,1.36,4.19,4.17,5.94,6.01c2.94-0.49,5.36-0.9,8.1-1.36c1.03-2.23,2.88-4.32,5.91-3.86c6.02,0.92,11.1-2.24,16.64-3.36
		c2.61-0.53,4.51-1.94,4.59-4.82c1.35-0.31,2.45-0.41,3.42-0.8c7.54-3.05,14.1-8.39,22.41-9.69c0.46-0.07,0.84-0.62,1.26-0.95
		c3.23-2.54,3.23-2.54,6.41,0.37c2,1.83,2.93,1.88,3.77-0.57c0.73-2.12,4.49-2.95,2.62-6.1c1.06-0.41,2.35-1.42,3.15-1.12
		c3,1.11,6.15,2.38,5.5,5.7c4.58,2.88,8.57,5.46,12.65,7.91c1.04,0.63,2.37,1.21,3.52,1.14c3.22-0.22,5.32,1.6,7.57,3.42
		c6.94,5.61,13.96,11.13,22.07,15.02c3.37,1.62,6.65,2.8,9.66-0.9c0.69-0.85,2.19-1.11,3.37-1.46c4.04-1.21,6.5-5.38,11.07-5.75
		c0.76-0.06,1.59-1.85,2.01-2.98c0.55-1.49,0.88-3.11,1.04-4.7c0.61-6.2,1.32-12.4,1.56-18.61c0.09-2.49,0.25-5.08-1.71-7.54
		C362.44,191.87,359.32,186.68,355.93,181.71z M271.73,190.92c-0.79,2.25-3.28,4.28-5.49,5.55c-3.36,1.94-7.08,2.98-11.19,2.95
		c-3.1-0.02-6.23,1.12-9.3,1.91c-5.91,1.52-11.45-1.05-14.44-6.27c-2.98-5.21-2.49-9.79-0.51-15.51c2.16-6.28,5.14-9.28,11.57-9.27
		c2.06,0,4.12-0.46,6.92-0.8c4.31,1.03,9.12,2.19,13.93,3.33C268.76,174.15,273.87,184.85,271.73,190.92z M342.47,192.62
		c-3.11,4.95-6.48,10.03-12.64,11.61c-5.27,1.35-10.68,2.15-16.02,3.2c-7.7,0.6-12.63-3.51-16.89-8.83
		c-2.61-3.26-2.41-16.39,0.73-18.91c4.06-3.26,9.07-4.93,14.27-5.72c7.23-1.1,14.52-1.2,21.8-0.68c3.45,0.25,5.26,2.77,6.67,5.56
		c0.63,1.27,0.64,3.02,1.54,3.95C345.05,186,344.41,189.52,342.47,192.62z"/>
	<path class="st0" d="M388.56,301.51c-0.44-3.51-0.44-7.08-0.91-10.58c-1.05-7.77-2.25-15.51-3.42-23.26
		c-0.58-3.87-1.33-7.73-1.81-11.61c-0.23-1.87,0.07-3.8-0.04-5.69c-0.14-2.26-0.47-4.51-0.69-6.77c-0.15-1.58,0.08-3.28-0.42-4.74
		c-1.93-5.71-2.02-11.58-2.11-17.5c-0.04-2.65-0.08-5.64-1.27-7.85c-1.83-3.38-2.64-6.88-3.33-10.52c-0.02-0.11-0.58-0.12-1.49-0.3
		c0.27,6.25,1.32,12.47,0.59,18.47c-0.76,6.19,0.35,12.94-3.94,18.54c1.75,1.7,4.41,3.29,4.2,4.28c-0.79,3.75,0.71,7.73-1.7,11.39
		c-1.78,2.71-3.33,6.06-3.48,9.19c-0.11,2.18-0.25,4.19-1.11,6.09c-1.61,3.57-3.47,7.03-5.15,10.57c-0.68,1.43-0.82,3.27-1.82,4.36
		c-2.24,2.46-4.9,4.54-7.33,6.83c-1.55,1.47-3.1,2.96-4.48,4.59c-2.04,2.43-3.83,5.08-5.92,7.46c-2.1,2.4-4.88,4.3-6.6,6.92
		c-3.94,5.98-9.32,10.22-15.22,13.97c-1.19,0.75-2.35,1.54-3.88,2.54c1.22,10.92,2.44,21.82,3.69,32.97
		c3.88-0.84,7.66-2.24,11.48-2.38c9.24-0.32,17.07-4.8,25.35-7.89c7.23-2.7,14.79-3.59,22.21-5.26c0.17-0.04,0.35,0.05,0.53,0.05
		c4.55,0,9.1,0,14.12,0c-0.89-5.97-2.97-11.89-2.93-18.39C391.72,318.5,389.62,310.01,388.56,301.51z"/>
	<path class="st0" d="M350.69,269.86c-0.26,0.43-0.53,0.94-0.56,1.43c-0.34,4.82-2.46,8.66-6.03,11.92
		c-1.69,1.54-3.44,3.4-4.22,5.48c-3.3,8.74-9.8,14.77-16.98,20.01c-4.86,3.54-10.44,6.1-15.78,8.93c-0.99,0.53-2.54,0.64-3.6,0.27
		c-2.6-0.9-4.54,0.06-6.34,1.65c-3,2.63-6.75,3.49-10.43,3.61c-4.67,0.15-9.39-0.4-14.05-0.98c-5.49-0.67-11.65,0.03-14.82-6.3
		c-0.28-0.55-1.12-0.89-1.75-1.19c-3.52-1.7-7.06-3.37-10.6-5.05c-1.27-0.6-2.66-1.03-3.79-1.82c-4.82-3.36-9.63-6.75-14.32-10.31
		c-2.09-1.59-3.88-3.56-5.77-5.41c-2.8-2.73-5.57-5.49-8.34-8.25c-1-1-2.21-1.89-2.91-3.08c-3.52-5.96-7.37-11.78-10.18-18.06
		c-2.52-5.63-7.41-8.79-11.18-13.1c-1.73-1.98-3.55-3.91-5.04-6.07c-0.98-1.43-1.86-3.27,0.21-4.73c1.72-1.21,3.63-0.59,5.5,1.52
		c4.47,5.06,9.39,9.59,15.71,12.73c0.74-2.45,1.43-4.74,2.07-6.89c-5.17-4.62-9.98-9.36-15.26-13.5c-4.94-3.87-7.07-8.82-7.81-14.99
		c-0.95,1.49-1.79,3.04-1.89,4.64c-0.41,6.39-0.66,12.8-0.8,19.21c-0.04,1.75,0.12,3.73,0.91,5.23c2.73,5.17,5.84,10.15,8.69,15.26
		c3.26,5.86,5.39,12.42,10.75,16.96c0.5,0.42,0.6,1.3,1,1.88c1.8,2.66,3.58,5.34,5.49,7.91c2.54,3.42,5.74,6.49,7.66,10.22
		c1.68,3.26,4.02,5.82,6.26,8.53c1.47,1.78,3.24,3.3,4.85,4.96c8.21,8.46,17.36,15.33,29.3,17.6c1.56,0.3,3.07,0.97,4.55,1.6
		c1.83,0.79,2.37,2.01,2.29,4.22c-0.16,4.23,0.31,8.5,0.76,12.72c0.62,5.81,1.47,11.59,2.22,17.34c5.9,2.5,12.28,2.37,18.7-0.01
		c1.3-0.48,2.85-0.56,4.26-0.44c7.47,0.63,14.52-1.22,21.63-3.12c2.92-0.78,3.75-1.87,3.32-4.81c-1.2-8.12-2.09-16.29-3.18-24.43
		c-0.77-5.74-0.35-10.51,5.59-13.98c7.41-4.34,13.27-10.75,18.79-17.32c3.66-4.35,6.64-9.35,10.72-13.23
		c4.83-4.61,9.03-9.43,11.92-15.48c2.37-4.96,4.17-9.99,4.27-15.73C357.89,261.06,353.7,264.9,350.69,269.86z"/>
	<path class="st0" d="M186.14,350.91c0-2.85,0.17-5.17-0.04-7.46c-0.24-2.61-0.89-5.17-1.21-7.77c-0.34-2.79-0.46-5.61-0.77-8.4
		c-0.27-2.46-0.76-4.91-0.98-7.37c-0.28-3-0.41-6.02-0.56-9.03c-0.29-5.69-0.6-11.38-0.8-17.08c-0.27-7.77-0.46-15.54-0.65-23.31
		c-0.02-0.69,0.15-1.43,0.41-2.07c1.02-2.48,1.52-4.84-1.89-6.64c0.45-0.24,0.9-0.48,1.35-0.72c0.83,0.88,1.83,1.65,2.47,2.64
		c3.36,5.2,6.34,10.67,10,15.65c5.52,7.51,11.82,14.47,17.13,22.12c2.42,3.48,4.79,6.88,7.57,10.13
		c6.19,7.22,13.38,13.25,20.92,18.91c4.73,3.56,9.83,6.49,16.4,6.73c1.28,9.8,2.54,19.45,3.9,29.86c-2.3,0.43-4.64,1.12-7.01,1.26
		c-14.06,0.81-26.4-3.62-38.19-11.28C205.82,351.62,196.29,348.05,186.14,350.91z"/>
	<path class="st0" d="M230.48,155.12c-1.66,0.23-2.71,0.51-3.74,0.48c-2.5-0.09-3.92,1.18-5,3.3c-0.79,1.55-1.86,2.99-2.97,4.34
		c-4.69,5.73-9.43,11.42-14.17,17.12c-0.57,0.69-1.09,1.59-1.84,1.92c-6.5,2.85-9.37,9.18-14.14,14.88c0-1.66-0.07-2.56,0.03-3.44
		c0.05-0.51,0.58-1.02,0.52-1.49c-1.26-11.02,3.18-21.31,4.16-32.07c0.84-9.18,4.29-17.58,10.65-24.88
		c3.74-4.3,5.76-10.07,8.61-15.16c2.03-3.63,3.56-7.47,8.34-8.91c3.32-0.99,6.09-3.71,9.35-5.05c3.74-1.54,7.77-2.39,11.66-3.6
		c4.24-1.32,8.46-2.7,12.68-4.06c4.61-1.49,9.25-1.6,13.69-0.93c1.72,4.44,0.2,7.38-2.3,10.26c-5.47,6.31-10.67,12.86-16.16,19.15
		c-4.07,4.66-8.59,8.92-12.6,13.63C233.83,144.66,230.42,148.88,230.48,155.12z"/>
	<path class="st0" d="M370.34,185.96c-1.51-5.3-2.76-10.84-5.35-15.61c-2.22-4.1-3.95-8.26-5.5-12.59
		c-1.92-5.35-3.85-10.72-6.2-15.9c-1.23-2.72-3.42-4.99-5.04-7.54c-5.02-7.87-10.46-15.25-19.09-19.7
		c-7.62-3.92-14.82-8.71-22.62-12.16c-5.29-2.34-11.27-3.77-17.04-4.17c-3.18-0.22-6.24-0.71-9.34-1.24
		c-0.97-0.17-1.96-0.2-3.44-0.34c0.42,2.38,0.6,4.32,1.13,6.17c1.33,4.62,2.79,9.2,4.27,13.78c0.32,0.98,0.77,2.08,1.5,2.74
		c7.16,6.39,13.89,13.31,22.69,17.68c5.24,2.6,10.3,5.58,15.25,8.7c5.59,3.52,10.77,7.72,16.48,11c6.71,3.85,11.89,9.45,17.63,14.37
		c7.02,6.01,11.31,14.2,15.7,22.17c0.71,1.29,0.58,3.05,0.97,5.38c0.49-0.27,1.72-0.7,1.69-0.98c-0.24-2.07-0.15-4.57-1.3-6.03
		C371.29,189.85,370.92,188.01,370.34,185.96z"/>
	<path class="st0" d="M386.49,498.16c-0.29-1.28-0.85-2.72-0.87-4.17c-0.04-2.66,0.99-5.58,0.23-7.95
		c-1.43-4.44-1.2-9.06-2.14-13.31c-1.02-4.6-0.4-8.82-0.15-13.09c0.29-5.09,1.49-10.18,2.29-15.23c0.85-5.36,2.58-10.99,6.1-15.65
		c0.89-1.18,1.28-2.82,1.61-4.31c1.02-4.62,5.61-7.01,9.2-4.51c1.01,0.7,1.99,2.14,2.12,3.33c1.12,9.71,2.4,19.42,2.91,29.17
		c0.44,8.17-0.19,16.4-0.14,24.6c0.04,5.88-3.58,9.89-6.71,14.18c-1.04,1.43-2.31,2.74-3.66,3.89c-1.03,0.88-2.27,1.73-3.55,2.07
		C391.77,497.7,389.7,497.76,386.49,498.16z"/>
	<path class="st2" d="M417.22,734.38c2.66,17.25,5.23,33.9,7.79,50.46c-4.42,2.35-4.82-2.88-8.07-2.81c1.07-2.3,0.88-4-0.92-5.79
		c-6.42-6.37-12.63-12.95-18.86-19.52c-0.7-0.74-1.04-1.85-1.45-2.84c-1.02-2.5-2.7-3.65-5.22-2.66c-0.51-1.2-0.7-2.44-1.41-3.19
		c-3.8-3.97-6.45-8.4-6.72-14.06c-0.11-2.4-0.58-4.77-0.88-7.16c2.39-0.13,4.78-0.43,7.16-0.34c4.45,0.18,8.89,0.59,13.34,0.91
		c0.35,0.03,0.87-0.02,1.03,0.19C406.65,732.05,412.49,731.99,417.22,734.38z"/>
	<path class="st2" d="M214.56,741.87c-2.51,9.69-4.74,18.34-7.16,27.69c-8.88-5.76-15.53-12.66-21.39-21.11
		c4.42-1.79,8.55-4.05,12.96-5.08C203.57,742.29,208.45,742.4,214.56,741.87z"/>
	<path class="st0" d="M399.45,1448.12c-3.03-5.75-6-11.38-9.08-17.22c1.25,3.53,2.07,7.26,2.42,11.11
		C395.22,1443.79,397.45,1445.84,399.45,1448.12z"/>
	<path class="st0" d="M172.7,1445.77c1.78-0.51,3.58-0.92,5.4-1.19c-5.27,0.14-10.62,0.29-16.18,0.44c1.48,0.21,2.93,0.5,4.36,0.86
		C168.41,1445.82,170.55,1445.75,172.7,1445.77z"/>
	<path class="st0" d="M363.65,239.29c-4.24,1.78-8.51,3.54-12.63,5.59c-0.9,0.45-1.79,2.07-1.73,3.1c0.19,3.23,0.84,6.44,1.38,10.18
		c4.65-3.77,7.28-9.65,13.33-10.82c0.49-2.59,0.92-4.83,1.43-7.52C364.61,239.56,364.01,239.14,363.65,239.29z"/>
	<path class="st0" d="M466.83,1452.12c0.7-0.36,1.39-0.76,2.08-1.15l-7.5,2.77C463.23,1453.26,465.03,1452.73,466.83,1452.12z"/>
	<path class="st0" d="M209.35,264.65c0.11-2.06-3.5-3.31-0.52-6.72c0.77,2.53,1.35,4.42,1.93,6.31
		C210.29,264.39,209.82,264.52,209.35,264.65z"/>
	<path class="st0" d="M396.62,761.41c-0.95-1.15-1.89-2.3-2.84-3.45c0.41-0.31,0.82-0.61,1.23-0.92c0.87,1.2,1.74,2.41,2.61,3.61
		C397.29,760.91,396.95,761.16,396.62,761.41z"/>
	<path class="st0" d="M283.74,1059.85c-0.29,1.4-0.58,2.79-0.87,4.19c-0.24-0.03-0.47-0.06-0.71-0.09c0.09-1.5,0.18-2.99,0.27-4.49
		C282.86,1059.59,283.3,1059.72,283.74,1059.85z"/>
	<path class="st0" d="M283.07,1046.37c0.27,0.86,0.54,1.71,1.14,3.59c-1.18-1.03-1.76-1.33-1.97-1.79c-0.21-0.47-0.05-1.1-0.05-1.66
		C282.49,1046.46,282.78,1046.41,283.07,1046.37z"/>
	<path class="st0" d="M189.48,157.85c0.12-1.52,0.24-3.05,0.36-4.57c0.27,0.01,0.54,0.02,0.81,0.03c-0.09,1.46-0.19,2.92-0.28,4.38
		C190.07,157.74,189.77,157.79,189.48,157.85z"/>
	<path class="st0" d="M282.92,1053.2c-0.12,0.83-0.24,1.65-0.35,2.48c-0.29-0.02-0.57-0.04-0.86-0.06c0-0.86,0-1.72,0-2.58
		C282.11,1053.09,282.52,1053.15,282.92,1053.2z"/>
	<path class="st0" d="M408.07,775.31c-0.74-1.35-1.49-2.69-2.39-4.33c3.18,0.5,2.35,2.63,2.36,4.34L408.07,775.31z"/>
	<path class="st0" d="M408.04,775.32c1.45,0.18,2.89,0.36,4.34,0.54c-0.05,0.28-0.11,0.56-0.16,0.83c-1.37-0.47-2.73-0.94-4.12-1.39
		C408.07,775.31,408.04,775.32,408.04,775.32z"/>
	<path d="M314.49,410.24c5.02,1.25,9.81-0.61,14.51-2.14c4.9-1.59,9.82-1.74,14.82-1.36c3.37,0.26,6.73,0.78,10.06,1.39
		c3.96,0.73,8.03,5.49,8.96,9.42c1.76,7.37,0.36,14.5-1.02,21.69c-0.54,2.79-0.81,5.65-0.97,8.49c-0.36,6.41-3.45,10.63-9.65,12.4
		c-4.61,1.32-9.22,2.74-13.91,3.69c-8.37,1.69-15.6-1.23-21.7-6.71c-3.45-3.1-4.57-7.77-4.78-12.22c-0.19-3.88-3.33-7.29-1.59-11.37
		c-3.59-3.43-2.99-7.53-1.98-11.76c0.12-0.51-0.34-1.38-0.8-1.77c-2.53-2.12-2.26-4.96-1.33-7.39c1.11-2.87,4.05-2.31,6.55-2.21
		C312.56,410.43,313.45,410.3,314.49,410.24z M315,418.87c-1.73,3.99-1.35,8.05-0.32,12.06c1.29,5.01,2.63,10.01,4.19,14.94
		c2.05,6.46,6.58,9.92,13.4,10.42c6.06,0.44,11.68-1.35,17.21-3.4c1.22-0.45,2.58-2.28,2.72-3.6c1.09-10.31,4.1-20.58,1.19-31.06
		c-2.3-0.63-4.72-0.82-6.64-1.91c-3.71-2.11-7.74-2.04-11.49-1.56C328.58,415.6,322.02,417.39,315,418.87z"/>
	<path d="M191.52,980.74c-2.46,0.42-3.17-0.82-3.17-2.29c0-5.24,0.16-10.48,0.31-15.71c0.01-0.19,0.51-0.36,1.12-0.77
		C193.18,968.11,189.51,974.63,191.52,980.74z"/>
	<path d="M187.73,1023.05c-2.16-2.07-2.61-4.08-1.42-6.71c0.75-1.66,0.36-3.84,0.55-6.88C191.1,1014.6,187.76,1018.9,187.73,1023.05
		z"/>
	<path d="M188.24,995.91c2.73,1.4,3.13,2.7,2.06,4.77C187.97,999.86,187.95,998.35,188.24,995.91z"/>
	<path d="M188.96,983.34c1.82,0.59,2.34,1.59,1.13,3.08c-0.25,0.3-1.14,0.51-1.38,0.32C187.23,985.55,187.69,984.43,188.96,983.34z"
		/>
	<path d="M188.12,1005.33c0.57,0.78,1.31,1.38,1.21,1.74c-0.15,0.54-0.85,1.2-1.39,1.26c-0.4,0.05-1.3-0.78-1.27-1.17
		C186.71,1006.63,187.42,1006.15,188.12,1005.33z"/>
	<path d="M186.6,1034.73c-0.46-0.81-0.84-1.29-0.96-1.83c-0.04-0.16,0.74-0.74,1.02-0.67c0.39,0.1,0.87,0.61,0.93,1.01
		C187.63,1033.57,187.13,1033.97,186.6,1034.73z"/>
	<path d="M340.38,178.84c-1.4-2.8-3.21-5.31-6.67-5.56c-7.28-0.53-14.57-0.42-21.8,0.68c-5.19,0.79-10.21,2.46-14.27,5.72
		c-3.14,2.52-3.33,15.66-0.73,18.91c4.26,5.32,9.19,9.43,16.89,8.83c5.35-1.04,10.75-1.85,16.02-3.2
		c6.16-1.58,9.53-6.66,12.64-11.61c1.94-3.09,2.57-6.61-0.55-9.83C341.01,181.85,341.01,180.1,340.38,178.84z M303.21,190.31
		c0.29-5.51,1.06-6.33,7.24-7.24c-2.82,5.36-1.82,10.55,0.4,15.83C305.03,197.42,302.96,194.98,303.21,190.31z M320.25,185.87
		c-0.42,1.86-1.14,3.72-2.11,5.36c-0.32,0.54-1.83,0.62-2.71,0.47c-0.3-0.05-0.67-1.56-0.48-2.25c0.64-2.31,1.51-4.56,2.48-7.37
		C319.66,182.56,320.71,183.85,320.25,185.87z M327.73,181.34c4.23-1.18,6.04,0.6,6.89,4.1
		C332.53,184.19,330.43,182.94,327.73,181.34z"/>
	<path d="M249.28,169.49c4.31,1.03,9.12,2.19,13.93,3.33c5.55,1.33,10.65,12.03,8.51,18.1c-0.79,2.25-3.28,4.28-5.49,5.55
		c-3.36,1.94-7.08,2.98-11.19,2.95c-3.1-0.02-6.23,1.12-9.3,1.91c-5.91,1.52-11.45-1.05-14.44-6.27c-2.98-5.21-2.49-9.79-0.51-15.51
		c2.16-6.28,5.14-9.28,11.57-9.27C244.43,170.29,246.49,169.83,249.28,169.49z M243.02,179.02c-3.77-1.41-4.65,0.79-5.82,3.21
		c-1.91,3.93-0.86,7.28,1.44,10.45c1.3,1.79,2.93,1.28,4.61,0.25C239.01,186.97,238.96,183.02,243.02,179.02z M257.68,181.22
		c-0.05-0.38-0.1-0.75-0.16-1.13c-2.44-0.74-4.87-1.49-6.9-2.11c-0.76,2.75-1.37,4.92-2.02,7.27
		C251.83,183.82,254.75,182.52,257.68,181.22z M261.28,183.72c-0.63,2.53-0.98,3.97-1.53,6.17c1.87-0.85,3.04-1.38,4.54-2.06
		C263.36,186.54,262.66,185.59,261.28,183.72z"/>
	<path class="st1" d="M315,418.87c7.02-1.48,13.58-3.26,20.25-4.12c3.75-0.48,7.79-0.55,11.49,1.56c1.91,1.09,4.34,1.28,6.64,1.91
		c2.91,10.48-0.1,20.75-1.19,31.06c-0.14,1.32-1.5,3.15-2.72,3.6c-5.52,2.04-11.15,3.84-17.21,3.4c-6.82-0.5-11.34-3.96-13.4-10.42
		c-1.57-4.93-2.9-9.93-4.19-14.94C313.65,426.91,313.27,422.86,315,418.87z"/>
	<path class="st0" d="M310.45,183.07c-6.18,0.91-6.95,1.73-7.24,7.24c-0.25,4.67,1.82,7.11,7.64,8.58
		C308.63,193.62,307.64,188.43,310.45,183.07z"/>
	<path class="st0" d="M317.44,182.08c-0.97,2.81-1.85,5.06-2.48,7.37c-0.19,0.69,0.18,2.2,0.48,2.25c0.89,0.15,2.39,0.07,2.71-0.47
		c0.96-1.64,1.69-3.5,2.11-5.36C320.71,183.85,319.66,182.56,317.44,182.08z"/>
	<path class="st0" d="M327.73,181.34c2.69,1.6,4.79,2.85,6.89,4.1C333.78,181.94,331.97,180.16,327.73,181.34z"/>
	<path class="st0" d="M243.02,179.02c-4.06,4-4.01,7.95,0.22,13.91c-1.67,1.02-3.31,1.53-4.61-0.25c-2.3-3.16-3.35-6.51-1.44-10.45
		C238.37,179.81,239.25,177.61,243.02,179.02z"/>
	<path class="st0" d="M257.68,181.22c-2.92,1.3-5.85,2.6-9.07,4.03c0.65-2.35,1.26-4.52,2.02-7.27c2.03,0.62,4.46,1.36,6.9,2.11
		C257.57,180.47,257.62,180.85,257.68,181.22z"/>
	<path class="st0" d="M261.28,183.72c1.37,1.87,2.07,2.83,3.02,4.11c-1.5,0.68-2.67,1.21-4.54,2.06
		C260.3,187.68,260.66,186.24,261.28,183.72z"/>
</g>
<g id="Layer_2">
	<path class="st3" d="M606.59,288.18c-8.55-15.31-14.49-32.08-17.49-49.36c-0.5-2.87-0.9-5.93,0.24-8.61
		c1.14-2.68,4.39-4.68,7.03-3.45c2.17,9.41,4.13,18.88,5.88,28.38c-3.01-22.15-10.28-53.8,3.47-71.42c0,0,8.4-11.79,22.4-11.27
		c14,0.52,20.31,5.54,18.89,36.18c-0.14,2.96,1.26,8.22,1.29,18.87c0.04,12.88,0.09,25.76,0.13,38.64
		c0.02,6.36-2.27,15.5-5.92,26.44"/>
</g>
</svg>
