<?xml version="1.0" encoding="utf-8"?>
<!-- Generator: Adobe Illustrator 25.4.1, SVG Export Plug-In . SVG Version: 6.00 Build 0)  -->
<svg version="1.1" xmlns="http://www.w3.org/2000/svg" xmlns:xlink="http://www.w3.org/1999/xlink" x="0px" y="0px"
	 viewBox="0 0 700.45 97.77" style="enable-background:new 0 0 700.45 97.77;" xml:space="preserve">
<style type="text/css">
	.st0{fill:none;stroke:#000000;stroke-width:4;stroke-linejoin:round;stroke-miterlimit:10;}
</style>
<g id="Layer_1">
	<path class="st0" d="M-1.01,50.47c5.62-4.18,13.01-12,15.49-18.55c0.91,6.34,1.92,12.97,5.72,18.14
		c4.89-4.49,8.58-10.28,10.59-16.61c3.72,6.89,7.93,13.52,12.58,19.82c1.57-5.57,2.18-11.42,1.77-17.2
		c2.44,6.62,6.37,12.67,11.43,17.59c2.8-4.73,5.33-9.63,7.56-14.65c2.34,6.5,5.92,12.56,10.51,17.73c2.89-5.04,5.1-10.46,6.55-16.08
		c1.39,4.14,3.35,8.09,5.79,11.7c2.06-4.99,3.76-10.13,5.08-15.36c2.93,4.9,5.86,9.81,8.8,14.71c2.81-4.98,4.71-10.46,5.58-16.11
		c1.31,6.32,3.53,12.46,6.55,18.16c3.6-5.27,6.06-11.3,7.17-17.58c1.99,4.95,3.99,9.91,5.98,14.86c0.99-6.26,1.96-12.47,2.37-18.79
		c0.55,3.24,2.3,6.13,4.07,8.89c3.44,5.38,7.08,10.63,10.71,15.88c6.04-3.92,10.01-10.86,10.33-18.06c-0.52,3.15,0.31,6.5,2.25,9.05
		c3.07-3.28,5.24-7.39,6.22-11.77c2.41,6.34,4.93,12.85,9.5,17.86c3.31-4.07,5.4-9.14,5.91-14.37c0.86,5.19,3.29,10.11,6.89,13.94
		c0.36,0.38,0.75,0.77,1.25,0.92c1.64,0.49,2.77-1.62,3.11-3.29c0.95-4.63,1.32-9.37,1.09-14.09c1.86,3.28,3.73,6.57,5.59,9.85
		c0.24,0.43,0.51,0.88,0.94,1.11c0.8,0.43,1.76-0.06,2.53-0.54c4.15-2.6,8.16-5.42,12.02-8.44c-0.05,4.73-0.01,9.8,2.66,13.71
		c2.96-1.59,4.25-5.12,4.97-8.4c0.72-3.28,1.2-6.81,3.34-9.4c2.66,4.74,6.08,9.06,10.09,12.74c0.94-2.71,1.47-5.57,1.57-8.44
		c2.2,5,4.4,10,6.6,15c2.94-5.71,5.4-11.44,8.34-17.16c1.33,5.55,3.46,10.91,6.29,15.87c1.29-4.98,2.58-9.97,3.88-14.95
		c3.63,5.81,7.25,11.63,10.88,17.44c3.99-4.55,7.06-9.91,8.98-15.64c2.62,4.15,4.62,8.7,5.91,13.44c2.14-4.37,4.29-8.75,6.43-13.12
		c2.33,5.55,4.66,11.11,6.99,16.66c2.9-4.53,6.45-8.63,10.51-12.15c0.5,2.17,0.99,4.33,1.49,6.5c1.64-4.29,4.76-8.55,9.29-9.31
		c4.53-0.76,9.58,4.19,7.43,8.25c3.87-2.63,6.5-7,7.01-11.65c6.07,5.57,11.59,11.76,16.43,18.43c3.95-5.09,5.03-12.25,2.77-18.28
		c1.81,2.57,3.61,5.14,5.42,7.71c2.86-1.96,5.23-4.63,6.83-7.7c2.73,6.33,6.35,12.28,10.71,17.62c2.31-4.28,4.07-8.87,5.2-13.6
		c1.22,1.76,2.44,3.52,3.66,5.29c5.26-3.2,9.63-7.85,12.49-13.31c1.88,4.97,3.75,9.94,5.63,14.91c2.92-2.62,5.43-5.71,7.39-9.11
		c1.21,2.28,2.43,4.56,3.64,6.84c4.15-1.76,7.88-4.47,10.84-7.87c1.18,2.92,2.36,5.84,3.53,8.76c4.44-3.44,8.88-6.87,13.32-10.31
		c2.78,3.17,5.19,6.65,7.17,10.37c4.1-2.48,7.19-6.58,8.44-11.2c1.68,3.46,3.36,6.93,5.04,10.39c2.76-3.45,5.53-6.91,8.29-10.36
		c0.45,4.2,2.18,8.26,4.9,11.49c5.02-2.92,9.76-6.3,14.15-10.1c0.23,4.83,1.28,9.63,3.08,14.12c0.28-3.11,1.32-6.15,2.99-8.79
		c0.06,3.65,5.43,5.07,8.41,2.96c2.98-2.11,4.02-5.98,4.84-9.54c3.08,3.38,6.16,6.77,9.23,10.15c4-4.55,8.67-8.52,13.81-11.74
		c-0.3,3.69,0.12,7.44,1.24,10.97c1.66-3.52,4.06-6.7,7-9.26c1.61,3.25,3.22,6.5,4.84,9.74c2.13-4.68,4.25-9.36,6.38-14.04
		c1.33,6.19,4.2,12.04,8.28,16.88c1.47-3.17,3.61-6.02,6.22-8.34c3.58,3.17,6.62,6.96,8.94,11.14c3.23-4.63,6.06-9.55,8.45-14.66
		c2.09,3.17,4.17,6.34,6.26,9.51c3.21-3.36,5.61-7.49,6.93-11.95c2.14,3.45,4.29,6.91,6.43,10.36c2.42-1.46,3.98-4.25,3.96-7.08
		c2.73,4.64,5.47,9.28,8.2,13.91c2.94-3.95,4.46-8.92,4.23-13.84c2.47,3.57,4.94,7.15,7.41,10.72c1.2-2.76,2.4-5.52,3.6-8.29
		c1.7,2.95,3.4,5.91,5.09,8.86c1.79-5.24,3.96-10.52,5.75-15.75c1.64,3.74,3.61,7.34,5.88,10.73c2.07-2.81,3.88-5.82,5.37-8.98
		c-0.04,7.98,1.15,15.97,3.53,23.59c4.73-6.13,5.98-14.16,7.07-21.82c2.08,5.12,5.14,9.84,8.97,13.83
		c3.59-4.15,5.96-9.35,6.74-14.78c2.6,6.86,5.99,13.42,10.09,19.51c2.43-4.92,3.65-10.43,3.53-15.91c2.29,3.4,7.57,6.8,9.86,10.19"
		/>
	<path class="st0" d="M0,58.95c112.14-4.02,221.27,3.89,333.47,3.99c122.33,0.11,244.65-4.3,366.98-4.19"/>
</g>
<g id="Layer_2">
</g>
</svg>
