<svg id="Layer_1" data-name="Layer 1" xmlns="http://www.w3.org/2000/svg" viewBox="0 0 230.56 208.59"><defs><style>.cls-1{fill:#fff;}.cls-2{fill:#d6e2f4;}.cls-3{fill:#603913;}.cls-4{fill:#a97c50;}</style></defs><g id="Nm8grH"><path class="cls-1" d="M-3.27,219V10.41H227.29V219Zm124.46-85.38c.2-1.21,0-2.77.72-3.69s1.14-1.75.75-2.87a2.94,2.94,0,0,1,.68-2.91,101.6,101.6,0,0,0,7-11.16,113.09,113.09,0,0,0,4.7-12c.47-1.27,1.21-1.73,2.46-1.33a7.69,7.69,0,0,1,2,.83c2.43,1.62,4.83,3.29,7.23,5A2.08,2.08,0,0,0,150,105a2.23,2.23,0,0,0-.77-3.25c-.55-.33-1.21-.5-1.78-.83-2.82-1.65-5.6-3.38-8.44-5-1-.55-1.39-1.07-1.12-2.26,1.08-4.67,2-9.36,3.08-14a53.32,53.32,0,0,0,.88-19.66,3.48,3.48,0,0,0-1.13-1.84c-1.1-1-1-3,.44-3.3a9.62,9.62,0,0,0,5.31-3.4c1.65-1.79,2.77-3.91,2.21-6.3A15.5,15.5,0,0,0,143,36.45c-3.4-2.69-7.52-3-11.65-2.1-3.81.8-7.57,1.78-11.34,2.74a54.08,54.08,0,0,0-15.68,6.4c-1.52.94-3.59,1.06-5.43,1.42-1.1.21-1.78-.39-2-1.55-.71-3.75-1.49-7.49-2.21-11.24s-1.21-7.6-3.22-11c-1-1.65-2.22-3.13-4.38-2.83a4.59,4.59,0,0,0-4,3.79,42.59,42.59,0,0,0-.26,21.16,43.63,43.63,0,0,1,1.09,6.53,2.32,2.32,0,0,1-.9,1.92A61.74,61.74,0,0,1,75.1,55c-2.44.78-5,1-7.52,1.63-6.19,1.68-11.69,4.42-14.39,10.72a16.72,16.72,0,0,0-1.09,5.12c-.06.57.71,1.39,1.3,1.8a9.78,9.78,0,0,0,7.22,1.39c2.39-.33,2.88.17,3.11,2.48s.81,4.51.86,6.77c.11,5.39,2.21,10.1,4.6,14.76,1.57,3,1.24,3.83-1.73,5.72a23,23,0,0,0-3.25,3c-1.11,1.06-2.18,2.17-3.32,3.21a23.88,23.88,0,0,0-2.13,1.72c-1,1.13-1.38,2.84-.35,3.76,1.19,1.05,2.42-.31,3.37-1.2,3.16-3,6.29-5.94,9.43-8.93.94-.9,1.59-.92,2.38.3a58.06,58.06,0,0,0,5.3,7.39c3.55,3.93,7.45,7.55,11.12,11.37,2,2.07,4.45,3.81,4.74,7.11.23,2.6,0,3-2.63,3a5.38,5.38,0,0,1-.9,0c-2.77-.43-5.56-.82-8.32-1.32-1.69-.31-3.34-.89-5-1.16-1.17-.19-2.67-.27-3.08,1.12a6.51,6.51,0,0,0,.41,3.15c.41,1.55,1,3,1.42,4.59a1.38,1.38,0,0,1-.63,1.22c-2.39.77-4.73,1.36-7.26.09-6.06-3-12.08-3.07-17.92.7-2.5,1.61-5,2.39-8,.89a4.85,4.85,0,0,0-5-.1,22.67,22.67,0,0,0-3.72,2.78c-2.48,2.49-4.87,5.07-7.2,7.7C25.45,157.43,23.47,159,23,161a111,111,0,0,0-2.67,15.17c-.44,4,1.34,7.63,2.87,11.2a16.23,16.23,0,0,0,12.4,10c.81.17,1.61.42,2.43.57,3.91.71,7.75,1.76,11.84.67,2.39-.63,4.93-.7,6.74,1.93a10.37,10.37,0,0,0,3.55,2.65c1.71,1,3.66,1.52,5.31,2.57a22.07,22.07,0,0,0,11.18,3.1c5,.24,10,0,14.94-.05a7.07,7.07,0,0,0,5.49-2.12,53.5,53.5,0,0,1,5.56-5.08,2,2,0,0,1,1.94,0,22.91,22.91,0,0,0,16.06,4.93c2-.17,4-.54,6-.88,5.48-.92,10.9-1.83,16-4.43a22.92,22.92,0,0,0,9.33-8.27c.86-1.36,1.87-2.64,2.84-3.93a3.59,3.59,0,0,1,3.35-1.71A37,37,0,0,0,175,185.09c6.09-2.22,10.82-5.77,13.53-11.87,1.47-3.32,1.23-6.81,1.6-10.23.17-1.55.54-2.35,2.28-2.53,1.3-.13,3-.57,3.68-1.5a32.16,32.16,0,0,0,3.81-7.22,40.62,40.62,0,0,0,1.46-6.81,2.13,2.13,0,0,0-.11-1.4c-1-1.57-1.62-3.48-3.6-4.28-.55-.22-.9-.91-1.36-1.36a19.51,19.51,0,0,0-2.57-2.42c-3.14-2.12-6.64-2.91-10.41-3.36s-7-.24-10.13,1.8a3.06,3.06,0,0,1-2.38.09c-1.61-.6-3.07-1.64-4.69-2.17-4.41-1.45-8.86-.72-13.36-.3a18.38,18.38,0,0,0-9.78,3.5,5,5,0,0,1-2.34,1.24c-.93,0-1.86-.64-2.82-.93-2.72-.82-5.41-2-8.19-2.29C127,132.75,124.27,133.37,121.19,133.62Z" transform="translate(3.27 -10.41)"/><path d="M121.19,133.62c3.08-.25,5.79-.87,8.4-.57,2.78.31,5.47,1.47,8.19,2.29,1,.29,1.89.95,2.82.93a5,5,0,0,0,2.34-1.24,18.38,18.38,0,0,1,9.78-3.5c4.5-.42,8.95-1.15,13.36.3,1.62.53,3.08,1.57,4.69,2.17a3.06,3.06,0,0,0,2.38-.09c3.16-2,6.43-2.24,10.13-1.8s7.27,1.24,10.41,3.36a19.51,19.51,0,0,1,2.57,2.42c.46.45.81,1.14,1.36,1.36,2,.8,2.59,2.71,3.6,4.28a2.13,2.13,0,0,1,.11,1.4,40.62,40.62,0,0,1-1.46,6.81,32.16,32.16,0,0,1-3.81,7.22c-.66.93-2.38,1.37-3.68,1.5-1.74.18-2.11,1-2.28,2.53-.37,3.42-.13,6.91-1.6,10.23-2.71,6.1-7.44,9.65-13.53,11.87a37,37,0,0,1-16.79,2.13,3.59,3.59,0,0,0-3.35,1.71c-1,1.29-2,2.57-2.84,3.93a22.92,22.92,0,0,1-9.33,8.27c-5.1,2.6-10.52,3.51-16,4.43-2,.34-4,.71-6,.88a22.91,22.91,0,0,1-16.06-4.93,2,2,0,0,0-1.94,0,53.5,53.5,0,0,0-5.56,5.08,7.07,7.07,0,0,1-5.49,2.12c-5,.1-10,.29-14.94.05a22.07,22.07,0,0,1-11.18-3.1c-1.65-1-3.6-1.61-5.31-2.57a10.37,10.37,0,0,1-3.55-2.65c-1.81-2.63-4.35-2.56-6.74-1.93-4.09,1.09-7.93,0-11.84-.67-.82-.15-1.62-.4-2.43-.57a16.23,16.23,0,0,1-12.4-10c-1.53-3.57-3.31-7.22-2.87-11.2A111,111,0,0,1,23,161c.5-1.94,2.48-3.54,3.92-5.17,2.33-2.63,4.72-5.21,7.2-7.7a22.67,22.67,0,0,1,3.72-2.78,4.85,4.85,0,0,1,5,.1c2.95,1.5,5.49.72,8-.89,5.84-3.77,11.86-3.74,17.92-.7,2.53,1.27,4.87.68,7.26-.09a1.38,1.38,0,0,0,.63-1.22c-.39-1.55-1-3-1.42-4.59a6.51,6.51,0,0,1-.41-3.15c.41-1.39,1.91-1.31,3.08-1.12,1.7.27,3.35.85,5,1.16,2.76.5,5.55.89,8.32,1.32a5.38,5.38,0,0,0,.9,0c2.67,0,2.86-.43,2.63-3-.29-3.3-2.76-5-4.74-7.11-3.67-3.82-7.57-7.44-11.12-11.37a58.06,58.06,0,0,1-5.3-7.39c-.79-1.22-1.44-1.2-2.38-.3-3.14,3-6.27,6-9.43,8.93-1,.89-2.18,2.25-3.37,1.2-1-.92-.62-2.63.35-3.76a23.88,23.88,0,0,1,2.13-1.72c1.14-1,2.21-2.15,3.32-3.21a23,23,0,0,1,3.25-3c3-1.89,3.3-2.67,1.73-5.72C66.8,95,64.7,90.31,64.59,84.92c0-2.26-.63-4.5-.86-6.77s-.72-2.81-3.11-2.48a9.78,9.78,0,0,1-7.22-1.39c-.59-.41-1.36-1.23-1.3-1.8a16.72,16.72,0,0,1,1.09-5.12c2.7-6.3,8.2-9,14.39-10.72,2.47-.67,5.08-.85,7.52-1.63A61.74,61.74,0,0,0,83,51.71a2.32,2.32,0,0,0,.9-1.92,43.63,43.63,0,0,0-1.09-6.53,42.59,42.59,0,0,1,.26-21.16,4.59,4.59,0,0,1,4-3.79c2.16-.3,3.4,1.18,4.38,2.83,2,3.38,2.5,7.21,3.22,11s1.5,7.49,2.21,11.24c.22,1.16.9,1.76,2,1.55,1.84-.36,3.91-.48,5.43-1.42A54.08,54.08,0,0,1,120,37.09c3.77-1,7.53-1.94,11.34-2.74,4.13-.87,8.25-.59,11.65,2.1a15.5,15.5,0,0,1,5.65,8.63c.56,2.39-.56,4.51-2.21,6.3a9.62,9.62,0,0,1-5.31,3.4c-1.44.28-1.54,2.33-.44,3.3a3.48,3.48,0,0,1,1.13,1.84A53.32,53.32,0,0,1,141,79.58c-1,4.68-2,9.37-3.08,14-.27,1.19.15,1.71,1.12,2.26,2.84,1.61,5.62,3.34,8.44,5,.57.33,1.23.5,1.78.83A2.23,2.23,0,0,1,150,105a2.08,2.08,0,0,1-3.22.49c-2.4-1.66-4.8-3.33-7.23-5a7.69,7.69,0,0,0-2-.83c-1.25-.4-2,.06-2.46,1.33a113.09,113.09,0,0,1-4.7,12,101.6,101.6,0,0,1-7,11.16,2.94,2.94,0,0,0-.68,2.91c.39,1.12,0,1.88-.75,2.87S121.39,132.41,121.19,133.62Zm15.52,12.79.4,0c-.19-1.6-.35-3.21-.6-4.8-.17-1.12-.67-1.53-2-1.21-3.42.82-6.89,1.54-10.38,2-1.84.25-4.1.49-5.55-.34a3.08,3.08,0,0,0-3.34-.12,8.46,8.46,0,0,1-2.09,1c-1.13.17-2.6.48-3.39-.06a19.59,19.59,0,0,0-7.92-2.72,5.58,5.58,0,0,0-3.27.75,3,3,0,0,1-3.27.19,5.41,5.41,0,0,0-3.91-.3c-3,1.12-5.86,2.67-8.8,4A1.68,1.68,0,0,0,81.46,147c1,4.63,1.83,9.28,2.64,13.94a8.7,8.7,0,0,1-.26,2.8c-.14.77-.53,1.52-.6,2.29-.15,1.81-.86,2.36-2.57,1.85-1.54-.46-3.08-1-4.65-1.36a27,27,0,0,0-6-1.13c-2.76,0-4.87-1.44-7.16-2.49a1.64,1.64,0,0,1-.54-1.5,1.69,1.69,0,0,1,1.35-.81,17.1,17.1,0,0,1,3.18.49c3.92.85,7.83,1.76,11.75,2.59,1.39.3,1.95-.11,1.64-1.73-.84-4.44-1.5-8.93-2.24-13.39a1.23,1.23,0,0,0-1.81-1.1c-1.25.42-2.47.9-3.72,1.32a3.43,3.43,0,0,1-3.4-.35c-4.3-2.73-9-4.46-14.07-2.3a45,45,0,0,0-6.76,4,3.45,3.45,0,0,1-4.39,0c-1.87-1.29-4-2.25-6.36-.74A12.78,12.78,0,0,0,32,157.21c-.78,3.06-.8,3.14-3.93,3.65a1.83,1.83,0,0,0-1,1.2,80.21,80.21,0,0,0-2,8.75c-.42,3-1.61,6.09-.32,9.22.34.82.57,1.7.83,2.55,1.35,4.44,3.94,8.14,8.12,10a28.32,28.32,0,0,0,14.7,2.52c2.14-.25,4.28-.54,6.41-.89,1.46-.24,2.28.68,3.16,1.54,1.46,1.44,2.74,3.15,4.41,4.26a53.6,53.6,0,0,0,7.3,3.78,11.23,11.23,0,0,0,3.77,1.08c4.3.31,8.61.59,12.92.57,2.76,0,5.77.31,8.11-1.64a51,51,0,0,0,6.12-5.9c1.91-2.25,3.27-2.53,5.22-.34,2.95,3.3,6.72,4.76,11,5.37,4.12.58,7.92-1,11.89-1.48a20,20,0,0,0,5.28-.92c3.64-1.48,7.17-3.27,10.7-5a6.62,6.62,0,0,0,2.06-1.67c1.84-2.2,4-4.27,5.26-6.78,1.63-3.28,3.57-3.9,7.15-3.51a31.33,31.33,0,0,0,18.76-3.69c4.14-2.27,6.93-5.5,7.63-10.2.48-3.24.63-6.54.84-9.82.13-2,.56-2.52,2.55-2.73a20,20,0,0,0,3.73-.49,4.49,4.49,0,0,0,2.31-1.58c2-3.06,2-6.7,2.52-10.18a2.39,2.39,0,0,0-.59-1.83c-2.26-2.11-4.56-4.2-7-6.13a6.7,6.7,0,0,0-3-1.06c-1.82-.31-3.68-.4-5.52-.63a6.58,6.58,0,0,0-5,1,13.44,13.44,0,0,1-3.06,2.12,4.83,4.83,0,0,1-3.09-.16c-1.06-.42-1.87-1.44-2.89-2-2.91-1.54-6.12-1.61-9.29-1.67a22.26,22.26,0,0,0-16.8,6.67,2.41,2.41,0,0,0-.37,1.65q.24,3.94.62,7.88.35,3.59.8,7.14c.18,1.51.84,2.43,2.6,2.17,1.6-.24,3.21-.33,4.82-.43,1.92-.11,2.72.95,1.9,2.65a3.19,3.19,0,0,1-1.62,1.22c-2.71,1.1-5.43.19-8.14-.09-3.05-.32-3.38-.62-3.75-3.7C137.57,155.23,137.16,150.82,136.71,146.41ZM67,76.49c.23,2,.49,3.83.66,5.67.33,3.52.57,7.06,2.14,10.32A39.32,39.32,0,0,0,73,98.65c1.31,1.81,2.65,3.51,3.14,5.73a.86.86,0,0,0,.21.3c2.13,2.64,4.23,5.31,6.4,7.92s4.48,5.11,6.56,7.78c2.57,3.31,6.3,5.31,9,8.56,1.88,2.28,4.63,3.86,7.08,5.63a2.67,2.67,0,0,0,2.17.25,10.93,10.93,0,0,0,3.37-2c5.53-5.14,10.81-10.58,14.35-17.3,2.45-4.63,4.29-9.59,6.31-14.43a33.49,33.49,0,0,0,2-5.93c1.31-6.26,2.68-12.54,3.56-18.87a114.05,114.05,0,0,0,.52-13.09c0-.55-.47-1.56-.79-1.59-2.65-.24-3.44-2.52-4.9-4.1a3.51,3.51,0,0,0-2.35-1.1,21.17,21.17,0,0,0-5.32.7c-4.31,1.22-8.62,2.49-12.84,4-3.6,1.29-7,3.12-10.61,4.38-5.71,2-11.5,3.71-17.25,5.57-3.4,1.1-6.79,2.25-10.18,3.37C71.31,75.11,69.21,75.78,67,76.49ZM55.51,71.41c5.63.06,10.78,1,15.94-.31a1.22,1.22,0,0,1,.17-.07c6.83-2.2,13.67-4.33,20.48-6.6,3.8-1.26,7.53-2.73,11.28-4.15,2.78-1.05,5.53-2.2,8.31-3.26,1.06-.4,2.21-.57,3.25-1a46.64,46.64,0,0,1,14.42-3.41c2.34-.21,4.81-.6,6.78,1.43a1.88,1.88,0,0,0,1.69-.39c.82-1.84,2.32-2.44,4.09-3,2.3-.78,3.86-3.29,3.16-4.79-1.72-3.7-4.71-7.94-10.5-7.72a51.38,51.38,0,0,0-13.67,2.8c-5.29,1.68-10.68,3-15.35,6.29-2.48,1.71-5.45,1.74-8.35,1.37a4.05,4.05,0,0,1-3.75-3.33c-.57-2.68-1-5.37-1.6-8-1-4.43-2-8.85-3.15-13.26-.14-.57-.87-1-1.33-1.49a5.93,5.93,0,0,0-1,1.52,32,32,0,0,0,.07,17.4c.92,3.45,1.71,6.89,1,10.43-.21,1.12-.9,2.62-1.8,3-3.6,1.7-7.26,3.64-11.11,4.39a43.93,43.93,0,0,0-14.38,5.17C57.62,65.87,56.76,68.37,55.51,71.41Zm54.17,66.38c2.24,1.49,4.6,1.26,7-.76,1.5-1.29.36-2.95.4-4.88Zm-24.11,2.09-.07-.55c-.89-.25-1.77-.56-2.67-.73s-2-.22-3-.33c.18,1.08.36,2.17.57,3.24,0,.09.16.15.4.35Zm37.83-2.42c1.41,1.11,4,.78,5.74-.31l-.07-.52Z" transform="translate(3.27 -10.41)"/><path class="cls-2" d="M136.71,146.41c.45,4.41.86,8.82,1.38,13.22.37,3.08.7,3.38,3.75,3.7,2.71.28,5.43,1.19,8.14.09a3.19,3.19,0,0,0,1.62-1.22c.82-1.7,0-2.76-1.9-2.65-1.61.1-3.22.19-4.82.43-1.76.26-2.42-.66-2.6-2.17q-.45-3.56-.8-7.14-.37-3.93-.62-7.88a2.41,2.41,0,0,1,.37-1.65,22.26,22.26,0,0,1,16.8-6.67c3.17.06,6.38.13,9.29,1.67,1,.54,1.83,1.56,2.89,2a4.83,4.83,0,0,0,3.09.16,13.44,13.44,0,0,0,3.06-2.12,6.58,6.58,0,0,1,5-1c1.84.23,3.7.32,5.52.63a6.7,6.7,0,0,1,3,1.06c2.43,1.93,4.73,4,7,6.13a2.39,2.39,0,0,1,.59,1.83C197,148.31,197,152,194.92,155a4.49,4.49,0,0,1-2.31,1.58,20,20,0,0,1-3.73.49c-2,.21-2.42.76-2.55,2.73-.21,3.28-.36,6.58-.84,9.82-.7,4.7-3.49,7.93-7.63,10.2a31.33,31.33,0,0,1-18.76,3.69c-3.58-.39-5.52.23-7.15,3.51-1.25,2.51-3.42,4.58-5.26,6.78a6.62,6.62,0,0,1-2.06,1.67c-3.53,1.74-7.06,3.53-10.7,5a20,20,0,0,1-5.28.92c-4,.43-7.77,2.06-11.89,1.48-4.28-.61-8.05-2.07-11-5.37-2-2.19-3.31-1.91-5.22.34a51,51,0,0,1-6.12,5.9c-2.34,2-5.35,1.62-8.11,1.64-4.31,0-8.62-.26-12.92-.57a11.23,11.23,0,0,1-3.77-1.08,53.6,53.6,0,0,1-7.3-3.78c-1.67-1.11-3-2.82-4.41-4.26-.88-.86-1.7-1.78-3.16-1.54-2.13.35-4.27.64-6.41.89a28.32,28.32,0,0,1-14.7-2.52c-4.18-1.82-6.77-5.52-8.12-10-.26-.85-.49-1.73-.83-2.55-1.29-3.13-.1-6.19.32-9.22a80.21,80.21,0,0,1,2-8.75,1.83,1.83,0,0,1,1-1.2c3.13-.51,3.15-.59,3.93-3.65a12.78,12.78,0,0,1,5.56-7.81c2.32-1.51,4.49-.55,6.36.74a3.45,3.45,0,0,0,4.39,0,45,45,0,0,1,6.76-4c5.07-2.16,9.77-.43,14.07,2.3a3.43,3.43,0,0,0,3.4.35c1.25-.42,2.47-.9,3.72-1.32a1.23,1.23,0,0,1,1.81,1.1c.74,4.46,1.4,8.95,2.24,13.39.31,1.62-.25,2-1.64,1.73-3.92-.83-7.83-1.74-11.75-2.59a17.1,17.1,0,0,0-3.18-.49,1.69,1.69,0,0,0-1.35.81,1.64,1.64,0,0,0,.54,1.5c2.29,1,4.4,2.49,7.16,2.49a27,27,0,0,1,6,1.13c1.57.37,3.11.9,4.65,1.36,1.71.51,2.42,0,2.57-1.85.07-.77.46-1.52.6-2.29a8.7,8.7,0,0,0,.26-2.8c-.81-4.66-1.68-9.31-2.64-13.94a1.68,1.68,0,0,1,1.13-2.23c2.94-1.33,5.79-2.88,8.8-4a5.41,5.41,0,0,1,3.91.3,3,3,0,0,0,3.27-.19,5.58,5.58,0,0,1,3.27-.75,19.59,19.59,0,0,1,7.92,2.72c.79.54,2.26.23,3.39.06a8.46,8.46,0,0,0,2.09-1,3.08,3.08,0,0,1,3.34.12c1.45.83,3.71.59,5.55.34,3.49-.48,7-1.2,10.38-2,1.33-.32,1.83.09,2,1.21.25,1.59.41,3.2.6,4.8Z" transform="translate(3.27 -10.41)"/><path class="cls-3" d="M67,76.49c2.19-.71,4.29-1.38,6.39-2.08,3.39-1.12,6.78-2.27,10.18-3.37,5.75-1.86,11.54-3.57,17.25-5.57,3.6-1.26,7-3.09,10.61-4.38,4.22-1.5,8.53-2.77,12.84-4a21.17,21.17,0,0,1,5.32-.7A3.51,3.51,0,0,1,132,57.5c1.46,1.58,2.25,3.86,4.9,4.1.32,0,.8,1,.79,1.59a114.05,114.05,0,0,1-.52,13.09c-.88,6.33-2.25,12.61-3.56,18.87a33.49,33.49,0,0,1-2,5.93c-2,4.84-3.86,9.8-6.31,14.43-3.54,6.72-8.82,12.16-14.35,17.3a10.93,10.93,0,0,1-3.37,2,2.67,2.67,0,0,1-2.17-.25c-2.45-1.77-5.2-3.35-7.08-5.63-2.68-3.25-6.41-5.25-9-8.56-2.08-2.67-4.4-5.16-6.56-7.78s-4.27-5.28-6.4-7.92a.86.86,0,0,1-.21-.3c-.49-2.22-1.83-3.92-3.14-5.73a39.32,39.32,0,0,1-3.15-6.17c-1.57-3.26-1.81-6.8-2.14-10.32C67.51,80.32,67.25,78.48,67,76.49Zm39.53,11.17a15.56,15.56,0,0,0,0-2.16c-.55-3.66-1.47-7.24-4.66-9.52-3.64-2.61-10-2.36-13.74.28a5.68,5.68,0,0,0-1.28,8,5.65,5.65,0,0,1,.79,1.57,19.72,19.72,0,0,0,10.78,12c1.84.83,4.4.3,5.34-1.18C105.52,94,106.94,91.08,106.55,87.66Zm14.07-24a19.12,19.12,0,0,0-3.41.42c-2.72.72-5.44,3.23-5.17,6.57.45,5.43,2.1,10.29,6,14.17,3.62,3.57,7.57,2.62,10.72-.5s3.24-7.16,3-11.09a15.94,15.94,0,0,0-2.33-6.48C127.64,63.74,124.4,63.73,120.62,63.69ZM98.36,115.06c4.18-4.53,8.57-8.76,14.74-10.51,1-.28,1.86-.82,2.82-1.11s2-1,2.64.43c.56,1.22,0,4.29-1.07,3.8-.7-.32-1.47.53-2.23.68a19.82,19.82,0,0,0-11.57,7,15.91,15.91,0,0,1-2,2.4,3.13,3.13,0,0,1-2.35.67c-.66-.19-1.1-1.17-1.6-1.76A6.55,6.55,0,0,1,98.36,115.06Z" transform="translate(3.27 -10.41)"/><path class="cls-4" d="M55.51,71.41c1.25-3,2.11-5.54,4.64-7a43.93,43.93,0,0,1,14.38-5.17c3.85-.75,7.51-2.69,11.11-4.39.9-.43,1.59-1.93,1.8-3,.67-3.54-.12-7-1-10.43a32,32,0,0,1-.07-17.4,5.93,5.93,0,0,1,1-1.52c.46.5,1.19.92,1.33,1.49,1.12,4.41,2.16,8.83,3.15,13.26.59,2.67,1,5.36,1.6,8a4.05,4.05,0,0,0,3.75,3.33c2.9.37,5.87.34,8.35-1.37,4.67-3.25,10.06-4.61,15.35-6.29a51.38,51.38,0,0,1,13.67-2.8c5.79-.22,8.78,4,10.5,7.72.7,1.5-.86,4-3.16,4.79-1.77.6-3.27,1.2-4.09,3a1.88,1.88,0,0,1-1.69.39c-2-2-4.44-1.64-6.78-1.43A46.64,46.64,0,0,0,114.94,56c-1,.45-2.19.62-3.25,1-2.78,1.06-5.53,2.21-8.31,3.26-3.75,1.42-7.48,2.89-11.28,4.15-6.81,2.27-13.65,4.4-20.48,6.6a1.22,1.22,0,0,0-.17.07C66.29,72.38,61.14,71.47,55.51,71.41Z" transform="translate(3.27 -10.41)"/><path class="cls-1" d="M109.68,137.79l7.36-5.64c0,1.93,1.1,3.59-.4,4.88C114.28,139.05,111.92,139.28,109.68,137.79Z" transform="translate(3.27 -10.41)"/><path class="cls-1" d="M85.57,139.88l-4.78,2c-.24-.2-.39-.26-.4-.35-.21-1.07-.39-2.16-.57-3.24,1,.11,2,.15,3,.33s1.78.48,2.67.73Z" transform="translate(3.27 -10.41)"/><path class="cls-1" d="M123.4,137.46l5.67-.83.07.52C127.39,138.24,124.81,138.57,123.4,137.46Z" transform="translate(3.27 -10.41)"/><path d="M106.55,87.66c.39,3.42-1,6.29-2.78,9-.94,1.48-3.5,2-5.34,1.18a19.72,19.72,0,0,1-10.78-12,5.65,5.65,0,0,0-.79-1.57,5.68,5.68,0,0,1,1.28-8c3.77-2.64,10.1-2.89,13.74-.28,3.19,2.28,4.11,5.86,4.66,9.52A15.56,15.56,0,0,1,106.55,87.66Zm-4.32-1.26c.2-.38.36-.53.36-.68-.1-4.72-6.08-9-10.46-7.55-.42.15-1,.71-1,1a51.09,51.09,0,0,0,.83,6.17c.08.4,1.29,1,1.55.86C96.42,84.36,99.28,84.93,102.23,86.4Z" transform="translate(3.27 -10.41)"/><path d="M120.62,63.69c3.78,0,7,.05,8.8,3.09a15.94,15.94,0,0,1,2.33,6.48c.28,3.93.09,8.08-3,11.09s-7.1,4.07-10.72.5c-3.93-3.88-5.58-8.74-6-14.17-.27-3.34,2.45-5.85,5.17-6.57A19.12,19.12,0,0,1,120.62,63.69Zm7.95,11a37.15,37.15,0,0,0-1.95-5.13A4,4,0,0,0,123,67.28a19.53,19.53,0,0,0-4.26.5c-1.45.39-2.91,1.27-2.89,3a16,16,0,0,0,.93,4.74c.66,2,1.78,2.53,3.56,1.52a8.57,8.57,0,0,1,6.85-1.08C127.47,76,128.05,75.16,128.57,74.68Z" transform="translate(3.27 -10.41)"/><path d="M96.66,114.23a6.14,6.14,0,0,0,1.63.64c6.15.14,12.25-.08,17.79-3.3.87-.5,1.88-.77,2.76-1.26s2.07-.76,1.52-2.19c-.48-1.26-2.38-2.3-3.47-1.88a9.5,9.5,0,0,0-2,1.14,19.88,19.88,0,0,1-13.08,3.45,15.32,15.32,0,0,0-3.15-.19,3.11,3.11,0,0,0-2.12,1.22C96.18,112.47,96.58,113.46,96.66,114.23Z" transform="translate(3.27 -10.41)"/><path class="cls-1" d="M102.23,86.4c-3-1.47-5.81-2-8.74-.17-.26.16-1.47-.46-1.55-.86a51.09,51.09,0,0,1-.83-6.17c0-.32.6-.88,1-1,4.38-1.5,10.36,2.83,10.46,7.55C102.59,85.87,102.43,86,102.23,86.4Z" transform="translate(3.27 -10.41)"/><path class="cls-1" d="M128.57,74.68c-.52.48-1.1,1.33-1.41,1.25A8.57,8.57,0,0,0,120.31,77c-1.78,1-2.9.51-3.56-1.52a16,16,0,0,1-.93-4.74c0-1.7,1.44-2.58,2.89-3a19.53,19.53,0,0,1,4.26-.5,4,4,0,0,1,3.65,2.27A37.15,37.15,0,0,1,128.57,74.68Z" transform="translate(3.27 -10.41)"/></g></svg>