<svg id="Layer_1" data-name="Layer 1" xmlns="http://www.w3.org/2000/svg" viewBox="0 0 202.55 141.78"><defs><style>.cls-1{fill:#9ac5cf;}.cls-2{fill:#2bb673;}.cls-3{fill:#594a42;}.cls-4{fill:#fff;}</style></defs><g id="lDXDOA"><path d="M105.67,152.46c-.66.33-1.08.41-1.3.66-2,2.24-3.85,4.52-5.8,6.76a11.45,11.45,0,0,1-2.07,2c-1.45,1-2.93.06-3.66-2.26-.25-.78-.32-1.62-.59-2.38s-.69-1.45-1.1-2.3c-.38.32-.73.46-.77.66-.51,2.74-1,5.47-1.43,8.22a2.92,2.92,0,0,1-1.69,2.44,17.88,17.88,0,0,1-8.43,2.52c-.44,0-1,.2-1.28,0-.6-.41-1.5-1-1.49-1.53,0-1.06.93-1.46,2-1.2a7.81,7.81,0,0,0,6.68-1.44,4.23,4.23,0,0,0,1.43-2.34c.79-3.48,1.59-7,2-10.5a14.1,14.1,0,0,0-.42-5.89,35.79,35.79,0,0,1-1.64-10.39,7.67,7.67,0,0,0-1.48-4.43,36,36,0,0,1-5.62-11.78c-.81-3.26-1.38-6.6-1.87-9.92-.21-1.46-.86-1.87-2.18-1.82a20.22,20.22,0,0,1-3.48-.1c-2.43-.34-4.85-.76-7.27-1.2-3.62-.67-7.29-1.19-10.83-2.16a99.09,99.09,0,0,1-10.33-3.66C39.48,99,36,97.25,32.37,95.86A57.68,57.68,0,0,0,24,93.33c-4.05-.86-5.7-3.78-6.81-7.24-1-3.16-1.8-6.4-2.9-9.52-.71-2-1.88-3.89-2.72-5.88a14.87,14.87,0,0,1-.87-8.63c.57-3.18.79-6.42,1.38-9.6a14.42,14.42,0,0,1,1.64-3.64c2.51-4.79,5.39-9.37,9.41-13a51.23,51.23,0,0,1,8-5.6,30.29,30.29,0,0,1,6.16-2.72,6.27,6.27,0,0,1,7.46,2.23c.63.86,1.36,1.63,1.95,2.51,1.64,2.42,2.42,2.77,5.2,2,1.11-.3,2.19-.72,3.29-1.1,4.22-1.45,8.41-3.22,12.95-3.24,5.58,0,10.69,1.48,14.65,5.68a23.61,23.61,0,0,1,3.46,4.51,6.37,6.37,0,0,0,4.82,3.31,30.86,30.86,0,0,0,7.49.38,54.5,54.5,0,0,1,21.16,2.28c5.2,1.62,10.5,2.93,15.73,4.46a38.48,38.48,0,0,1,15.39,8.25c1.83,1.67,3.22,3.82,5,5.61,3.08,3.17,6.14,6.61,11,6.76a43.76,43.76,0,0,0,8.2-.82c4.59-.74,8.77.54,12.89,2.29,1.15.5,2.29,1,3.44,1.51,3.49,1.49,6.23,4,8.89,6.58,3.25,3.14,6.42,6.36,9.56,9.62,1.07,1.11,2.35,2.31,2.79,3.7a12.3,12.3,0,0,1,.2,5.24c-.38,2.8-1.77,5.25-3.14,7.71a32.79,32.79,0,0,1-12.28,12.48c-2.29,1.35-5.13,1.84-7.78,2.51-3.5.9-7-.19-10.48-.36-2.75-.13-5.49-.31-8.24-.46-4.82-.26-9.65-.33-14.44-.81-4-.4-8-1.22-12-2-1.23-.23-2-.06-2.58,1.12-2.14,4.55-5.7,7.92-9.38,11.18-4.73,4.19-10.37,6.87-15.86,9.8a7.17,7.17,0,0,0-1.83,1.61c-1.6,1.79-3.06,3.71-4.74,5.41-1.09,1.1-1.09,2.29-1.19,3.66-.16,2.45-.65,4.86-.92,7.3-.3,2.81,2.19,4.74,5,4,.74-.2,1.49-.38,2.23-.59s1.74-.48,1.89.54a2.52,2.52,0,0,1-.93,2c-2.92,1.91-7,1.22-9.6-1.18a5.43,5.43,0,0,1-1.59-5.35C105.19,156.18,105.39,154.48,105.67,152.46Zm-25-47.62a1.91,1.91,0,0,0,.57,0c1.8-.29,3.59-.66,5.39-.89,4.45-.58,8.74.51,13,1.44,2.11.46,2.24.51,3.08-1.44a9.34,9.34,0,0,1,5.66-5.36c1.64-.58,2.81.16,2.79,1.93a37,37,0,0,1-.5,5c-.16,1.07.1,1.6,1.23,1.81,3.26.6,6.54,1.15,9.74,2,3,.81,6,2,9,3,2.74.9,5.5,1.76,8.24,2.67a1.3,1.3,0,0,0,1.82-.89c.52-1.3,1.08-2.58,1.52-3.9s1.45-2.08,2.46-1.74,1.18,1.69.7,3a32.88,32.88,0,0,0-1.2,3.72,1.27,1.27,0,0,0,.58,1.09,32.4,32.4,0,0,0,5.17,1.24c4.55.54,9.11,1,13.68,1.35,6.6.48,13.21.8,19.81,1.19,4.33.26,8.58.21,12.44-2.26A28.33,28.33,0,0,0,203,112a36.45,36.45,0,0,0,6.45-11,10.08,10.08,0,0,0,.31-6.9c-.33-.87-1.38-1.47-2.1-2.2l-.31-.3c-3.54-3.62-7.12-7.2-10.59-10.88a22.17,22.17,0,0,0-6-4.25A69.91,69.91,0,0,0,184,73.31a14.2,14.2,0,0,0-7.3-1.25c-2.34.32-4.67.62-7,1-6.37,1-10.95-2.39-15-6.55-3.05-3.17-5.3-7.12-9.36-9.26-2.61-1.38-5.1-3.13-7.86-4.06-5.4-1.81-11-3.16-16.43-4.72-.92-.27-1.78-.76-2.71-1-2.29-.54-4.58-1.12-6.91-1.43a71.61,71.61,0,0,0-8.27-.65c-4.29-.08-8.58.17-12.86,0a6.71,6.71,0,0,1-5.37-3A34.23,34.23,0,0,0,80.74,37c-1.94-1.77-3.78-3.83-6.58-4.44-3-.65-6-1.22-9-.53-3.7.88-7.24,2.43-10.87,3.65a17.45,17.45,0,0,1-4.25,1.12,5.61,5.61,0,0,1-3.63-.85,21.64,21.64,0,0,1-3.75-4.52c-1.57-2.27-3.35-2.39-5.79-1.71-3.18.89-5.73,2.88-8.5,4.47-4.93,2.81-8,7.33-11,12S13.36,56,13,61.37a25.7,25.7,0,0,0,.5,6.42,17.74,17.74,0,0,0,1.85,4.83c2.11,4,3,8.32,4.28,12.53.58,1.89,1.36,3.77,3.15,4.64a67.24,67.24,0,0,0,6.61,2.35c2.52.92,5,1.84,7.52,2.86,4,1.65,8,3.56,12.1,5a98.38,98.38,0,0,0,10.71,3c4.81,1.14,9.63,2.39,14.65,2.37a2.29,2.29,0,0,0,2.2-1,5,5,0,0,1,1.78-1.61,2.44,2.44,0,0,1,2,0C80.66,103,80.57,104,80.7,104.84Zm35.48,22.47c.69-1.12.37-5.77-.37-6.44a3.4,3.4,0,0,0-.88-.48c-1.2-.51-2.37-1.08-3.6-1.49a27.8,27.8,0,0,0-5.5-1.53c-2.18-.24-4.41.09-6.62,0a26.05,26.05,0,0,1-4.58-.46c-1.67-.33-2-.25-2.57,1.36s-1.17,3.26-1.6,4.93c-.61,2.41-1.12,4.84-1.55,7.29-.07.39.38,1,.77,1.33,1.21.89,1.23,1.86.13,2.93a3.06,3.06,0,0,0-.9,1.92,17,17,0,0,0,1.21,7c.89,2.24,1.23,4.69,2,7s1.85,4.2,2.73,6.31c.46,1.09,1,.85,1.61.21,3.55-3.65,7.12-7.28,10.63-11,1.44-1.5,2.76-3.11,4.17-4.72-3.67-1.78-3.92-2.93-3.38-7,.45-3.39,2.19-6.24,3.76-9.15a1.67,1.67,0,0,1,1-.68A3,3,0,0,1,116.18,127.31Zm1.55,9.07a3.23,3.23,0,0,0,.89-.21c2.22-1.36,4.39-2.78,6.62-4.1a41.33,41.33,0,0,0,9-7.81,49.69,49.69,0,0,0,4.28-5.76c.29-.43.94-1.27-.2-1.61-1.7-.5-3.43-.85-5.11-1.39-2.42-.77-4.78-1.7-7.2-2.44-.9-.28-1.9-1.09-2.91-.12a24.6,24.6,0,0,0,2.71,3c2.33,1.89,1.29,6.12-.87,7.25a8.33,8.33,0,0,1-3.46.69c-1.51.06-1.8.3-1.59,1.76a6.19,6.19,0,0,1,0,2.27C119.26,130.71,118.5,133.44,117.73,136.38ZM96.37,108.72a34.32,34.32,0,0,0-3.76.64A2.2,2.2,0,0,0,91,111.89c.15,1,.18,2.24,1.74,2.45a49.51,49.51,0,0,0,11,.41A11.26,11.26,0,0,1,110,116c.89.46,2,.55,2.84,1,2.2,1.21,4.88,1.38,6.69,3.47,1.22,1.4,2.33,1.36,3.41.46a3.09,3.09,0,0,0,.12-4.68,9.13,9.13,0,0,0-5.91-2.71,11.89,11.89,0,0,1-3.53-.62c-2.24-.87-4.59-1.53-6.2-3.63-1.05-1.37-3.54-.69-4.33.86-.26.51-1.09,1.16-1.54,1.08a12.26,12.26,0,0,1-3-1.26C97.67,109.55,96.9,109,96.37,108.72ZM85.63,128.44l.42-.15c.08-.26.18-.51.25-.77A56.79,56.79,0,0,1,88,121.71c1.2-3.06,2.34-6,.45-9.21-1.37-2.35.54-4.26,2.44-4.87a11.33,11.33,0,0,0,1.41-.67l-.07-.43A15,15,0,0,0,89,106c-2.66.14-5.32.44-8,.77a1.59,1.59,0,0,0-1.47,2,53.54,53.54,0,0,0,4,15.74C84.12,125.85,84.92,127.12,85.63,128.44Zm27.51.79L110.92,134l3.4-.27C115,132.12,114.71,130.78,113.14,129.23Zm-4.72-26.78-.68-.32a27.63,27.63,0,0,0-2.24,2.74c-.24.37,0,1,0,1.58.79-.15,2.09-.06,2.28-.48A13.38,13.38,0,0,0,108.42,102.45Z" transform="translate(-10.39 -27.08)"/><path class="cls-1" d="M80.7,104.84c-.13-.89,0-1.85-.36-2a2.44,2.44,0,0,0-2,0,5,5,0,0,0-1.78,1.61,2.29,2.29,0,0,1-2.2,1c-5,0-9.84-1.23-14.65-2.37A98.38,98.38,0,0,1,49,100c-4.1-1.48-8.06-3.39-12.1-5-2.48-1-5-1.94-7.52-2.86a67.24,67.24,0,0,1-6.61-2.35C21,88.92,20.22,87,19.64,85.15c-1.31-4.21-2.17-8.57-4.28-12.53a17.74,17.74,0,0,1-1.85-4.83,25.7,25.7,0,0,1-.5-6.42c.35-5.37,1.38-10.58,4.38-15.23s6.09-9.15,11-12c2.77-1.59,5.32-3.58,8.5-4.47,2.44-.68,4.22-.56,5.79,1.71a21.64,21.64,0,0,0,3.75,4.52,5.61,5.61,0,0,0,3.63.85,17.45,17.45,0,0,0,4.25-1.12C58,34.45,61.5,32.9,65.2,32c2.92-.69,6-.12,9,.53,2.8.61,4.64,2.67,6.58,4.44a34.23,34.23,0,0,1,4.2,5.44,6.71,6.71,0,0,0,5.37,3c4.28.13,8.57-.12,12.86,0a71.61,71.61,0,0,1,8.27.65c2.33.31,4.62.89,6.91,1.43.93.22,1.79.71,2.71,1,5.48,1.56,11,2.91,16.43,4.72,2.76.93,5.25,2.68,7.86,4.06,4.06,2.14,6.31,6.09,9.36,9.26,4,4.16,8.59,7.51,15,6.55,2.33-.34,4.66-.64,7-1a14.2,14.2,0,0,1,7.3,1.25,69.91,69.91,0,0,1,6.78,3.06,22.17,22.17,0,0,1,6,4.25c3.47,3.68,7.05,7.26,10.59,10.88l.31.3c.72.73,1.77,1.33,2.1,2.2a10.08,10.08,0,0,1-.31,6.9A36.45,36.45,0,0,1,203,112a28.33,28.33,0,0,1-7.1,5.81c-3.86,2.47-8.11,2.52-12.44,2.26-6.6-.39-13.21-.71-19.81-1.19-4.57-.33-9.13-.81-13.68-1.35a32.4,32.4,0,0,1-5.17-1.24,1.27,1.27,0,0,1-.58-1.09,32.88,32.88,0,0,1,1.2-3.72c.48-1.26.19-2.65-.7-3s-2,.43-2.46,1.74-1,2.6-1.52,3.9A1.3,1.3,0,0,1,139,115c-2.74-.91-5.5-1.77-8.24-2.67-3-1-6-2.15-9-3-3.2-.85-6.48-1.4-9.74-2-1.13-.21-1.39-.74-1.23-1.81a37,37,0,0,0,.5-5c0-1.77-1.15-2.51-2.79-1.93a9.34,9.34,0,0,0-5.66,5.36c-.84,2-1,1.9-3.08,1.44-4.28-.93-8.57-2-13-1.44-1.8.23-3.59.6-5.39.89A1.91,1.91,0,0,1,80.7,104.84Z" transform="translate(-10.39 -27.08)"/><path class="cls-2" d="M116.18,127.31a3,3,0,0,0-3.52-2.64,1.67,1.67,0,0,0-1,.68c-1.57,2.91-3.31,5.76-3.76,9.15-.54,4.11-.29,5.26,3.38,7-1.41,1.61-2.73,3.22-4.17,4.72-3.51,3.67-7.08,7.3-10.63,11-.62.64-1.15.88-1.61-.21-.88-2.11-2-4.15-2.73-6.31s-1.14-4.73-2-7a17,17,0,0,1-1.21-7,3.06,3.06,0,0,1,.9-1.92c1.1-1.07,1.08-2-.13-2.93-.39-.29-.84-.94-.77-1.33.43-2.45.94-4.88,1.55-7.29.43-1.67,1-3.29,1.6-4.93s.9-1.69,2.57-1.36a26.05,26.05,0,0,0,4.58.46c2.21,0,4.44-.28,6.62,0a27.8,27.8,0,0,1,5.5,1.53c1.23.41,2.4,1,3.6,1.49a3.4,3.4,0,0,1,.88.48C116.55,121.54,116.87,126.19,116.18,127.31Zm-10.75,7a7,7,0,0,0-.25-2.13c-1-2.41-2.16-4.78-3.31-7.14-.41-.83-3.44-2.14-4.31-2a1,1,0,0,0-.49.27,8.05,8.05,0,0,0-1.61,2,60.42,60.42,0,0,0-2.24,6.52c-.65,2.36-1.29,4.77-.66,7.23.54,2.14,2.3,4.63,4.65,4.38a8.33,8.33,0,0,0,5-1.95A10,10,0,0,0,105.43,134.32Zm-12.55-6.59a10.61,10.61,0,0,0-1.29-1.19,1.11,1.11,0,0,0-1-.09,1.19,1.19,0,0,0-.27,1C90.52,128.53,91.36,128.67,92.88,127.73Z" transform="translate(-10.39 -27.08)"/><path class="cls-3" d="M96.37,108.72c.53.31,1.3.83,2.12,1.24a12.26,12.26,0,0,0,3,1.26c.45.08,1.28-.57,1.54-1.08.79-1.55,3.28-2.23,4.33-.86,1.61,2.1,4,2.76,6.2,3.63a11.89,11.89,0,0,0,3.53.62,9.13,9.13,0,0,1,5.91,2.71,3.09,3.09,0,0,1-.12,4.68c-1.08.9-2.19.94-3.41-.46-1.81-2.09-4.49-2.26-6.69-3.47-.87-.48-2-.57-2.84-1a11.26,11.26,0,0,0-6.31-1.21,49.51,49.51,0,0,1-11-.41c-1.56-.21-1.59-1.43-1.74-2.45a2.2,2.2,0,0,1,1.66-2.53A34.32,34.32,0,0,1,96.37,108.72Z" transform="translate(-10.39 -27.08)"/><path class="cls-4" d="M113.14,129.23c1.57,1.55,1.85,2.89,1.18,4.47l-3.4.27Z" transform="translate(-10.39 -27.08)"/><path class="cls-3" d="M108.42,102.45a13.38,13.38,0,0,1-.64,3.52c-.19.42-1.49.33-2.28.48,0-.53-.24-1.21,0-1.58a27.63,27.63,0,0,1,2.24-2.74Z" transform="translate(-10.39 -27.08)"/><path d="M105.43,134.32a10,10,0,0,1-3.2,7.21,8.33,8.33,0,0,1-5,1.95c-2.35.25-4.11-2.24-4.65-4.38-.63-2.46,0-4.87.66-7.23a60.42,60.42,0,0,1,2.24-6.52,8.05,8.05,0,0,1,1.61-2,1,1,0,0,1,.49-.27c.87-.19,3.9,1.12,4.31,2,1.15,2.36,2.28,4.73,3.31,7.14A7,7,0,0,1,105.43,134.32Zm-3.73,2.6a5.09,5.09,0,0,0,.46-.67c1.62-3.28-.37-8.31-2.64-10.3a.85.85,0,0,0-1.5.36c-.88,2.16-1.79,4.32-2.48,6.55a36.18,36.18,0,0,0-.82,4.67l.37.2C97.11,136.29,99.13,134.78,101.7,136.92Z" transform="translate(-10.39 -27.08)"/><path d="M92.88,127.73c-1.52.94-2.36.8-2.55-.29a1.19,1.19,0,0,1,.27-1,1.11,1.11,0,0,1,1,.09A10.61,10.61,0,0,1,92.88,127.73Z" transform="translate(-10.39 -27.08)"/><path class="cls-4" d="M101.7,136.92c-2.57-2.14-4.59-.63-6.61.81l-.37-.2a36.18,36.18,0,0,1,.82-4.67c.69-2.23,1.6-4.39,2.48-6.55a.85.85,0,0,1,1.5-.36c2.27,2,4.26,7,2.64,10.3A5.09,5.09,0,0,1,101.7,136.92Z" transform="translate(-10.39 -27.08)"/></g></svg>