<?xml version="1.0" encoding="utf-8"?>
<!-- Generator: Adobe Illustrator 26.3.1, SVG Export Plug-In . SVG Version: 6.00 Build 0)  -->
<svg version="1.1" id="Layer_1" xmlns="http://www.w3.org/2000/svg" xmlns:xlink="http://www.w3.org/1999/xlink" x="0px" y="0px"
	 viewBox="0 0 215.96 215.96" style="enable-background:new 0 0 215.96 215.96;" xml:space="preserve">
<polygon class="st0" points="112.13,42.94 104.6,49.67 99.33,66.61 99.33,74.95 107.32,76.28 110.51,58.09 116.97,51.28 "/>
<path class="st1" d="M82.64,93.3c2.64-0.95,5.09-0.41,7.45,0.64c2.23,0.99,4.53,1.21,6.93,1.2c5.28-0.02,10.56-0.03,15.83,0.22
	c2.89,0.14,5.75,0.8,8.62,1.29c2.33,0.4,4.63,1.07,6.97,1.29c2.07,0.19,3.38,1.16,4.27,2.9c0.41,0.81,0.91,1.65,1.02,2.52
	c0.57,4.35,0.96,8.67-1.63,12.67c-2.47,3.81-4.85,7.68-7.1,11.62c-1.25,2.19-2.95,3.66-5.29,4.45c-4.31,1.44-8.55,3.39-12.98,4.14
	c-6.8,1.16-16.5-1.07-19.93-9.77c-2.51-6.36-4.09-12.81-4.08-19.64C82.72,102.48,82.67,98.13,82.64,93.3z M102.68,130.61
	c1.88-0.56,3.82-0.97,5.61-1.73c2.17-0.92,4.17-2.22,6.31-3.2c3.13-1.44,4.94-4.2,6.95-6.75c0.93-1.18,0.13-3.2-1.38-3.42
	c-1-0.15-2.2,0.02-3.08,0.48c-0.92,0.48-1.53,1.52-2.32,2.26c-3.07,2.91-6.63,5.08-10.61,6.46c-2.98,1.03-4.84,0.31-6.58-2.21
	c-0.51-0.74-0.87-1.59-1.33-2.37c-0.36-0.62-0.71-1.27-1.18-1.8c-0.81-0.93-2.45-1.1-3.5-0.47c-1.06,0.64-1.42,2.1-0.69,3.34
	c0.92,1.56,1.96,3.05,2.94,4.57C95.87,128.96,98.78,130.44,102.68,130.61z M104.83,102.89c-0.11-2.19-0.73-4.04-2.2-5.54
	c-2.15-2.21-5.08-2.41-7.21-0.22c-1.37,1.41-2.65,3.03-3.51,4.78c-1.47,2.99-0.16,6.78,2.63,8.59c2.53,1.64,6.24,0.97,8.31-1.62
	C104.25,107.12,104.62,104.95,104.83,102.89z M128.04,105.73c-0.04-2.61-1.41-5.24-4.29-7.03c-2.8-1.74-8.4,0.3-9.01,3.52
	c-0.93,4.84,2.08,9.86,7.9,8.95c1.07-0.17,2.13-0.51,3.15-0.9C127.67,109.57,128.23,108.58,128.04,105.73z M87.63,110.12
	c-0.74-0.39-1.18-0.83-1.5-0.76c-0.87,0.19-1.67,0.7-1.34,1.77c0.11,0.36,0.94,0.89,1.05,0.81
	C86.43,111.5,86.91,110.89,87.63,110.12z"/>
<path class="st2" d="M79.28,85.73c-0.67,1.05-1.35,2.11-2.13,3.34c-2.47,0-4.96,0-7.94,0c0.46-1.02,0.61-1.96,1.16-2.44
	c1.88-1.62,3.32-3.88,5.89-4.58C77.32,83.33,78.3,84.52,79.28,85.73z"/>
<path class="st2" d="M124.5,92.4c-4.05-0.88-8.05-1.75-12.38-2.69c0.14-0.72,0.03-1.77,0.51-2.27c0.54-0.56,1.77-1.08,2.39-0.83
	c3.32,1.32,6.89,2.24,9.47,4.98C124.57,91.67,124.5,91.9,124.5,92.4z"/>
<path class="st2" d="M129.24,93.12c1.45-1.54,2.37-2.52,3.3-3.51c2.24,0.56,3.81,1.6,5.06,3.3
	C135.31,93.79,135.31,93.79,129.24,93.12z"/>
<path class="st2" d="M85.44,84.93c3.08-0.81,5.38-1.53,7.75-1.96c0.67-0.12,2.19,0.57,2.2,0.92c0.05,0.95-0.4,1.96-0.88,2.86
	c-0.22,0.42-0.98,0.92-1.45,0.89C90.73,87.47,88.09,88.09,85.44,84.93z"/>
<path class="st2" d="M90.42,80.03c-3.27,0.55-5.44,1.95-8.23,0.71C84.89,79.15,84.89,79.15,90.42,80.03z"/>
<path class="st2" d="M130.26,88.32c-2.99-1.1-5.99-2.19-8.88-3.25c0.31-2.73,2.18-2.79,3.59-2.21c2.61,1.08,5.64,2.13,5.09,5.67
	L130.26,88.32z"/>
<path class="st2" d="M96.95,89.9c4.33-4.96,4.33-4.96,10.37,0C103.41,89.9,100.24,89.9,96.95,89.9z"/>
<path class="st2" d="M109.41,77.18c-1.6,2.38-3.92,1.81-6.33,0.98C104.76,76.21,106.81,75.76,109.41,77.18z"/>
<path class="st2" d="M112.23,83.45c-2.7,1-4.02,1.9-5.26,1.85c-1.42-0.07-2.77-0.98-4.15-1.53c0.98-0.45,1.95-1.25,2.95-1.27
	C107.37,82.45,108.99,82.93,112.23,83.45z"/>
<path class="st2" d="M97.55,81.25c0.07-0.08,0.16-0.23,0.2-0.22c0.27,0.1,0.53,0.23,0.79,0.36c-0.06,0.11-0.13,0.23-0.19,0.34
	C98.09,81.57,97.82,81.41,97.55,81.25z"/>
<path class="st2" d="M126.18,86.39c0.3-0.12,0.6-0.34,0.89-0.33c0.18,0.01,0.34,0.37,0.52,0.57c-0.15,0.03-0.32,0.13-0.44,0.09
	c-0.3-0.13-0.57-0.31-0.86-0.47C126.29,86.26,126.18,86.39,126.18,86.39z"/>
<path d="M102.68,130.61c-3.9-0.18-6.82-1.65-8.86-4.85c-0.98-1.53-2.02-3.01-2.94-4.57c-0.74-1.25-0.38-2.7,0.69-3.34
	c1.05-0.64,2.69-0.46,3.5,0.47c0.47,0.54,0.82,1.18,1.18,1.8c0.46,0.78,0.82,1.63,1.33,2.37c1.74,2.53,3.6,3.24,6.58,2.21
	c3.98-1.38,7.53-3.55,10.61-6.46c0.79-0.75,1.41-1.78,2.32-2.26c0.88-0.46,2.08-0.63,3.08-0.48c1.51,0.22,2.31,2.24,1.38,3.42
	c-2,2.55-3.82,5.31-6.95,6.75c-2.14,0.99-4.14,2.28-6.31,3.2C106.5,129.64,104.56,130.05,102.68,130.61z"/>
<path d="M104.83,102.89c-0.21,2.06-0.58,4.22-1.98,5.99c-2.06,2.6-5.77,3.26-8.31,1.62c-2.79-1.81-4.1-5.6-2.63-8.59
	c0.86-1.75,2.14-3.37,3.51-4.78c2.12-2.19,5.06-1.99,7.21,0.22C104.1,98.85,104.72,100.7,104.83,102.89z"/>
<path d="M128.04,105.73c0.19,2.85-0.37,3.84-2.25,4.55c-1.02,0.38-2.08,0.73-3.15,0.9c-5.82,0.91-8.82-4.11-7.9-8.95
	c0.62-3.22,6.21-5.27,9.01-3.52C126.63,100.49,128,103.12,128.04,105.73z"/>
<path d="M87.63,110.12c-0.72,0.77-1.2,1.38-1.79,1.83c-0.1,0.08-0.94-0.45-1.05-0.81c-0.33-1.07,0.47-1.58,1.34-1.77
	C86.45,109.29,86.89,109.73,87.63,110.12z"/>
<path class="st3" d="M94.02,103.71c0,0,0.65-4.6,3.69-4.45c3.04,0.15,5.06,2.01,5.36,5.42c0,0-0.29-1.75-4.45-1.78
	C96.01,102.88,94.02,103.71,94.02,103.71z"/>
<path class="st3" d="M116.97,103.49c0,0,0.41-3.55,3.45-3.4s5.76,2.71,5.36,5.42c0,0-1.89-3.25-5.69-2.71
	C117.51,103.16,116.97,103.49,116.97,103.49z"/>
<polygon class="st4" points="70.47,82.25 79.28,76.67 95.4,78.57 101.72,74.55 107.32,75.92 129.24,81.8 144.43,89.52 143.09,94.46 
	104.6,92.78 67.78,91.55 67.78,86.57 "/>
<path d="M156.32,102.19c-1.58-1.37-3.72-1.71-5.56-0.49c-1.81,1.2-3.41,2.72-5.07,4.15c-1.77,1.53-3.27,3.39-5.47,4.52
	c-1.75-1.53-0.99-3.5-1.31-5.19c-0.36-1.9-0.68-3.81-1-5.66c0.81-0.41,1.27-0.79,1.78-0.86c1.43-0.21,2.9-0.49,4.32-0.36
	c2,0.17,2.61-1.87,4.17-2.27c0.51-0.13,1.1,0.04,1.63-0.05c0.86-0.14,1.71-0.38,2.76-0.62c0-2.29,0.34-4.47-0.09-6.48
	c-0.5-2.34-1.85-4.53-4.5-4.99c-4.68-0.82-9.09-2.71-13.7-3.58c-6.61-1.25-12.92-3.84-19.69-4.31c-0.85-0.06-1.12-0.65-0.88-1.58
	c-0.54-0.45-0.89-1.12-0.92-1.87c-0.02-0.41,0.1-0.79,0.29-1.13c-0.01,0-0.03,0-0.04,0c-0.55-2.15-0.66-4.14-0.18-6.05
	c0.01-0.08,0-0.17,0.02-0.25c0.14-0.79,0.23-1.58,0.32-2.37c0-0.02-0.01-0.06-0.01-0.07c-0.08-0.76,0.07-1.47,0.31-2.18
	c0.1-0.28,0.23-0.51,0.37-0.71c0.37-3.93,3.52-4.88,5.84-5.94c1.57-2.77-0.59-4.58-0.95-6.5c-0.26-0.2-0.49-0.44-0.69-0.73
	c-0.55-0.78-1.08-1.58-1.64-2.36c-0.29-0.41-0.59-0.8-0.89-1.2c0.49,0.67-0.03-0.04-0.16-0.2c-0.16-0.19-0.32-0.38-0.48-0.57
	c-0.59-0.68-1.24-1.3-1.93-1.88c-0.11-0.08-0.28-0.21-0.37-0.27c-0.2-0.13-0.4-0.25-0.61-0.37c-0.18-0.1-0.37-0.19-0.56-0.29
	c-0.09-0.03-0.17-0.06-0.26-0.09c-0.15-0.05-0.28-0.13-0.42-0.2c-0.86,1.81-2,3.41-3.59,4.63c-3.34,2.57-5.11,6.03-6.34,9.95
	c-0.82,2.6-1.99,5.08-2.95,7.4c-0.02,0.65-0.19,1.26-0.31,1.88c-0.01,0.27-0.09,0.5-0.18,0.74c0.2,0.73,0.09,1.55-0.33,2.18
	c-0.06,0.45-0.11,0.85-0.2,1.24c-0.03,0.14-0.07,0.26-0.11,0.39c0.04,0.1,0.09,0.18,0.13,0.29c0.46,1.43,0.68,2.9,0.31,4.38
	c-0.01,0.03-0.03,0.06-0.04,0.09c0.12,0.69-0.02,1.43-0.42,1.99c0.01,0.76-0.15,1.38-1.18,1.41c-0.7,0.02-1.4-0.31-2.12-0.39
	c-3.06-0.35-6.19-1.23-9.17-0.87c-6.43,0.79-12.22,3.29-16.95,8.03c-2.59,2.59-3.33,5.55-2.99,8.96c0.21,2.11,1.45,3.17,3.67,3.21
	c2.37,0.04,4.74-0.08,7.11,0.02c1.81,0.08,2.72,0.97,2.77,2.72c0.08,2.55,0.03,5.1-0.07,7.65c-0.04,1.01-0.38,2.01-0.59,3.06
	c-3.99-1.28-7.58-2.51-11.22-3.58c-3.88-1.15-7.38-3.06-10.93-4.94c-1.56-0.83-3.4-1.22-5.16-1.57c-0.5-0.1-1.42,0.5-1.7,1.02
	c-0.28,0.52-0.24,1.5,0.08,2c0.46,0.72,1.23,1.35,2.01,1.74c6.81,3.38,13.3,7.55,21.05,8.71c1.03,0.16,1.86,0.68,2.57,1.39
	c0.31,0.11,0.59,0.28,0.81,0.53c0.55,0.63,1.07,1.31,1.52,2.03c0.01,0.01,0.02,0.03,0.03,0.04c0.1,0.16,0.22,0.31,0.3,0.47
	c0.17,0.33,0.3,0.65,0.42,0.97c0.39,0.68,0.76,1.38,1.11,2.08c0.86,1.04,1.52,2.27,2.04,3.7c1.3,3.57,2.92,7.1,4.95,10.3
	c1.83,2.88,2.36,5.54,1.17,8.7c-0.64,1.69-0.98,3.51-1.33,5.29c-0.28,1.41,0.9,2.37,2.39,2.13c1.38-0.22,2.38-0.94,2.89-2.22
	c0.47-1.18,0.74-2.44,1.21-3.62c0.45-1.12,1.05-2.19,1.55-3.21c1.78,0.37,3.25,0.5,4.6,0.98c6.05,2.17,11.85,0.92,17.61-1.12
	c2.19-0.78,4.26-1.96,6.53-1.99c3.4,3.33,3.94,7.99,6.2,11.35c2,0.47,3.57,0.8,5.11-0.53c-2.2-4.41-4.36-8.75-6.49-13.01
	c2.37-3.96,4.53-7.73,6.86-11.4c0.96-1.51,2.02-3.49,3.49-4.02c4-1.46,6.37-4.75,9.4-7.29c3.01-2.52,5.15-6.1,9.54-6.86
	C157.49,105.94,157.65,103.35,156.32,102.19z M77.15,89.06h-7.94c0.46-1.02,0.61-1.96,1.16-2.44c1.88-1.62,3.32-3.88,5.89-4.58
	c1.05,1.28,2.03,2.47,3.02,3.68C78.61,86.78,77.94,87.84,77.15,89.06z M120.1,79.79c3,1.25,6.44,2.5,6.08,6.4
	c-3.52-1.24-7-2.52-10.36-3.75C116.19,79.17,118.41,79.09,120.1,79.79z M112.63,87.44c0.54-0.56,1.77-1.08,2.39-0.83
	c3.32,1.33,6.89,2.24,9.47,4.98c0.08,0.09,0.01,0.32,0.01,0.81c-4.05-0.88-8.05-1.75-12.38-2.69
	C112.26,88.99,112.16,87.94,112.63,87.44z M110.81,45.9c0.88,0.88,4.05,4.48,3.06,5.35c-1.27,1.11-2.24,1.96-2.84,3.14
	c-0.01,0.02-0.01,0.02-0.02,0.04c-0.05,0.13-0.09,0.26-0.13,0.39c-0.1,0.34-0.18,0.69-0.23,1.03c0,0.01,0,0.02,0,0.03
	c0,0.02,0,0.06-0.01,0.11c-0.02,0.24-0.04,0.48-0.06,0.72c-0.03,0.46,0.05,0.94-0.07,1.38c-1.1,4.09-2.05,8.58-2.87,12.93
	c-0.24,1.29-1.8,2.02-2.98,1.69c-1.35-0.37-1.92-1.7-1.69-2.98c0.36-2.06,0.28-4.18,0.41-6.26c0.15-2.4,0.6-4.63,1.58-6.83
	c0.09-0.2,0.22-0.37,0.37-0.51c0.1-0.4,0.2-0.8,0.33-1.2c0.09-0.31,0.25-0.59,0.44-0.84c0.19-0.85,0.46-1.67,0.9-2.44 M106.8,81.8
	c1.19-0.04,2.4,0.48,4.82,1.05c-2.01,1.1-3,2.08-3.92,2.02c-1.06-0.07-2.06-1.08-3.09-1.67C105.33,82.7,106.05,81.82,106.8,81.8z
	 M100.04,78.04c1.93-2.28,4.29-2.81,7.28-1.15C105.48,79.68,102.81,79.01,100.04,78.04z M96.65,81.03c1.7,0.62,3.33,1.43,4.98,2.19
	c-0.4,0.69-0.79,1.38-1.19,2.08c-1.68-0.97-3.36-1.95-5.04-2.92C95.83,81.9,96.43,80.95,96.65,81.03z M106.1,89.9h-9.16
	C100.77,86.12,100.77,86.12,106.1,89.9z M93.31,85.02c0.05,1.02-0.45,2.11-0.98,3.08c-0.25,0.45-1.1,1-1.62,0.96
	c-2.6-0.18-5.56,0.49-8.52-2.92c3.44-0.87,6.01-1.65,8.66-2.12C91.6,83.89,93.29,84.63,93.31,85.02z M92.67,80.35
	c-4.16,0.84-6.92,3-10.48,1.09C85.63,78.99,85.63,78.99,92.67,80.35z M132.09,116.03c-2.47,3.81-4.85,7.68-7.1,11.62
	c-1.25,2.19-2.95,3.66-5.29,4.45c-4.31,1.44-8.55,3.39-12.98,4.14c-6.8,1.16-16.5-1.07-19.93-9.77c-2.51-6.36-4.09-12.81-4.08-19.64
	c0.01-4.34-0.04-8.69-0.07-13.52c2.64-0.95,5.09-0.41,7.45,0.64c2.23,0.99,4.53,1.21,6.93,1.2c5.28-0.02,10.56-0.03,15.83,0.22
	c2.89,0.14,5.75,0.8,8.62,1.29c2.33,0.4,4.63,1.07,6.97,1.29c2.07,0.19,3.38,1.16,4.27,2.9c0.41,0.81,0.91,1.65,1.02,2.52
	C134.29,107.71,134.68,112.03,132.09,116.03z M129.24,93.12c1.45-1.54,2.37-2.52,3.3-3.51c2.24,0.56,3.81,1.6,5.06,3.3
	C135.31,93.79,135.31,93.79,129.24,93.12z"/>
<path class="st5" d="M148.63,87.71c-2.74,2.45-5.47,3.57-8.81,3.52c-0.62-2.19-1.23-4.37-2.2-7.8"/>
<path class="st6" d="M136.14,84.99c-1.81,1.71-3.59,2.51-5.76,2.53c-0.37-1.49-0.74-2.97-1.31-5.29"/>
</svg>
