<?xml version="1.0" encoding="utf-8"?>
<!-- Generator: Adobe Illustrator 26.3.1, SVG Export Plug-In . SVG Version: 6.00 Build 0)  -->
<svg version="1.1" id="Layer_1" xmlns="http://www.w3.org/2000/svg" xmlns:xlink="http://www.w3.org/1999/xlink" x="0px" y="0px"
	 viewBox="42 42 160 100"  xml:space="preserve">
<g id="zIpB5p">
	<g>
		<path d="M78.57,150.92c0.18,0.9,0.44,1.83,0.9,2.62c0.82,1.42,2.27,1.38,3.7,1.31c0.65-0.03,1.31,0,1.97,0l0.02,0.03
			c0.18-0.05,0.37-0.1,0.55-0.13c0.08-0.07,0.16-0.12,0.26-0.16c1.54-0.67,2.04-1.82,1.78-3.44c-0.11-0.68,0.8-1.41,1.54-1.39
			c1.79,0.06,3.56,0.12,5.23-0.79c1.68-0.92,3.45-1.68,5.14-2.59c0.74-0.39,1.45-0.91,2.04-1.49c0.72-0.7,1.36-1.5,1.93-2.32
			c0.74-1.06,1.74-2.12,2.02-3.32c0.77-3.29,1.19-6.66,1.82-9.97c0.29-1.55,0.8-3.04,1.16-4.58c0.34-1.46,0.61-2.92,0.93-4.38
			c0.35-1.63,0.71-3.25,1.07-4.87c0-0.03,0.05-0.06,0.06-0.1c0.2-1.01,0.43-2.02,0.61-3.03c0.13-0.75,0.08-1.55,0.32-2.27
			c0.55-1.68,0.89-3.29,0.54-5.12c-0.35-1.84-0.2-3.79-0.27-5.68c-0.04-1.13-0.12-2.26-0.15-3.39c0-0.19,0.11-0.42,0.25-0.57
			c0.69-0.78,1.32-1.59,2.45-1.88c0.62-0.16,1.22-0.69,1.68-1.2c1.2-1.33,2.33-2.72,3.46-4.11c0.65-0.81,1.36-1.61,1.85-2.52
			c0.93-1.72,0.11-3.85,1.19-5.58c0.07-0.12-0.15-0.4-0.16-0.61c-0.05-0.96-0.35-2.04-0.02-2.87c0.29-0.73,0.3-1.28-0.03-1.82
			c-0.92-1.52-1.11-3.47-2.65-4.64c-0.07-0.06-0.15-0.22-0.11-0.29c0.33-0.8-0.34-1.1-0.7-1.62c-0.55-0.79-1.49-0.7-2.04-1.14
			c-1.14-0.94-2.43-1.1-3.75-1.28c-2.4-0.34-4.81-0.58-7.19-0.97c-0.65-0.11-2.12,0.11-1.23-1.46c0.06-0.1-0.07-0.28-0.07-0.42
			c0-0.76-0.02-1.52,0.03-2.27c0.07-0.8,0.25-1.59,0.33-2.4c0.13-1.45,0.26-2.89,0.29-4.35c0.01-0.55-0.12-1.23-0.46-1.63
			c-0.64-0.74-1.44-1.35-2.23-1.94c-0.65-0.49-1.34-1.17-2.08-1.25c-2.99-0.35-5.85,0.21-8.37,1.97c-0.66,0.46-1.64,0.83-1.86,1.46
			c-0.57,1.63-2.21,2.85-1.87,4.82c0.02,0.16-0.13,0.34-0.2,0.51c-0.23,0.54-0.55,1.05-0.67,1.61c-0.55,2.49-2.24,4-4.42,4.93
			c-2.16,0.92-4.39,1.72-6.66,2.35c-1.54,0.43-3.18,0.55-4.78,0.64c-1.19,0.07-2.4-0.25-3.59-0.19c-2.52,0.11-5.02-0.77-7.54-0.04
			c-0.74,0.21-1.56,0.25-2.18,0.63c-2.12,1.28-4.33,2.42-5.8,4.57c-0.81,1.19-2.16,1.88-2.44,3.61c-0.25,1.62-1.14,3.16-1.83,4.69
			c-0.6,1.3-0.53,2.42,0.47,3.51c0.28,0.3,0.35,0.78,0.52,1.19c0.52,1.27,0.98,2.55,1.55,3.8c0.4,0.89,1.14,1.68,1.33,2.59
			c0.19,0.87-0.14,1.85-0.2,2.78c-0.11,1.78-0.2,3.56-0.29,5.34c0,0.14,0.06,0.28,0.1,0.42c0.65,1.92,0.78,3.88,0.55,5.9
			c-0.06,0.52,0,1.07,0.11,1.59c0.08,0.38,0.4,0.69,0.52,1.07c0.2,0.65,0.38,1.32,0.48,1.99c0.3,1.95,0.52,3.9,0.84,5.84
			c0.2,1.23,0.32,2.56,0.87,3.64c0.66,1.29,1.2,2.52,1.18,4.01c-0.01,0.7,0.25,1.41,0.46,2.1c0.12,0.39,0.47,0.71,0.61,1.1
			c0.86,2.65,1.59,5.35,2.54,7.96c0.68,1.86,1.56,3.65,2.48,5.4c0.8,1.54,1.59,3.15,2.74,4.42c0.92,1.03,1.73,2.42,3.33,2.7
			c0.2,0.03,0.38,0.23,0.56,0.35c2.47,1.61,5.17,2.17,8.06,1.7c0.89-0.15,1.24,0.16,1.42,1.04L78.57,150.92z M115.91,74.58
			c2.87,0.29,2.55-0.29,2.51,2.04c-0.05,2.34-0.46,4.73-1.13,6.97c-0.59,1.98-2.37,3.18-4.19,4.09c-0.74,0.37-1.41,0.16-1.93-0.69
			c-1.47-2.45-0.97-4.63,0.54-6.86c0.9-1.32,1.61-2.79,2.29-4.25C114.45,74.9,115.04,74.4,115.91,74.58L115.91,74.58z M113.26,69.14
			c0.78-0.03,1.42,0.1,1.64,0.93c0.21,0.83-0.52,1.04-1.03,1.15c-1.36,0.29-1.92,1.28-2.5,2.38c-0.96,1.86-2,3.68-3.1,5.46
			c-0.28,0.45-1.1,1.09-1.3,0.97c-0.59-0.33-0.99-0.99-1.55-1.61c0.67-1.06,1.19-1.94,1.76-2.77c0.81-1.2,1.77-2.32,2.45-3.6
			C110.44,70.53,111.28,69.21,113.26,69.14L113.26,69.14z M102.02,69.11c0.9-1.45,2.15-0.76,3.25-0.8c0.75-0.02,1.52,0.25,2.61,0.46
			c-1.42,1.95-2.63,3.62-3.98,5.46c-0.88-1.52-1.59-2.72-2.28-3.94C101.31,69.75,101.74,69.54,102.02,69.11L102.02,69.11z
			 M98.69,86.55c1.33-1.47,2.71-2.89,4.12-4.29c0.16-0.16,0.69-0.17,0.9-0.03c1.4,0.89,1.99,2.75,1.48,4.33
			c-0.61,1.92-1.46,3.74-2.9,5.13c-0.74,0.69-1.9,0.94-2.98,1.44c-0.42-0.32-0.78-0.5-1.01-0.79C96.6,90.1,96.66,88.79,98.69,86.55
			L98.69,86.55z M94.96,85.43c-0.2-0.7-0.43-1.29-0.52-1.9c-0.3-2.13-0.83-4.25-0.52-6.44c0.11-0.77,0.24-1.45,1.08-1.75
			c0.21-0.07,0.38-0.32,0.54-0.52c0.77-1.01,1.53-2.02,2.47-3.27c1.13,1.95,2.11,3.61,3.01,5.3c0.17,0.33,0.16,0.96-0.05,1.24
			c-1.14,1.55-2.35,3.04-3.56,4.53C96.66,83.53,95.86,84.39,94.96,85.43z M90.93,61.34c0.5-1.4,0.98-2.8,1.54-4.19
			c1.44-3.58,4.1-4.54,7.42-4.6c0.73-0.02,1.19,0.41,1.28,1.12c0.09,0.69,0.08,1.38,0.13,2.37c-0.17,1.4-0.36,3.07-0.57,4.74
			c-0.1,0.76-0.47,1.16-1.31,1.37c-1.32,0.33-2.56,0.62-3.97,0.43c-1.12-0.15-2.31,0.29-3.47,0.34C91,62.97,90.58,62.28,90.93,61.34
			L90.93,61.34z M92.03,67.64c1.07,0.08,1.72-0.46,2.39-1.11c0.26-0.25,0.56-0.47,0.86-0.69c0.57-0.43,1.22-0.38,1.5,0.22
			c0.2,0.43,0.19,1.19-0.07,1.55c-1.37,1.89-2.87,3.68-4.28,5.54c-0.75,1-1.61,1.03-2.04-0.12c-0.36-0.97-0.43-2.05-0.63-3.08
			C89.81,69.16,91.2,67.59,92.03,67.64L92.03,67.64z M93.23,88.18c-0.43,1.25-0.76,2.27-1.82,2.85c-0.66,0.37-1.22,0.16-1.12-0.54
			c0.16-1.12,0.53-2.22,0.94-3.29c0.07-0.19,0.87-0.33,1.14-0.16C92.77,87.3,92.99,87.83,93.23,88.18z M87.67,74.58
			c1.14,1.43,1.3,3.13,1.43,5.01c-0.24,1.51-0.21,3.21-1.3,4.65c-0.42,0.56-0.53,1.35-0.78,2.03c-0.1,0.25-0.19,0.69-0.32,0.7
			c-0.33,0.03-0.79-0.01-1-0.22c-0.68-0.69-1.28-1.47-1.9-2.23c-0.2-0.25-0.26-0.68-0.51-0.84c-1.36-0.87-1.19-1.88-0.49-3.12
			c1.11-1.95,2.05-4.01,3.18-5.96C86.55,73.62,86.96,73.68,87.67,74.58L87.67,74.58z M79.06,92.77c-1.36-0.19-2.18-2.28-1.38-3.42
			c0.59-0.84,1.21-1.66,1.84-2.46c0.7-0.89,1.32-0.82,2.04,0c0.84,0.96,1.86,1.77,2.66,2.76c0.47,0.58,0.78,1.37,0.91,2.12
			c0.07,0.4-0.31,1.06-0.68,1.29c-0.37,0.22-0.97,0.05-1.48,0.05v-0.02C81.67,92.98,80.35,92.95,79.06,92.77z M83.52,74.39
			c-0.69,0.75-1.32,1.55-2.05,2.26c-0.56,0.54-1.24,0.96-1.91,1.47c-0.87-1.23-0.61-1.98,0.07-2.7c0.87-0.92,1.69-1.91,2.6-2.8
			c0.47-0.46,1.09-0.52,1.54,0.08C84.23,73.32,83.98,73.88,83.52,74.39L83.52,74.39z M75.27,70.25c1.74-0.56,3.46-1.15,5.19-1.73
			c0.65-0.22,1.32-0.42,2.16-0.69c0.42,0.26,1.19,0.48,1.25,0.84c0.15,0.77-0.34,1.46-1.19,1.55c-1.64,0.18-2.61,1.47-3.88,2.26
			c-0.4,0.25-0.69,0.67-1.1,0.91c-1.04,0.62-1.92,0.29-2.34-0.83c-0.16-0.45-0.29-0.92-0.54-1.32
			C74.41,70.62,74.7,70.44,75.27,70.25L75.27,70.25z M75.41,82.65c0.38-0.83,1.01-0.84,1.71-0.39c0.7,0.46,0.69,1.02,0.24,1.68
			c-0.27,0.38-0.37,0.89-0.67,1.23c-0.28,0.31-0.78,0.72-1.07,0.65c-0.38-0.09-0.66-0.62-1.01-0.99c0.31-0.84,0.52-1.54,0.81-2.19
			L75.41,82.65z M69.23,72.61c0.58-1.05,0.84-1.18,1.86-0.6c1.89,1.09,2.84,2.64,2.89,5.01c0,0.02-0.02,0.33-0.11,0.59
			c-0.58,1.5-1.1,3.03-1.82,4.46c-0.47,0.95-1.23,1.77-1.91,2.6c-0.51,0.61-1.05,0.38-1.47-0.15c-1.1-1.36-2.21-2.71-3.26-4.11
			c-0.17-0.23-0.13-0.69-0.08-1.02c0.19-1.3,1.05-2.23,1.77-3.25C67.88,75.01,68.56,73.81,69.23,72.61L69.23,72.61z M60.85,90.87
			c0.65-1.9,1.33-3.78,2.03-5.66c0.46-1.23,0.68-1.33,1.56-0.39c0.94,1.01,1.74,2.14,2.61,3.22c0.18,0.23,0.3,0.54,0.54,0.67
			c0.92,0.5,1.31,1.12,0.82,2.17c-0.65,1.41-1.19,1.79-2.44,1.67c-1.66-0.17-3.32-0.28-5.19-0.43
			C60.8,91.72,60.73,91.26,60.85,90.87L60.85,90.87z M58.86,72.32c0.99-0.8,2-1.59,3.08-2.26c0.87-0.56,1.77-0.11,2.62,0.25
			c0.35,0.16,0.7,0.32,1.35,0.62c-0.38,0.56-0.74,1.09-1.09,1.61c-0.65,0.96-1.39,1.86-1.95,2.87c-0.63,1.14-1.06,1.23-1.87,0.25
			c-0.69-0.83-1.49-1.59-2.17-2.44C58.68,73.03,58.7,72.45,58.86,72.32z M53.27,85.31c-0.36-0.74-0.66-1.5-0.93-2.26
			c-0.45-1.31,0.31-2.35,0.88-3.4c0.48-0.9,1.1-1.73,1.69-2.66l-0.63-0.09c0.89-1.21,2.11-1.49,3.1-0.56
			c0.74,0.69,1.32,1.55,1.93,2.36c0.43,0.58,0.79,1.21,1.2,1.86c-0.53,1.7-1.01,3.41-1.61,5.08c-0.48,1.33-1.11,2.62-1.73,3.89
			c-0.28,0.56-1.5,0.32-1.95-0.45C54.52,87.85,53.88,86.58,53.27,85.31L53.27,85.31z M73.59,145.83c-0.65-0.24-1.32-0.38-1.97-0.62
			c-3.07-1.17-4.91-3.43-5.98-6.48c-0.42-1.19-1.32-2.18-1.84-3.34c-1.59-3.63-2.87-7.37-3.86-11.23c-1.1-4.26-2.48-8.45-3.69-12.67
			c-0.5-1.76-0.99-3.52-1.31-5.31c-0.22-1.24-0.16-2.54-0.17-3.83c-0.02-1.28,0.02-2.56,0.04-3.83c0.02-1.1,0.4-1.45,1.43-1.1
			c1.8,0.61,3.6,0.56,5.41,0.17c0.39-0.08,0.8-0.16,1.2-0.15c5.86,0.28,11.73,0.54,17.6,0.87c4.73,0.26,9.46,0.48,14.18-0.28
			c2.28-0.37,4.4,0.18,6.23,1.59c0.74,0.56,1.39,0.5,2.14,0.16c0.78-0.34,0.61-1,0.61-1.61c0-0.19,0-0.37,0-0.56
			c0.04-2.2,1.02-3.06,3.21-2.68c0.34,0.06,0.74,0.65,0.84,1.07c0.15,0.55,0.03,1.17,0.03,1.76l-0.16,0.03
			c0.25,1.47,0.64,2.94,0.73,4.42c0.29,4.91,0.18,9.76-1.22,14.56c-0.97,3.34-1.56,6.8-2.2,10.23c-0.26,1.43,0.04,2.98-0.32,4.37
			c-0.69,2.69-1.55,5.36-2.55,7.95c-0.96,2.49-2.93,3.92-5.55,4.58c-1.63,0.41-3.22,1.05-4.76,1.74c-1.51,0.69-2.69,0.27-3.12-1.54
			c-0.28-1.2-1.03-1.2-1.89-1.13c-1.1,0.1-1.75,0.78-1.74,1.75c0,0.47,0.12,0.95,0.11,1.42c-0.01,1.14-0.69,1.96-1.54,1.94
			c-1.05-0.03-1.76-0.99-1.67-2.17c0.06-0.77,0.38-1.61-0.49-2.2c-0.81-0.55-2.82-0.1-3.39,0.73c-1.11,1.58-2.57,2.08-4.37,1.4
			L73.59,145.83z"/>
		<path class="st0" d="M107.55,97.77c0.25,1.47,0.64,2.94,0.73,4.42c0.29,4.91,0.18,9.76-1.22,14.56c-0.97,3.34-1.56,6.8-2.2,10.23
			c-0.26,1.43,0.04,2.98-0.32,4.37c-0.69,2.69-1.55,5.36-2.55,7.95c-0.96,2.49-2.93,3.92-5.55,4.58c-1.63,0.41-3.22,1.05-4.76,1.74
			c-1.51,0.69-2.69,0.27-3.12-1.54c-0.28-1.2-1.03-1.2-1.89-1.13c-1.1,0.1-1.75,0.78-1.74,1.75c0,0.47,0.12,0.95,0.11,1.42
			c-0.01,1.14-0.69,1.96-1.54,1.94c-1.05-0.03-1.76-0.99-1.67-2.17c0.06-0.77,0.38-1.61-0.49-2.2c-0.81-0.55-2.82-0.1-3.39,0.73
			c-1.11,1.58-2.57,2.08-4.37,1.4c-0.65-0.24-1.32-0.38-1.97-0.62c-3.07-1.17-4.91-3.43-5.98-6.48c-0.42-1.19-1.32-2.18-1.84-3.34
			c-1.59-3.63-2.87-7.37-3.86-11.23c-1.1-4.26-2.48-8.45-3.69-12.67c-0.5-1.76-0.99-3.52-1.31-5.31c-0.22-1.24-0.16-2.54-0.17-3.83
			c-0.02-1.28,0.02-2.56,0.04-3.83c0.02-1.1,0.4-1.45,1.43-1.1c1.8,0.61,3.6,0.56,5.41,0.17c0.39-0.08,0.8-0.16,1.2-0.15
			c5.86,0.28,11.73,0.54,17.6,0.87c4.73,0.26,9.46,0.48,14.18-0.28c2.28-0.37,4.4,0.18,6.23,1.59c0.74,0.56,1.39,0.5,2.14,0.16
			c0.78-0.34,0.61-1,0.61-1.61c0-0.19,0-0.37,0-0.56c0.04-2.2,1.02-3.06,3.21-2.68c0.34,0.06,0.74,0.65,0.84,1.07
			c0.15,0.55,0.03,1.17,0.03,1.76l-0.16,0.03L107.55,97.77z"/>
		<path class="st1" d="M101.32,56.04c-0.17,1.4-0.36,3.07-0.57,4.74c-0.1,0.76-0.47,1.16-1.31,1.37c-1.32,0.33-2.56,0.62-3.97,0.43
			c-1.12-0.15-2.31,0.29-3.47,0.34c-1,0.03-1.41-0.65-1.07-1.59c0.5-1.4,0.98-2.8,1.54-4.19c1.44-3.58,4.1-4.54,7.42-4.6
			c0.73-0.02,1.19,0.41,1.28,1.12C101.27,54.36,101.26,55.05,101.32,56.04L101.32,56.04z"/>
		<path class="st2" d="M60.51,80.54c-0.53,1.7-1.01,3.41-1.61,5.08c-0.48,1.33-1.11,2.62-1.73,3.89c-0.28,0.56-1.5,0.32-1.95-0.45
			c-0.7-1.23-1.34-2.49-1.96-3.77c-0.36-0.74-0.66-1.5-0.93-2.26c-0.45-1.31,0.31-2.35,0.88-3.4c0.48-0.9,1.1-1.73,1.69-2.66
			l-0.63-0.09c0.89-1.21,2.11-1.49,3.1-0.56c0.74,0.69,1.32,1.55,1.93,2.36C59.73,79.26,60.09,79.89,60.51,80.54L60.51,80.54z"/>
		<path class="st3" d="M115.91,74.58c2.87,0.29,2.55-0.29,2.51,2.04c-0.05,2.34-0.46,4.73-1.13,6.97c-0.59,1.98-2.37,3.18-4.19,4.09
			c-0.74,0.37-1.41,0.16-1.93-0.69c-1.47-2.45-0.97-4.63,0.54-6.86c0.9-1.32,1.61-2.79,2.29-4.25
			C114.45,74.9,115.04,74.4,115.91,74.58L115.91,74.58z"/>
		<path class="st3" d="M73.98,77.02c0,0-0.02,0.33-0.11,0.59c-0.58,1.5-1.1,3.03-1.82,4.46c-0.47,0.95-1.23,1.77-1.91,2.6
			c-0.51,0.61-1.05,0.38-1.47-0.15c-1.1-1.36-2.21-2.71-3.26-4.11c-0.17-0.23-0.13-0.69-0.08-1.02c0.19-1.3,1.05-2.23,1.77-3.25
			c0.78-1.12,1.47-2.32,2.13-3.52c0.58-1.05,0.84-1.18,1.86-0.6C72.97,73.1,73.92,74.65,73.98,77.02L73.98,77.02z"/>
		<path class="st1" d="M98.01,71.56c1.13,1.95,2.11,3.61,3.01,5.3c0.17,0.33,0.16,0.96-0.05,1.24c-1.14,1.55-2.35,3.04-3.56,4.53
			c-0.74,0.9-1.53,1.76-2.44,2.8c-0.2-0.7-0.43-1.29-0.52-1.9c-0.3-2.13-0.83-4.25-0.52-6.44c0.11-0.77,0.24-1.45,1.08-1.75
			c0.21-0.07,0.38-0.32,0.54-0.52C96.31,73.82,97.07,72.81,98.01,71.56z"/>
		<path class="st3" d="M89.1,79.58c-0.24,1.51-0.21,3.21-1.3,4.65c-0.42,0.56-0.53,1.35-0.78,2.03c-0.1,0.25-0.19,0.69-0.32,0.7
			c-0.33,0.03-0.79-0.01-1-0.22c-0.68-0.69-1.28-1.47-1.9-2.23c-0.2-0.25-0.26-0.68-0.51-0.84c-1.36-0.87-1.19-1.88-0.49-3.12
			c1.11-1.95,2.05-4.01,3.18-5.96c0.56-0.98,0.97-0.92,1.68-0.03C88.82,75.99,88.98,77.69,89.1,79.58L89.1,79.58z"/>
		<path class="st1" d="M99.32,93.13c-0.42-0.32-0.78-0.5-1.01-0.79c-1.71-2.22-1.65-3.54,0.38-5.78c1.33-1.47,2.71-2.89,4.12-4.29
			c0.16-0.16,0.69-0.17,0.9-0.03c1.4,0.89,1.99,2.75,1.48,4.33c-0.61,1.92-1.46,3.74-2.9,5.13C101.56,92.38,100.4,92.62,99.32,93.13
			L99.32,93.13z"/>
		<path class="st3" d="M60.76,92.11c0.02-0.4-0.04-0.86,0.09-1.24c0.65-1.9,1.33-3.78,2.03-5.66c0.46-1.23,0.68-1.33,1.56-0.39
			c0.94,1.01,1.74,2.14,2.61,3.22c0.18,0.23,0.3,0.54,0.54,0.67c0.92,0.5,1.31,1.12,0.82,2.17c-0.65,1.41-1.19,1.79-2.44,1.67
			C64.3,92.38,62.64,92.27,60.76,92.11L60.76,92.11z"/>
		<path class="st3" d="M82.98,93.07c-1.31-0.1-2.62-0.13-3.92-0.31c-1.36-0.19-2.18-2.28-1.38-3.42c0.59-0.84,1.21-1.66,1.84-2.46
			c0.7-0.89,1.32-0.82,2.04,0c0.84,0.96,1.86,1.77,2.66,2.76c0.47,0.58,0.78,1.37,0.91,2.12c0.07,0.4-0.31,1.06-0.68,1.29
			c-0.37,0.22-0.97,0.05-1.48,0.05L82.98,93.07L82.98,93.07z"/>
		<path class="st3" d="M105.43,78.43c0.67-1.06,1.19-1.94,1.76-2.77c0.81-1.2,1.77-2.32,2.45-3.6c0.82-1.53,1.66-2.85,3.62-2.92
			c0.78-0.03,1.42,0.1,1.64,0.93c0.21,0.83-0.52,1.04-1.03,1.15c-1.36,0.29-1.92,1.28-2.5,2.38c-0.96,1.86-2,3.68-3.1,5.46
			c-0.28,0.45-1.1,1.09-1.3,0.97C106.38,79.71,105.98,79.05,105.43,78.43L105.43,78.43z"/>
		<path class="st2" d="M89.76,69.94c0.06-0.78,1.45-2.36,2.28-2.3c1.07,0.08,1.72-0.46,2.39-1.11c0.26-0.25,0.56-0.47,0.86-0.69
			c0.57-0.43,1.22-0.38,1.5,0.22c0.2,0.43,0.19,1.19-0.07,1.55c-1.37,1.89-2.87,3.68-4.28,5.54c-0.75,1-1.61,1.03-2.04-0.12
			C90.03,72.06,89.96,70.98,89.76,69.94L89.76,69.94z"/>
		<path class="st3" d="M65.92,70.91c-0.38,0.56-0.74,1.09-1.09,1.61c-0.65,0.96-1.39,1.86-1.95,2.87c-0.63,1.14-1.06,1.23-1.87,0.25
			c-0.69-0.83-1.49-1.59-2.17-2.44c-0.15-0.19-0.13-0.77,0.03-0.9c0.99-0.8,2-1.59,3.08-2.26c0.87-0.56,1.77-0.11,2.62,0.25
			C64.92,70.45,65.27,70.61,65.92,70.91z"/>
		<path class="st1" d="M82.62,67.83c0.42,0.26,1.19,0.48,1.25,0.84c0.15,0.77-0.34,1.46-1.19,1.55c-1.64,0.18-2.61,1.47-3.88,2.26
			c-0.4,0.25-0.69,0.67-1.1,0.91c-1.04,0.62-1.92,0.29-2.34-0.83c-0.16-0.45-0.29-0.92-0.54-1.32c-0.41-0.63-0.12-0.81,0.44-0.99
			c1.74-0.56,3.47-1.15,5.19-1.73C81.11,68.3,81.77,68.11,82.62,67.83L82.62,67.83z"/>
		<path class="st2" d="M107.88,68.77c-1.42,1.95-2.63,3.62-3.98,5.46c-0.88-1.52-1.59-2.72-2.28-3.94c-0.3-0.54,0.13-0.75,0.4-1.18
			c0.9-1.45,2.15-0.76,3.25-0.8C106.02,68.29,106.79,68.57,107.88,68.77L107.88,68.77z"/>
		<path class="st3" d="M79.55,78.11c-0.87-1.23-0.61-1.98,0.07-2.7c0.87-0.92,1.69-1.91,2.6-2.8c0.47-0.46,1.09-0.52,1.54,0.08
			c0.47,0.61,0.21,1.17-0.25,1.68c-0.69,0.75-1.32,1.55-2.05,2.26C80.89,77.18,80.22,77.6,79.55,78.11L79.55,78.11z"/>
		<path class="st2" d="M93.23,88.17c-0.43,1.25-0.76,2.27-1.82,2.85c-0.66,0.37-1.22,0.16-1.12-0.54c0.16-1.12,0.53-2.22,0.94-3.29
			c0.07-0.19,0.87-0.33,1.14-0.16C92.77,87.29,92.99,87.82,93.23,88.17z"/>
		<path class="st2" d="M74.6,84.84c0.31-0.84,0.52-1.54,0.81-2.19c0.38-0.83,1.01-0.84,1.71-0.39c0.7,0.46,0.69,1.02,0.24,1.68
			c-0.27,0.38-0.37,0.89-0.67,1.23c-0.28,0.31-0.78,0.72-1.07,0.65c-0.38-0.09-0.66-0.62-1.01-0.99L74.6,84.84z"/>
	</g>
</g>
</svg>
