<?xml version="1.0" encoding="utf-8"?>
<!-- Generator: Adobe Illustrator 25.2.3, SVG Export Plug-In . SVG Version: 6.00 Build 0)  -->
<svg version="1.1" id="Layer_1" xmlns="http://www.w3.org/2000/svg" xmlns:xlink="http://www.w3.org/1999/xlink" x="0px" y="0px"
	 viewBox="0 0 200 200">
<path d="M168.06,121.36c1.81,0.19,2.76,0.39,3.7,0.36c3.52-0.11,6.97,0.3,10.24,1.63c2.59,1.05,5.21,0.83,7.87,0.57
	c1.28-0.13,2.49,0.15,2.94,1.59c0.42,1.33-0.17,2.93-1.63,3.6c-7.41,3.38-14.46,7.84-23.07,7.72c-1.8-0.02-3.6,0.57-6.28,1.03
	c2.77,1.55,4.82,2.7,6.87,3.83c1.9,1.05,3.82,2.1,5.73,3.14c-0.03,0.39,0.08,1.06-0.11,1.15c-2.99,1.53-5.67,3.64-9.45,3.33
	c-5.74-0.47-11.4-1.23-16.86-3.02c-2.12-0.7-4.27-1.6-6.06-2.88c-2.73-1.96-5.59-2.11-8.75-1.84c-3.45,0.29-6.98,0.57-10.39,0.15
	c-11.16-1.35-22.07-0.64-32.72,3.05c-4.55,1.58-9.13,2.17-13.75,0.55c-2.92,2.45-4.56,5.54-5.92,8.71c-0.6,1.41-0.48,3.17-0.5,4.77
	c-0.03,1.63,0.25,3.26,0.24,4.89c-0.01,1.23-1.83,1.97-2.81,1.14c-1.38-1.17-2.67-2.45-4.17-3.84c-1.38,0.79-2.52,1.65-3.81,2.12
	c-0.84,0.3-2.25,0.41-2.73-0.07c-0.53-0.53-0.52-1.87-0.35-2.78c0.18-0.96,0.82-1.83,1.35-2.92c-1.59-0.3-3.39-0.17-4.47-0.99
	c-1.17-0.88-1.66-2.65-2.5-4.1c-1.15,0-2.34,0-3.51,0c-0.84-2.53-0.84-2.53,0.49-5.48c-1.42-1.75-4.76-0.12-5.6-3.52
	c1.26-2.01,2.81-3.53,5.74-2.18c0.55,0.25,1.2,0.26,1.78,0.45c2.81,0.95,5.06,0.62,6.98-2.03c1.28-1.77,3.23-3.06,5.13-4.8
	c-5.76-5.99-10.11-12.91-16.24-18.35c-1.9-1.68-2.98-4.27-4.5-6.39c-3.21-4.48-6.42-8.96-9.7-13.39c-2.43-3.29-4.95-6.51-7.48-9.82
	c-3.52-1.66-7.24-3.28-10.83-5.16c-1.79-0.94-3.39-2.28-4.94-3.6c-1.94-1.65-1.37-4.43,1.1-5.28c1.54-0.53,3.17-0.87,4.78-1.06
	c3.88-0.46,6.13-2.4,7.35-6.25c2.3-7.22,7.5-12.07,14.1-15.49c4.68-2.43,9.49-2.42,14.18-0.13c1.41,0.69,2.69,1.85,3.76,3.04
	c5.2,5.81,9.81,12.01,12.83,19.31c2.05,4.96,5,9.39,9.44,12.62c0.46,0.34,1.05,0.51,1.78,0.86c0.31-0.58,0.81-1.08,0.78-1.54
	C77.67,78.53,78.36,73,79.14,67.6c1.05-7.24,2.65-14.44,7.84-20.28c2.04-2.3,3.96-4.03,7.17-3.81c0.59,0.04,1.2-0.16,1.68-0.23
	c4.34,2.04,4.08,8.11,8.63,9.81c1.14-1.13,0.68-2.05,0.19-2.96c-1.85-3.46-3.2-7.09-3.59-11.02c-0.37-3.75,1.25-5.45,4.88-5.07
	c1.01,0.11,2.06,0.25,2.99,0.63c4.55,1.84,9.11,3.69,13.58,5.71c1.23,0.56,2.19,1.71,3.5,2.78c3.67-2.09,7.31-4.36,11.14-6.24
	c2.15-1.06,4.6-1.55,6.96-2.11c1.07-0.25,2.31,1.35,2.13,2.48c-0.06,0.4-0.06,0.87-0.26,1.18c-3.3,5.14-3.56,11.27-5.53,16.74
	c0.22,0.48,0.28,0.98,0.55,1.18c4.61,3.29,4.78,3.5,2.17,8.29c-3.12,5.75-6.29,11.49-9.8,17c-2.15,3.38-3.29,7.61-7.26,9.68
	c-0.36,0.19-0.42,1.1-0.49,1.68c-0.33,2.78-1.64,5.04-3.66,6.89c-1.41,1.29-2.52,2.67-2.52,5.13c1.05,0.52,2.21,1.37,3.49,1.69
	c7.93,1.93,15.84,3.64,24.12,3.99c8.47,0.35,16.7-0.29,24.94-2.02c3.39-0.71,6.83-1.23,10.26-1.76c1.06-0.17,2.22,0.14,2.53,1.23
	c0.24,0.88,0.25,2.15-0.23,2.83c-0.79,1.11-1.95,2.07-3.15,2.77C177.26,116.25,173.02,118.56,168.06,121.36z M65.1,141
	c-3.11,2.41-6.4,4.65-8.04,8.53c4.22,1.53,4.22,1.53,8.42,0.59c1.48-2.57,2.97-5.16,4.41-7.67c-2.5-3.18-2.5-3.18-4.95-1.28
	L65.1,141z M129.49,66.98c0.61,0.44,1.17,0.99,1.85,1.3c1.65,0.75,2.06-0.06,1.71-2.04c-1.27,0.31-2.49,0.61-3.71,0.91
	c1-1.97-1.27-3.34-0.85-5.71c1.32-1.68,2.9-3.75,4.56-5.77c2.97-3.6,3.37-7.92,4.02-12.51c-1.04,0.28-1.64,0.39-2.19,0.6
	c-5.49,2.12-7.8,7.51-11.55,11.4c-0.48,0.5-0.51,1.51-0.6,2.3c-0.32,2.61-0.61,5.23-0.83,7.85c-0.1,1.17-0.02,2.36-0.02,3.97
	c1.79-0.8,3.2-1.55,4.69-2.04C127.46,66.96,128.47,67.1,129.49,66.98z M81.08,95.72c-2.52-1.21-4.98-2.2-7.25-3.54
	c-1.93-1.13-3.78-2.49-5.38-4.05c-2.19-2.12-4.08-4.55-6.15-6.8c-1.99-2.16-3.23-4.64-3.93-7.51c-0.52-2.15-1.21-4.43-2.46-6.2
	c-2.6-3.66-5.53-7.09-8.51-10.46c-1.56-1.77-3.72-2.34-6.15-2.12c-3.39,0.31-6.35,1.46-8.78,3.89c-2.53,2.52-4.29,5.43-4.71,9.05
	c-0.26,2.21-0.57,4.41-0.86,6.63c-1.4,0.44-2.59,0.71-3.7,1.19c-1.17,0.5-3-0.05-3.36,1.9c0.32,0.32,0.56,0.74,0.88,0.83
	c1.76,0.49,3.53,0.99,5.33,1.31c1.53,0.27,2.71,0.93,3.36,2.35c4.07,8.86,11.36,15.42,16.71,23.37c2.6,3.87,6.09,7.13,9.06,10.76
	c2.84,3.47,5.31,7.27,8.35,10.55c4.16,4.48,8.63,8.61,14.35,11.29c3.59,1.68,6.89,2.1,10.63,0.98c4.11-1.23,8.32-2.13,12.48-3.21
	c2.15-0.56,4.39-0.81,5.88-2.91c0.49-0.7,1.77-1.12,2.73-1.18c4.68-0.3,9.39-0.77,13.93,1.1c1.63,0.67,3.17,1.64,5.22,0.5
	c2.15-1.2,3.28,2.19,5.47,1.78c0.4-0.07,0.9,0.13,1.21-0.05c3-1.7,5.45-0.26,7.99,1.18c1.95,1.11,4,2.05,6.05,2.97
	c0.63,0.28,1.4,0.26,2.22,0.4c-0.07-0.84,0-1.27-0.15-1.59c-0.25-0.55-0.7-1.02-0.97-1.56c-1.44-2.89-0.52-4.87,2.62-5.17
	c2.43-0.23,4.91-0.17,7.35-0.02c4.55,0.27,8.99-0.32,13.35-1.52c0.85-0.23,2.03-0.32,2.04-2.08c-1.44,0-2.86,0.09-4.26-0.02
	c-4.48-0.33-8.96-0.68-13.43-1.13c-1.41-0.14-2.8-0.59-4.19-0.94c-1.53-0.38-2.63-1.25-2.67-2.92c-0.04-1.7,1.22-2.51,2.58-3.07
	c1.13-0.46,2.34-0.73,3.49-1.14c0.94-0.34,1.86-0.77,2.78-1.16c-2.03-0.36-3.81,0.09-5.61,0.21c-3.04,0.21-6.11,0.43-9.14,0.26
	c-3.25-0.19-6.49-0.75-9.71-1.29c-3.02-0.51-6.06-1.01-8.98-1.88c-4.5-1.33-8.9-2.97-13.35-4.48c-2.9-0.99-4.04-3.43-2.92-6.26
	c1.13-2.84,2.17-5.72,3.4-8.51c2.21-5.04,4.55-10.03,6.8-15.06c0.36-0.8,1.47-1.45,0.63-2.66c-0.93,0.57-1.76,1.17-2.66,1.61
	c-2.38,1.15-4.14,0-3.86-2.56c0.45-4.05,1.03-8.08,1.5-12.13c0.19-1.62,0.33-3.26,0.34-4.89c0.01-1.43-0.13-2.86-0.3-4.28
	c-0.18-1.5,0.24-3.1-0.81-4.74c-1.59,5.18-6.64,7.72-8.61,12.57c-0.95,2.34-2.53,2.45-5.7,1.44c0.13-1.17,0.43-2.38,0.36-3.57
	c-0.06-0.97-0.27-2.2-0.89-2.84c-2.81-2.87-5.89-5.46-9.04-7.73c-2.41,1.5-3.3,3.57-3.84,5.78c-0.72,2.98-1.58,5.96-1.87,8.99
	c-0.88,9.33-1.51,18.69-2.27,28.48C83.11,94.32,82.13,95,81.08,95.72z M110.87,45.67c0.69-0.91,1.33-1.75,2.24-2.93
	c-2.08-0.73-3.27-2.3-5.38-1.97C107.92,43.07,108.95,44.41,110.87,45.67z M129.41,76.71c1.25-1.6,2.01-2.58,2.78-3.57
	C130.31,73.27,129.15,73.96,129.41,76.71z M120.81,134.29c-0.16,0.05-0.31,0.11-0.47,0.16c0.2,0.08,0.4,0.15,0.6,0.23
	C120.9,134.55,120.86,134.42,120.81,134.29z"/>
<path class="st0" d="M81.08,95.72c1.05-0.73,2.03-1.4,2.65-1.83c0.76-9.79,1.4-19.15,2.27-28.48c0.29-3.03,1.15-6.02,1.87-8.99
	c0.53-2.22,1.43-4.28,3.84-5.78c3.15,2.27,6.23,4.85,9.04,7.73c0.63,0.64,0.84,1.86,0.89,2.84c0.07,1.19-0.22,2.4-0.36,3.57
	c3.17,1.01,4.74,0.9,5.7-1.44c1.97-4.85,7.02-7.39,8.61-12.57c1.05,1.64,0.63,3.23,0.81,4.74c0.17,1.42,0.31,2.86,0.3,4.28
	c-0.01,1.63-0.15,3.27-0.34,4.89c-0.47,4.05-1.05,8.08-1.5,12.13c-0.29,2.56,1.48,3.72,3.86,2.56c0.91-0.44,1.73-1.04,2.66-1.61
	c0.84,1.2-0.27,1.86-0.63,2.66c-2.25,5.02-4.59,10.01-6.8,15.06c-1.23,2.8-2.27,5.67-3.4,8.51c-1.12,2.83,0.01,5.27,2.92,6.26
	c4.44,1.51,8.85,3.15,13.35,4.48c2.92,0.87,5.97,1.37,8.98,1.88c3.22,0.54,6.46,1.1,9.71,1.29c3.03,0.17,6.1-0.04,9.14-0.26
	c1.8-0.13,3.58-0.58,5.61-0.21c-0.93,0.39-1.84,0.82-2.78,1.16c-1.15,0.41-2.36,0.68-3.49,1.14c-1.36,0.56-2.62,1.37-2.58,3.07
	c0.04,1.67,1.15,2.54,2.67,2.92c1.39,0.34,2.77,0.8,4.19,0.94c4.47,0.45,8.95,0.8,13.43,1.13c1.4,0.1,2.82,0.02,4.26,0.02
	c-0.02,1.76-1.19,1.85-2.04,2.08c-4.36,1.2-8.8,1.79-13.35,1.52c-2.44-0.15-4.92-0.21-7.35,0.02c-3.14,0.3-4.06,2.28-2.62,5.17
	c0.27,0.55,0.71,1.01,0.97,1.56c0.15,0.32,0.08,0.75,0.15,1.59c-0.82-0.14-1.59-0.12-2.22-0.4c-2.05-0.92-4.1-1.87-6.05-2.97
	c-2.54-1.44-5-2.89-7.99-1.18c-0.31,0.18-0.81-0.03-1.21,0.05c-2.19,0.41-3.32-2.98-5.47-1.78c-2.04,1.14-3.58,0.18-5.22-0.5
	c-4.54-1.87-9.24-1.4-13.93-1.1c-0.95,0.06-2.23,0.48-2.73,1.18c-1.49,2.11-3.73,2.35-5.88,2.91c-4.16,1.08-8.36,1.98-12.48,3.21
	c-3.74,1.12-7.04,0.7-10.63-0.98c-5.72-2.68-10.19-6.81-14.35-11.29c-3.04-3.28-5.51-7.08-8.35-10.55
	c-2.97-3.63-6.45-6.9-9.06-10.76c-5.35-7.95-12.65-14.51-16.71-23.37c-0.65-1.41-1.82-2.07-3.36-2.35c-1.8-0.32-3.57-0.82-5.33-1.31
	c-0.32-0.09-0.55-0.51-0.88-0.83c0.36-1.95,2.19-1.4,3.36-1.9c1.11-0.48,2.3-0.75,3.7-1.19c0.29-2.22,0.6-4.42,0.86-6.63
	c0.43-3.62,2.19-6.52,4.71-9.05c2.43-2.43,5.38-3.58,8.78-3.89c2.42-0.22,4.59,0.35,6.15,2.12c2.97,3.37,5.91,6.8,8.51,10.46
	c1.25,1.77,1.94,4.05,2.46,6.2c0.7,2.88,1.94,5.35,3.93,7.51c2.07,2.25,3.96,4.68,6.15,6.8c1.6,1.55,3.46,2.91,5.38,4.05
	C76.1,93.52,78.56,94.51,81.08,95.72z M35.64,70.82c-0.52,2.19-1.09,3.53-1.1,4.88c-0.02,2.24,2.2,3.71,4.3,2.87
	c1.07-0.43,2.22-1.17,2.84-2.1c0.58-0.87,0.5-2.18,0.75-3.48C40.15,72.27,38.26,71.66,35.64,70.82z"/>
<path class="st1" d="M129.43,67.04c-0.95,0.06-1.97-0.08-2.85,0.21c-1.5,0.49-2.91,1.25-4.69,2.04c0-1.62-0.08-2.8,0.02-3.97
	c0.22-2.62,0.51-5.24,0.83-7.85c0.1-0.79,0.12-1.8,0.6-2.3c3.75-3.9,6.06-9.28,11.55-11.4c0.55-0.21,1.15-0.32,2.19-0.6
	c-0.65,4.6-1.05,8.92-4.02,12.51c-1.66,2.01-3.24,4.09-4.56,5.77c-0.42,2.37,1.84,3.74,0.85,5.71L129.43,67.04z"/>
<path class="st2" d="M64.94,141.18c2.45-1.9,2.45-1.9,4.95,1.28c-1.44,2.5-2.93,5.09-4.41,7.67c-4.19,0.94-4.19,0.94-8.42-0.59
	c1.64-3.89,4.93-6.13,8.03-8.52c0.04,0.6,0.02,1.22,0.17,1.79c0.07,0.29,0.42,0.69,0.68,0.72c0.29,0.04,0.83-0.22,0.9-0.45
	c0.08-0.27-0.14-0.76-0.39-0.97C66.02,141.72,65.46,141.48,64.94,141.18z"/>
<path class="st1" d="M110.87,45.67c-1.92-1.25-2.95-2.59-3.14-4.9c2.11-0.33,3.3,1.24,5.38,1.97
	C112.2,43.92,111.56,44.76,110.87,45.67z"/>
<path class="st2" d="M129.41,76.71c-0.25-2.75,0.9-3.44,2.78-3.57C131.42,74.13,130.65,75.12,129.41,76.71z"/>
<path class="st1" d="M129.35,67.16c1.22-0.3,2.44-0.6,3.71-0.91c0.35,1.98-0.06,2.78-1.71,2.04c-0.67-0.3-1.24-0.86-1.88-1.27
	C129.43,67.04,129.35,67.16,129.35,67.16z"/>
<path class="st2" d="M120.81,134.29c0.05,0.13,0.09,0.26,0.14,0.4c-0.2-0.08-0.4-0.15-0.6-0.23
	C120.5,134.4,120.66,134.34,120.81,134.29z"/>
<path d="M35.64,70.82c2.62,0.84,4.51,1.44,6.78,2.17c-0.25,1.31-0.17,2.61-0.75,3.48c-0.62,0.93-1.76,1.67-2.84,2.1
	c-2.09,0.84-4.32-0.64-4.3-2.87C34.55,74.36,35.12,73.01,35.64,70.82z"/>
<path d="M64.94,141.18c0.51,0.3,1.07,0.54,1.51,0.92c0.25,0.21,0.47,0.71,0.39,0.97c-0.08,0.24-0.61,0.49-0.9,0.45
	c-0.26-0.04-0.61-0.43-0.68-0.72c-0.14-0.57-0.12-1.18-0.17-1.79C65.1,141,64.94,141.18,64.94,141.18z"/>
</svg>
