<?xml version="1.0" encoding="utf-8"?>
<!-- Generator: Adobe Illustrator 26.3.1, SVG Export Plug-In . SVG Version: 6.00 Build 0)  -->
<svg version="1.1" id="Layer_1" xmlns="http://www.w3.org/2000/svg" xmlns:xlink="http://www.w3.org/1999/xlink" x="0px" y="0px"
	 viewBox="16 16 160 160">
<g id="KRkwFP_00000096036371297461655510000015896930041760591001_">
	<g>
		<path class="st0" d="M89.85,151.94c-0.44-0.85-0.94-1.67-1.36-2.52c-0.77-1.54-1.49-3.09-2.24-4.64c-0.14-0.29-0.3-0.57-0.44-0.86
			c-0.73-1.46-1.51-2.9-2.18-4.39c-0.71-1.59-1.3-3.23-1.97-4.83c-0.24-0.57-0.53-1.11-0.83-1.65c0.18,0.53,0.26,1.1,0.19,1.69
			c-0.04,0.32-0.01,0.63-0.03,0.94c0.02-0.35,0.03-0.53,0.04-0.59c0,0.12-0.01,0.56,0.05,0.81c0.18,0.78,0.42,1.54,0.68,2.3
			c0.24,0.11,0.42,0.25,0.52,0.45c2.15,1.28,2.85,4.08,2.12,6.37c0.65,0.44,1.19,1.07,1.56,1.91c1.09,1.11,2.03,2.48,2.83,4.32
			c0.16,0.37,0.28,0.73,0.36,1.1c0.2,0.03,0.41,0.06,0.61,0.1c-0.17,0.17-0.32,0.37-0.51,0.51c0.08,0.69,0.04,1.35-0.1,1.98
			c5.26,3.92,10.12,8.71,15.53,12.45c0.21-0.01,0.42-0.01,0.64,0.01c1.09,0.11,2.06,0.16,2.97,0.13c-0.1-0.05-0.21-0.1-0.31-0.15
			c-1.78-0.88-3.57-1.74-5.34-2.65c-1.21-0.62-2.47-1.18-3.57-1.97c-1.04-0.75-1.88-1.76-2.83-2.64c-0.44-0.41-0.94-0.74-1.37-1.16
			c-0.38-0.37-0.77-0.76-1.01-1.22c-0.39-0.75-0.85-1.32-1.67-1.67c-0.38-0.16-0.56-0.76-0.84-1.15c-0.12-0.17-0.3-0.3-0.45-0.45
			c-0.05,0.04-0.1,0.09-0.15,0.13c-0.33-0.72-0.66-1.45-1-2.17C89.81,152.25,89.91,152.05,89.85,151.94z"/>
		<path d="M149.92,98.55c-0.01-0.47,0.02-0.96-0.07-1.42c-0.23-1.11-0.52-2.22-0.79-3.32c-0.39-1.59-0.72-3.2-1.2-4.76
			c-0.36-1.17-0.89-2.29-1.39-3.41c-0.57-1.27-1.15-2.55-2.3-3.45c-0.22-0.17-0.47-0.46-0.48-0.7c-0.01-1.41,0.81-2.41,2.14-2.99
			c0.32-0.14,0.73-0.87,0.62-1.08c-0.73-1.46-0.9-2.93-0.53-4.51c0.11-0.48-0.19-1.12,0.03-1.51c0.5-0.9,0.18-1.74,0.08-2.6
			c-0.02-0.16-0.06-0.32-0.04-0.48c0.08-0.86-0.5-1.81,0.33-2.58c0.02-0.02-0.02-0.11-0.02-0.16c0.05-0.32,0.05-0.67,0.18-0.95
			c0.19-0.4,0.64-0.76,0.03-1.15c-0.38-0.24-0.76-0.57-1.17-0.63c-0.95-0.14-1.41-0.5-1.76-1.38c-0.28-0.69-0.59-1.43-1.09-1.96
			c-0.52-0.55-1.05-1.27-2.01-1.13c-0.59,0.09-1.19,0.12-1.77,0.22c-1.78,0.31-3.55,0.65-5.34,0.94c-0.14,0.02-0.33-0.26-0.5-0.4
			c-0.35,0.2-0.69,0.41-1.14,0.68c-0.05-0.06-0.21-0.23-0.3-0.42c-0.06-0.13-0.07-0.35,0-0.44c0.06-0.08,0.28-0.07,0.43-0.05
			c0.34,0.06,0.68,0.15,1.02,0.23c-0.19-0.18-0.38-0.37-0.59-0.53c-0.52-0.39-1.1-0.7-1.55-1.16c-0.26-0.27-0.31-0.75-0.46-1.15
			c-0.18,0.16-0.39,0.45-0.46,0.42c-1.05-0.45-1.73,0.36-2.57,0.65c-0.29,0.1-0.66-0.04-0.99-0.09c-0.39-0.06-0.78-0.23-1.16-0.19
			c-0.94,0.09-1.87,0.27-2.81,0.4c-0.51,0.07-0.91,0.04-0.85-0.7c0.06-0.71-0.55-1.19-1.29-1.11c-0.09-1.33-0.84-1.91-2.05-1.48
			c-1.62,0.59-3.21,1.26-4.8,1.91c-0.58,0.24-1.13,0.68-1.73,0.76c-2.4,0.32-4.76,0.89-7.22,0.99c-3.04,0.11-6.06,0.66-9.08,1.07
			c-0.77,0.1-1.49,0.3-2.13-0.34c-0.08-0.08-0.31-0.07-0.44-0.02c-0.64,0.23-1.51,0.31-1.84,0.78c-0.62,0.88-1.48,0.68-2.26,0.91
			c-0.87,0.25-1.78,0.42-2.59,0.81c-1.24,0.59-2.42,1.31-3.6,2.03c-1.98,1.21-3.88,2.56-5.45,4.27c-0.78,0.85-1.6,0.71-2.36,0.26
			c-0.22-0.13-0.56-0.23-0.79-0.17c-0.49,0.13-0.94,0.37-1.4,0.58c-0.13,0.06-0.33,0.18-0.34,0.28c-0.08,0.89-0.64,1.68-0.35,2.65
			c0.15,0.5,0.09,1.18-0.14,1.65c-0.46,0.98-1.03,1.93-1.67,2.81c-1.08,1.47-2.42,2.76-2.97,4.59c-0.16,0.52-0.56,1.09-1.01,1.39
			c-0.87,0.57-1.85,0.97-2.72,1.41c-0.06,0.31-0.06,0.56-0.15,0.78c-0.39,0.94,0.14,1.61,1.14,1.6c0.81-0.01,1.63,0.2,2.45,0.31
			c-0.01,0.12-0.01,0.25-0.02,0.37c-0.4,0.05-0.8,0.12-1.21,0.13c-0.89,0.03-1.84-0.33-2.64,0.34c-0.38,0.32-0.78,0.65-1.09,1.03
			c-0.23,0.28-0.54,0.71-0.46,0.98c0.08,0.27,0.56,0.57,0.89,0.61c1.17,0.15,2.35,0.2,3.54,0.29c0.03,0.31,0.06,0.58,0.09,0.84
			c-0.79,0.23-0.98,0.56-0.5,1.11c0.57,0.65,0.35,1.32,0.28,2.01c-0.13,1.34-0.49,2.7-0.34,4.01c0.16,1.47,0.77,2.9,1.19,4.34
			c0.38,1.31,0.73,2.62,1.14,3.92c0.34,1.08,0.63,2.19,1.14,3.18c0.5,0.98,0.57,2.22,1.61,2.91c0.11,0.07,0.11,0.29,0.17,0.44
			c0.35,0.8,0.68,1.62,1.08,2.39c0.62,1.22,1.37,2.38,1.93,3.64c0.41,0.93,0.35,2.04,1.35,2.71c0.27,0.18,0.56,0.79,0.45,0.98
			c-0.52,0.94,0.56,0.98,0.74,1.5c0.01,0.04-0.01,0.1-0.03,0.18c-0.21,0.03-0.43,0.06-0.49,0.07c0.3,0.38,0.62,0.78,1.06,1.34
			c-0.32-0.06-0.46-0.08-0.59-0.11c-0.09,0.7,0.46,1.33,1.46,1.42c-0.11,0.27-0.22,0.51-0.32,0.75c0.42,0.27,0.78,0.6,1.09,0.98
			c0,0,0-0.01,0.01-0.01c0.01,0.02,0.02,0.04,0.03,0.05c0.5,0.63,0.84,1.39,1.01,2.19c0.27,0.48,0.54,0.96,0.82,1.44
			c0.36,0.44,0.64,0.93,0.82,1.45c0.3,0.54,0.6,1.08,0.83,1.65c0.67,1.61,1.26,3.25,1.97,4.83c0.67,1.49,1.45,2.93,2.18,4.39
			c0.14,0.29,0.3,0.57,0.44,0.86c0.75,1.55,1.47,3.1,2.24,4.64c0.43,0.86,0.93,1.67,1.36,2.52c0.06,0.11-0.05,0.31-0.08,0.47
			c0.33,0.72,0.66,1.45,1,2.17c0.05-0.04,0.1-0.09,0.15-0.13c0.15,0.15,0.32,0.28,0.45,0.45c0.29,0.39,0.47,0.99,0.84,1.15
			c0.82,0.35,1.27,0.92,1.67,1.67c0.24,0.46,0.63,0.85,1.01,1.22c0.43,0.42,0.93,0.76,1.37,1.16c0.95,0.88,1.79,1.89,2.83,2.64
			c1.09,0.79,2.35,1.35,3.57,1.97c1.77,0.9,3.56,1.77,5.34,2.65c0.1,0.05,0.21,0.1,0.31,0.15c1.82-0.05,3.44-0.42,5.4-1.36
			c0.87-0.42,1.74-0.81,2.62-1.15c1.33-0.87,2.61-1.8,3.59-3.15c0.66-0.91,1.67-1.54,2.47-2.35c1.32-1.33,2.46-2.87,3.92-4.01
			c1.26-0.98,1.52-2.8,3.14-3.38c0.06-0.02,0.04-0.22,0.11-0.3c0.6-0.78,1.21-1.55,1.84-2.35c-0.2-0.88,0.45-1.52,0.99-2.2
			c0.29-0.37,0.54-0.78,0.8-1.17c-0.05-0.04-0.11-0.08-0.16-0.12c0.21-0.11,0.43-0.21,0.44-0.22c0.16-0.42,0.21-0.7,0.36-0.91
			c0.34-0.48,0.74-0.91,1.07-1.39c0.43-0.63,0.81-1.29,1.24-1.92c0.3-0.44,0.66-1.23,0.97-1.22c1,0.05,0.9-0.87,1.19-1.27
			c0.49-0.69,0.6-1.64,0.88-2.49c0.08,0.06,0.16,0.13,0.24,0.19c0.31-0.14,0.84-0.23,0.89-0.44c0.13-0.52,0.04-1.09,0.04-1.46
			c0.65-0.72,1.21-1.35,1.8-2.01c-0.3-0.68,0.39-2.94,1.06-3.55c0.29-0.26,0.47-0.67,0.64-1.04c0.24-0.5,0.39-1.05,0.65-1.54
			c0.39-0.75,0.89-1.45,1.24-2.21c0.42-0.92,0.74-1.89,1.1-2.85c0.24-0.66,0.53-1.31,0.68-1.98c0.42-1.85,0.78-3.7,1.15-5.56
			c0.25-1.29,0.54-2.58,0.69-3.88c0.19-1.63,0.25-3.28,0.36-4.93c0.08-1.19,0.2-2.38,0.24-3.57
			C149.99,100.65,149.94,99.6,149.92,98.55z M141.4,74.42c-0.16-0.52-0.29-0.93-0.44-1.41C141.84,73.02,141.94,73.31,141.4,74.42z
			 M140.74,74.05c0.03,0.25,0.08,0.51,0.13,0.82c-2.28,0.1-4.67,0.21-7.06,0.32c-0.86,0.04-1.16-0.24-1.23-1.09
			c-0.02-0.32-0.12-0.67-0.03-0.96c0.1-0.32,0.32-0.65,0.59-0.85c0.36-0.27,0.8-0.44,1.22-0.61c0.19-0.07,0.43-0.02,0.64-0.05
			c0.21-0.02,0.48,0,0.63-0.12c0.68-0.57,0.81-0.54,1.12,0.42c0.26-0.86,0.89-0.46,1.35-0.47c0.52-0.01,1.05,0.06,1.57,0.15
			c0.29,0.05,0.76,0.18,0.8,0.36C140.63,72.65,140.66,73.36,140.74,74.05z M132.13,67.7c-0.3-0.64-0.14-0.95,0.57-1.04
			c0.73-0.08,1.45-0.35,2.16-0.32c0.57,0.02,1.13,0.36,1.87,0.61c-1.31,1.02-2.76,1.58-4.17,2.05
			C132.4,68.5,132.3,68.08,132.13,67.7z M138.47,70.6c-0.69-0.02-1.4,0.19-2.1,0.3c-0.01-0.08-0.02-0.16-0.03-0.23
			c1.33-0.63,2.66-1.25,4.11-1.94C140.27,70.13,139.65,70.64,138.47,70.6z M131.78,64.21c2.25-1.48,4.89-1.69,7.72-1.58
			c-0.14,0.51-0.23,0.87-0.28,1.05c0.31,0.46,0.55,0.81,0.83,1.22c-0.77,0.23-1.32,0.52-1.98,0.22c-0.19-0.09-0.51,0.1-0.77,0.17
			c-0.09,0.03-0.18,0.13-0.26,0.13c-1.15-0.03-2.3-0.06-3.45-0.1c-0.05,0-0.11-0.01-0.16,0C132.5,65.58,131.57,65.85,131.78,64.21z
			 M124.5,65.18c0.41-0.2,0.87-0.32,1.24-0.58c0.5-0.35,1.01-0.77,0.63-1.53c-0.06-0.12,0-0.31,0.02-0.56
			c0.76,0.13,0.94,0.67,1.1,1.15c0.17,0.53,0.27,1.1,0.27,1.65c0,0.19-0.35,0.54-0.56,0.56c-1.1,0.07-2.21,0.05-3.31,0.06
			c-0.1,0-0.19-0.04-0.37-0.25C123.84,65.51,124.16,65.34,124.5,65.18z M123.63,67.54c0.51-0.13,1.02-0.33,1.54-0.37
			c0.56-0.04,1.12,0.08,1.68,0.11c0.98,0.05,1.24,0.31,1.28,1.26c0.02,0.41,0.05,0.81,0.08,1.22c0.05,0.6-0.35,0.94-0.93,0.97
			c-1,0.05-2.01,0.11-2.97,0.34c-1.1,0.27-1.73-0.08-1.86-1.22c-0.02-0.21-0.29-0.38-0.32-0.59c-0.08-0.55-0.19-1.13-0.09-1.66
			c0.05-0.23,0.4-0.76,0.91-0.54C123.21,67.18,123.44,67.41,123.63,67.54z M122.89,62.54c-0.39,0.12-0.77,0.24-1.03,0.31
			c-0.1-0.5-0.19-0.95-0.3-1.45C122.34,61.15,122.32,62.2,122.89,62.54z M118.03,70.78c0.11,0.87,0.26,1.73,0.32,2.6
			c0.01,0.16-0.25,0.46-0.42,0.5c-1.61,0.31-3.23,0.57-4.85,0.86c-0.91,0.16-1.16-0.07-1.08-0.97c0.05-0.52,0.04-1.06-0.03-1.58
			c-0.12-0.96,0.04-1.52,0.92-1.91c1.52-0.67,3.08-1.24,4.81-1.93C117.83,69.26,117.93,70.02,118.03,70.78z M111.95,63.27
			c1.29-0.48,2.58-0.85,3.96-0.87c0.21,0,0.43-0.03,0.62-0.11c0.54-0.24,0.78,0.04,0.85,0.51c0.09,0.64,0.12,1.28,0.17,1.94
			c-1.33,0.45-2.59,0.86-3.83,1.29c-0.19,0.07-0.33,0.25-0.52,0.35c-0.43,0.24-0.85,0.41-1.11-0.27c-0.14,0.17-0.24,0.29-0.34,0.41
			c-0.16-0.72-0.32-1.42-0.45-2.13C111.2,63.85,111.35,63.49,111.95,63.27z M106.87,75.69c-0.74,0.1-1.48,0.26-2.22,0.36
			c-0.48,0.07-1.05,0.32-1.17-0.51c-0.15-1.04,0.03-1.36,0.88-1.48c0.11-0.01,0.22,0.01,0.5,0.03c0.48-0.17,1.13-0.37,1.76-0.61
			c0.84-0.32,1-0.24,1.25,0.64C108.24,75.42,108.17,75.51,106.87,75.69z M103.5,70.58c0.82-0.38,1.63-0.78,2.46-1.12
			c0.09-0.04,0.44,0.25,0.42,0.35c-0.03,0.19-0.22,0.46-0.38,0.49c-0.82,0.15-1.66,0.23-2.49,0.33
			C103.51,70.63,103.49,70.59,103.5,70.58z M103.34,68.06c0.11-0.77,0.2-1.54,0.39-2.28c0.07-0.26,0.41-0.59,0.67-0.65
			c0.93-0.2,1.89-0.29,3-0.45c-0.03,0.38-0.07,0.66-0.08,0.93c0,0.16,0,0.42,0.09,0.47c0.75,0.42,0.4,1.1,0.24,1.57
			c-0.08,0.23-0.76,0.28-1.18,0.38c-0.7,0.18-1.4,0.33-2.1,0.51c-0.31,0.08-0.61,0.21-1.05,0.36
			C103.33,68.56,103.3,68.31,103.34,68.06z M94.75,62.62c1.27-0.21,2.54-0.4,3.81-0.58c0.5-0.07,1-0.1,1.5-0.14
			c0.01,0.12,0.03,0.23,0.04,0.35c-1.75,0.64-3.49,1.29-5.25,1.89c-0.12,0.04-0.5-0.26-0.5-0.41C94.35,63.34,94,62.75,94.75,62.62z
			 M94.72,69.7c-0.41-0.53-0.02-0.78,0.34-0.93c1.2-0.5,2.43-0.96,3.65-1.42c0.25-0.09,0.51-0.13,0.86-0.22
			c0.03,0.34,0.09,0.59,0.07,0.85c-0.02,0.32-0.22,0.66-0.15,0.95c0.35,1.47-0.56,2.04-1.69,2.37c-0.8,0.23-1.65,0.36-2.47,0.34
			c-0.19-0.01-0.37-0.82-0.52-1.28C94.74,70.16,94.84,69.85,94.72,69.7z M99.27,72.21c-0.08,0.65-0.08,0.65-1.57,0.92
			c0.27-0.31,0.55-0.63,0.93-1.05C98.68,72.63,98.95,72.54,99.27,72.21z M99.29,76.26c0.13-0.05,0.36,0.17,0.55,0.26
			c-0.02,0.1-0.04,0.2-0.06,0.3c-1.09,0.27-2.18,0.55-3.28,0.82c-0.02-0.06-0.04-0.11-0.06-0.17
			C97.38,77.06,98.32,76.63,99.29,76.26z M90.71,71.64c-0.02,0.21,0.11,0.44,0.21,0.64c0.16,0.32,0.36,0.62,0.7,1.17
			c-0.96,0.21-1.72,0.36-2.47,0.54c-0.31,0.07-0.61,0.17-0.9,0.3c-0.68,0.3-1.19-0.01-1.18-0.73c0-0.21-0.13-0.45-0.07-0.63
			c0.1-0.31,0.24-0.73,0.49-0.86c0.75-0.42,1.55-0.76,2.36-1.05C90.31,70.85,90.79,70.89,90.71,71.64z M91.71,75.79
			c-1.48,0.46-2.83,1.45-4.62,1.04c0.3-0.59,0.55-0.84,1.17-0.84c0.65,0,1.36-0.19,1.92-0.53C90.83,75.07,91.23,75.34,91.71,75.79z
			 M82.6,67.82c0.13-0.1,0.47,0.03,0.69,0.12c1.11,0.48,1.82-0.31,2.61-0.84h-2.22c0-0.48,0.55-0.97,1.14-0.98
			c0.23,0,0.62-0.09,0.65-0.21c0.17-0.6,0.66-0.7,1.12-0.9c0.41-0.17,0.77-0.49,1.18-0.63c0.46-0.16,0.97-0.21,1.46-0.29
			c0.27-0.04,0.55-0.03,0.83-0.05c-0.25,0.57-0.51,1.16-0.79,1.82c0.31,0.18,0.58,0.33,0.97,0.56c-0.29,0.23-0.5,0.47-0.77,0.59
			c-1.04,0.5-2,1.17-3.25,1.22c-0.65,0.03-1.4,0.32-1.92,0.73c-1.06,0.84-2.32,1.11-3.54,1.5c-0.4,0.13-0.81,0.21-1.39,0.36
			C80.13,69.27,81.47,68.66,82.6,67.82z M83.61,81.33c0.03,0.39,0.05,0.62,0.07,0.92c-2.2,0.76-4.37,1.52-6.51,2.26
			c-0.25-0.68-0.43-1.17-0.68-1.85C78.92,82.21,81.23,81.77,83.61,81.33z M76.02,78.64c0.63,0.04,1.27,0.09,1.91,0.13
			c-0.46,0.15-0.92,0.28-1.37,0.46C76.05,79.44,75.91,79.26,76.02,78.64z M76.2,75.22c0.6-0.22,1.25-0.33,1.87-0.51
			c0.6-0.17,1.08-0.04,1.56,0.4c0.55,0.52,1.23,0.43,1.86,0.1c0.59-0.31,1.16-0.65,1.73-0.98c0.09,0.05,0.17,0.1,0.26,0.16
			c-0.1,0.68-0.2,1.36-0.3,2.03c-0.2,0-0.26,0.01-0.31,0c-0.29-0.07-0.59-0.15-0.88-0.2c-0.03,0-0.08,0.17-0.12,0.27
			c0.31,0.12,0.64,0.2,0.91,0.38c0.29,0.19,0.55,0.46,0.76,0.74c0.03,0.04-0.27,0.47-0.46,0.51c-1.65,0.3-3.3,0.56-4.96,0.82
			c-0.04,0.01-0.09-0.11-0.14-0.16c0,0-0.01,0-0.01,0c0.52-0.97,1.43-1.17,2.41-1.32c0.28-0.04,0.51-0.41,0.73-0.72
			c-0.46,0.03-0.93-0.79-1.36,0.11c-0.04,0.08-0.37,0-0.57,0.01c-0.71,0.02-1.42,0.04-2.12,0.1c-0.07,0.01-0.11,0.31-0.18,0.52
			c-0.34-0.07-0.68-0.13-0.94-0.18c-0.06-0.53-0.17-0.98-0.15-1.42C75.82,75.63,76,75.29,76.2,75.22z M70.42,83.91
			c0.72-0.14,1.44-0.27,2.16-0.41c0.28,1.05-0.05,1.43-0.98,1.16c-0.41-0.12-0.79-0.33-1.18-0.49
			C70.42,84.08,70.42,83.99,70.42,83.91z M145.94,105.29c-0.04,1.19-0.12,2.38-0.11,3.57c0.01,1.22-0.23,2.36-0.8,3.45
			c-0.07,0.13,0.05,0.35,0.02,0.52c-0.08,0.37-0.19,0.73-0.3,1.09c-0.02,0.07-0.07,0.14-0.08,0.22c-0.21,1.15-0.37,2.31-0.63,3.45
			c-0.36,1.56-0.76,3.11-1.19,4.66c-0.15,0.53-0.36,1.06-0.62,1.55c-0.82,1.53-1.68,3.03-2.51,4.54c-0.28,0.5-0.47,1.06-0.77,1.54
			c-0.54,0.84-1.15,1.64-1.69,2.48c-0.2,0.31-0.27,0.71-0.44,1.05c-0.69,1.37-1.34,2.77-2.12,4.09c-0.67,1.13-1.46,2.2-2.26,3.25
			c-0.55,0.73-1.26,1.34-1.82,2.06c-0.33,0.43-0.55,0.95-0.78,1.45c-0.62,1.35-1.14,2.74-1.84,4.04c-0.38,0.71-1.04,1.28-1.58,1.91
			c-0.59,0.7-1.18,1.41-1.79,2.09c-0.78,0.87-1.55,1.74-2.38,2.56c-1.08,1.06-2.22,2.05-3.31,3.09c-0.33,0.31-0.59,0.71-0.9,1.04
			c-0.61,0.64-1.21,1.29-1.87,1.88c-0.77,0.68-1.57,1.34-2.42,1.91c-0.82,0.56-1.69,1.05-2.58,1.46c-0.34,0.16-0.86,0.16-1.2,0.01
			c-2.27-1-4.56-1.97-6.75-3.13c-1.26-0.67-2.45-1.55-3.49-2.53c-1.27-1.2-2.44-2.54-3.5-3.93c-1.58-2.07-3.14-4.17-4.51-6.37
			c-1.19-1.92-2.17-3.98-3.14-6.02c-0.89-1.87-1.67-3.8-2.48-5.71c-0.58-1.36-1.07-2.76-1.69-4.09c-0.56-1.21-1.28-2.34-1.87-3.54
			c-0.28-0.57-0.36-1.18-0.92-1.68c-0.52-0.47-0.68-1.32-1-2c-0.16-0.34-0.36-0.66-0.49-1.01c-0.1-0.27-0.11-0.57-0.18-0.85
			c-0.06-0.23-0.12-0.47-0.23-0.68c-0.61-1.13-1.23-2.26-1.84-3.39c-0.38-0.7-0.77-1.38-1.11-2.1c-0.34-0.72-0.58-1.49-0.94-2.2
			c-0.6-1.22-1.27-2.42-1.89-3.63c-0.58-1.12-1.25-2.22-1.69-3.39c-0.73-1.95-1.34-3.94-1.94-5.93c-0.44-1.48-0.78-3-1.16-4.5
			c-0.43-1.7-0.44-3.4,0.08-5.09c0.14-0.45,0.09-0.96,0.23-1.41c0.19-0.62,0.41-1.26,0.76-1.8c0.22-0.35,0.61-0.6,0.93,0.11
			c0.47,1.03,1.47,1.19,2.45,0.65c0.72-0.4,1.55-0.61,2.29-0.97c0.47-0.23,0.85-0.72,1.34-0.85c1.43-0.38,2.88-0.69,4.35-0.92
			c1.24-0.19,2.51-0.18,3.75-0.36c1.55-0.22,3.08-0.52,4.61-0.82c1.97-0.39,3.92-0.9,5.9-1.17c1.46-0.2,2.88-0.49,4.28-0.95
			c0.44-0.14,1.04-0.25,1.24,0.39c0.38,1.23,1.9,1.25,2.81,0.7c0.68-0.41,1.33-0.81,1.21-1.8c-0.02-0.18,0.38-0.57,0.63-0.62
			c2.14-0.43,4.29-0.78,6.43-1.21c1.27-0.25,2.51-0.63,3.77-0.89c1.37-0.28,2.75-0.49,4.13-0.72c1.73-0.29,3.46-0.58,5.2-0.85
			c0.56-0.09,1.13-0.11,1.69-0.12c0.81-0.01,1.66-0.22,2.11,0.88c0.2,0.5,0.81,0.87,1.31,1.18c0.19,0.12,0.61-0.05,0.89-0.17
			c0.71-0.3,1.4-0.63,1.73-1.44c0.07-0.18,0.38-0.37,0.59-0.38c1.67-0.08,3.34-0.13,5.01-0.13c0.3,0,0.61,0.27,1.06,0.49
			c-1.53,1.15-1.51,1.74-0.05,3.29c-0.22,0.15-0.42,0.31-0.63,0.44c-0.49,0.33-0.84,0.72-0.9,1.36c-0.03,0.36-0.26,0.7-0.4,1.07
			c1.22,0.24,2.58,0.81,3.33-1.22c0.42,0.84,1.46,1.04,1.08,2.15c0.95,0.11,0.94,0.99,1.23,1.66c0.62,1.46,1.38,2.87,1.82,4.38
			c0.39,1.34,0.48,2.77,0.6,4.17c0.11,1.29,0.14,2.59,0.12,3.89C146.1,102.07,146,103.68,145.94,105.29z"/>
		<path d="M104.43,56.7c0.48-1.33,0.18-2.55-0.21-3.77c-0.76-2.35-1.52-4.7-2.25-7.06c-0.66-2.15-1.3-4.31-1.92-6.47
			c-0.16-0.57-0.19-1.18-0.39-1.73c-0.42-1.14-0.93-2.24-1.37-3.37c-0.13-0.34-0.2-0.73-0.23-1.1c-0.01-0.16,0.13-0.46,0.22-0.47
			c0.86-0.07,1.29-0.83,1.97-1.18c0.11-0.06,0.3-0.11,0.37-0.05c0.59,0.46,1.37,0.63,1.7,1.49c0.35,0.92,0.97,1.74,2.01,2.11
			c-0.58,1,1.09,0.65,0.73,1.48c0.05,0.43,0.07,0.87,0.17,1.29c0.16,0.65,0.36,1.28,0.56,1.91c0.52,1.6,1.27,3.1,1.67,4.77
			c0.43,1.81,0.37,3.67,0.75,5.47c0.26,1.21,0.26,2.45,0.87,3.62c0.75,1.45-0.25,2.98-1.99,3.34c-0.65,0.13-1.3,0.37-1.9-0.2
			C105.04,56.67,104.72,56.73,104.43,56.7z"/>
		<path class="st1" d="M146,96.57c-0.12-1.4-0.21-2.84-0.6-4.17c-0.44-1.51-1.2-2.93-1.82-4.38c-0.28-0.66-0.27-1.54-1.23-1.66
			c0.38-1.12-0.66-1.31-1.08-2.15c-0.75,2.03-2.11,1.46-3.33,1.22c0.14-0.37,0.37-0.71,0.4-1.07c0.06-0.65,0.4-1.04,0.9-1.36
			c0.21-0.14,0.41-0.29,0.63-0.44c-1.46-1.55-1.48-2.14,0.05-3.29c-0.45-0.22-0.75-0.49-1.06-0.49c-1.67,0-3.34,0.06-5.01,0.13
			c-0.21,0.01-0.52,0.2-0.59,0.38c-0.33,0.8-1.01,1.14-1.73,1.44c-0.28,0.12-0.7,0.29-0.89,0.17c-0.5-0.31-1.1-0.68-1.31-1.18
			c-0.45-1.1-1.3-0.88-2.11-0.88c-0.57,0-1.14,0.03-1.69,0.12c-1.73,0.27-3.47,0.56-5.2,0.85c-1.38,0.23-2.76,0.44-4.13,0.72
			c-1.27,0.26-2.51,0.64-3.77,0.89c-2.14,0.43-4.29,0.78-6.43,1.21c-0.25,0.05-0.66,0.43-0.63,0.62c0.12,0.99-0.53,1.39-1.21,1.8
			c-0.91,0.56-2.43,0.54-2.81-0.7c-0.2-0.64-0.8-0.54-1.24-0.39c-1.4,0.46-2.81,0.75-4.28,0.95c-1.98,0.27-3.93,0.79-5.9,1.17
			c-1.53,0.3-3.07,0.6-4.61,0.82c-1.24,0.18-2.51,0.17-3.75,0.36c-1.46,0.23-2.91,0.54-4.35,0.92c-0.48,0.13-0.86,0.62-1.34,0.85
			c-0.75,0.36-1.57,0.57-2.29,0.97c-0.98,0.54-1.98,0.37-2.45-0.65c-0.32-0.7-0.71-0.45-0.93-0.11c-0.34,0.54-0.56,1.18-0.76,1.8
			c-0.14,0.45-0.09,0.96-0.23,1.41c-0.52,1.7-0.5,3.39-0.08,5.09c0.38,1.5,0.72,3.02,1.16,4.5c0.59,1.99,1.21,3.99,1.94,5.93
			c0.44,1.18,1.11,2.27,1.69,3.39c0.63,1.21,1.29,2.41,1.89,3.63c0.35,0.71,0.6,1.48,0.94,2.2c0.34,0.71,0.73,1.4,1.11,2.1
			c0.61,1.13,1.24,2.25,1.84,3.39c0.11,0.21,0.17,0.45,0.23,0.68c0.07,0.28,0.08,0.58,0.18,0.85c0.13,0.35,0.33,0.67,0.49,1.01
			c0.32,0.68,0.49,1.53,1,2c0.56,0.5,0.64,1.11,0.92,1.68c0.59,1.2,1.31,2.33,1.87,3.54c0.62,1.34,1.11,2.73,1.69,4.09
			c0.81,1.91,1.59,3.84,2.48,5.71c0.98,2.04,1.95,4.1,3.14,6.02c1.37,2.21,2.93,4.31,4.51,6.37c1.06,1.39,2.23,2.73,3.5,3.93
			c1.04,0.98,2.23,1.86,3.49,2.53c2.19,1.16,4.48,2.13,6.75,3.13c0.34,0.15,0.87,0.15,1.2-0.01c0.89-0.42,1.77-0.91,2.58-1.46
			c0.85-0.58,1.65-1.24,2.42-1.91c0.66-0.58,1.26-1.24,1.87-1.88c0.32-0.33,0.57-0.72,0.9-1.04c1.1-1.04,2.24-2.03,3.31-3.09
			c0.83-0.82,1.6-1.69,2.38-2.56c0.61-0.68,1.19-1.39,1.79-2.09c0.54-0.63,1.2-1.2,1.58-1.91c0.7-1.3,1.23-2.69,1.84-4.04
			c0.23-0.5,0.45-1.02,0.78-1.45c0.56-0.72,1.27-1.33,1.82-2.06c0.8-1.05,1.59-2.12,2.26-3.25c0.78-1.32,1.43-2.72,2.12-4.09
			c0.17-0.34,0.23-0.74,0.44-1.05c0.54-0.84,1.16-1.63,1.69-2.48c0.31-0.48,0.5-1.04,0.77-1.54c0.83-1.52,1.7-3.02,2.51-4.54
			c0.26-0.49,0.48-1.01,0.62-1.55c0.42-1.55,0.83-3.1,1.19-4.66c0.26-1.14,0.42-2.3,0.63-3.45c0.01-0.08,0.06-0.15,0.08-0.22
			c0.1-0.36,0.22-0.72,0.3-1.09c0.03-0.17-0.09-0.39-0.02-0.52c0.56-1.09,0.81-2.23,0.8-3.45c-0.01-1.19,0.07-2.38,0.11-3.57
			c0.06-1.61,0.16-3.22,0.18-4.82C146.13,99.17,146.11,97.87,146,96.57z"/>
		<path class="st2" d="M117.71,68.35c0.12,0.9,0.22,1.67,0.32,2.43c0.11,0.87,0.26,1.73,0.32,2.6c0.01,0.16-0.25,0.46-0.42,0.5
			c-1.61,0.31-3.23,0.57-4.85,0.86c-0.91,0.16-1.16-0.07-1.08-0.97c0.05-0.52,0.04-1.06-0.03-1.58c-0.12-0.96,0.04-1.52,0.92-1.91
			C114.42,69.61,115.98,69.04,117.71,68.35z M113.26,73.18c0.18-0.39,0.31-0.66,0.44-0.93c-0.49-0.1-0.95-0.19-1.41-0.27
			c-0.04,0.07-0.07,0.13-0.11,0.2C112.5,72.46,112.81,72.76,113.26,73.18z"/>
		<path class="st3" d="M136.74,71.93c0.26-0.86,0.89-0.46,1.35-0.47c0.52-0.01,1.05,0.06,1.57,0.15c0.29,0.05,0.76,0.18,0.8,0.36
			c0.17,0.68,0.19,1.39,0.28,2.08c0.03,0.25,0.08,0.51,0.13,0.82c-2.28,0.1-4.67,0.21-7.06,0.32c-0.86,0.04-1.16-0.24-1.23-1.09
			c-0.02-0.32-0.12-0.67-0.03-0.96c0.1-0.32,0.32-0.65,0.59-0.85c0.36-0.27,0.8-0.44,1.22-0.61c0.19-0.07,0.43-0.02,0.64-0.05
			c0.21-0.02,0.48,0,0.63-0.12C136.31,70.95,136.44,70.98,136.74,71.93z"/>
		<path class="st2" d="M79.37,70.83c0.76-1.56,2.11-2.17,3.23-3.01c0.13-0.1,0.47,0.03,0.69,0.12c1.11,0.48,1.82-0.31,2.61-0.84
			c-0.74,0-1.48,0-2.22,0c0-0.48,0.55-0.97,1.14-0.98c0.23,0,0.62-0.09,0.65-0.21c0.17-0.6,0.66-0.7,1.12-0.9
			c0.41-0.17,0.77-0.49,1.18-0.63c0.46-0.16,0.97-0.21,1.46-0.29c0.27-0.04,0.55-0.03,0.83-0.05c-0.25,0.57-0.51,1.16-0.79,1.82
			c0.31,0.18,0.58,0.33,0.97,0.56c-0.29,0.23-0.5,0.47-0.77,0.59c-1.04,0.5-2,1.17-3.25,1.22c-0.65,0.03-1.4,0.32-1.92,0.73
			c-1.06,0.84-2.32,1.11-3.54,1.5C80.36,70.6,79.95,70.69,79.37,70.83z"/>
		<path class="st3" d="M123.63,67.54c0.51-0.13,1.02-0.33,1.54-0.37c0.56-0.04,1.12,0.08,1.68,0.11c0.98,0.05,1.24,0.31,1.28,1.26
			c0.02,0.41,0.05,0.81,0.08,1.22c0.05,0.6-0.35,0.94-0.93,0.97c-1,0.05-2.01,0.11-2.97,0.34c-1.1,0.27-1.73-0.08-1.86-1.22
			c-0.02-0.21-0.29-0.38-0.32-0.59c-0.08-0.55-0.19-1.13-0.09-1.66c0.05-0.23,0.4-0.76,0.91-0.54
			C123.21,67.18,123.44,67.41,123.63,67.54z"/>
		<path class="st3" d="M77.97,78.78c0.51-0.98,1.43-1.18,2.42-1.34c0.28-0.04,0.51-0.41,0.73-0.72c-0.46,0.03-0.93-0.79-1.36,0.11
			c-0.04,0.08-0.37,0-0.57,0.01c-0.71,0.02-1.42,0.04-2.12,0.1c-0.07,0.01-0.11,0.31-0.18,0.52c-0.34-0.07-0.68-0.13-0.94-0.18
			c-0.06-0.53-0.17-0.98-0.15-1.42c0.01-0.23,0.2-0.57,0.39-0.64c0.6-0.22,1.25-0.33,1.87-0.51c0.6-0.17,1.08-0.04,1.56,0.4
			c0.55,0.52,1.23,0.43,1.86,0.1c0.59-0.31,1.16-0.65,1.73-0.98c0.09,0.05,0.17,0.1,0.26,0.16c-0.1,0.68-0.2,1.36-0.3,2.03
			c-0.2,0-0.26,0.01-0.31,0c-0.29-0.07-0.59-0.15-0.88-0.2c-0.03,0-0.08,0.17-0.12,0.27c0.31,0.12,0.64,0.2,0.91,0.38
			c0.29,0.19,0.55,0.46,0.76,0.74c0.03,0.04-0.27,0.47-0.46,0.51c-1.65,0.3-3.3,0.56-4.96,0.82c-0.04,0.01-0.09-0.11-0.14-0.16
			L77.97,78.78z"/>
		<path class="st2" d="M117.55,64.74c-1.33,0.45-2.59,0.86-3.83,1.29c-0.19,0.07-0.33,0.25-0.52,0.35
			c-0.43,0.24-0.85,0.41-1.11-0.27c-0.14,0.17-0.24,0.29-0.34,0.41c-0.16-0.72-0.32-1.42-0.45-2.13c-0.1-0.54,0.05-0.9,0.64-1.12
			c1.29-0.48,2.58-0.85,3.96-0.87c0.21,0,0.43-0.03,0.62-0.11c0.54-0.24,0.78,0.04,0.85,0.51C117.47,63.43,117.5,64.08,117.55,64.74
			z"/>
		<path class="st4" d="M139.51,62.63c-0.14,0.51-0.23,0.87-0.28,1.05c0.32,0.46,0.55,0.81,0.83,1.22c-0.77,0.23-1.32,0.52-1.98,0.22
			c-0.19-0.09-0.51,0.1-0.77,0.17c-0.09,0.03-0.18,0.13-0.26,0.13c-1.15-0.03-2.3-0.06-3.45-0.1c-0.05,0-0.11-0.01-0.16,0
			c-0.93,0.25-1.86,0.52-1.65-1.12C134.03,62.73,136.67,62.52,139.51,62.63z"/>
		<path class="st2" d="M99.57,67.14c0.03,0.34,0.09,0.59,0.07,0.85c-0.02,0.32-0.22,0.66-0.15,0.95c0.35,1.47-0.56,2.04-1.69,2.37
			c-0.8,0.23-1.65,0.36-2.47,0.34c-0.19-0.01-0.37-0.82-0.52-1.28c-0.07-0.21,0.03-0.52-0.09-0.67c-0.41-0.53-0.02-0.78,0.34-0.93
			c1.2-0.5,2.43-0.96,3.65-1.42C98.96,67.27,99.22,67.23,99.57,67.14z"/>
		<path class="st4" d="M107.4,64.68c-0.03,0.38-0.07,0.66-0.08,0.93c0,0.16,0,0.42,0.09,0.47c0.75,0.42,0.4,1.1,0.24,1.57
			c-0.08,0.23-0.76,0.28-1.18,0.38c-0.7,0.18-1.4,0.33-2.1,0.51c-0.31,0.08-0.61,0.21-1.05,0.36c0-0.36-0.03-0.61,0.01-0.86
			c0.11-0.77,0.2-1.54,0.39-2.28c0.07-0.26,0.41-0.59,0.67-0.65C105.33,64.93,106.29,64.84,107.4,64.68z"/>
		<path class="st3" d="M91.63,73.45c-0.96,0.21-1.72,0.36-2.47,0.54c-0.31,0.07-0.61,0.17-0.9,0.3c-0.68,0.3-1.19-0.01-1.18-0.73
			c0-0.21-0.13-0.45-0.07-0.63c0.1-0.31,0.24-0.73,0.49-0.86c0.75-0.42,1.55-0.76,2.36-1.05c0.46-0.16,0.95-0.13,0.87,0.63
			c-0.02,0.21,0.11,0.44,0.21,0.64C91.09,72.6,91.29,72.9,91.63,73.45z"/>
		<path class="st3" d="M77.17,84.51c-0.25-0.68-0.43-1.17-0.68-1.85c2.42-0.45,4.73-0.89,7.11-1.33c0.03,0.39,0.05,0.62,0.07,0.92
			C81.49,83.01,79.32,83.76,77.17,84.51z"/>
		<path class="st3" d="M104.86,74.09c0.48-0.17,1.13-0.37,1.76-0.61c0.84-0.32,1-0.24,1.25,0.64c0.36,1.31,0.3,1.4-1,1.57
			c-0.74,0.1-1.48,0.26-2.22,0.36c-0.48,0.07-1.05,0.32-1.17-0.51c-0.15-1.04,0.03-1.36,0.88-1.48
			C104.47,74.04,104.58,74.07,104.86,74.09z"/>
		<path class="st4" d="M132.56,69c-0.16-0.5-0.26-0.92-0.44-1.3c-0.3-0.64-0.14-0.95,0.57-1.04c0.73-0.09,1.45-0.35,2.16-0.32
			c0.57,0.02,1.13,0.36,1.87,0.61C135.43,67.98,133.98,68.53,132.56,69z"/>
		<path class="st3" d="M126.38,62.51c0.76,0.13,0.94,0.67,1.1,1.15c0.17,0.53,0.27,1.1,0.27,1.65c0,0.19-0.35,0.54-0.56,0.56
			c-1.1,0.07-2.21,0.05-3.31,0.06c-0.1,0-0.19-0.04-0.37-0.25c0.33-0.17,0.66-0.34,0.99-0.5c0.41-0.2,0.87-0.32,1.24-0.58
			c0.5-0.35,1.01-0.77,0.63-1.53C126.31,62.95,126.37,62.76,126.38,62.51z"/>
		<path class="st4" d="M100.1,62.25c-1.75,0.64-3.49,1.29-5.25,1.89c-0.12,0.04-0.5-0.26-0.5-0.41c0-0.39-0.36-0.98,0.39-1.11
			c1.27-0.21,2.54-0.4,3.81-0.58c0.5-0.07,1-0.1,1.5-0.14C100.08,62.02,100.09,62.13,100.1,62.25z"/>
		<path class="st3" d="M91.71,75.79c-1.48,0.46-2.83,1.45-4.62,1.04c0.3-0.59,0.55-0.84,1.17-0.84c0.65,0,1.36-0.19,1.92-0.53
			C90.83,75.07,91.23,75.34,91.71,75.79z"/>
		<path class="st4" d="M136.35,70.66c1.33-0.63,2.66-1.25,4.11-1.94c-0.2,1.4-0.81,1.91-1.99,1.87c-0.69-0.02-1.4,0.19-2.1,0.3
			C136.37,70.82,136.36,70.74,136.35,70.66z"/>
		<path class="st3" d="M70.42,83.91c0.72-0.14,1.44-0.27,2.16-0.41c0.28,1.05-0.05,1.43-0.98,1.16c-0.41-0.12-0.79-0.33-1.18-0.49
			C70.42,84.08,70.42,83.99,70.42,83.91z"/>
		<path class="st3" d="M103.51,70.62c0,0.01-0.01-0.04-0.01-0.04c0.82-0.38,1.63-0.78,2.46-1.12c0.09-0.04,0.44,0.25,0.42,0.35
			c-0.03,0.19-0.22,0.46-0.38,0.49C105.17,70.44,104.34,70.52,103.51,70.62z"/>
		<path class="st3" d="M99.77,76.82c-1.09,0.27-2.18,0.55-3.28,0.82c-0.02-0.06-0.04-0.11-0.06-0.17c0.95-0.41,1.89-0.84,2.85-1.21
			c0.13-0.05,0.36,0.17,0.55,0.26C99.81,76.62,99.79,76.72,99.77,76.82z"/>
		<path class="st3" d="M122.89,62.54c-0.39,0.12-0.77,0.24-1.03,0.31c-0.1-0.5-0.19-0.95-0.3-1.45
			C122.34,61.15,122.32,62.2,122.89,62.54z"/>
		<path class="st3" d="M98.63,72.08c0.05,0.55,0.32,0.46,0.64,0.13c-0.08,0.65-0.08,0.65-1.57,0.92
			C97.97,72.82,98.26,72.5,98.63,72.08z"/>
		<path class="st0" d="M132.87,59.16c-0.35,0.2-0.69,0.41-1.14,0.68c-0.05-0.06-0.21-0.23-0.3-0.42c-0.06-0.13-0.07-0.35,0-0.44
			c0.06-0.08,0.28-0.07,0.43-0.05C132.2,58.99,132.53,59.08,132.87,59.16C132.87,59.16,132.87,59.16,132.87,59.16z"/>
		<path class="st3" d="M77.99,78.76c-0.48,0.16-0.96,0.3-1.43,0.48c-0.5,0.2-0.64,0.02-0.54-0.59c0.64,0.05,1.3,0.09,1.95,0.13
			C77.97,78.78,77.99,78.76,77.99,78.76z"/>
		<path class="st5" d="M140.97,73c0.87,0.02,0.97,0.3,0.44,1.41C141.24,73.9,141.11,73.49,140.97,73z"/>
		<path d="M98.54,118.49c-0.11-0.25-0.23-0.49-0.36-0.72c-0.07-0.02-0.16-0.08-0.19-0.15c-0.03-0.06-0.06-0.11-0.09-0.16
			c-0.01-0.01-0.01-0.01-0.02-0.02c-0.02-0.02-0.04-0.04-0.06-0.06c-0.01-0.01-0.02-0.02-0.03-0.03c-0.01-0.01-0.02-0.01-0.02-0.02
			c-0.01-0.01-0.02-0.01-0.03-0.02c-0.05-0.03-0.1-0.06-0.15-0.09c-0.02-0.01-0.05-0.02-0.07-0.03c-0.05-0.02-0.05-0.02-0.04-0.01
			c-0.05-0.02-0.11-0.04-0.16-0.06c-0.09-0.03-0.17-0.06-0.26-0.09c-0.14,0.29-0.25,0.61-0.41,0.9c-0.43,0.78-0.87,1.54-1.33,2.3
			c-0.53,0.87-1,1.79-1.66,2.55c-0.3,0.35-1.03,0.6-1.49,0.5c-1.99-0.4-3.77-1.25-5.17-2.78c-0.84-0.92-1.67-1.82-1.79-3.14
			c-0.04-0.46-0.02-0.95-0.18-1.37c-0.61-1.54,0.2-2.92,0.52-4.31c0.36-1.54,1.11-2.99,1.54-4.52c0.45-1.61,0.68-3.28,1.66-4.7
			c0.29-0.42,0.73-0.78,0.9-1.25c0.38-1.09,0.97-1.87,2.17-2.08c0.11-0.02,0.27-0.16,0.28-0.26c0.07-0.85,0.74-0.85,1.25-0.75
			c1.11,0.21,1.62-0.79,2.46-1.08c0.07-0.02,0.1-0.25,0.08-0.37c-0.09-0.62-0.2-1.24-0.29-1.79c-0.35,0.04-0.74,0.09-1.13,0.11
			c-0.55,0.03-1.16-0.09-1.65,0.1c-1.74,0.67-3.27,1.72-4.72,2.9c-1.23,1.01-2.12,2.28-2.68,3.72c-0.7,1.8-1.19,3.67-1.79,5.51
			c-0.06,0.17-0.19,0.31-0.29,0.47c-0.14,0.22-0.34,0.43-0.42,0.68c-0.11,0.33-0.03,0.73-0.19,1.02c-0.42,0.76-0.22,1.86-1.1,2.22
			c-0.14,0.82-0.18,1.57-0.42,2.26c-0.38,1.08-0.31,2.15,0.04,3.17c0.48,1.41,1.13,2.77,1.69,4.15c0.49,1.2,1.19,2.25,2.35,2.85
			c1.49,0.78,3.02,1.5,4.57,2.18c0.6,0.26,1.33,0.55,1.94,0.45c1.55-0.25,3.13-0.57,4.29-1.81c0.64-0.69,1.36-1.31,1.93-2.06
			c0.44-0.58,0.7-1.3,1.01-1.97c0.02-0.04,0.03-0.07,0.05-0.11C99.07,119.95,98.84,119.18,98.54,118.49z"/>
		<path d="M106.78,119.37c0.04-0.2-0.04-1.1-0.17-1.28c-0.76-1.05,0.4-2.32,1.69-2.47c1.1-0.13,2.23-0.31,3.32-0.2
			c0.59,0.06,1.14,0.03,1.68-0.1c0.07-0.06,0.14-0.11,0.21-0.18c0.21-0.22,0.21-0.58,0.18-0.91c-0.03-0.38-0.1-0.76-0.21-1.13
			c-0.1-0.31-0.25-0.64-0.54-0.81c-0.13-0.07-0.17-0.19-0.16-0.31l0,0c-0.15-0.04-0.3-0.07-0.45-0.1c-0.03,0-0.07-0.01-0.1-0.01
			c0,0,0,0,0,0c-0.02,0-0.04,0-0.05-0.01c-0.01,0-0.02,0-0.03,0c-0.86,0.1-1.71,0.22-2.55,0.13c-0.97-0.11-1.85-0.16-2.71,0.47
			c-0.23-0.47-0.54-0.84-0.57-1.23c-0.06-0.89,0.05-1.79,0.04-2.68c-0.01-1.67-0.09-3.33-0.09-5c0-1.19,0.16-2.39,0.15-3.58
			c-0.01-2.4-0.08-4.8-0.13-7.2c-0.01-0.49-0.63-1.27-1.08-1.18c-0.67,0.14-1.33,0.38-1.95,0.68c-0.45,0.22-0.61,0.66-0.55,1.22
			c0.12,1.12,0.2,2.25,0.2,3.37c0,1.1-0.12,2.2-0.16,3.31c-0.03,0.92,0,1.83-0.05,2.75c-0.04,0.65-0.22,1.3-0.25,1.95
			c-0.09,1.95-0.16,3.91-0.21,5.86c-0.02,0.64,0.01,1.3,0.11,1.93c0.13,0.83-0.06,1.3-0.95,1.53c-1.08,0.27-2.1,0.72-2.96,1.44
			c0.01,0.22,0.02,0.43,0.03,0.65c0.01,0.08,0.01,0.16,0.02,0.23c0,0.01,0,0.01,0,0.01c0,0.02,0.01,0.04,0.01,0.06
			c0.01,0.04,0.01,0.08,0.02,0.13c0.02,0.07,0.03,0.14,0.05,0.21c0.01,0.04,0.03,0.08,0.04,0.12c0,0,0,0,0,0.01
			c0.01,0.02,0.02,0.03,0.02,0.05c0.02,0.04,0.03,0.08,0.03,0.11c0.21,0.38,0.4,0.77,0.57,1.18c0.02,0.05,0.04,0.11,0.06,0.16
			c0.06,0.01,0.13,0.04,0.17,0.09c0.12,0.12,0.24,0.22,0.37,0.32c0.02-0.05,0.04-0.1,0.07-0.15c0.09-0.19,0.29-0.37,0.48-0.47
			c0.56-0.3,1.13-0.56,1.7-0.82c0.22-0.1,0.46-0.18,0.69-0.27c0.09,0.25,0.21,0.49,0.25,0.75c0.1,0.71,0.13,1.44,0.25,2.15
			c0.33,1.91,0.79,3.81,1.02,5.74c0.11,0.89,0.53,1.58,0.83,2.36c0.21,0.53,0.66,0.61,1.16,0.72c1.18,0.25,2.39-1.38,2.1-2.54
			c-0.15-0.63-0.32-1.26-0.49-1.88c-0.28-1.02-0.56-2.04-0.84-3.06"/>
		<path d="M116.67,100.39c-0.2,0.02,0.12-1.68-0.11-1.6c-0.08-0.28-0.2-0.5-0.21-0.73c-0.05-0.74-0.57-1.09-1.03-1.59
			c-0.73-0.79-1.27-0.17-1.82,0.02c-0.86,0.29-1.26,0.99-1.16,1.72c0.29,2.09,0.58,4.17,0.87,6.26c0.26,1.82,0.52,3.64,0.77,5.47
			c0.06,0.47,0.11,0.94,0.15,1.36c0.04,0.05,0.06,0.11,0.06,0.19c0.01,1.29,0.46,2.5,0.71,3.75c0.04,0.14,0.07,0.26,0.09,0.39
			c0.46,2.4,0.94,4.8,1.34,7.21c0.23,1.39,0.3,2.81,0.48,4.22c0.11,0.82,0.2,1.67,0.47,2.45c0.32,0.93,1.59,1.33,2.5,0.9l3.29-2.87
			c0.2-0.18,0.32-0.37,0.47-0.41c1.45-0.4,2.92-0.78,4.37-1.16c0.23-0.06,0.46-0.13,0.69-0.2c0.64-0.2,1.29-0.38,1.92-0.61
			c0.61-0.23,1.4-0.25,1.47-1.21c0.05-0.72,0.2-1.44,0.31-2.18c-0.17-0.05-0.39-0.07-0.57-0.16c-1.38-0.64-2.7-0.63-3.94,0.35
			c-0.16,0.13-0.39,0.21-0.59,0.25c-0.77,0.18-0.71,0.47-1.42,0.6c-0.94,0.17-1.21,0.47-1.55,0.33c-0.16-0.06,0,0-0.72,0.06
			c-0.68,0.33-0.33,0.11-0.8,0.33c0.01,0.06-0.39,0.27-0.38,0.33c-0.3,0.11-0.2,0.07-0.52,0.19c-0.96-2.4-3-4.37-2.57-6.96"/>
		<path d="M113.26,73.18c-0.45-0.42-0.76-0.71-1.08-1.01c0.04-0.07,0.07-0.13,0.11-0.2c0.46,0.09,0.91,0.18,1.41,0.27
			C113.58,72.51,113.45,72.79,113.26,73.18z"/>
	</g>
</g>
</svg>
