<svg id="Layer_1" data-name="Layer 1" xmlns="http://www.w3.org/2000/svg" viewBox="0 0 213.28 148.98"><defs><style>.cls-1{fill:#27aae1;}.cls-2{fill:#fff;}.cls-3{fill:#2b3990;}.cls-4{fill:#262262;}.cls-5{fill:#f7941d;}.cls-6{fill:#1c75bc;}</style></defs><g id="Cdq7dp"><path class="cls-1" d="M103.06,115.57c.55-2.45-1.39-4.91-.47-7.24,0-.13-.06-1.5,0-1.62-.16-.21.42-1.25.34-1.5s.42-.55.37-.77c-.15-.37.34-.34.34-.76h0c.13-.46.85-.23,1.17-.58-.09-.34-.19-.68-.28-1a50.65,50.65,0,0,0-1.21-4.93,27.89,27.89,0,0,0-1.95-3.49c-.28-.53-.42-1.13-.65-1.69-.06-.14-.23-.23-.35-.34,0,.13,0,.26,0,.38.6,2.81,1.23,5.61,1.79,8.42.31,1.59.51,3.2.76,4.79.18,1.16-.35,2-.34,3.12,0,1.91.71,4.17.61,6.07a4.88,4.88,0,0,1-.15.85c-.27,1.36-.58,2.72-.81,4.1-.13.77-.06,1.57-.21,2.34a3.54,3.54,0,0,1-.67,1.23" transform="translate(-2.7 -20.24)"/><path class="cls-2" d="M88.59,132.42a4.36,4.36,0,0,1,1.4-.6l.39-.09a10.23,10.23,0,0,1,3.55-2.5,16,16,0,0,0-2.48.58c-1.45.48-2.69,1.58-4.07,2.3a11.18,11.18,0,0,1-2.18.63c-.14,0-.3,0-.43.06-.36.16-.71.36-1.07.54a7.82,7.82,0,0,1,1.06-.12h0a30.51,30.51,0,0,1,3.28-.38A4.33,4.33,0,0,1,88.59,132.42Z" transform="translate(-2.7 -20.24)"/><path class="cls-2" d="M78.06,141.62a3.16,3.16,0,0,1-.89-1.49c-.44-1.68.46-3.47,1.52-4.72a4.77,4.77,0,0,1,2.67-1.56c-.75,0-1.49.06-2.24.07s-1.37-.37-2.05-.37a14.35,14.35,0,0,0-2.34.34s-.1.15-.08.17c1.15,1,.41,2.53.88,3.79a14.26,14.26,0,0,1,.4,4.27c.08,2,1.27,3,2.88,3.83a36.11,36.11,0,0,1,4.49,3.13c.2.15.13,1.1,0,1.14-.68.22-1.56.59-2.09.33-1.7-.81-3.27-1.88-4.9-2.83,0,0-.38.2-.39.33-.25,2.4-.39,4.82-.76,7.19-.09.52-1,.9-1.56,1.35-.27-.46-.75-.91-.79-1.39-.18-2.38-.23-4.78-.34-7.18a.8.8,0,0,0-.16-.38s-.22,0-.27.09c-.48.57-.92,1.17-1.42,1.72-1,1.13-2,2.22-3,3.34a3.17,3.17,0,0,1,3.31,1.41,2.87,2.87,0,0,1,.17,2.56c.75.25,1.49.49,2.26.68,2,.49,3.83,1,5.62-.48.41-.34.46-1.14.92-1.53a9.13,9.13,0,0,1,4-2.16c2.64-.74,2.63-.55,3.38-3,.06-.21.13-.4.2-.61-2.15-1.38-4.22-3.26-5.85-4.15C79.37,144.3,78.28,143,78.06,141.62Z" transform="translate(-2.7 -20.24)"/><path class="cls-2" d="M174.41,21l.52.07c3.42-.17,6.61-.55,9.78-.43,4.46.16,8.92.7,13.37,1.07,1.62.14,3.23.27,4.85.39a1.8,1.8,0,0,0,.45-.09l-.06-.09C193.6,21,183.69,19.19,174.41,21Z" transform="translate(-2.7 -20.24)"/><path class="cls-3" d="M104.76,100.65c0,.38.42.71.56,1.1l.25.73a2.44,2.44,0,0,1,1-.32,9.88,9.88,0,0,1,2.24-2.13,1.81,1.81,0,0,1-.71,0c-.86-.26-1.11-1-.56-1.92A20.86,20.86,0,0,0,109,94.59a49.78,49.78,0,0,0,1.57-5c.59-2.55,1-5.14,1.51-7.72.11-.62.12-1.27.17-1.91,0-.09,0-.24,0-.26-1.75-.92,0-2.47-.72-3.75-1.08-2-1.37-4.45-2.47-6.44a10.35,10.35,0,0,0-3.61-3.4,19.9,19.9,0,0,0-5.56-2.57,6.39,6.39,0,0,0-6.16,1.79c-1,.94-2.15,1.72-3.18,2.64-.3.26-.38.75-.63,1.07a5.7,5.7,0,0,1-.86.76h0c.11,1.06-1.21,1.22-1.33,2.34s-1,2.39-1.54,3.6a16.12,16.12,0,0,0-.63,2c0,.07.22.3.34.3,1,0,1.83-.27,2.23,1.15.15.56,1.44.81,2.22,1.17,1.18.56,2.6.85,3.51,1.7a22.21,22.21,0,0,1,2.71,3.79,6.07,6.07,0,0,0,.76.84c.81.8,1.69,1.53,2.43,2.39.6.71,1,1.57,1.54,2.34.3.44.72.79,1,1.25s.51,1.28.83,1.9c.2.38.63.66.77,1a18,18,0,0,1,.79,2.81C104.78,99.14,104.65,99.91,104.76,100.65Zm-3.24-23.74a3.42,3.42,0,0,1-2.73.62,2.26,2.26,0,0,1-1.36-2.87c.41-1.77,1.76-2.48,2.89-3.45a2,2,0,0,1,1.83,0c.41.26.46,1.08.67,1.66C103.05,74.47,102.87,76,101.52,76.91Z" transform="translate(-2.7 -20.24)"/><path class="cls-2" d="M215.36,26.71a12,12,0,0,1-.49-2.32l-1.76-.77c-2.25-1-4.48-1.94-6.72-2.93a2.2,2.2,0,0,1-1.71,1.25,8.78,8.78,0,0,1,1.35,1c1.23,1.1,2.28,2.39,3.44,3.58.55.57,1.21,1,1.77,1.6,1.74,1.77,2.17,4.13,2.36,6.39.12,1.5-.67,3.06-1,4.61a38.25,38.25,0,0,0-.66,4.09,9.09,9.09,0,0,1-1.61,4c-1.92,3.13-5,5.13-7.26,7.87-1.86,2.23-3.81,4.38-5.8,6.49a51.12,51.12,0,0,1-3.8,3.55,26.57,26.57,0,0,1-4.1,3.28c-2.65,1.49-4.2,3.95-6.1,6.13a12.32,12.32,0,0,1-2.75,1.68c-2,1.25-3.82,2.7-5.88,3.75A20.79,20.79,0,0,1,170,81.25c-3.17.73-6.34,1.49-9.53,2.09-2.06.4-4.2.38-6.23.87a3.68,3.68,0,0,1-3.32-.51c-.56-.42-1-1.16-1.59-1.38a12.57,12.57,0,0,0-3.71-.8c-1.67,0-3.23-.65-4.88-.72a25.05,25.05,0,0,1-2.6,0,4.83,4.83,0,0,1-1.86-.88c-.14-.09.09-.69.12-1.06,0-.11,0-.29-.12-.32-1.34-.59-1.27-1.26-.43-2.38,1.1-1.45,1.88-3.13,2.86-4.67s2-2.83,2.87-4.31c.13-.21.54-.45.72-.73a6,6,0,0,1-.82.46,2,2,0,0,1-1,.27l-.54-.07a2,2,0,0,1-1.19-.92,1.41,1.41,0,0,1-.24-.74,1.81,1.81,0,0,1,.4-1.48,1.38,1.38,0,0,1,.56-.51,6.11,6.11,0,0,0,1-.58c.12-.1.24-.22.35-.33a1.23,1.23,0,0,0,.14-.25,2.07,2.07,0,0,1,.72-.72l.48-.2a2,2,0,0,1,1.54.2,1.55,1.55,0,0,1,.56.52,1.45,1.45,0,0,1,.36.68,1.52,1.52,0,0,1,0,.79,1.66,1.66,0,0,1-.24.75A3,3,0,0,1,144,65c.51-.21.78-.76.92-1.67.54-3.35,1.29-6.66,1.91-10a3.24,3.24,0,0,0-.11-1.38c-.53-2,.69-3.52,1.56-5,1.55-2.7,3.35-5.26,5-7.89.79-1.24,1.53-2.51,2.35-3.73s1.72-2.44,2.66-3.6c.68-.85,1.48-1.6,2.22-2.4,1.46-1.6,2.82-3.31,4.4-4.78a30.59,30.59,0,0,0-3.15,2c-4.88,3.61-9.66,7.61-14.36,11.54a3.67,3.67,0,0,1-.28.85c-.77,1.52-3.16,6.34-5.9,9.07A20,20,0,0,1,136,61.33a24.4,24.4,0,0,1-4.89,3.86c-9.44,5.93-20.29,1.1-24.88-7.54-1.78-1-3.58-2-5.35-3-.67-.4-1.35-.79-2-1.17-2.09.84-4.2,1.66-6.3,2.5,2.94-1.17-2.52,1.39-3.22,1.78-1.66.94-3.28,2-4.87,3a18.08,18.08,0,0,1-.39,2.43c-1.26,5.27-4.51,9.39-8.69,12.62-1.1.85-2.2,1.68-3.34,2.46l-.25.35c-4,5.39-9.29,10.85-15.1,14.23a38.15,38.15,0,0,1-7.24,3.08l-3.09.76L46.1,97c-1,1.14-2,2.28-3,3.38-4.41,4.77-9.94,8.63-15.45,12.05-3.68,2.28-7.48,4.35-11.23,6.52a2.74,2.74,0,0,1-.5,1.37C12.32,125.5,7.37,128.48,5,134.66a33.1,33.1,0,0,0-1.36,20.13c1.27,5.64,3,10.85,9.06,12.59a47.61,47.61,0,0,0,15.21,1.78c2-1.15,3.47-2.09,4.61-4A2.89,2.89,0,0,1,33.6,164a2.78,2.78,0,0,1,.48-1c1.31-1.74,3-3.06,4.37-4.69s2.17-2.93,4-3.78c3.2-1.44,7.1-.89,10.5-.84a2.77,2.77,0,0,1,2.06.86,3.07,3.07,0,0,1,1-.64,8,8,0,0,1,2.66-.59,2.88,2.88,0,0,1,.23-.74h0l.06-.15.1-.15a2.59,2.59,0,0,1,.55-.74,3,3,0,0,1,4.24,0,2.79,2.79,0,0,1,.74,1.29c.06-.46.18-.91.23-1.37.27-2.18,2.45-2.47,3.68-3.7a10.12,10.12,0,0,1,3.21-2.56c2.26-.84,1.44-2.76,1.87-4.22a1.25,1.25,0,0,0,0-.19,2.93,2.93,0,0,1-1.08,1.34,1,1,0,0,1-1.37-.36,1,1,0,0,1,.31-1.32h0l0,0h0l0,0,.09-.08,0-.08,0-.05a.89.89,0,0,0,.08-.17,2.42,2.42,0,0,0,.1-.36v0h0a2.45,2.45,0,0,0,0-.27c0-.13,0-.25,0-.38a.82.82,0,0,0,0-.21,1,1,0,0,0-.06-.25,1.55,1.55,0,0,0-.07-.23l0-.06a2,2,0,0,0-.24-.38.94.94,0,0,1,.08-1.1l0,.06a0,0,0,0,0,0,0,.72.72,0,0,1-.21.33.83.83,0,0,1-.32.2.75.75,0,0,1-.39.09,1.26,1.26,0,0,1-.33,0s0,0-.08,0a.68.68,0,0,1-.4,0l-.24-.1-.2-.15a.72.72,0,0,1-.21-.33.43.43,0,0,1-.07-.25.78.78,0,0,1,0-.4l.1-.24,0,0,.17-.23.15-.13-.15,0a4.73,4.73,0,0,0-2.18.44c-1.86,1.16-3.9,1.22-6,1.35a26,26,0,0,0-2.68.63,20,20,0,0,1-2.2.12,16.15,16.15,0,0,0-2.88.25c-.17,0-.08,1.11-.12,1.71,0,.32-.06.65-.09,1a10,10,0,0,1-.06,1.1c-.44,2.93,1.15,4.86,3.27,6.49.77.6,2.18,3.07,1.77,3.58a4.17,4.17,0,0,1-1.68,1.08c-.12.05-.52-.6-.79-.93-1-1.13-1.89-2.27-2.86-3.38-.51-.58-1.09-1.12-1.64-1.67-.16.75-.29,1.51-.51,2.24-.45,1.54-1.69,2.26-2.47,1.4a2.63,2.63,0,0,1-.18-1.93c.2-1,.6-2,.9-3a.68.68,0,0,0,0-.25,1.33,1.33,0,0,0-.28.1,18.11,18.11,0,0,0-6.34,5.84,1.87,1.87,0,0,1-1.42.77c-.4,0-1.1-.94-1-1.11a17.07,17.07,0,0,1,1.6-2,23.6,23.6,0,0,1,8.1-6.17c.54-.28.78-1.32.95-2.05a9.21,9.21,0,0,0,.26-2.95c0-.34-.84-.75-1.36-.88-2.38-.57-4.78-1.08-7.18-1.56-1.36-.27-1.94.62-2.28,1.72-.47,1.57-.94,3.15-1.32,4.75-1,4.23-1.8,8.52-3,12.69a35.94,35.94,0,0,1-3.31,7.39,50.91,50.91,0,0,1-4.22,6,1.1,1.1,0,0,1-1.85-.6c-.12-.67-.17-1.35-.25-2,.2-1.12-.48-1.33-1.31-1.19-2.28.4-4.56.81-6.82,1.3-2,.43-2.62-.27-2.13-2.42.55-2.45.89-4.94,1.31-7.42a1.89,1.89,0,0,0-.09-.5c-.16.1-.34.19-.49.3-1.32,1-2.5,2.39-4,3.07C9.94,159.9,8,158.47,8,155.52A21.32,21.32,0,0,1,10.24,146c1-2,1.87-4.06,2.7-6.14.75-1.87,1.23-3.87,2.06-5.7,1.07-2.34,2.41-4.56,3.58-6.85s3.61-3.67,5.56-5.35c.62-.53,1-1.32,1.68-1.77,1.09-.74,2.34-1.27,3.47-2a1.21,1.21,0,0,0,.46-1c-.37-1.77.38-2.3,2.17-2.27.9,0,1.87-1,2.72-1.64,1.71-1.32,3.36-2.71,5-4.1,1.41-1.18,2.79-2.4,4.18-3.61,1.88-1.63,3.73-3.29,5.64-4.9,2.2-1.85,4.42-3.7,6.7-5.46,1.33-1,2.83-1.83,4.18-2.84,2-1.52,3.93-3.25,6-4.67a51.28,51.28,0,0,1,5.32-2.87c2.8-1.45,5.64-2.83,8.41-4.36a4.74,4.74,0,0,0,1.38-1.76c.56-.94,1.05-1.93,1.54-2.9.7-1.39,1.42-2.77,2.07-4.19a16.47,16.47,0,0,1,4.82-6.2c2-1.59,3.8-3.74,6.61-4,1.59-.12,3.21.18,4.82.17,2.07,0,3.42,1.37,5,2.33,1.4.84,2.84,1.63,4.25,2.47.14.08.16.35.26.52a9.54,9.54,0,0,1,.49.87c.39,1,.69,2,1.14,2.92a1.35,1.35,0,0,0,.38.45s0-.09,0-.13a2.6,2.6,0,0,1-.05-.39l.1-.8a3,3,0,0,1,1.38-1.79,3.37,3.37,0,0,1,2.31-.31,2.39,2.39,0,0,1,1,.54,2.25,2.25,0,0,1,.78.84,5.16,5.16,0,0,1,.36.92,7.9,7.9,0,0,1,.12.85s0,.08,0,.12a5.8,5.8,0,0,1-.12,1c0,.1,0,.2-.07.3a3.21,3.21,0,0,1-1.38,1.79,3,3,0,0,1-2.31.3,2.27,2.27,0,0,1-1-.53,2.36,2.36,0,0,1-.78-.85,1.21,1.21,0,0,1-.09-.2h0a2,2,0,0,0,0,.6A36,36,0,0,0,114.44,77c.12.25.87.39,1.28.32a40.13,40.13,0,0,1,11.58-.48c1,.12,2-.48,3.06-.63.42-.06,1.27.16,1.28.31a3.44,3.44,0,0,1-.28,1.8c-.47.88-1.16,1.65-1.71,2.5-.11.18.11.58,0,.73-.5.61-1,1.17-1.61,1.73s-1,1-1.59,1.49c-.85.77-1.69,1.56-2.59,2.27-.24.19-.72,0-1,.19-2.21,1-4.4,2-6.59,3-.17.08-.24.36-.38.53s-.29.24-.43.37a1.26,1.26,0,0,0-.33.32h.1a2.22,2.22,0,0,1,.66-.11c2.57,0,2.57,4,0,4h0a1.94,1.94,0,0,1-.66.11c-2.08,0-2.48-2.62-1.19-3.61-1.25.27-1.5,1.28-1.84,2.32a45.23,45.23,0,0,1-2,5.14,11.17,11.17,0,0,1,4.23-1.07,13.31,13.31,0,0,1,1.7-.13,12,12,0,0,1,4,.67,20.4,20.4,0,0,1,5.64-2.5,21.58,21.58,0,0,1,4.43-3.5,2.77,2.77,0,0,1,2.08-2.43c4.21-1.22,3.34-7.11,7.8-8.32a13.37,13.37,0,0,1,9.08,1,4.63,4.63,0,0,1,2.09,6.29c4,.26,8.07.74,11.91,1,1.78.1,3.56.17,5.35.21a97.85,97.85,0,0,1,11.73-9c8.28-5.63,16.5-11.09,25.65-15l.55-1.17a42.62,42.62,0,0,1,2.23-7.58c.94-2.33,1.93-4.6,3-6.83.16-.56.32-1.11.47-1.68C213.81,42.63,217.43,33.36,215.36,26.71Z" transform="translate(-2.7 -20.24)"/><path d="M131.36,78.33a3.44,3.44,0,0,0,.28-1.8c0-.15-.86-.37-1.28-.31-1,.15-2.08.75-3.06.63a40.13,40.13,0,0,0-11.58.48c-.41.07-1.16-.07-1.28-.32a36,36,0,0,1-1.28-3.52,2,2,0,0,1,0-.6h0a2.12,2.12,0,0,1-.26-.91,2.15,2.15,0,0,1,0-.76,1.35,1.35,0,0,1-.38-.45c-.45-.94-.75-2-1.14-2.92a9.54,9.54,0,0,0-.49-.87c-.1-.17-.12-.44-.26-.52-1.41-.84-2.85-1.63-4.25-2.47-1.59-1-2.94-2.35-5-2.33-1.61,0-3.23-.29-4.82-.17-2.81.22-4.58,2.37-6.61,4a16.47,16.47,0,0,0-4.82,6.2c-.65,1.42-1.37,2.8-2.07,4.19-.49,1-1,2-1.54,2.9a4.74,4.74,0,0,1-1.38,1.76C77.34,82,74.5,83.41,71.7,84.86a51.28,51.28,0,0,0-5.32,2.87c-2.1,1.42-4,3.15-6,4.67-1.35,1-2.85,1.81-4.18,2.84-2.28,1.76-4.5,3.61-6.7,5.46-1.91,1.61-3.76,3.27-5.64,4.9-1.39,1.21-2.77,2.43-4.18,3.61-1.65,1.39-3.3,2.78-5,4.1-.85.65-1.82,1.65-2.72,1.64-1.79,0-2.54.5-2.17,2.27a1.21,1.21,0,0,1-.46,1c-1.13.7-2.38,1.23-3.47,2-.66.45-1.06,1.24-1.68,1.77-1.95,1.68-4.31,2.92-5.56,5.35s-2.51,4.51-3.58,6.85c-.83,1.83-1.31,3.83-2.06,5.7-.83,2.08-1.74,4.13-2.7,6.14A21.32,21.32,0,0,0,8,155.52c0,2.95,1.95,4.38,4.61,3.16,1.49-.68,2.67-2,4-3.07.15-.11.33-.2.49-.3a1.89,1.89,0,0,1,.09.5c-.42,2.48-.76,5-1.31,7.42-.49,2.15.08,2.85,2.13,2.42,2.26-.49,4.54-.9,6.82-1.3.83-.14,1.51.07,1.31,1.19.08.66.13,1.34.25,2a1.1,1.1,0,0,0,1.85.6,50.91,50.91,0,0,0,4.22-6,35.94,35.94,0,0,0,3.31-7.39c1.23-4.17,2-8.46,3-12.69.38-1.6.85-3.18,1.32-4.75.34-1.1.92-2,2.28-1.72,2.4.48,4.8,1,7.18,1.56.52.13,1.33.54,1.36.88a9.21,9.21,0,0,1-.26,2.95c-.17.73-.41,1.77-.95,2.05a23.6,23.6,0,0,0-8.1,6.17,17.07,17.07,0,0,0-1.6,2c-.09.17.61,1.06,1,1.11a1.87,1.87,0,0,0,1.42-.77,18.11,18.11,0,0,1,6.34-5.84,1.33,1.33,0,0,1,.28-.1.68.68,0,0,1,0,.25c-.3,1-.7,2-.9,3a2.63,2.63,0,0,0,.18,1.93c.78.86,2,.14,2.47-1.4.22-.73.35-1.49.51-2.24.55.55,1.13,1.09,1.64,1.67,1,1.11,1.91,2.25,2.86,3.38.27.33.67,1,.79.93a4.17,4.17,0,0,0,1.68-1.08c.41-.51-1-3-1.77-3.58-2.12-1.63-3.71-3.56-3.27-6.49a10,10,0,0,0,.06-1.1c0-.32.07-.65.09-1,0-.6,0-1.67.12-1.71a16.15,16.15,0,0,1,2.88-.25,20,20,0,0,0,2.2-.12,26,26,0,0,1,2.68-.63c2.08-.13,4.12-.19,6-1.35a4.73,4.73,0,0,1,2.18-.44l.15,0,.11-.07h0a1.12,1.12,0,0,1,.25-.11h0l.27,0c.11,0,.23-.11.35-.15h.09A.6.6,0,0,1,71,135c.64-.14,1.29-.26,1.93-.38.13,0,.27,0,.4,0-.09.09-.23.15-.27.26a3,3,0,0,0-.32,1.21,3.47,3.47,0,0,0,.13.46,1.36,1.36,0,0,1,.37.35,4.12,4.12,0,0,1,.71,2.62,3.81,3.81,0,0,1-.32,1.38,1.25,1.25,0,0,1,0,.19c-.43,1.46.39,3.38-1.87,4.22a10.12,10.12,0,0,0-3.21,2.56c-1.23,1.23-3.41,1.52-3.68,3.7,0,.46-.17.91-.23,1.37a.84.84,0,0,1,.05.17h0c.26.07.52.14.78.19a3.55,3.55,0,0,0,.46,0c.19,0,.37,0,.56,0-.1,0,.06-.05.26-.07l0,0a2.45,2.45,0,0,1,.8-.34c1-1.12,2-2.21,3-3.34.5-.55.94-1.15,1.42-1.72,0-.07.25-.12.27-.09a.8.8,0,0,1,.16.38c.11,2.4.16,4.8.34,7.18,0,.48.52.93.79,1.39.54-.45,1.47-.83,1.56-1.35.37-2.37.51-4.79.76-7.19,0-.13.34-.36.39-.33,1.63.95,3.2,2,4.9,2.83.53.26,1.41-.11,2.09-.33.12,0,.19-1,0-1.14A36.11,36.11,0,0,0,78.81,146c-1.61-.87-2.8-1.87-2.88-3.83a14.26,14.26,0,0,0-.4-4.27c-.47-1.26.27-2.75-.88-3.79,0,0,0-.17.08-.17a14.35,14.35,0,0,1,2.34-.34c.68,0,1.36.37,2.05.37s1.49,0,2.24-.07c.58-.14,1.2-.24,1.85-.35l1.57-.27h0a7.82,7.82,0,0,0-1.06.12c.36-.18.71-.38,1.07-.54.13-.06.29,0,.43-.06a11.18,11.18,0,0,0,2.18-.63c1.38-.72,2.62-1.82,4.07-2.3a16,16,0,0,1,2.48-.58c.37-.17.74-.33,1.11-.47a7.64,7.64,0,0,0,3.56-2.46c.81-1,.85-1.47,1.77-2.2a10.06,10.06,0,0,0,1-1.18,3.54,3.54,0,0,0,.67-1.23c.15-.77.08-1.57.21-2.34.23-1.38.54-2.74.81-4.1a4.88,4.88,0,0,0,.15-.85c.1-1.9.27-3.81.25-5.72a24.44,24.44,0,0,0-.52-3.47c-.25-1.59-.45-3.2-.76-4.79-.56-2.81-1.19-5.61-1.79-8.42,0-.12,0-.25,0-.38.12.11.29.2.35.34.23.56.37,1.16.65,1.69a27.89,27.89,0,0,1,1.95,3.49c.57,1.58-1.52,3.7-1.11,5.34.09.35.75,3.11.85,3.45l1.84-3,.61-.47.06,0c3.77-1.32,4.52-2.68,4.44-2.93s-1.49-.86-1.55-1.24c-.11-.74-3.68.83-3.81.1a18,18,0,0,0-.79-2.81c-.14-.39-.57-.67-.77-1-.32-.62-.5-1.3-.83-1.9s-.67-.81-1-1.25c-.53-.77-.94-1.63-1.54-2.34-.74-.86-1.62-1.59-2.43-2.39a6.07,6.07,0,0,1-.76-.84A22.21,22.21,0,0,0,93.85,82c-.91-.85-2.33-1.14-3.51-1.7-.78-.36-2.07-.61-2.22-1.17-.4-1.42-1.28-1.18-2.23-1.15-.12,0-.36-.23-.34-.3a16.12,16.12,0,0,1,.63-2c.52-1.21,1.41-2.36,1.54-3.6s1.44-1.28,1.33-2.34h0A5.7,5.7,0,0,0,90,69c.25-.32.33-.81.63-1.07,1-.92,2.18-1.7,3.18-2.64a6.39,6.39,0,0,1,6.16-1.79,19.9,19.9,0,0,1,5.56,2.57,10.35,10.35,0,0,1,3.61,3.4c1.1,2,1.39,4.43,2.47,6.44.69,1.28-1,2.83.72,3.75,0,0,0,.17,0,.26,0,.64-.06,1.29-.17,1.91-.48,2.58-.92,5.17-1.51,7.72a49.78,49.78,0,0,1-1.57,5,20.86,20.86,0,0,1-1.47,3.48c-.55,1-.3,1.66.56,1.92.56.17,1.71,0,1.9-.44a44.7,44.7,0,0,0,2.14-5.43c.34-1,.59-2.05,1.84-2.32a1.91,1.91,0,0,1,1.1-.38,1.26,1.26,0,0,1,.33-.32c.14-.13.3-.23.43-.37s.21-.45.38-.53c2.19-1,4.38-2,6.59-3,.31-.14.79,0,1-.19.9-.71,1.74-1.5,2.59-2.27.54-.49,1.08-1,1.59-1.49s1.11-1.12,1.61-1.73c.12-.15-.1-.55,0-.73C130.2,80,130.89,79.21,131.36,78.33ZM38.14,136.46c-.46,1.69-1.07,3.35-1.46,5.06-.87,3.76-1.55,7.56-2.49,11.3a23.88,23.88,0,0,1-1.88,4.4c-1,2.13-2.09,4.24-3.16,6.35a2.3,2.3,0,0,1-.35.42,2.4,2.4,0,0,1-.06-.7c.51-2.16,1.19-4.31,1.54-6.5.58-3.55,1-7.14,1.42-10.72a20.49,20.49,0,0,0,0-2.6c0-.07-.13-.19-.2-.18-.64,0-1.8,0-1.85.2a55.08,55.08,0,0,0-1.35,7.07,44.86,44.86,0,0,1-2.7,11.55.87.87,0,0,1-.57.47q-3.22.54-6.47,1c-.18,0-.62-.4-.6-.57.37-2.42.7-4.86,1.23-7.25.48-2.14,1.23-4.21,1.8-6.32a1.09,1.09,0,0,0-.3-1,1.29,1.29,0,0,0-1.19.1c-.58.64-.94,1.47-1.49,2.14-1.28,1.55-2.56,3.1-4,4.55a6.15,6.15,0,0,1-2.43,1.62c-1.44.46-1.14-.94-1.41-1.68a1.34,1.34,0,0,1,0-.49l-.45-.15c.83-2.51,1.59-5,2.52-7.51,1.09-2.93,2.28-5.83,3.52-8.71a79.86,79.86,0,0,1,4.4-9.52c1.15-1.91,3.18-3.3,4.86-4.87a20.17,20.17,0,0,1,2.32-1.79c.15-.11.48,0,.72.07.41.11.82.26,1.23.4.05-.5.1-1,.17-1.5,0-.27,0-.64.16-.77s.92-.44,1-.36c1,1.56,2.32,2.93,2.72,4.93a18.41,18.41,0,0,0,2,5.27,8.56,8.56,0,0,0,2.79,3.09C40.17,134.48,38.42,135.41,38.14,136.46ZM85.85,80.94a1.15,1.15,0,0,1,.28.06l0,0c.06-.06.71.52,1.14.67s.87,0,1.29.15.52.36.81.5c.71.35,1.47.64,2.16,1a10.4,10.4,0,0,1,1.13,1,18.43,18.43,0,0,1,5.74,9.22A41.18,41.18,0,0,1,100,99.36c.38,2.46.4,5,.63,7.45.06.65.44,1.28.48,1.93a23.5,23.5,0,0,1,.07,5.23,35.39,35.39,0,0,1-2,7.3,10.59,10.59,0,0,1-2.82,3.41c-2.41,2.22-5.47,2.88-8.59,3.47-2.58.5-5.12,1.2-7.65,1.92-4.73,1.33-9.39,3-14.16,4.06a108.65,108.65,0,0,1-11,1.56c-.32,0-.68-.2-1-.31a3.32,3.32,0,0,0,.61-.5c.24-.29.67-.82.59-.93a3.39,3.39,0,0,0-1.15-.89,3.22,3.22,0,0,0-1-.17c-1.42-.24-1.41.75-1.52,1.68,0,.18-.38.49-.52.46-2.31-.47-4.66-.83-6.9-1.52-3.28-1-5.89-2.93-7.15-6.32-.78-2.09-1.63-4.16-2.46-6.25a.65.65,0,0,0-.16-.21c-1.64-1.46-1-2,.18-3.78a11.3,11.3,0,0,0,.52-1.52,2.82,2.82,0,0,1,.74-1c.93-.82,1.89-1.61,2.86-2.37,2.33-1.84,4.71-3.62,7-5.5,1.55-1.28,3-2.73,4.49-4,2.37-2,4.72-4,7.2-5.86,1.66-1.23,3.57-2.12,5.28-3.29,1.06-.73,1.92-1.74,2.95-2.51s2.21-1.48,3.34-2.2c.88-.56,1.74-1.17,2.66-1.65,1.11-.58,2.26-1,3.4-1.55,1.57-.7,3.16-1.36,4.71-2.1.66-.32,1.25-.77,1.89-1.14,0,0,0,0,0,0,.37.87,2.19-.64,3.84-1.14A1,1,0,0,1,85.85,80.94Zm41.09-.69A21.59,21.59,0,0,1,117,87.41c-.89.3-1.77.62-2.68.84-.14,0-.58-.42-.55-.6.38-2.55.8-5.09,1.24-7.63a1.26,1.26,0,0,1,.36-.56c1.57,0,2.77,0,4,0s2.48.3,3.72.32,2.39-.14,3.58-.2c.15,0,.4.08.43.17A.65.65,0,0,1,126.94,80.25Z" transform="translate(-2.7 -20.24)"/><path d="M213.6,34.49c-.19-2.26-.62-4.62-2.36-6.39-.56-.56-1.22-1-1.77-1.6-1.16-1.19-2.21-2.48-3.44-3.58a8.78,8.78,0,0,0-1.35-1,2.88,2.88,0,0,1-.84,0l-.52-.05.06.09a1.8,1.8,0,0,1-.45.09c-1.62-.12-3.23-.25-4.85-.39-4.45-.37-8.91-.91-13.37-1.07-3.17-.12-6.36.26-9.78.43l-.52-.07a32.52,32.52,0,0,0-5.87,1.72c-.21.12-.4.24-.61.34a9.83,9.83,0,0,1-1.31.5c-.58.28-1.15.59-1.72.91-1.58,1.47-2.94,3.18-4.4,4.78-.74.8-1.54,1.55-2.22,2.4-.94,1.16-1.82,2.37-2.66,3.6s-1.56,2.49-2.35,3.73c-1.69,2.63-3.49,5.19-5,7.89-.87,1.52-2.09,3-1.56,5a3.24,3.24,0,0,1,.11,1.38c-.62,3.34-1.37,6.65-1.91,10-.14.91-.41,1.46-.92,1.67l-.27.33a5.64,5.64,0,0,1-.56.53c-.28.22-.56.43-.85.62s-.59.52-.72.73c-.89,1.48-2,2.85-2.87,4.31s-1.76,3.22-2.86,4.67c-.84,1.12-.91,1.79.43,2.38.08,0,.13.21.12.32,0,.37-.26,1-.12,1.06a4.83,4.83,0,0,0,1.86.88,25.05,25.05,0,0,0,2.6,0c1.65.07,3.21.67,4.88.72a12.57,12.57,0,0,1,3.71.8c.61.22,1,1,1.59,1.38a3.68,3.68,0,0,0,3.32.51c2-.49,4.17-.47,6.23-.87,3.19-.6,6.36-1.36,9.53-2.09a20.79,20.79,0,0,0,4.68-1.32c2.06-1.05,3.92-2.5,5.88-3.75a12.32,12.32,0,0,0,2.75-1.68c1.9-2.18,3.45-4.64,6.1-6.13a26.57,26.57,0,0,0,4.1-3.28,51.12,51.12,0,0,0,3.8-3.55c2-2.11,3.94-4.26,5.8-6.49,2.29-2.74,5.34-4.74,7.26-7.87a9.09,9.09,0,0,0,1.61-4,38.25,38.25,0,0,1,.66-4.09C212.93,37.55,213.72,36,213.6,34.49Zm-3.16,3.57c-.46,1.92-1,3.83-1.42,5.75-.59,2.45-2.37,4.1-4,5.85-2.76,3.06-5.61,6.05-8.49,9-1.6,1.64-3.31,3.19-5.05,4.68s-3.72,2.88-5.47,4.44c-1.57,1.4-2.87,3.1-4.47,4.45a36.54,36.54,0,0,1-6.65,4.84,38.71,38.71,0,0,1-8.21,2.77c-3.09.77-6.26,1.2-9.4,1.75-.15,0-.51-.21-.5-.31.08-1.76-.35-2.13-2.16-2.07-1.17,0-2.34-.15-3.51-.21-1.7-.09-3.42,0-5.1-.26-2.24-.3-4.46-.77-6.67-1.24a1,1,0,0,1-.38-.88,72.41,72.41,0,0,1,3.44-6.6,10.68,10.68,0,0,1,2.2-2.41c.46-.56.92-1.11,1.36-1.67a10.87,10.87,0,0,0,1.05-1.64,3.13,3.13,0,0,0,.16-.52,1.46,1.46,0,0,1,.36-.71c.22-2.13.45-4.26.8-6.38a43.49,43.49,0,0,1,1.49-7.19A30.28,30.28,0,0,1,153,43.85c.65-1.05,1.58-1.93,2.28-3s1.21-2.13,1.84-3.19c.11-.18.37-.27.56-.41a2.78,2.78,0,0,1,.06.64,30.7,30.7,0,0,0-.6,5.1,20.22,20.22,0,0,0,.54,3.43,3.13,3.13,0,0,1,.68.68,9.33,9.33,0,0,1,.78,1.32.41.41,0,0,1,.12.11c.26.36.53.73.76,1.11a4.18,4.18,0,0,0,.65.85,2.36,2.36,0,0,0,1.49.26,17.35,17.35,0,0,0,2.15-.41c1.53-.57,3.13-1,4.67-1.53.32-.11.52-.72.65-1.15a3.88,3.88,0,0,0,0-1.23c0-.11-.17-.33-.22-.31a7.53,7.53,0,0,0-1.4.42,23.31,23.31,0,0,1-3.46,1.66c-2.79.73-2.82.64-4-2.22-.45-1.11-1.24-2.25-1.19-3.34,0-.77-.06-1.6,0-2.41a6.39,6.39,0,0,1,0-1.9,5.7,5.7,0,0,1,1.26-2.5,8.68,8.68,0,0,1,1.88-1.69l.17-.27a.8.8,0,0,1,.29-.26c.26-.14.52-.25.78-.37a1.86,1.86,0,0,1,1.34-.52h.1a2.14,2.14,0,0,1,.62.06,1.51,1.51,0,0,1,.14-.35c.21-.42.48-.8.73-1.2a7.19,7.19,0,0,0-1.55-.3c-.86,0-1.71.2-2.56.3a1.73,1.73,0,0,1-.45-.05,2.23,2.23,0,0,1,.21-.44,18.27,18.27,0,0,1,8.32-6.55,25.32,25.32,0,0,1,8.39-1.38,76.07,76.07,0,0,1,7.7,0c5.13.3,10.24.72,15.36,1.16,1.26.11,2.81.14,3.69.86,2.95,2.4,5.09,5.46,5.38,9.38A13.13,13.13,0,0,1,210.44,38.06Z" transform="translate(-2.7 -20.24)"/><path d="M102.82,72.86c.23,1.61.05,3.12-1.3,4a3.42,3.42,0,0,1-2.73.62,2.26,2.26,0,0,1-1.36-2.87c.41-1.77,1.76-2.48,2.89-3.45a2,2,0,0,1,1.83,0C102.56,71.46,102.61,72.28,102.82,72.86Z" transform="translate(-2.7 -20.24)"/><path class="cls-3" d="M81.49,82.26c-.64.37-1.23.82-1.89,1.14-1.55.74-3.14,1.4-4.71,2.1-1.14.5-2.29,1-3.4,1.55-.92.48-1.78,1.09-2.66,1.65-1.13.72-2.28,1.4-3.34,2.2s-1.89,1.78-2.95,2.51c-1.71,1.17-3.62,2.06-5.28,3.29-2.48,1.85-4.83,3.86-7.2,5.86-1.53,1.3-2.94,2.75-4.49,4-2.29,1.88-4.67,3.66-7,5.5-1,.76-1.93,1.55-2.86,2.37a2.82,2.82,0,0,0-.74,1,11.3,11.3,0,0,1-.52,1.52c-1.21,1.78-1.82,2.32-.18,3.78a.65.65,0,0,1,.16.21c.83,2.09,1.68,4.16,2.46,6.25,1.26,3.39,3.87,5.3,7.15,6.32,2.24.69,4.59,1.05,6.9,1.52.14,0,.49-.28.52-.46.11-.93.1-1.92,1.52-1.68a3.22,3.22,0,0,1,1,.17,3.39,3.39,0,0,1,1.15.89c.08.11-.35.64-.59.93a3.32,3.32,0,0,1-.61.5c.34.11.7.35,1,.31a108.65,108.65,0,0,0,11-1.56c4.77-1.11,9.43-2.73,14.16-4.06,2.53-.72,5.07-1.42,7.65-1.92,3.12-.59,6.18-1.25,8.59-3.47a10.59,10.59,0,0,0,2.82-3.41,35.39,35.39,0,0,0,2-7.3,23.5,23.5,0,0,0-.07-5.23c0-.65-.42-1.28-.48-1.93-.23-2.48-.25-5-.63-7.45a41.18,41.18,0,0,0-1.55-5.81,18.43,18.43,0,0,0-5.74-9.22,10.4,10.4,0,0,0-1.13-1c-.69-.4-1.45-.69-2.16-1-.29-.14-.52-.42-.81-.5s-.89,0-1.29-.15-1.08-.73-1.14-.67l0,0M80.6,111.14a7.33,7.33,0,0,1-.38,1.57c-.25.94-.51,1.88-.79,2.81a3.91,3.91,0,0,1-.26.44c-.19.44-.37.88-.54,1.33-.08.19-.08.45-.21.58-.56.54-1.16,1-1.73,1.57a12,12,0,0,1-2.16,2.06c-2.49,1.37-5,2.63-7.64,3.8-2,.92-4.18,1.69-6.31,2.41a12.74,12.74,0,0,1-2.56.37,13,13,0,0,0-1.68-.06,3.26,3.26,0,0,0-.9.44,1,1,0,0,1-.33.14c-.57.05-2.44-2-2.39-2.51a16.53,16.53,0,0,1,.3-3.55,20,20,0,0,1,1.94-4c1-1.7,2.06-3.35,3.19-5,2.66-3.83,5.29-7.71,8.12-11.41.82-1.07,2.32-1.61,3.49-2.42.09-.06.12-.3.1-.45-.12-.86-.25-1.71-.37-2.56a.6.6,0,0,1,.29-.06,9,9,0,0,1,1.26.23,10.78,10.78,0,0,1,1,.46,14.83,14.83,0,0,0,3.2,1.3c1.07.16,1.22.93,1.64,1.57s.77,1.31,1.16,2c0,.08.18.09.28.13s.1-.16.08-.22a21.79,21.79,0,0,0-.56-2.42c-.49-1.42-1.78-1.88-3-2.44A12.49,12.49,0,0,1,73,95.92a.19.19,0,0,1,0-.08c.19,0,.43-.13.57-.06,1,.53,2,1.11,3.06,1.64a3.83,3.83,0,0,0,.69.14c.36.12,1,.2,1,.43.5,1.61.86,3.25,1.32,4.88.37,1.33.93,2.63,1.18,4,.13.68-.33,1.44-.37,2.17S80.62,110.43,80.6,111.14Z" transform="translate(-2.7 -20.24)"/><path class="cls-4" d="M9.76,154.49c.83-2.51,1.59-5,2.52-7.51,1.09-2.93,2.28-5.83,3.52-8.71a79.86,79.86,0,0,1,4.4-9.52c1.15-1.91,3.18-3.3,4.86-4.87a20.17,20.17,0,0,1,2.32-1.79c.15-.11.48,0,.72.07.41.11.82.26,1.23.4.05-.5.1-1,.17-1.5,0-.27,0-.64.16-.77s.92-.44,1-.36c1,1.56,2.32,2.93,2.72,4.93a18.41,18.41,0,0,0,2,5.27,8.56,8.56,0,0,0,2.79,3.09c2,1.26.24,2.19,0,3.24-.46,1.69-1.07,3.35-1.46,5.06-.87,3.76-1.55,7.56-2.49,11.3a23.88,23.88,0,0,1-1.88,4.4c-1,2.13-2.09,4.24-3.16,6.35a2.3,2.3,0,0,1-.35.42,2.4,2.4,0,0,1-.06-.7c.51-2.16,1.19-4.31,1.54-6.5.58-3.55,1-7.14,1.42-10.72a20.49,20.49,0,0,0,0-2.6c0-.07-.13-.19-.2-.18-.64,0-1.8,0-1.85.2a55.08,55.08,0,0,0-1.35,7.07,44.86,44.86,0,0,1-2.7,11.55.87.87,0,0,1-.57.47q-3.22.54-6.47,1c-.18,0-.62-.4-.6-.57.37-2.42.7-4.86,1.23-7.25.48-2.14,1.23-4.21,1.8-6.32a1.09,1.09,0,0,0-.3-1,1.29,1.29,0,0,0-1.19.1c-.58.64-.94,1.47-1.49,2.14-1.28,1.55-2.56,3.1-4,4.55a6.15,6.15,0,0,1-2.43,1.62c-1.44.46-1.14-.94-1.41-1.68a1.34,1.34,0,0,1,0-.49Z" transform="translate(-2.7 -20.24)"/><path class="cls-5" d="M115.38,79.46c1.57,0,2.77,0,4,0s2.48.3,3.72.32,2.39-.14,3.58-.2c.15,0,.4.08.43.17a.65.65,0,0,1-.14.49A21.59,21.59,0,0,1,117,87.41c-.89.3-1.77.62-2.68.84-.14,0-.58-.42-.55-.6.38-2.55.8-5.09,1.24-7.63A1.26,1.26,0,0,1,115.38,79.46Z" transform="translate(-2.7 -20.24)"/><path class="cls-2" d="M171.85,47.4a1,1,0,0,1-.47-.46c-.67-1.71-1.11-3.5-1.69-5.25a.83.83,0,0,0-.68-.33c-1,.12-2.07.38-3.12.41-.33,0-.69-.49-1-.75a5.24,5.24,0,0,1,1-.66c.74-.28,1.49-.52,2.24-.78a2.91,2.91,0,0,1-.31,0l-.53-.08a1.59,1.59,0,0,1-.2-.07A2,2,0,0,1,165.61,37c-.38.24-.75.48-1.11.74a7.59,7.59,0,0,0-.86.84c-.07.12-.14.23-.2.35s-.09.29-.13.44,0,.25,0,.37a4.52,4.52,0,0,0,.22.8,2,2,0,0,1-2.94,2.26,2.14,2.14,0,0,1-.92-1.19,6.71,6.71,0,0,1-.3-1.31c-.06.81,0,1.64,0,2.41,0,1.09.74,2.23,1.19,3.34,1.19,2.86,1.22,3,4,2.22A23.31,23.31,0,0,0,168,46.57a7.53,7.53,0,0,1,1.4-.42c.05,0,.21.2.22.31a3.88,3.88,0,0,1,0,1.23c-.13.43-.33,1-.65,1.15-1.54.57-3.14,1-4.67,1.53a14.8,14.8,0,0,1,5.47-.76,3.15,3.15,0,0,1,1.58.66A3.2,3.2,0,0,1,171.85,47.4Z" transform="translate(-2.7 -20.24)"/><path class="cls-2" d="M211.22,34.24c-.29-3.92-2.43-7-5.38-9.38-.88-.72-2.43-.75-3.69-.86-5.12-.44-10.23-.86-15.36-1.16a76.07,76.07,0,0,0-7.7,0,25.32,25.32,0,0,0-8.39,1.38,18.27,18.27,0,0,0-8.32,6.55,2.23,2.23,0,0,0-.21.44,1.73,1.73,0,0,0,.45.05c.85-.1,1.7-.27,2.56-.3a7.19,7.19,0,0,1,1.55.3c-.25.4-.52.78-.73,1.2a1.51,1.51,0,0,0-.14.35,2.2,2.2,0,0,1,1.22.92,1.85,1.85,0,0,1,.21.48,2.33,2.33,0,0,1,.38,0,1.82,1.82,0,0,1,1.78,1.18c-.06-1.41-.11-2.82-.06-4.23,0-.38.75-.94,1.22-1s.86.47,1.29.74a2.39,2.39,0,0,0-.36.85,1.09,1.09,0,0,1,.65-.27,1,1,0,0,1,1,1,1.87,1.87,0,0,1,.88-.2c2.28,0,2.54,3.11.79,3.84a4.66,4.66,0,0,1,1-.19c.26,0,.76.27.75.39,0,.41-.11,1-.38,1.17-.79.46-1.7.76-2.5,1.2a2.8,2.8,0,0,1,3.75,2,31.09,31.09,0,0,1,.41,4c.08.66.34,1.29.46,1.95a4.71,4.71,0,0,1-2.69,5.41,3.19,3.19,0,0,1-3.3-.18c.68,1.85-.17,4.2-2.62,3.9-3.69-.45-7,2-10.79.88-3.32-1-4-3.85-5.81-6.33-2.07-2.84,2-5.55,4.5-3.71a20.22,20.22,0,0,1-.54-3.43,30.7,30.7,0,0,1,.6-5.1,2.78,2.78,0,0,0-.06-.64c-.19.14-.45.23-.56.41-.63,1.06-1.16,2.18-1.84,3.19s-1.63,1.92-2.28,3a30.28,30.28,0,0,0-3.12,5.64,43.49,43.49,0,0,0-1.49,7.19c-.35,2.12-.58,4.25-.8,6.38a2.59,2.59,0,0,1,.56-.49,2.06,2.06,0,0,1,1.54-.2,2,2,0,0,1,1.19.92,2.18,2.18,0,0,1,.21,1.54,5.5,5.5,0,0,1-.66,1.67,12.91,12.91,0,0,1-.85,1.32c-.7,1-1.46,1.84-2.21,2.75a1.94,1.94,0,0,1-1.41.58,2,2,0,0,1-1.41-.58,2,2,0,0,1-.59-1.42,2.14,2.14,0,0,1,.59-1.41.76.76,0,0,1,.11-.14,10.68,10.68,0,0,0-2.2,2.41,72.41,72.41,0,0,0-3.44,6.6,1,1,0,0,0,.38.88c2.21.47,4.43.94,6.67,1.24,1.68.22,3.4.17,5.1.26,1.17.06,2.34.25,3.51.21,1.81-.06,2.24.31,2.16,2.07,0,.1.35.33.5.31,3.14-.55,6.31-1,9.4-1.75a38.71,38.71,0,0,0,8.21-2.77,36.54,36.54,0,0,0,6.65-4.84c1.6-1.35,2.9-3,4.47-4.45,1.75-1.56,3.69-2.91,5.47-4.44s3.45-3,5.05-4.68c2.88-2.94,5.73-5.93,8.49-9,1.58-1.75,3.36-3.4,4-5.85.45-1.92,1-3.83,1.42-5.75A13.13,13.13,0,0,0,211.22,34.24Zm-19.5,4.55c-2.65,1.29-5.34,2.5-8,3.8-1.5.74-2.42.26-2.64-1.37a22.43,22.43,0,0,0-.77-3.62c-1.08-3.52-2.23-7-3.36-10.54-.09-.29-.34-.57-.33-.84a3.47,3.47,0,0,1,.33-1.33c.79.05,1.59-.24,2,1.1.74,2.68,1.92,5.24,2.83,7.88.64,1.83,1.12,3.73,1.69,5.58a.5.5,0,0,0,.46.21c1.31-.55,2.58-1.17,3.89-1.71a23.19,23.19,0,0,1,3.53-1.25c.35-.08.86.54,1.48,1C192.27,38.23,192.05,38.63,191.72,38.79Z" transform="translate(-2.7 -20.24)"/><path d="M58,128.08a13,13,0,0,0-1.68-.06,3.26,3.26,0,0,0-.9.44,1,1,0,0,1-.33.14c-.57.05-2.44-2-2.39-2.51a16.53,16.53,0,0,1,.3-3.55,20,20,0,0,1,1.94-4c1-1.7,2.06-3.35,3.19-5,2.66-3.83,5.29-7.71,8.12-11.41.82-1.07,2.32-1.61,3.49-2.42.09-.06.12-.3.1-.45-.12-.86-.25-1.71-.37-2.56a.6.6,0,0,1,.29-.06,9,9,0,0,1,1.26.23,10.78,10.78,0,0,1,1,.46,14.83,14.83,0,0,0,3.2,1.3c1.07.16,1.22.93,1.64,1.57s.77,1.31,1.16,2c0,.08.18.09.28.13s.1-.16.08-.22a21.79,21.79,0,0,0-.56-2.42c-.49-1.42-1.78-1.88-3-2.44A12.49,12.49,0,0,1,73,95.92a.19.19,0,0,1,0-.08c.19,0,.43-.13.57-.06,1,.53,2,1.11,3.06,1.64a3.83,3.83,0,0,0,.69.14c.36.12,1,.2,1,.43.5,1.61.86,3.25,1.32,4.88.37,1.33.93,2.63,1.18,4,.13.68-.33,1.44-.37,2.17s.2,1.41.18,2.12a7.33,7.33,0,0,1-.38,1.57c-.25.94-.51,1.88-.79,2.81a3.91,3.91,0,0,1-.26.44c-.19.44-.37.88-.54,1.33-.08.19-.08.45-.21.58-.56.55-1.16,1-1.73,1.57a12,12,0,0,1-2.16,2.06c-2.49,1.37-5,2.63-7.64,3.8-2,.92-4.18,1.69-6.31,2.41A12.74,12.74,0,0,1,58,128.08Zm5.58-4.55a16.46,16.46,0,0,0,2.46-.42c2.66-1,5.47-1.57,7.63-3.68C75,118.15,76.14,116.92,76,115a.46.46,0,0,1,.09-.3c.26-.32.67-.59.79-1s0-1.16.21-1.68a8.38,8.38,0,0,0-.07-5.92,23.27,23.27,0,0,0-2-4.31c-.49-.79-1.8-2-2.15-1.79a29,29,0,0,0-5.68,3.67,19,19,0,0,0-2.79,3.73c-1.58,2.22-3.16,4.43-4.67,6.68-.3.46-.18,1.19-.47,1.65-.74,1.18-1.61,2.27-2.4,3.41-.25.37-.36.83-.61,1.19A12,12,0,0,0,55.1,122c-.13.32.37.87.3,1.25a2.3,2.3,0,0,0,2.71,2.93.34.34,0,0,0,.12-.27c-.28-.68-.58-1.35-.85-2,0-.09,0-.23,0-.34a1.07,1.07,0,0,1,.25.22c.86,1.16,2,1,3.2.73S63,123.74,63.6,123.53Z" transform="translate(-2.7 -20.24)"/><path d="M175.89,35.85a4.66,4.66,0,0,0-1,.19l-.11,0a9,9,0,0,1-2.18,1.18.94.94,0,0,1-.87-.18,1,1,0,0,1-.4-.79c-.1-1.28-.11-2.57-.11-3.86a1,1,0,0,1,.35-.73,2.39,2.39,0,0,1,.36-.85c-.43-.27-.91-.8-1.29-.74s-1.21.64-1.22,1c0,1.41,0,2.82.06,4.23a2.29,2.29,0,0,1,.14.68.36.36,0,0,1,0,.09,1.7,1.7,0,0,1,.1.32c0,.22.07.45.09.67a1,1,0,0,1,0,.17.88.88,0,0,1,0,.17,4.1,4.1,0,0,1-.1.69,1.91,1.91,0,0,1-.51.88l-.25.19h0l-.15.11a2,2,0,0,1-.7.24c-.75.26-1.5.5-2.24.78a5.24,5.24,0,0,0-1,.66c.35.26.71.77,1,.75,1.05,0,2.08-.29,3.12-.41a.83.83,0,0,1,.68.33c.58,1.75,1,3.54,1.69,5.25a1,1,0,0,0,.47.46,2.14,2.14,0,0,1,.42-.43c0-.26-.08-.51-.1-.62-.29-1.38-.09-2.84-.44-4.19a2.94,2.94,0,0,1,0-1.56,2,2,0,0,1,0-.24c-.05-.21.29-.49.45-.74a.3.3,0,0,0,0,.1,3.24,3.24,0,0,1,1.61-1.11c.8-.44,1.71-.74,2.5-1.2.27-.16.36-.76.38-1.17C176.65,36.12,176.15,35.85,175.89,35.85Z" transform="translate(-2.7 -20.24)"/><path d="M192.81,37.67c-.54.56-.76,1-1.09,1.12-2.65,1.29-5.34,2.5-8,3.8-1.5.74-2.42.26-2.64-1.37a22.43,22.43,0,0,0-.77-3.62c-1.08-3.52-2.23-7-3.36-10.54-.09-.29-.34-.57-.33-.84a3.47,3.47,0,0,1,.33-1.33c.79.05,1.59-.24,2,1.1.74,2.68,1.92,5.24,2.83,7.88.64,1.83,1.12,3.73,1.69,5.58a.5.5,0,0,0,.46.21c1.31-.55,2.58-1.17,3.89-1.71a23.19,23.19,0,0,1,3.53-1.25C191.68,36.62,192.19,37.24,192.81,37.67Z" transform="translate(-2.7 -20.24)"/><path class="cls-6" d="M63.6,123.53c-.61.21-1.65.62-2.73.92s-2.34.43-3.2-.73a1.07,1.07,0,0,0-.25-.22c0,.11-.08.25,0,.34.27.68.57,1.35.85,2a.34.34,0,0,1-.12.27,2.3,2.3,0,0,1-2.71-2.93c.07-.38-.43-.93-.3-1.25a12,12,0,0,1,1.2-1.64c.25-.36.36-.82.61-1.19.79-1.14,1.66-2.23,2.4-3.41.29-.46.17-1.19.47-1.65,1.51-2.25,3.09-4.46,4.67-6.68a19,19,0,0,1,2.79-3.73A29,29,0,0,1,72.92,100c.35-.17,1.66,1,2.15,1.79a23.27,23.27,0,0,1,2,4.31A8.38,8.38,0,0,1,77.1,112c-.2.52,0,1.16-.21,1.68s-.53.64-.79,1a.46.46,0,0,0-.09.3c.13,2-1,3.2-2.32,4.48-2.16,2.11-5,2.72-7.63,3.68A16.46,16.46,0,0,1,63.6,123.53Z" transform="translate(-2.7 -20.24)"/></g></svg>