<?xml version="1.0" encoding="utf-8"?>
<!-- Generator: Adobe Illustrator 26.3.1, SVG Export Plug-In . SVG Version: 6.00 Build 0)  -->
<svg version="1.1" id="Layer_1" xmlns="http://www.w3.org/2000/svg" xmlns:xlink="http://www.w3.org/1999/xlink" x="0px" y="0px"
	 viewBox="0 0 216 216" style="enable-background:new 0 0 216 216;" xml:space="preserve">
<style type="text/css">
	.st0{fill:#FFF100;}
	.st1{fill:#EC297B;}
	.st2{fill:#FBB040;}
</style>
<path d="M119.62,82.87c2.37-2.16,4.42-4.31,6.74-6.1c7.64-5.88,14.4-2.85,15.55,6.95c0.34,2.89,0.33,5.82,0.52,9.53
	c3.37,0.05,6.24-0.06,9.09,0.15c7.67,0.57,11.32,5.89,8.93,13.13c-0.69,2.08-2.01,3.95-2.84,5.53c2.82,2.6,5.9,4.76,8.1,7.6
	c4.79,6.16,3.72,10.8-2.9,14.62c-1.59,0.92-3.34,1.58-5.49,2.59c1.19,2.29,2.53,4.38,3.4,6.64c2.2,5.74,0.12,9.55-6.08,10.35
	c-3.22,0.42-6.68,0.02-9.88-0.72c-4.63-1.07-9.1-2.78-14.52-4.5c-0.08,2.43-0.28,4.15-0.17,5.84c0.56,8.93,1.22,17.84,1.79,26.77
	c0.07,1.1,0.12,2.35-0.33,3.28c-0.43,0.89-1.47,1.93-2.34,2.03c-0.89,0.1-2.5-0.66-2.75-1.4c-0.81-2.41-1.45-4.96-1.6-7.49
	c-0.39-6.67-0.48-13.35-0.71-20.95c-2.83,0.68-4.83,1.04-6.74,1.66c-2.46,0.8-4.78,2.2-7.28,2.67c-8.12,1.53-13.27-2.68-12.95-10.87
	c0.15-4.02,1.43-8,2.34-12.7c-4.32-3.68-9.78-7.09-10.38-14.3c-0.56-6.78,3.19-11.13,7.66-15.31c-3.17-7.79-3.04-15.07,2.5-21.24
	C104.89,80.42,111.93,79.4,119.62,82.87z M114.34,121.08c1.08,12.31,2.32,13.36,12.74,11.35c0.36-2.33,0.58-4.82,1.21-7.21
	c0.21-0.78,1.54-1.79,2.3-1.75c0.77,0.04,1.52,1.23,2.18,2c0.62,0.73,1.12,1.57,1.91,2.71c1.23-1.44,2.38-2.42,3.07-3.67
	c2.46-4.42,1.75-6.49-2.76-8.82c-1.62-0.84-3.05-1.1-5.09-0.8c-4.27,0.63-6.12-1.32-6.12-5.46c0-2.03,0.43-4.07,0.72-6.64
	c-7.45,4.05-7.47,4.06-9.15,6.97c-1.07,1.86-0.22,3.74,2.23,4.82c0.31,0.14,0.91-0.16,1.07,0.02c0.91,1.04,2.39,2.16,2.39,3.24
	c0,0.93-1.62,2.07-2.76,2.69C117.4,121.04,116.15,120.88,114.34,121.08z M111.1,135.94c-5.38,4.79-7.9,9.42-7.59,15.43
	c0.15,2.92,2.46,4.55,5.39,3.73c5.5-1.55,9.77-4.91,13.31-8.55C122.62,138.19,115.2,139.8,111.1,135.94z M119.01,96.06
	c-0.82-1.85-1.41-3.19-2-4.53c-2.34-5.25-7.34-5.14-10.98-1.79c-1.83,1.69-3.18,4.08-4.22,6.4c-1.11,2.47-0.96,5.4,0.93,7.36
	c1.35,1.41,3.67,1.9,5.4,2.72C111.86,102.74,115.09,99.71,119.01,96.06z M154.41,146.69c-4.87-6.76-4.87-6.76-15.66-12.57
	c-1.69,1.3-3.57,2.75-5.97,4.61C138.27,146.51,145.27,147.62,154.41,146.69z M106.94,127.94c-0.19-4.71,1.04-9.41-0.81-13.78
	c-3.95-1.11-6.65,0.42-8.14,3.02c-1.19,2.07-1.48,4.84-1.55,7.32c-0.04,1.26,0.97,2.97,2.04,3.76
	C100.64,129.83,103.19,130.25,106.94,127.94z M161.31,126.38c-4.26-6.19-4.26-6.22-11.59-7.63c-0.55-0.11-1.25,0.59-2.41,1.18
	c-0.56,2.69-1.19,5.74-1.99,9.6C151.22,129.63,156.27,130.76,161.31,126.38z M134.47,93.32c0.56-3.94,1.8-8.06-0.88-12.55
	c-6.22,1.9-7.91,6.43-9.08,11.88C127.68,94.41,130.69,94.97,134.47,93.32z M152.61,100.72c-1.55-0.09-3.39-0.53-5.07-0.17
	c-1.2,0.25-3.06,1.59-3.05,2.42c0.02,1.63,0.8,3.58,1.94,4.75c0.63,0.65,2.78,0.41,3.92-0.12
	C152.99,106.35,154.01,104.15,152.61,100.72z M130.58,111.14c3.44-2.68,5.03-3.93,6.76-5.27
	C133.14,102.78,133.14,102.78,130.58,111.14z"/>
<path class="st0" d="M114.34,121.08c1.81-0.21,3.06-0.04,3.96-0.53c1.14-0.62,2.76-1.77,2.76-2.69c0-1.09-1.47-2.21-2.39-3.24
	c-0.16-0.18-0.77,0.11-1.07-0.02c-2.45-1.09-3.3-2.96-2.23-4.82c1.67-2.91,1.69-2.93,9.15-6.97c-0.29,2.57-0.72,4.6-0.72,6.64
	c0,4.14,1.84,6.1,6.12,5.46c2.03-0.3,3.47-0.04,5.09,0.8c4.51,2.33,5.22,4.4,2.76,8.82c-0.69,1.25-1.85,2.23-3.07,3.67
	c-0.79-1.14-1.29-1.98-1.91-2.71c-0.66-0.77-1.41-1.95-2.18-2c-0.76-0.04-2.09,0.97-2.3,1.75c-0.64,2.38-0.85,4.88-1.21,7.21
	C116.66,134.45,115.42,133.39,114.34,121.08z M125.18,127.01c-2.26-0.91-3.55-1.93-4.44-1.65c-1.04,0.32-2.42,1.81-2.39,2.74
	c0.04,0.96,1.97,2.8,2.42,2.62C122.12,130.18,123.14,128.83,125.18,127.01z"/>
<path class="st1" d="M111.1,135.94c4.1,3.86,11.52,2.24,11.11,10.6c-3.53,3.64-7.8,7-13.31,8.55c-2.93,0.83-5.24-0.81-5.39-3.73
	C103.2,145.36,105.72,140.74,111.1,135.94z"/>
<path class="st1" d="M119.01,96.06c-3.91,3.66-7.15,6.68-10.88,10.17c-1.73-0.83-4.04-1.31-5.4-2.72c-1.88-1.96-2.03-4.89-0.93-7.36
	c1.04-2.31,2.39-4.71,4.22-6.4c3.64-3.35,8.64-3.46,10.98,1.79C117.6,92.87,118.19,94.21,119.01,96.06z"/>
<path class="st1" d="M154.41,146.69c-9.14,0.93-16.14-0.18-21.63-7.96c2.41-1.86,4.28-3.3,5.97-4.61
	C149.54,139.93,149.54,139.93,154.41,146.69z"/>
<path class="st1" d="M106.94,127.94c-3.75,2.32-6.3,1.9-8.46,0.32c-1.07-0.78-2.08-2.5-2.04-3.76c0.07-2.48,0.36-5.25,1.55-7.32
	c1.5-2.6,4.19-4.13,8.14-3.02C107.98,118.52,106.75,123.23,106.94,127.94z"/>
<path class="st1" d="M161.31,126.38c-5.04,4.38-10.1,3.25-15.98,3.15c0.8-3.86,1.43-6.91,1.99-9.6c1.15-0.59,1.86-1.29,2.41-1.18
	C157.06,120.16,157.05,120.19,161.31,126.38z"/>
<path class="st1" d="M134.47,93.32c-3.79,1.65-6.8,1.09-9.96-0.66c1.17-5.45,2.86-9.98,9.08-11.88
	C136.27,85.26,135.03,89.37,134.47,93.32z"/>
<path class="st1" d="M152.61,100.72c1.4,3.43,0.38,5.63-2.26,6.87c-1.14,0.53-3.29,0.78-3.92,0.12c-1.13-1.17-1.92-3.12-1.94-4.75
	c-0.01-0.83,1.86-2.16,3.05-2.42C149.22,100.19,151.06,100.63,152.61,100.72z"/>
<path class="st2" d="M130.58,111.14c2.56-8.36,2.56-8.36,6.76-5.27C135.62,107.22,134.02,108.46,130.58,111.14z"/>
<path d="M125.18,127.01c-2.04,1.83-3.06,3.17-4.4,3.7c-0.46,0.18-2.39-1.65-2.42-2.62c-0.04-0.93,1.34-2.41,2.39-2.74
	C121.63,125.08,122.92,126.1,125.18,127.01z"/>
</svg>
