<?xml version="1.0" encoding="utf-8"?>
<!-- Generator: Adobe Illustrator 25.2.3, SVG Export Plug-In . SVG Version: 6.00 Build 0)  -->
<svg version="1.1" id="Layer_1" xmlns="http://www.w3.org/2000/svg" xmlns:xlink="http://www.w3.org/1999/xlink" x="0px" y="0px"
	 viewBox="0 0 200 200" style="enable-background:new 0 0 200 200;" xml:space="preserve">
<style type="text/css">
	.st0{fill:#F9EC31;}
	.st1{fill:#EE4036;}
	.st2{fill:#F05A28;}
	.st3{fill:#FFFFFF;}
</style>
<path d="M81.54,46.96c2.59-3.08,2.56-5.88,3.63-8.17c1.01-2.17,1.9-4.41,2.98-6.55c1.2-2.37,2.54-4.67,3.82-7
	c0,0-0.02-0.03-0.02-0.03c5.61-6.5,10.78-8.12,17.42-5.53c2.91,1.13,5.04,2.91,5.68,6.14c0.88,4.44,1.89,8.85,2.67,13.3
	c0.41,2.31,0.46,4.68,0.67,6.94c2.83,0.54,3.27-1.91,4.59-3c3.48-2.88,6.75-5.96,10.96-7.89c5.12-2.35,10.03-1.9,14.35,1.26
	c3.39,2.48,6.21,5.78,9.13,8.85c2.81,2.95,3.45,6.52,2.29,10.39c-2.87,9.6-6.92,18.47-15.33,24.61c-0.86,0.63-1.71,1.26-2.53,1.92
	c-0.19,0.15-0.27,0.42-0.56,0.88c5.89,4.09,7.9,10.31,9.05,17.05c1.27,7.47-2.31,13.67-9.56,16.14c-1.76,0.6-3.53,1.19-5.33,1.69
	c-4.78,1.34-9.45,1.26-13.98-1.04c-1.37-0.69-2.85-1.16-4.91-1.98c-0.07,3.24,0.05,5.88-0.22,8.48c-0.5,4.75-0.94,9.55-2,14.18
	c-0.57,2.48-2.15,4.85-3.68,6.97c-2.8,3.86-6.78,5.03-11.32,3.75c-2.28-0.64-4.48-1.64-6.65-2.64c-1.64-0.76-3.15-1.78-5.29-3.01
	c-0.4,2-0.92,3.47-0.96,4.95c-0.27,9.32-0.43,18.64-0.66,27.97c-0.03,1.31,0.05,2.84-0.58,3.86c-0.57,0.93-2,1.66-3.13,1.79
	c-0.68,0.08-2.04-1.06-2.18-1.82c-0.39-2.07-0.44-4.24-0.35-6.35c0.27-6.39,0.77-12.77,1.01-19.16c0.29-7.71,0.42-15.43,0.57-23.14
	c0.01-0.42-0.46-0.85-0.94-1.68c-2.25,1.14-4.52,2.38-6.86,3.45c-2.42,1.11-4.85,2.24-7.38,3.05c-3.28,1.05-6.61,2.22-9.99,2.6
	c-8.56,0.94-15.14-4.27-16.15-12.91c-1.2-10.29-0.38-20.26,7.01-28.69c-0.75-1.04-1.33-1.88-1.94-2.7
	c-4.62-6.29-4.83-13.49-2.87-20.44c1.68-5.95,4.31-11.84,7.6-17.07c4.51-7.18,11.91-10.47,20.24-10.98
	c2.77-0.17,5.63,1.11,8.74,1.79 M47.7,110.87c0,0-0.22-0.21-0.22-0.21c-0.34,1.25-0.35,2.75-1.07,3.72
	c-2.7,3.64-2.31,7.55-1.11,11.42c1.91,6.12,6.08,8.75,12.25,7.13c4.58-1.2,9.19-2.93,13.23-5.36c4.41-2.65,9.44-5.31,9.86-11.59
	c-1.15-3.38-4.05-3.8-7.01-4.2c-5.51-0.75-7.71-4.57-9.2-10.25c1.55,0.46,2.68,0.45,3.22,1.01c1.9,1.96,2.62,5.04,5.67,6.3
	c0.66-2.42-0.81-3.86-1.32-5.55c-0.6-1.99-1.23-3.97-1.93-6.19c-4.99,0.75-9.59,1.5-14.21,2.13c-3.73,0.51-6.39,2.43-8.12,5.73
	l-0.11,0.05C46.48,106.97,45.16,108.94,47.7,110.87z M95.2,110.49c2.08-1.89,4.47-3.33,5.84-5.43c6.35-9.75,10.15-20.36,10.01-32.2
	c-0.05-4.25-2.91-7.22-4.43-10.8c-0.29-0.68-1.79-1.07-2.77-1.17c-3.83-0.4-7.61,0.59-10.67,2.57
	c-8.45,5.46-15.14,12.62-17.44,22.78c-1.43,6.29-1.31,12.52,4.44,17.15c0.77,0.62,1.19,1.66,1.69,2.39
	C87.13,105.33,87.13,105.33,95.2,110.49z M116.29,85.41c8.42-2.33,15.59-4.98,22.39-8.62c3.6-1.93,6.54-4.63,8.67-8.09
	c1.82-2.94,3.56-5.95,5.07-9.06c3.7-7.63,3.03-10.56-3.38-15.95c-0.61-0.51-1.26-0.99-1.89-1.48c-4.03-3.08-8.1-3.37-12.59-0.76
	c-7.38,4.3-12.6,10.49-16.68,17.84c-1.23,2.21-1.34,4.47-1.29,6.93c0.08,4.51-0.19,9.03-0.3,13.55
	C116.26,81.34,116.29,82.92,116.29,85.41z M48.1,79.69c0.09,1.43,0.14,2.23,0.19,3.03c0.53,9.39,3.7,11.59,12.82,9.38
	c8.4-2.04,6.77-2.44,9.3-8.3c2.21-5.11,3.64-10.56,7.63-14.76c0.68-0.71,1.06-1.86,1.25-2.87c0.79-4.32-2.38-12.93-5.48-14.33
	c-4.87-2.2-9.37-0.36-13.69,1.89c-0.92,0.48-1.65,1.34-2.43,2.05C50.42,62.37,48.58,71.08,48.1,79.69z M109.97,104
	c3.39,1.86,7.03,3.52,10.29,5.74c6.27,4.27,12.65,3.26,19.05,0.83c4.47-1.7,6.71-6.29,5.59-11.01c-0.61-2.57-1.69-5.03-2.6-7.52
	c-1.02-2.81-3.23-4.07-6.03-4.57c-3.53-0.63-6.87,0.19-10.19,1.23c-3.75,1.18-7.48,2.41-11.28,3.63
	C113.33,95.88,111.83,99.51,109.97,104z M110.71,54.25c3.08-6.06,2.97-12.03,1.32-18.13c-0.76-2.82-1.45-5.66-2.12-8.5
	c-0.49-2.08-1.87-3.11-3.88-3.47c-3.37-0.6-6.43-0.05-8.6,2.81c-1.75,2.31-3.47,4.7-4.81,7.26c-3.92,7.46-4.65,15.65-5.01,23.89
	c-0.01,0.22,0.25,0.46,0.65,1.16C95.4,56.2,102.71,53.1,110.71,54.25z M87.98,117.58c-0.49,7.1,1.08,13.2,3.1,19.19
	c0.39,1.17,1.42,2.3,2.45,3.05c8.33,6.05,13.77,3.5,16.13-5.23c1.91-7.04,2.2-14.12,0.25-21.28c-0.66-2.43-2.06-3.42-4.78-4.17
	C101.34,114.88,94.99,116.09,87.98,117.58z"/>
<path class="st0" d="M95.2,110.49c-8.07-5.16-8.07-5.16-13.34-4.72c-0.5-0.73-0.92-1.77-1.69-2.39c-5.75-4.63-5.87-10.86-4.44-17.15
	c2.3-10.16,8.99-17.32,17.44-22.78c3.06-1.98,6.84-2.97,10.67-2.57c0.99,0.1,2.49,0.5,2.77,1.17c1.52,3.57,4.38,6.55,4.43,10.8
	c0.14,11.84-3.66,22.45-10.01,32.2C99.67,107.16,97.28,108.6,95.2,110.49z"/>
<path class="st1" d="M116.29,85.41c0-2.49-0.03-4.07,0.01-5.64c0.1-4.52,0.38-9.03,0.3-13.55c-0.04-2.45,0.07-4.72,1.29-6.93
	c4.08-7.35,9.3-13.54,16.68-17.84c4.49-2.62,8.56-2.32,12.59,0.76c0.64,0.49,1.28,0.96,1.89,1.48c6.4,5.39,7.08,8.31,3.38,15.95
	c-1.51,3.11-3.25,6.12-5.07,9.06c-2.14,3.46-5.07,6.16-8.67,8.09C131.89,80.43,124.71,83.08,116.29,85.41z"/>
<path class="st2" d="M48.1,79.69c0.49-8.61,2.32-17.32,9.58-23.91c0.79-0.71,1.52-1.57,2.43-2.05c4.33-2.25,8.82-4.09,13.69-1.89
	c3.1,1.4,6.27,10.01,5.48,14.33c-0.18,1.01-0.57,2.15-1.25,2.87c-4,4.19-5.42,9.65-7.63,14.76c-2.54,5.86-0.9,6.27-9.3,8.3
	c-9.12,2.21-12.29,0.02-12.82-9.38C48.24,81.92,48.19,81.12,48.1,79.69z"/>
<path class="st1" d="M47.77,104.95c1.73-3.3,4.39-5.22,8.12-5.73c4.62-0.63,9.22-1.38,14.21-2.13c0.69,2.22,1.32,4.2,1.93,6.19
	c0.51,1.69,1.98,3.13,1.32,5.55c-3.05-1.25-3.77-4.34-5.67-6.3c-0.54-0.56-1.67-0.55-3.22-1.01c1.49,5.68,3.69,9.5,9.2,10.25
	c2.96,0.4,5.86,0.82,7.01,4.2c-0.42,6.28-5.46,8.94-9.86,11.59c-4.04,2.43-8.65,4.15-13.23,5.36c-6.18,1.62-10.35-1.01-12.25-7.13
	c-1.21-3.87-1.59-7.77,1.11-11.42c0.72-0.97-0.49-4.99-0.15-6.24"/>
<path class="st1" d="M109.97,104c1.86-4.49,3.36-8.12,4.83-11.68c3.79-1.22,7.53-2.45,11.28-3.63c3.31-1.04,6.66-1.87,10.19-1.23
	c2.8,0.5,5,1.76,6.03,4.57c0.91,2.5,1.99,4.96,2.6,7.52c1.13,4.72-1.12,9.31-5.59,11.01c-6.39,2.44-12.78,3.44-19.05-0.83
	C117,107.52,113.36,105.86,109.97,104z"/>
<path class="st1" d="M110.71,54.25c-8-1.15-15.31,1.95-22.45,5.02c-0.4-0.7-0.66-0.93-0.65-1.16c0.36-8.24,1.09-16.43,5.01-23.89
	c1.34-2.56,3.06-4.95,4.81-7.26c2.16-2.86,5.23-3.41,8.6-2.81c2.01,0.36,3.38,1.38,3.88,3.47c0.67,2.84,1.36,5.68,2.12,8.5
	C113.68,42.22,113.8,48.2,110.71,54.25z"/>
<path class="st1" d="M87.98,117.58c7.01-1.49,13.35-2.69,17.15-8.44c2.72,0.75,4.12,1.74,4.78,4.17c1.95,7.16,1.65,14.24-0.25,21.28
	c-2.36,8.73-7.8,11.28-16.13,5.23c-1.03-0.75-2.05-1.88-2.45-3.05C89.06,130.78,87.49,124.68,87.98,117.58z"/>
<path class="st3" d="M47.66,105.01"/>
<path class="st3" d="M47.7,110.87"/>
</svg>
