<svg id="Layer_1" data-name="Layer 1" xmlns="http://www.w3.org/2000/svg" viewBox="0 0 213.5 232.5"><defs><style>.cls-1{fill:#fff;}.cls-2{fill:#2b3990;}.cls-3{fill:#1c75bc;}.cls-4{fill:#fbb040;}.cls-5{fill:#662d91;}</style></defs><g id="o3UsDl"><path class="cls-1" d="M0,3.49H213.5V236H0ZM157.45,96.57c-.15-2-.7-3.58-.26-4.77a29.33,29.33,0,0,1,3.92-8c2.72-3.49,6.06-6.48,9.1-9.71C174.08,70,178,66,176.57,59.47c-.71-3.31-5.79-7.06-8.92-5.81-4,1.61-7.93,3.46-12.12,5.31-.62-2.26-1.23-4.51-1.79-6.58A47.31,47.31,0,0,1,148.83,51a3.4,3.4,0,0,0-4,.87,34.6,34.6,0,0,1-3.5,2.42c-.86-4.26-4-6.9-8-6.11a12.28,12.28,0,0,0-6,3.75c-2.92,3.15-5.4,6.72-8,10.13s-5.19,6.73-7.73,10.14c-1.61,2.15-3,4.51-4.7,6.56-2.57,3-5.37,5.86-8.24,9-1.3-.77-2.55-1.4-3.67-2.21-1.85-1.33-4.42-2.43-5.23-4.26-1.4-3.19-4.16-5-6.13-7.55-3.81-4.92-8.35-9.29-12.64-13.84a83.33,83.33,0,0,0-7.44-7.36,58.64,58.64,0,0,1-6.86-6.25c-1.79-2-3.59-4.53-6.71-5a10.93,10.93,0,0,1-2.9-.46c-2.36-1-3.83,0-5.18,1.79-1.83,2.46-3,5.69-6.85,5.88a1.21,1.21,0,0,0-.65.34c-3.56,3.27-6.75,6.8-8.17,11.6-1,3.37-.52,5.06,2.25,7.38,1.6,1.32,3.22,2.6,4.83,3.91,3.74,3,7.31,6.32,11.27,9s8.86,4.66,12.78,7.65C61.09,91.18,65,93.93,67.55,98c1.42,2.22,3,4.25,3.71,6.91.78,3.07-.45,5.64-1.86,8-1.68,2.86-4.11,5.3-5.64,8.22a19.83,19.83,0,0,1-4,5.84c-1.73,1.59-4,3.18-4.66,5.22-1.42,4.06-5.42,6.71-5.73,11.3a8.12,8.12,0,0,1-1.4,3.63c-1.31,2-1.1,3.94-.6,6.12.55,2.4,1.78,3.18,4.18,3.89,5.18,1.52,9.67,1.15,13.77-2.44.56,4.56,4.11,7,8.89,6.17a5.81,5.81,0,0,1,1.49.08c-.08.51,0,1.14-.27,1.52-1.85,2.68-3.67,5.37-5.69,7.91-1.72,2.15-1.59,4.43-.82,6.73.45,1.37,1.08,3.19,2.17,3.76,4.06,2.11,12.5-.06,15.53-3.84a36.85,36.85,0,0,1,7.46-7.14c2.22-1.57,4.23-3.44,6.3-5.2,1.44-1.23,2.79-2.58,4.27-3.77,1.88-1.52,4.26-2.63,5.67-4.49a4.77,4.77,0,0,1,5.21-1.92c3.91,1.43,7.93,3,10.72,6.43a16.23,16.23,0,0,0,2.23,2V175.5c0,6.1,6.47,16.59,14.22,17.77a15.87,15.87,0,0,0,7.54-.57c3.25-1.18,6.15-3.29,9.23-4.93a3.15,3.15,0,0,1,4,.43,2.24,2.24,0,0,0,1.22.74c4.69.08,8.31,2.9,12.26,4.81,2.92,1.41,5.5,3.82,9,3.16a4.78,4.78,0,0,0,2.67-2c.33-.48-.18-1.59-.41-2.38-.16-.53-.55-1-.75-1.49-1.91-4.76-3.79-9.52-5.72-14.37a2.05,2.05,0,0,0,.57-.34c.72-.72,2.06-1.55,2-2.21-.19-1.92-1.64-.72-2.66-.67-3.81.2-5.79-2.11-4.65-5.48,1.62-4.78.34-9.33-1.21-13.77-2.5-7.18-9.18-9.19-15.32-11.65a63.5,63.5,0,0,0-8.35-2.15c.1-1.09.2-2.39.34-3.69a27.45,27.45,0,0,1,6.43-14.37c3.29-4.09,6.75-8,10-12.17,1.21-1.55,1.7-3.69,3-5.1,2.59-2.76,2.62-6.83,5.42-9.52,1.39-1.34,1.73-3.7,2.82-5.44,2.65-4.23,4.61-8.55,3.36-13.76-.46-1.91-1.17-3.88-3.05-4.22-3-.54-6-.41-8.55,2.1-3.36,3.35-5,7.63-6.87,11.78A27.07,27.07,0,0,1,157.45,96.57Z" transform="translate(0 -3.49)"/><path d="M157.45,96.57A27.07,27.07,0,0,0,165.06,86c1.84-4.15,3.51-8.43,6.87-11.78,2.52-2.51,5.54-2.64,8.55-2.1,1.88.34,2.59,2.31,3.05,4.22,1.25,5.21-.71,9.53-3.36,13.76-1.09,1.74-1.43,4.1-2.82,5.44-2.8,2.69-2.83,6.76-5.42,9.52-1.32,1.41-1.81,3.55-3,5.1-3.23,4.13-6.69,8.08-10,12.17a27.45,27.45,0,0,0-6.43,14.37c-.14,1.3-.24,2.6-.34,3.69a63.5,63.5,0,0,1,8.35,2.15c6.14,2.46,12.82,4.47,15.32,11.65,1.55,4.44,2.83,9,1.21,13.77-1.14,3.37.84,5.68,4.65,5.48,1,0,2.47-1.25,2.66.67.07.66-1.27,1.49-2,2.21a2.05,2.05,0,0,1-.57.34c1.93,4.85,3.81,9.61,5.72,14.37.2.51.59,1,.75,1.49.23.79.74,1.9.41,2.38a4.78,4.78,0,0,1-2.67,2c-3.54.66-6.12-1.75-9-3.16-4-1.91-7.57-4.73-12.26-4.81a2.24,2.24,0,0,1-1.22-.74,3.15,3.15,0,0,0-4-.43c-3.08,1.64-6,3.75-9.23,4.93a15.87,15.87,0,0,1-7.54.57c-7.75-1.18-14.23-11.67-14.22-17.77V163a16.23,16.23,0,0,1-2.23-2c-2.79-3.46-6.81-5-10.72-6.43a4.77,4.77,0,0,0-5.21,1.92c-1.41,1.86-3.79,3-5.67,4.49-1.48,1.19-2.83,2.54-4.27,3.77-2.07,1.76-4.08,3.63-6.3,5.2a36.85,36.85,0,0,0-7.46,7.14c-3,3.78-11.47,6-15.53,3.84-1.09-.57-1.72-2.39-2.17-3.76-.77-2.3-.9-4.58.82-6.73,2-2.54,3.84-5.23,5.69-7.91.27-.38.19-1,.27-1.52a5.81,5.81,0,0,0-1.49-.08c-4.78.84-8.33-1.61-8.89-6.17-4.1,3.59-8.59,4-13.77,2.44-2.4-.71-3.63-1.49-4.18-3.89-.5-2.18-.71-4.12.6-6.12a8.12,8.12,0,0,0,1.4-3.63c.31-4.59,4.31-7.24,5.73-11.3.7-2,2.93-3.63,4.66-5.22a19.83,19.83,0,0,0,4-5.84c1.53-2.92,4-5.36,5.64-8.22,1.41-2.4,2.64-5,1.86-8-.68-2.66-2.29-4.69-3.71-6.91-2.58-4.08-6.46-6.83-10.13-9.63-3.92-3-8.69-4.85-12.78-7.65s-7.53-6-11.27-9c-1.61-1.31-3.23-2.59-4.83-3.91-2.77-2.32-3.24-4-2.25-7.38,1.42-4.8,4.61-8.33,8.17-11.6a1.21,1.21,0,0,1,.65-.34c3.81-.19,5-3.42,6.85-5.88,1.35-1.81,2.82-2.82,5.18-1.79a10.93,10.93,0,0,0,2.9.46c3.12.42,4.92,3,6.71,5a58.64,58.64,0,0,0,6.86,6.25,83.33,83.33,0,0,1,7.44,7.36c4.29,4.55,8.83,8.92,12.64,13.84,2,2.55,4.73,4.36,6.13,7.55.81,1.83,3.38,2.93,5.23,4.26,1.12.81,2.37,1.44,3.67,2.21,2.87-3.1,5.67-5.93,8.24-9,1.73-2,3.09-4.41,4.7-6.56,2.54-3.41,5.13-6.78,7.73-10.14s5.12-7,8-10.13a12.28,12.28,0,0,1,6-3.75c4-.79,7.1,1.85,8,6.11a34.6,34.6,0,0,0,3.5-2.42,3.4,3.4,0,0,1,4-.87,47.31,47.31,0,0,0,4.91,1.43c.56,2.07,1.17,4.32,1.79,6.58,4.19-1.85,8.1-3.7,12.12-5.31,3.13-1.25,8.21,2.5,8.92,5.81C178,66,174.08,70,170.21,74.09c-3,3.23-6.38,6.22-9.1,9.71a29.33,29.33,0,0,0-3.92,8C156.75,93,157.3,94.55,157.45,96.57ZM42.15,48.3c-.07,1.16-.23,1.6-.09,1.77,2,2.33,3.92,4.7,6,6.91C52.45,61.55,56.9,66,61.33,70.54c2.54,2.58,5.14,5.09,7.66,7.68,4,4.16,8.09,8.32,12,12.59a24.5,24.5,0,0,1,3.43,5c.3.58-.29,1.63-.48,2.46-.76-.3-1.74-.38-2.26-.91C77.8,93.3,74,89.16,70.17,85q-4.45-4.79-8.91-9.56c-2.06-2.21-4-4.55-6.16-6.64C50.05,64,44.81,59.38,39.82,54.49c-2.77-2.72-2.3-2.64-5.38.23a9.43,9.43,0,0,0-1,1.33l1-.8c2,2.52,3.87,5.27,6.19,7.5,4.35,4.18,9,8,13.48,12.08,3.39,3.1,6.61,6.37,10,9.47a22.1,22.1,0,0,0,3.23,2.15c0,.26-.38,1.11-.13,1.37,2.43,2.44,4.94,4.81,7.47,7.15,1.52,1.42,3.17,2.71,4.66,4.16.35.35.57,1.49.39,1.62a3.63,3.63,0,0,1-2,.61,25.46,25.46,0,0,1-3.29-.43c.49,1.25,1,2,1,2.72,0,3.51.63,7.17-2.34,10.09-.68.67-.36,2.26-1,3.12-1.6,2.33-3.5,4.45-5.16,6.73-1.51,2.08-2.73,4.36-4.29,6.4-2.44,3.17-5.4,6-7.49,9.36a38.33,38.33,0,0,0-3.64,9.25c-.91,3-.08,4.2,2.86,5.1,4.1,1.25,8.47-1.27,11.15-5.5,2.91-4.59,5.3-9.6,9.62-13.21,2-1.68,4-2.92,7.36-1.53a22.71,22.71,0,0,1-2.09,3.72c-1.72,2.06-4,3.73-5.42,5.94-1.85,2.84-2.92,6.19-4.74,9.07-1.44,2.28.16,3.26,1.41,4.12,1.62,1.12,9.33-1.06,10.48-2.84q3-4.68,5.8-9.52c1.11-1.93,3-3.13,3.91-2.08,1.13,1.39,1.77,2.91.35,4.64-1.82,2.21-3.5,4.53-5.24,6.81-2.46,3.25-5,6.46-7.36,9.78A118.77,118.77,0,0,0,73.08,173c-.5.87-.06,2.7.57,3.69.73,1.16,2,1.41,3.69.9a19.47,19.47,0,0,0,9.47-6.43c2.12-2.52,5.19-4.24,7.75-6.43,3.89-3.33,7.68-6.78,11.56-10.12a32.35,32.35,0,0,1,4.1-3.09,9.8,9.8,0,0,1,9.12-.8c3.1,1.31,5.87,3.43,8.75,5.26,2.47,1.56,2.72,1.51,4-1.15a10.44,10.44,0,0,1,1-1.43c1.1-1.66,3.23-2.68,3.1-5.12,0-.26.52-.57.83-.82a30.37,30.37,0,0,0,3.38-2.65c1.66-1.72,3.27-3.29,5.84-2.25,1.49-4.89,1.23-9.88,3.67-14.44a60.27,60.27,0,0,1,6.33-9.59c3.1-3.82,6.51-7.44,9.21-11.52,2.88-4.37,5.11-9.18,7.6-13.81.74-1.38,1.09-3.07,2.08-4.2a12.31,12.31,0,0,0,3.38-10c-.11-.87-.76-2.2-1.37-2.33a3.15,3.15,0,0,0-2.61,1.12,35.86,35.86,0,0,0-3.91,6.46,60,60,0,0,1-9.86,15.64c-1.61,1.81-6.36,1.61-7.12-.28a13.31,13.31,0,0,1,.24-10.94,46.74,46.74,0,0,1,8.8-13.4c2.73-2.9,5.6-5.68,8.37-8.54.62-.63.87-6.65.25-7.16a3.49,3.49,0,0,0-1.8-.57c-4-.45-7.34,1.75-10.74,3.21s-4.78,5.29-6.85,8.32c-3.49,5.08-4.9,11.18-9.14,15.94-3.43,3.85-2.8,3.61-6.17,2.07-.19-2.6.66-4.65,3.09-5.9a2.28,2.28,0,0,0,.85-.75c1.93-3.29,4-6.48,5.1-10.24.54-1.92,1.27-4.16,2.67-5.39,2.41-2.1,2.33-4.53,2.27-7.19s-1.35-3.91-3.94-2.8a22.69,22.69,0,0,0-7.06,4.12,35,35,0,0,0-8.38,12.76c-2.32,6.26-4.89,12.4-11.73,15.13-.84.33-2-.06-3-.12a9.51,9.51,0,0,1,.32-3.1c.51-1.15,1.59-2,2.25-3.12,1.47-2.45,2.66-5.08,4.26-7.43,3.29-4.82,6.86-9.45,10.16-14.26,1.43-2.09,2.7-4.38,2.5-7.11-2.74-.49-4.71.21-6.2,2.34-1.08,1.55-2.34,3-3.48,4.5-4,5.33-8,10.68-12,16-1.17,1.57-2.79,2.93-3.53,4.68-1.76,4.18-5.16,6.89-8.46,9.52-1.47,1.17-3.55,3.62-6.06,1.62a83.65,83.65,0,0,1-8.83-7.76c-7.07-7.49-13.82-15.28-20.9-22.76C63.3,58,59.62,55.09,56.23,52c-1.74-1.61-3.34-3.38-5.06-5a9,9,0,0,0-1.87-1.06l-.69.82c3.06,3.26,6.08,6.56,9.19,9.76,1.34,1.38,3,2.44,4.24,3.9,1.92,2.3,3.38,5,5.38,7.21C71.24,71.84,75.3,75.89,79.28,80c1.76,1.83,3.61,3.57,5.37,5.41a29.63,29.63,0,0,1,3,3.46,1.49,1.49,0,0,1-1.23,2.48A5.14,5.14,0,0,1,82.91,90c-4.19-4.28-8.24-8.69-12.24-13.15C68.13,74,65.79,71,63.31,68.11,61.26,65.7,59.23,63.27,57,61,54,58,50.59,55.29,48,52,46.29,49.89,43.81,50.67,42.15,48.3ZM168.51,151.82a4.21,4.21,0,0,0-.92-.8A47.54,47.54,0,0,0,156,145.78c-2.71-.74-4.21-.71-5.79,1.57-.29.42-1.84,0-2.81-.1s-2.44-.52-3.22-.05a25,25,0,0,0-4.37,3.75,24.86,24.86,0,0,0-3.81,4.22c-2.68,4.29-3.16,9.22-3.46,14.13a23.5,23.5,0,0,0,.15,5.5,22.05,22.05,0,0,0,4.39,9.9c2.56,3.26,5.9,5.3,10.11,4.17,3.08-.83,6.39-1.89,8.84-3.83,5.56-4.38,11.45-8.42,15.29-14.8,1.52-2.54,1.47-5,2.06-7.55.25-1.06-.53-2.35-.84-3.54a1.25,1.25,0,0,0-.54,1c-.14,4.72-1.42,6.23-6,7.3a21.24,21.24,0,0,0-3.29,1.5c-1.7-1.1-3.93-2.63-6.25-4-2.56-1.5-3.1-3.93-1.4-6.39,1.23-1.78,2.14-3.8,3.47-5.49a4.84,4.84,0,0,1,3-1.88A49,49,0,0,1,168.51,151.82Zm14.16,39.93a23.82,23.82,0,0,0-4.15-11c-.41-.57-.64-1.26-1-1.85a27.91,27.91,0,0,0-3-3.92,17.93,17.93,0,0,0-2.69,1.86,17,17,0,0,0-2.38,1.69c-1.48,1.5-2.84,3.11-4.34,4.76ZM53.16,80.49c-7.44-6.7-13.36-15.1-22.77-19.94.17,1.05,0,2.28.53,2.82,1.9,1.92,4,3.61,6.09,5.38.48.41,1.34.75,1.4,1.21.3,2.48,2.44,2.83,4.08,3.78.89.52,1.77,1.08,2.65,1.63Q49.15,77.94,53.16,80.49Zm112,83.32c1.08-.25,1.75-.21,2.08-.53.81-.77.17-6-.8-6.48a1.79,1.79,0,0,0-1.66.26,34.1,34.1,0,0,0-1.9,3.78l3.85.32Z" transform="translate(0 -3.49)"/><path class="cls-2" d="M42.15,48.3c1.66,2.37,4.14,1.59,5.8,3.67C50.59,55.29,54,58,57,61c2.2,2.26,4.23,4.69,6.28,7.1,2.48,2.9,4.82,5.92,7.36,8.76,4,4.46,8,8.87,12.24,13.15a5.14,5.14,0,0,0,3.48,1.33,1.49,1.49,0,0,0,1.23-2.48,29.63,29.63,0,0,0-3-3.46C82.89,83.57,81,81.83,79.28,80c-4-4.11-8-8.16-11.86-12.42-2-2.22-3.46-4.91-5.38-7.21-1.21-1.46-2.9-2.52-4.24-3.9-3.11-3.2-6.13-6.5-9.19-9.76l.69-.82A9,9,0,0,1,51.17,47c1.72,1.62,3.32,3.39,5.06,5,3.39,3.14,7.07,6,10.24,9.34,7.08,7.48,13.83,15.27,20.9,22.76a83.65,83.65,0,0,0,8.83,7.76c2.51,2,4.59-.45,6.06-1.62,3.3-2.63,6.7-5.34,8.46-9.52.74-1.75,2.36-3.11,3.53-4.68,4-5.33,8-10.68,12-16,1.14-1.51,2.4-2.95,3.48-4.5,1.49-2.13,3.46-2.83,6.2-2.34.2,2.73-1.07,5-2.5,7.11-3.3,4.81-6.87,9.44-10.16,14.26-1.6,2.35-2.79,5-4.26,7.43-.66,1.1-1.74,2-2.25,3.12a9.51,9.51,0,0,0-.32,3.1c1,.06,2.12.45,3,.12,6.84-2.73,9.41-8.87,11.73-15.13a35,35,0,0,1,8.38-12.76,22.69,22.69,0,0,1,7.06-4.12c2.59-1.11,3.87,0,3.94,2.8s.14,5.09-2.27,7.19c-1.4,1.23-2.13,3.47-2.67,5.39-1.07,3.76-3.17,6.95-5.1,10.24a2.28,2.28,0,0,1-.85.75c-2.43,1.25-3.28,3.3-3.09,5.9,3.37,1.54,2.74,1.78,6.17-2.07,4.24-4.76,5.65-10.86,9.14-15.94,2.07-3,3.36-6.82,6.85-8.32s6.73-3.66,10.74-3.21a3.49,3.49,0,0,1,1.8.57c.62.51.37,6.53-.25,7.16-2.77,2.86-5.64,5.64-8.37,8.54a46.74,46.74,0,0,0-8.8,13.4,13.31,13.31,0,0,0-.24,10.94c.76,1.89,5.51,2.09,7.12.28a60,60,0,0,0,9.86-15.64,35.86,35.86,0,0,1,3.91-6.46,3.15,3.15,0,0,1,2.61-1.12c.61.13,1.26,1.46,1.37,2.33a12.31,12.31,0,0,1-3.38,10c-1,1.13-1.34,2.82-2.08,4.2-2.49,4.63-4.72,9.44-7.6,13.81-2.7,4.08-6.11,7.7-9.21,11.52a60.27,60.27,0,0,0-6.33,9.59c-2.44,4.56-2.18,9.55-3.67,14.44-2.57-1-4.18.53-5.84,2.25A30.37,30.37,0,0,1,137,147.5c-.31.25-.84.56-.83.82.13,2.44-2,3.46-3.1,5.12a10.44,10.44,0,0,0-1,1.43c-1.26,2.66-1.51,2.71-4,1.15-2.88-1.83-5.65-4-8.75-5.26a9.8,9.8,0,0,0-9.12.8,32.35,32.35,0,0,0-4.1,3.09c-3.88,3.34-7.67,6.79-11.56,10.12-2.56,2.19-5.63,3.91-7.75,6.43a19.47,19.47,0,0,1-9.47,6.43c-1.66.51-3,.26-3.69-.9-.63-1-1.07-2.82-.57-3.69a118.77,118.77,0,0,1,6.59-9.94c2.38-3.32,4.9-6.53,7.36-9.78,1.74-2.28,3.42-4.6,5.24-6.81,1.42-1.73.78-3.25-.35-4.64-.87-1.05-2.8.15-3.91,2.08q-2.78,4.83-5.8,9.52c-1.15,1.78-8.86,4-10.48,2.84-1.25-.86-2.85-1.84-1.41-4.12,1.82-2.88,2.89-6.23,4.74-9.07,1.45-2.21,3.7-3.88,5.42-5.94a22.71,22.71,0,0,0,2.09-3.72c-3.37-1.39-5.35-.15-7.36,1.53-4.32,3.61-6.71,8.62-9.62,13.21-2.68,4.23-7.05,6.75-11.15,5.5-2.94-.9-3.77-2.07-2.86-5.1a38.33,38.33,0,0,1,3.64-9.25c2.09-3.37,5.05-6.19,7.49-9.36,1.56-2,2.78-4.32,4.29-6.4,1.66-2.28,3.56-4.4,5.16-6.73.59-.86.27-2.45,1-3.12,3-2.92,2.31-6.58,2.34-10.09,0-.73-.53-1.47-1-2.72a25.46,25.46,0,0,0,3.29.43,3.63,3.63,0,0,0,2-.61c.18-.13,0-1.27-.39-1.62-1.49-1.45-3.14-2.74-4.66-4.16-2.53-2.34-5-4.71-7.47-7.15-.25-.26.1-1.11.13-1.37a22.1,22.1,0,0,1-3.23-2.15c-3.37-3.1-6.59-6.37-10-9.47-4.46-4.07-9.13-7.9-13.48-12.08-2.32-2.23-4.14-5-6.19-7.5l-1,.8a9.43,9.43,0,0,1,1-1.33c3.08-2.87,2.61-2.95,5.38-.23,5,4.89,10.23,9.52,15.28,14.35,2.17,2.09,4.1,4.43,6.16,6.64Q65.7,80.27,70.17,85C74,89.16,77.8,93.3,81.69,97.36c.52.53,1.5.61,2.26.91.19-.83.78-1.88.48-2.46a24.5,24.5,0,0,0-3.43-5c-3.92-4.27-8-8.43-12-12.59-2.52-2.59-5.12-5.1-7.66-7.68C56.9,66,52.45,61.55,48.09,57c-2.11-2.21-4.05-4.58-6-6.91C41.92,49.9,42.08,49.46,42.15,48.3Z" transform="translate(0 -3.49)"/><path class="cls-3" d="M168.51,151.82a49,49,0,0,0-6.89-.59,4.84,4.84,0,0,0-3,1.88c-1.33,1.69-2.24,3.71-3.47,5.49-1.7,2.46-1.16,4.89,1.4,6.39,2.32,1.36,4.55,2.89,6.25,4a21.24,21.24,0,0,1,3.29-1.5c4.54-1.07,5.82-2.58,6-7.3a1.25,1.25,0,0,1,.54-1c.31,1.19,1.09,2.48.84,3.54-.59,2.51-.54,5-2.06,7.55-3.84,6.38-9.73,10.42-15.29,14.8-2.45,1.94-5.76,3-8.84,3.83-4.21,1.13-7.55-.91-10.11-4.17a22.05,22.05,0,0,1-4.39-9.9,23.5,23.5,0,0,1-.15-5.5c.3-4.91.78-9.84,3.46-14.13a24.86,24.86,0,0,1,3.81-4.22,25,25,0,0,1,4.37-3.75c.78-.47,2.13,0,3.22.05s2.52.52,2.81.1c1.58-2.28,3.08-2.31,5.79-1.57A47.54,47.54,0,0,1,167.59,151,4.21,4.21,0,0,1,168.51,151.82ZM149.39,163c-4.43,0-9,3.53-9.39,7.09a11.64,11.64,0,0,0,4.07,10.21c2.31,2.13,7.3,2.69,8.92.92,2.24-2.46,4.21-5,4.6-8.62C158.14,167.52,154.45,162.94,149.39,163Z" transform="translate(0 -3.49)"/><path class="cls-4" d="M182.67,191.75l-17.54-8.47c1.5-1.65,2.86-3.26,4.34-4.76a17,17,0,0,1,2.38-1.69,17.93,17.93,0,0,1,2.69-1.86,27.91,27.91,0,0,1,3,3.92c.39.59.62,1.28,1,1.85A23.82,23.82,0,0,1,182.67,191.75Z" transform="translate(0 -3.49)"/><path class="cls-5" d="M53.16,80.49q-4-2.55-8-5.12c-.88-.55-1.76-1.11-2.65-1.63-1.64-.95-3.78-1.3-4.08-3.78-.06-.46-.92-.8-1.4-1.21-2-1.77-4.19-3.46-6.09-5.38-.53-.54-.36-1.77-.53-2.82C39.8,65.39,45.72,73.79,53.16,80.49Z" transform="translate(0 -3.49)"/><path class="cls-1" d="M165.18,163.81l1.57-2.65-3.85-.32a34.1,34.1,0,0,1,1.9-3.78,1.79,1.79,0,0,1,1.66-.26c1,.47,1.61,5.71.8,6.48C166.93,163.6,166.26,163.56,165.18,163.81Z" transform="translate(0 -3.49)"/><path d="M149.39,163c5.06-.05,8.75,4.53,8.2,9.6-.39,3.62-2.36,6.16-4.6,8.62-1.62,1.77-6.61,1.21-8.92-.92A11.64,11.64,0,0,1,140,170.08C140.37,166.52,145,163,149.39,163Zm3.45,7.6c-2.27,1.39-4.54,2.76-6.79,4.17-.39.25-1,.71-1,1,.08.46.6,1.17.94,1.17a28.31,28.31,0,0,0,3.65-.41C153.38,176,154.53,173.45,152.84,170.59Z" transform="translate(0 -3.49)"/><path class="cls-1" d="M152.84,170.59c1.69,2.86.54,5.41-3.16,5.9a28.31,28.31,0,0,1-3.65.41c-.34,0-.86-.71-.94-1.17-.05-.26.57-.72,1-1C148.3,173.35,150.57,172,152.84,170.59Z" transform="translate(0 -3.49)"/></g></svg>