<?xml version="1.0" encoding="utf-8"?>
<!-- Generator: Adobe Illustrator 26.0.2, SVG Export Plug-In . SVG Version: 6.00 Build 0)  -->
<svg version="1.1" id="Layer_1" xmlns="http://www.w3.org/2000/svg" xmlns:xlink="http://www.w3.org/1999/xlink" x="0px" y="0px"
	 viewBox="0 0 200 200" style="enable-background:new 0 0 200 200;" xml:space="preserve">
<path class="st0" d="M124.82,49.77l-8.38,5.27l-5.69,5.13l-4.42,5.74l-5.13,4.68l-4.63,5.32l-2.81,4.76l-2.37,3.67l-1.6,6.25
	l-1.41,7.94l-0.19,5.24l2.17,4.96l1.59,3.84l0.89,6.34l2.05,5.76l2.27,3.94l2.44,3.55l1.22,2.32l5.1,2.55l7.59,1.83l5.99,0.61
	l6.54-1.16l8.15-2.8l4.04-2.74l3.72-4.16l2.44-3.82l2.52-3.27c0,0,2.47-3.55,2.47-3.71c0-0.17,1.94-5.93,1.94-5.93l2.05-5.22
	l1.55-7.86l1.19-12.43v-6.1l-0.39-8.44l-1.58-5.73l-3.71-4.43l-4.56-4.43l-6.03-2.6l-5.82-1.94l-6.1-3.16L124.82,49.77z"/>
<path d="M150.57,63.93c-0.12-0.3-0.5-0.57-0.12-0.87c-1.43-1.58-2.86-3.16-4.27-4.72c-0.46,0.13-0.82,0.23-1.27,0.35
	c0-0.44,0-0.77,0-1.17c-0.44-0.23-0.86-0.51-1.32-0.67c-1.22-0.44-2.38-1.06-3.71-1.16c-0.18-0.01-0.34-0.19-0.53-0.26
	c-1.22-0.43-2.45-0.85-3.68-1.29c-0.69-0.25-1.37-0.53-2.11-0.82c-0.64,0.39-0.65,0.4-1.07,0.04c-0.19-0.16-0.42-0.31-0.54-0.52
	c-0.4-0.68-0.95-0.98-1.74-0.89c-0.36,0.04-0.52-0.24-0.64-0.53c0.08-0.09,0.16-0.17,0.24-0.26c0.01-0.01-0.05-0.07-0.08-0.1
	c-0.06,0.09-0.13,0.17-0.18,0.27c-0.01,0.03,0.04,0.08,0.06,0.12c-0.62,0.01-1.17-0.06-1.54-0.68c-0.22-0.36-0.61-0.61-1.01-1
	c-0.51-0.02-1.02,0.33-1.55,0.59c-1.58,0.78-3.16,1.55-4.69,2.4c-1.7,0.95-3.49,1.8-4.78,3.34c-1.14,0.5-1.73,1.62-2.64,2.38
	c-0.46,0.38-1,0.7-1.04,1.4c0,0.09-0.08,0.2-0.15,0.24c-1.14,0.66-1.67,1.85-2.43,2.83c-0.37,0.48-0.74,0.94-1.25,1.28
	c-0.21,0.14-0.44,0.28-0.57,0.48c-0.68,1.01-1.58,1.8-2.49,2.59c-0.3,0.26-0.62,0.49-0.91,0.76c-0.43,0.41-0.84,0.84-1.25,1.24
	c0.21,0.4,0.37,0.7,0.52,0.97c-0.33,0.75-0.81,0.48-1.36,0.27c-0.44,0.5-0.92,1-1.35,1.55c-1.14,1.46-2.38,2.84-3.34,4.45
	c-0.92,1.55-2.03,2.99-3.08,4.46c-0.66,0.92-0.67,0.91-0.51,2.01c-0.06,0.08-0.11,0.21-0.19,0.22c-0.79,0.14-1.36,0.54-1.69,1.3
	c-0.18,0.41-0.47,0.77-0.73,1.18c0.31,0.93,0.25,1.75-0.71,2.33c-0.2,0.12-0.21,0.53-0.31,0.81l0.04-0.04
	c-0.06,0.14-0.18,0.27-0.18,0.41c-0.03,1.92-0.66,3.76-0.84,5.65c-0.22,2.4-0.45,4.81-0.59,7.21c-0.11,1.78,0.43,3.47,0.97,5.15
	c0.15,0.48,0.26,0.97,0.43,1.44c0.3,0.8,0.59,1.6,0.96,2.36c0.53,1.09,0.95,2.22,1.09,3.43c0.2,1.75,0.63,3.45,1.04,5.14
	c0.3,0.15,0.56,0.28,0.88,0.44c-0.09,0.21-0.13,0.4-0.24,0.55c-0.21,0.28-0.22,0.56-0.09,0.85c0.46,1.06,0.77,2.17,1.44,3.15
	c0.54,0.78,0.92,1.67,1.36,2.52c0.96,1.83,2.02,3.36,3.49,5.05c0.18,0.21,0.29,0.53,0.34,0.81c0.09,0.49,0.34,0.83,0.74,1.08
	c1.15,0.72,2.23,1.54,3.52,2.03c0.79,0.3,0.78,0.32,1.81,0.14c0.12,0.22,0.26,0.46,0.47,0.83c1.15,0.37,2.38,0.88,3.76,0.99
	c1.4,0.12,2.79,0.37,4.17,0.67c1.41,0.31,2.8,0.13,4.27,0.18c0.02-0.47,0.04-0.84,0.06-1.21c0.26-0.2,0.5-0.05,0.67,0.12
	c0.2,0.21,0.34,0.49,0.55,0.81c0.76-0.11,1.55-0.2,2.34-0.33c3.14-0.5,6.18-1.33,9.08-2.63c0.73-0.33,1.44-0.71,2.13-1.11
	c1.04-0.61,2.07-1.23,3.08-1.9c1.61-1.07,2.95-2.41,3.99-4.04c1.14-1.77,2.31-3.52,3.47-5.27c1-0.68,1.39-1.83,2.13-2.7
	c1.02-1.21,1.58-2.67,2.25-4.07c0.8-1.68,1.39-3.42,1.64-5.29c0.13-0.98,0.5-1.91,0.99-2.82c0.56-1.05,1.01-2.18,1.22-3.38
	c0.18-1.04,0.51-2.05,0.73-3.08c0.32-1.52,0.59-3.05,0.91-4.58c0.14-0.68,0.37-1.35,0.54-2.03c0.23-0.92,0.17-1.2-0.42-2.15
	c0.13-0.12-0.09-0.94,0.07-1.04c0.17-0.11,0.16-1.38,0.44-1.51c0.33-2.57,0.41-5.9,1.43-6.39c0.12,0.34-0.05,6.16-0.05,6.28
	c0.02,1.45-0.16,2.9-0.18,4.35c-0.01,1.07-0.4,2.15-0.71,3.2c-0.21,0.69,25.66,14.36,26.18,14.93c0.38,0.42,0.72,0.97,0.62,1.73
	c-0.62-1.73-25.05-14.82-27.21-14.98c-0.57,1.15-0.43,3.73-1.08,4.8c0.87,0.88,17.76,13.07,18.52,13.83
	c0.04,0.7,0.24,1.33,0.05,2.06c-0.57-0.22-0.7-0.71-0.98-1.1c-0.28-0.4-15.71-12.81-17.24-12.43c-0.34,0.16-0.65,0.3-1,0.46
	c-0.64,1.81-1.29,3.65-1.82,5.56c2.33,1.22,16.84,16.83,18.26,18.8c0.33,0.46,0.15,1.07,0.1,1.6c-0.03,0.36-0.39,0.56-0.82,0.57
	c-0.78-0.45-0.7-1.46-1.34-2.06c0-1.47-12.96-15.12-13.47-15.8c-0.51-0.68-2.36-1.05-2.95-1.81c-0.17,0.2-0.33,0.31-0.39,0.47
	c-0.57,1.49-1.09,3-1.69,4.48c-0.26,0.64-0.59,1.29-1.05,1.8c-0.6,0.67-1.14,1.35-1.61,2.11c-0.18,0.28-0.5,0.47-0.8,0.74
	c0.02,0.46,0.33,0.79,0.59,1.15c1.2,1.67,2.49,3.28,3.61,5c1.59,2.44,3.48,4.66,5.11,7.06c0.28,0.42,0.5,0.88,0.83,1.26
	c0.95,1.09,8.99,10.86,8.86,12.28c-0.28,0.24-0.52,0.13-0.74-0.12c-0.2-0.23-0.42-0.44-0.57-0.69c-0.8-1.33-9.61-11-10.26-12.44
	c-0.18-0.4-0.42-0.83-0.75-1.1c-0.96-0.78-1.57-1.83-2.22-2.84c-0.53-0.83-1.18-1.59-1.44-2.61c-0.12-0.5-0.58-0.92-0.92-1.36
	c-0.34-0.44-0.72-0.84-1.08-1.26c-0.13-0.15-0.26-0.32-0.32-0.5c-0.38-1.27-0.38-1.26-0.96-1.84c-0.26-0.26-0.42-0.62-0.67-1.01
	c-0.22,0.21-0.42,0.36-0.55,0.56c-0.71,1.1-1.45,2.18-2.09,3.32c-0.67,1.21-1.6,2.17-2.56,3.13c-0.96,0.97-2.05,1.74-3.2,2.28
	c0.59,0.55,1.18,1.09,1.76,1.64c0.84,0.79,1.71,1.56,2.5,2.39c0.83,0.87,1.64,1.77,2.34,2.74c0.74,1.02,1.56,1.97,2.39,2.91
	c0.26,0.3,0.5,0.62,0.7,0.97c1.57,2.68,3.11,5.38,4.68,8.06c0.38,0.64,7.71,11.72,8.11,12.32c-0.11,0.21-0.16,0.36-0.25,0.47
	c-0.33,0.39-0.69,0.42-1.01,0.09c-0.1-0.11-0.24-0.22-0.27-0.35c-0.47-1.67-8.48-13.49-9.28-14.99c-0.83-1.55-1.75-3.05-2.64-4.57
	c-0.15-0.26-0.27-0.56-0.47-0.77c-1.77-1.79-2.95-4.06-4.86-5.74c-0.86-0.76-1.61-1.64-2.41-2.46c-0.66-0.69-1.33-1.37-2.23-1.92
	c-0.72,0.41-1.43,0.86-2.19,1.23c-0.76,0.37-1.56,0.66-2.35,0.99c0.16,2.29,0.28,4.49,0.49,6.68c0.12,1.25,0.3,2.5,0.59,3.72
	c0.58,2.4,0.8,4.85,1.24,7.27c0.53,2.93,0.54,5.91,0.74,8.87c0.17,2.46,0.56,4.89,0.99,7.31c0.28,1.58,0.49,3.18,0.72,4.77
	c0.05,0.35,0.05,0.7,0.03,1.05c-0.02,0.37-0.5,0.61-0.78,0.38c-0.46-0.39-0.9-0.82-1.03-1.44c-0.03-0.17,0-0.49,0.1-0.53
	c0.5-0.24,0.41-0.64,0.35-1.03c-0.22-1.49-0.46-2.98-0.69-4.47c-0.37-2.43-0.71-4.86-0.8-7.33c-0.12-3.21-0.4-6.4-1.05-9.57
	c-0.46-2.21-0.86-4.43-1.25-6.66c-0.31-1.78-0.34-3.6-0.48-5.4c-0.08-0.94-0.13-1.89-0.2-2.91c-0.27,0.02-0.52-0.03-0.63,0.07
	c-0.65,0.57-1.45,0.62-2.25,0.73c-2.14,0.29-4.28,0.6-6.41,0.91c-0.14,0.02-0.27,0.1-0.49,0.19c-0.05,1.28-0.06,2.59-0.15,3.88
	c-0.12,1.7-0.31,3.4-0.47,5.1c-0.16,1.65-0.34,3.3-0.5,4.95c-0.1,1.05-0.19,2.1-0.29,3.15c-0.43,4.45-0.91,8.89-1.07,13.35
	c-0.06,1.49,0.07,2.99,0.12,4.48c0.01,0.2,0.04,0.4,0.02,0.59c-0.15,1.09-0.32,2.18-0.49,3.26c-0.02,0.15-0.03,0.33-0.12,0.42
	c-0.12,0.14-0.31,0.29-0.48,0.3c-0.17,0.01-0.47-0.09-0.52-0.21c-0.26-0.68-0.7-1.35-0.12-2.11c0.2-0.26,0.28-0.64,0.31-0.98
	c0.09-0.95,0.17-1.9,0.18-2.86c0.03-2.26-0.02-4.52,0.3-6.77c0.18-1.29,0.16-2.61,0.28-3.91c0.27-2.9,0.58-5.8,0.86-8.7
	c0.12-1.25,0.22-2.5,0.34-3.76c0.22-2.3,0.48-4.6,0.68-6.9c0.09-1,0.09-2,0.14-3.08c-1.48-0.28-2.95,0.02-4.37-0.23
	c-1.44-0.25-2.88-0.48-4.31-0.77c-1.42-0.29-2.83-0.64-4.3-0.97c-1.08,1.86-2.18,3.72-3.06,5.69c-1.25,2.8-2.15,5.73-3.15,8.62
	c-0.63,1.85-1.32,3.69-2.16,5.46c-1.09,2.29-1.83,4.67-2.46,7.1c-0.59,2.29-1.24,4.56-1.79,6.85c-0.33,1.38-0.82,2.69-1.37,3.98
	c-0.12,0.28-0.24,0.56-0.42,0.79c-0.09,0.11-0.32,0.12-0.65,0.22c0.1-0.64,0.07-1.17,0.28-1.58c0.79-1.55,1.04-3.25,1.53-4.88
	c0.53-1.78,1-3.58,1.4-5.39c0.62-2.81,1.57-5.49,2.77-8.1c0.67-1.45,1.12-3.01,1.67-4.51c0.42-1.13,0.88-2.24,1.27-3.38
	c0.32-0.95,0.5-1.95,0.84-2.89c0.35-0.98,0.8-1.94,1.24-2.89c0.23-0.5,0.57-0.94,0.83-1.43c0.72-1.37,1.43-2.75,2.19-4.21
	c-0.3-0.18-0.58-0.39-0.89-0.51c-1.19-0.46-2.23-1.15-3.26-1.88c-0.74-0.53-1.33-1.14-1.7-2.04c-0.34-0.81-0.9-1.57-1.49-2.24
	c-1.19-1.34-1.91-2.95-2.75-4.48c-0.89-1.63-1.67-3.31-2.57-5.12c-0.16-0.01-0.53-0.13-0.84-0.04c-2.19,0.61-4.4,0.3-6.61,0.2
	c-1-0.04-2.01-0.07-3.01-0.01c-3.37,0.19-6.74,0.4-10.08-0.23c-2.66-0.51-5.31-1.13-7.95-1.72c-1.52-0.34-2.96-0.96-4.43-1.46
	c-2.56-0.87-5.09-1.86-7.79-2.3c-1.09-0.18-2.14-0.58-3.23-0.76c-1.54-0.26-3.09-0.41-4.63-0.62c-0.64-0.09-1.28-0.22-1.92-0.33
	c-1.64-0.27-3.26-0.65-4.91-0.78c-1.67-0.13-3.17-0.66-4.51-1.56c-1.92-1.3-4.04-1.97-6.26-2.48c-2.65-0.61-5.28-1.27-7.91-1.95
	c-0.73-0.19-1.43-0.5-2.12-0.8c-1.56-0.69-3.19-0.82-4.87-0.72c-1,0.06-2.01,0.06-3.02,0.05c-1.45-0.01-2.69-0.72-3.96-1.31
	c-0.1-0.05-0.16-0.39-0.1-0.53c0.06-0.13,0.32-0.24,0.48-0.22c0.24,0.02,0.48,0.14,0.7,0.26c1.67,0.85,3.46,1.02,5.29,0.83
	c1.31-0.14,2.61-0.24,3.9,0.07c0.78,0.19,1.56,0.38,2.31,0.68c2.11,0.83,4.31,1.33,6.51,1.87c2.28,0.56,4.66,0.81,6.83,1.8
	c0.55,0.25,1.12,0.46,1.62,0.79c1.88,1.25,3.9,1.98,6.18,2.19c1.58,0.14,3.19,0.35,4.73,0.85c0.47,0.16,0.98,0.23,1.48,0.28
	c3.21,0.32,6.38,0.82,9.48,1.74c0.1,0.03,0.19,0.05,0.29,0.07c2.55,0.42,4.9,1.46,7.28,2.39c1.16,0.46,2.38,0.81,3.6,1.08
	c2.79,0.63,5.6,1.2,8.41,1.76c0.64,0.13,1.3,0.19,1.95,0.18c2.47-0.03,4.93-0.1,7.4-0.14c0.9-0.01,1.81,0.05,2.71,0.08
	c2.25,0.08,4.51,0.25,6.82-0.38c-0.03-0.24-0.02-0.47-0.08-0.69c-0.32-1.32-0.68-2.63-0.8-3.99c-0.1-1.12-0.5-2.14-1-3.21
	c-0.39,0.04-0.78,0.07-1.2,0.11c-0.32-0.27-0.62-0.59-0.99-0.83c-0.33-0.22-0.73-0.34-1.09-0.5c-1.85-0.79-3.73-1.51-5.54-2.38
	c-1.45-0.69-2.81-1.56-4.21-2.36c-2.27-1.3-4.55-2.55-7.02-3.46c-2.3-0.84-4.56-1.8-6.82-2.76c-1.29-0.55-2.55-1.2-3.8-1.85
	c-1.61-0.84-3.32-1.43-5.05-1.98c-1.44-0.45-2.87-0.9-4.25-1.55c-0.86-0.41-1.76-0.76-2.69-0.98c-1.7-0.41-3.1-1.38-4.58-2.21
	c-2.02-1.12-4.01-2.32-6.05-3.4c-2.49-1.32-5.05-2.49-7.51-3.85c-1.67-0.92-3.23-2.04-4.83-3.08c-1.09-0.71-2.16-1.47-3.27-2.17
	c-0.81-0.52-1.57-1.08-2.24-1.77c-1.34-1.36-2.69-2.72-4.06-4.05c-0.54-0.52-1.13-0.99-1.7-1.48c-0.26-0.22-0.53-0.43-0.88-0.72
	c0.23-0.17,0.36-0.35,0.52-0.38c0.34-0.06,0.69-0.06,1.08-0.08c1.67,2.51,3.98,4.38,6.11,6.44c0.46,0.45,1.03,0.8,1.57,1.17
	c1.16,0.79,2.34,1.57,3.5,2.36c1.91,1.3,3.87,2.53,5.94,3.57c0.81,0.4,1.58,0.87,2.39,1.28c2.01,1.03,4.06,2,6.05,3.07
	c1.37,0.74,2.67,1.6,4.02,2.39c0.39,0.23,0.82,0.37,1.2,0.61c0.82,0.5,1.81,0.48,2.66,0.98c0.76,0.44,1.72,0.54,2.56,0.88
	c1.42,0.57,2.88,1.06,4.3,1.66c1.39,0.58,2.83,1.02,4.23,1.58c0.84,0.34,1.63,0.79,2.43,1.2c2.34,1.18,4.71,2.26,7.18,3.15
	c3.84,1.39,7.52,3.12,10.97,5.31c1.28,0.81,2.62,1.49,4.03,2.05c1.77,0.71,3.5,1.52,5.26,2.27c0.3,0.13,0.63,0.21,1.13,0.37
	c-0.38-1.28-0.69-2.38-1.03-3.46c-0.67-2.13-0.99-4.31-0.81-6.54c0.06-0.75,0.19-1.5,0.24-2.25c0.04-0.65,0.01-1.3,0.01-2.03
	c-0.49-0.25-1-0.57-1.55-0.8c-2.62-1.06-4.97-2.63-7.5-3.86c-2.13-1.03-4.13-2.29-6.13-3.53c-1.45-0.9-2.87-1.86-4.32-2.76
	c-2.09-1.29-4.22-2.53-6.31-3.83c-1.32-0.82-2.61-1.7-3.9-2.57c-0.75-0.5-1.47-1.05-2.23-1.54c-2.36-1.54-4.5-3.35-6.56-5.27
	c-1.99-1.84-4.11-3.54-6.11-5.37c-2.22-2.04-4.5-4-6.94-5.79c-1.05-0.77-1.98-1.7-2.95-2.58c-0.18-0.16-0.34-0.39-0.42-0.61
	c-0.14-0.35,0.05-0.57,0.49-0.69c0.14,0.13,0.34,0.28,0.5,0.46c0.92,1.08,2.03,1.94,3.17,2.77c2.32,1.68,4.54,3.48,6.6,5.49
	c1.22,1.19,2.6,2.21,3.89,3.32c1.14,0.98,2.22,2.04,3.39,2.98c2.07,1.67,4.03,3.46,6.26,4.95c2.59,1.73,5.22,3.38,7.89,4.98
	c2.11,1.26,4.13,2.69,6.22,3.99c2.82,1.75,5.64,3.49,8.6,4.99c1.3,0.66,2.53,1.45,3.82,2.12c1.33,0.68,2.69,1.3,4.26,1.66
	c0.11-0.57,0.22-1.05,0.3-1.53c0.24-1.38,0.54-2.75,0.53-4.18c-0.01-1.27,0.34-2.47,1.08-3.54c0.54-0.78,1.03-1.61,1.54-2.42
	c0.15-0.25,0.28-0.52,0.43-0.8c-1.64-2.23-3.45-4.23-5.53-5.97c-1.27-1.06-2.6-2.07-3.88-3.12c-0.66-0.54-1.28-1.12-1.91-1.7
	c-1.44-1.33-2.87-2.68-4.3-4.02c-0.15-0.14-0.26-0.31-0.42-0.43c-2.25-1.71-4.15-3.79-6.11-5.81c-1.75-1.8-3.41-3.69-5.12-5.52
	c-0.31-0.33-0.63-0.68-1.01-0.9c-0.49-0.28-0.83-0.56-1.09-1.13c-0.24-0.54-0.87-0.95-1.41-1.3c-1.61-1.07-2.91-2.46-4.25-3.82
	c-1.2-1.21-2.31-2.52-3.68-3.57c-0.63-0.48-1.13-1.13-1.68-1.73c-1.02-1.1-2.02-2.22-3.06-3.36c0.37-0.33,0.7-0.26,1-0.1
	c0.21,0.12,0.41,0.3,0.57,0.48c1.29,1.47,2.68,2.84,4.14,4.15c1.15,1.04,2.15,2.24,3.29,3.29c1.4,1.29,2.88,2.5,4.32,3.76
	c0.64,0.56,1.28,1.14,1.87,1.75c2.09,2.17,4.16,4.36,6.25,6.53c1.5,1.56,2.99,3.12,4.52,4.64c1,0.99,2.08,1.89,3.11,2.84
	c1.78,1.63,3.53,3.29,5.34,4.88c1.25,1.09,2.59,2.07,3.89,3.1c0.12,0.09,0.27,0.16,0.37,0.26c1.65,1.75,3.6,3.21,4.97,5.24
	c0.11,0.16,0.29,0.27,0.4,0.37c0.52-0.01,0.64-0.4,0.74-0.7c0.71-2.11,2.18-3.8,3.21-5.73c0.81-0.44,1.04-1.47,1.92-1.83
	c0.13-0.05,0.3-0.16,0.35-0.28c0.36-1.01,1.33-1.47,1.96-2.23c0.25-0.3,0.44-0.65,0.71-1.04c-0.53-0.61-0.98-1.21-1.51-1.74
	c-1.68-1.66-3.4-3.27-5.09-4.93c-0.43-0.42-0.83-0.88-1.15-1.38c-0.49-0.76-1.02-1.48-1.62-2.16c-1.27-1.42-2.48-2.89-3.77-4.29
	c-1.02-1.11-2.12-2.14-3.16-3.22c-1.68-1.73-3.6-3.21-5.35-4.86c-1.93-1.82-3.74-3.78-5.59-5.68c-0.16-0.17-0.27-0.39-0.41-0.61
	c0.54-0.28,0.94-0.2,1.27,0.21c2.55,3.06,5.61,5.6,8.54,8.27c3.53,3.22,6.9,6.59,9.82,10.38c1.04,1.36,2.15,2.64,3.42,3.8
	c1.41,1.28,2.72,2.68,4.07,4.03c0.35,0.35,0.73,0.68,1.13,1.06c1.01-0.9,2-1.73,2.92-2.63c0.93-0.91,1.73-1.96,2.71-2.81
	c1-0.86,1.75-1.89,2.58-2.82c-0.18-0.58-0.3-1.11-0.5-1.6c-0.11-0.25-0.4-0.42-0.56-0.66c-0.15-0.24-0.22-0.54-0.36-0.79
	c-0.65-1.14-1.53-2.12-2.4-3.09c-1.66-1.84-7.52-11.2-8.95-13.2c-1.3-1.83-2.56-3.7-3.85-5.54c-0.23-0.33-0.57-0.57-0.82-0.89
	c-0.24-0.31-0.47-0.65-0.63-1c-0.17-0.36,0.05-0.62,0.53-0.67c0.14-0.01,0.29,0.03,0.47,0.06c1.16,1.74,2.3,3.51,3.48,5.24
	c1.21,1.79,2.43,3.57,3.69,5.33c0.88,1.22,6.39,9.67,7.36,10.82c1.08,1.26,2.12,2.54,2.96,3.97c0.09,0.16,0.28,0.26,0.49,0.44
	c0.29-0.25,0.59-0.43,0.8-0.69c1.49-1.83,3.4-3.11,5.38-4.33c0.63-0.39,1.21-0.87,1.82-1.31l-0.05,0.04
	c0.52-0.04,0.8-0.24,1.07-0.77c0.31-0.61,0.95-1.01,1.74-0.99c0.88,0.02,1.67-0.27,2.4-0.77c0.89-0.6,1.95-0.75,3.05-0.99
	c-0.03-0.29-0.02-0.53-0.08-0.75c-0.39-1.5-4.64-16.55-5.08-18.04c-0.28-0.93-0.34-1.97-1.24-2.64c-0.17-0.12-0.21-0.45-0.26-0.7
	c-0.12-0.62-0.22-1.25-0.33-1.87c0.8-0.24,0.92-0.21,1.12,0.37c0.53,1.52,0.99,3.06,1.59,4.55c0.35,0.88,0.55,1.79,0.81,2.69
	c0.26,0.91,4.42,15.37,4.62,16.29c0.11,0.53,0.35,0.87,0.8,1.19c1.28,0.91,2.72,1.46,4.06,2.14c0.54-0.37,0.48-0.87,0.43-1.29
	c-0.16-1.29,0.43-5.32,0.14-6.59c-0.14-0.61-3.24-13.04-3.4-13.66c-0.16-0.58-0.32-1.16-0.5-1.73c-0.18-0.57-0.36-1.15-0.61-1.7
	c-0.26-0.58-0.75-1.07-0.57-1.81c0.04-0.17-0.17-0.49-0.36-0.62c-0.44-0.32-0.44-0.75-0.44-1.21c0.25-0.4,0.61-0.45,1.07-0.25
	c1.28,3.73,5.54,19.28,6.26,23.2c0.16,0.88-0.62,4.53-0.64,5.43c-0.01,0.29-0.26,0.57-0.41,0.85c2.08,0.87,3.43,1.19,4.72,1.11
	c0.05-0.21,0.14-0.44,0.14-0.67c0.03-1.81,0.05-3.62,0.06-5.43c0.01-1.31,0.15-2.6,0.47-3.87c0.41-1.6,0.75-3.22,1.14-4.82
	c0.16-0.63,4.71-11.26,4.92-11.88c0.05-0.13,0.16-0.25,0.26-0.35c0.07-0.06,0.19-0.09,0.28-0.09c0.18,0.02,0.37,0.07,0.62,0.12
	c-0.33,1.12-4.99,12.18-5.26,13.23c-0.36,1.34-0.71,2.68-0.74,4.08c0,0.18-0.14,0.36-0.2,0.55c-0.08,0.29-0.21,0.58-0.2,0.87
	c0.03,0.74,0.02,1.47-0.09,2.21c-0.07,0.49,0.2,0.97,0.04,1.51c-0.16,0.52-0.15,1.09-0.2,1.64c-0.04,0.55-0.06,1.1-0.07,1.64
	c-0.01,0.6,0,1.2,0,1.8c1.35,1.14,3.12,1.2,4.58,2.06c0.2-0.21,0.38-0.37,0.54-0.55c0.46-0.53,0.89-1.09,1.37-1.6
	c0.62-0.66,1.15-1.34,1.59-2.16c0.53-1,1.38-1.83,2.02-2.78c0.64-0.95,1.5-1.71,2.18-2.64c0.8-1.1,12.88-13.29,13.29-14.61
	c0.82-0.88,4.8-4.19,5.05-4.68c0.05-0.11,0.23-0.15,0.42-0.26c0.03,0.25,0.1,0.45,0.07,0.63c-0.17,1.04-3.94,4.82-4.93,6.28
	c-0.05,0.23-0.19,0.46-0.33,0.65c-1.24,1.7-13.8,14.48-15.08,16.15c-0.98,1.27-2.04,2.47-3.05,3.7c-0.22,0.27-0.48,0.55-0.59,0.86
	c-0.17,0.51-0.42,0.83-0.95,1.01c-0.37,0.12-0.41,0.57-0.18,0.89c0.06,0.08,0.12,0.16,0.19,0.23c0.82,0.88,1.72,1.69,2.44,2.64
	c0.77,1.02,1.88,1.64,2.65,2.63c1.42-0.18,22.87-12.17,24.21-12.39c0.2,0.64,0.19,0.77-0.22,0.95c-0.41,0.19-0.84,0.33-1.26,0.5
	c-0.5,0.2-21.29,11.59-21.84,11.82c0.19,0.31,0.33,0.57,0.5,0.82c0.84,1.19,1.69,2.37,2.52,3.56c0.11,0.15,0.21,0.35,0.22,0.52
	c0.08,1.35,0.13,2.7,0.19,4.06c0.02,0.4,0.3,0.83,0.44,1.71c0.03,0.2,0.11,1.59,0.14,1.82c0,2.77,0.34,9.56-0.83,10.22
	c-0.49-0.71-0.49-12.73-0.94-13.41c0.2-0.42,0.38-0.77,0.55-1.13c-0.15-0.49-0.37-0.96-0.43-1.45c-0.08-0.63-0.39-1.01-0.98-1.2
	c0.1-0.35,0.18-0.63,0.27-0.95c-0.68-0.98-1.34-1.99-2.07-2.94c-0.39-0.51-0.9-0.93-1.39-1.35c-0.11-0.09-0.37,0.01-0.56,0.02
	L150.57,63.93z"/>
<path d="M13.73,141.67c-0.27-0.6-0.33-1.07-0.1-1.65c0.29-0.05,0.62-0.17,0.95-0.17c1.21-0.01,2.42,0,3.61-0.26
	c0.29-0.06,0.6-0.06,0.9-0.04c1.82,0.14,3.62-0.12,5.41-0.33c0.64-0.08,1.33-0.16,1.9-0.43c1.98-0.92,4.1-1.34,6.2-1.83
	c2.84-0.66,5.68-1.32,8.52-1.94c2.3-0.51,4.61-1,6.92-1.45c1.18-0.23,2.38-0.33,3.58-0.51c2.13-0.32,4.26-0.68,6.4-0.96
	c0.99-0.13,2.01-0.08,3.01-0.16c1.81-0.14,3.59,0.01,5.39,0.26c1.74,0.24,3.53,0.43,5.26,0.28c2.49-0.21,5.01-0.25,7.49-0.7
	c2.17-0.39,4.4-0.47,6.59-0.72c2.5-0.28,4.99-0.59,7.49-0.91c0.29-0.04,0.57-0.18,0.86-0.27c0.52-0.18,1.04-0.38,1.57-0.54
	c0.45-0.14,0.84,0.03,0.88,0.32c0.04,0.31-0.2,0.75-0.51,0.84c-0.77,0.22-1.55,0.45-2.33,0.59c-2.57,0.47-5.16,0.8-7.78,0.98
	c-1.5,0.1-3,0.19-4.5,0.47c-1.33,0.26-2.7,0.29-4.05,0.44c-1.45,0.16-2.9,0.34-4.35,0.5c-2.37,0.27-4.73-0.02-7.07-0.33
	c-2.12-0.29-4.22-0.22-6.33-0.14c-2.11,0.08-4.2,0.46-6.28,0.82c-4.11,0.71-8.23,1.39-12.33,2.14c-1.97,0.36-3.92,0.88-5.88,1.34
	c-1.47,0.34-2.93,0.68-4.39,1.05c-0.73,0.18-1.46,0.38-2.16,0.66c-1.13,0.45-2.28,0.77-3.47,0.98c-1.94,0.33-3.88,0.55-5.85,0.55
	c-1.45,0-2.91,0.23-4.36,0.31C14.4,140.88,14.23,141.34,13.73,141.67z"/>
<path d="M119.65,52.25c-0.3,0.04-0.59,0.08-0.89,0.11c-0.1,0.01-0.2-0.03-0.37-0.06c-0.95-1.47-1.57-3.14-2.19-4.81
	c-0.23-0.6-4.81-10.36-5.09-10.94c-0.11-0.22-0.32-0.42-0.35-0.65c-0.12-0.92-0.76-1.5-1.33-2.11c-0.35-0.37-0.66-0.7-0.76-1.24
	c-0.06-0.32-0.34-0.6-0.51-0.91c-0.17-0.31-0.33-0.62-0.46-0.94c-0.1-0.25-0.02-0.55,0.23-0.63c0.21-0.07,0.48,0.01,0.7,0.08
	c0.12,0.04,0.2,0.21,0.27,0.34c0.82,1.43,1.67,2.84,2.44,4.29c0.49,0.92,0.87,1.9,1.3,2.86c0.5,1.14,5.27,11.47,5.79,12.6
	c0.12,0.27,0.33,0.5,0.54,0.72c0.36,0.38,0.54,0.84,0.63,1.34C119.61,52.29,119.65,52.25,119.65,52.25z"/>
<path d="M90.53,88.87c0.05,0,0.1-0.01,0.15,0c0.09,0.01,0.18,0.03,0.28,0.05c-0.05,0.07-0.09,0.14-0.14,0.21
	c-0.07-0.05-0.14-0.1-0.2-0.17c-0.03-0.03-0.03-0.09-0.04-0.14C90.57,88.83,90.53,88.87,90.53,88.87z"/>
<path d="M156.4,75.84c-0.03,0.09-0.06,0.18-0.09,0.27c-0.07-0.05-0.19-0.1-0.21-0.17c-0.02-0.07,0.05-0.17,0.08-0.26
	C156.26,75.73,156.33,75.79,156.4,75.84z"/>
<path d="M150.55,63.92c-0.11,0-0.22-0.01,0.01,0c-0.22-0.04-0.11-0.02,0.01,0C150.57,63.93,150.55,63.92,150.55,63.92z"/>
<path d="M89.9,105.12c-0.04,0.01-0.07,0.02-0.11,0.03c0.03-0.05,0.05-0.1,0.08-0.16C89.88,105.03,89.89,105.07,89.9,105.12z"/>
<path class="st1" d="M129.61,51.47c-0.02-0.04-0.07-0.1-0.06-0.12c0.05-0.1,0.12-0.18,0.18-0.27c0.03,0.03,0.08,0.09,0.08,0.1
	c-0.07,0.09-0.16,0.18-0.24,0.26C129.57,51.44,129.61,51.47,129.61,51.47z"/>
<path class="st1" d="M125.1,60.29c-0.01,0.03-0.03,0.06-0.04,0.09c-0.03-0.04-0.05-0.08-0.08-0.12
	C125.02,60.27,125.06,60.28,125.1,60.29z"/>
<path d="M134.46,106.59c-0.09,0.01-0.18,0.01-0.28,0.02c0.08,0.01,0.16,0.01,0.25,0.02C134.43,106.62,134.46,106.59,134.46,106.59z"
	/>
<path d="M102.43,134.99c-1.05,0.55-2.08,1.16-3.12,1.75c-3.61,2.08-7.25,4.13-10.84,6.26c-1.73,1.02-3.38,2.18-5.06,3.28
	c-1.26,0.83-2.52,1.65-3.76,2.5c-0.62,0.42-1.24,0.86-1.8,1.36c-0.9,0.81-1.87,1.51-2.92,2.11c-1.7,0.98-3.45,1.85-5.3,2.54
	c-1.36,0.5-2.65,1.21-3.99,1.79c-0.49,0.21-0.49,0.7-0.85,1.18c-0.46-0.47-0.68-0.89-0.66-1.52c0.26-0.15,0.53-0.37,0.84-0.49
	c1.13-0.43,2.27-0.83,3.3-1.49c0.25-0.16,0.55-0.27,0.83-0.35c1.76-0.49,3.35-1.35,4.97-2.17c0.58-0.29,1.19-0.61,1.64-1.06
	c1.55-1.54,3.39-2.67,5.19-3.85c2.44-1.6,4.87-3.19,7.33-4.76c1.99-1.27,3.98-2.53,6-3.75c1.03-0.62,2.12-1.13,3.18-1.71
	c1.32-0.72,2.62-1.46,3.94-2.18"/>
<path d="M156.4,75.18c0.64-0.13,1.28-0.27,1.92-0.41c0.98-0.22,1.93-0.58,2.9-0.84c1.75-0.47,3.4-1.15,5.04-1.91
	c1.59-0.74,3.24-1.45,4.92-1.89c2.42-0.63,4.81-1.4,7.28-1.85c2.16-0.39,4.29-1.04,6.44-1.55c2.44-0.58,4.89-1.14,7.33-1.69
	c0.29-0.06,0.59-0.05,0.88-0.06c0.54-0.03,1.08-0.04,1.62-0.09c0.46-0.04,0.79-0.29,0.75-0.52c-0.04-0.25-0.38-0.51-0.7-0.48
	c-0.79,0.08-1.58,0.15-2.36,0.29c-2.56,0.46-5.1,1.03-7.62,1.73c-1.45,0.4-2.9,0.81-4.38,1.07c-1.32,0.23-2.63,0.63-3.95,0.95
	c-1.41,0.34-2.83,0.66-4.25,1c-2.32,0.55-4.48,1.52-6.62,2.5c-1.93,0.89-3.94,1.51-5.96,2.12c-0.88,0.27-1.77,0.49-2.67,0.69"/>
<path d="M156.02,83.84c0.55,0,1.09-0.01,1.64-0.02c0.83-0.02,1.65-0.23,2.49-0.3c1.5-0.13,2.92-0.56,4.34-1.08
	c1.37-0.51,2.79-0.97,4.24-1.08c2.07-0.17,4.13-0.51,6.23-0.44c1.84,0.06,3.67-0.2,5.51-0.28c2.09-0.1,4.18-0.17,6.27-0.24
	c0.24-0.01,0.5,0.09,0.75,0.14c0.46,0.1,0.92,0.22,1.38,0.3c0.39,0.07,0.68-0.15,0.65-0.45c-0.03-0.32-0.3-0.72-0.57-0.76
	c-0.67-0.1-1.34-0.21-2.01-0.24c-2.18-0.07-4.36-0.01-6.52,0.21c-1.24,0.13-2.48,0.27-3.75,0.21c-1.13-0.05-2.25,0.12-3.38,0.18
	c-1.21,0.06-2.42,0.11-3.63,0.16c-1.98,0.09-3.85,0.74-5.7,1.41c-1.67,0.61-3.4,0.86-5.13,1.11c-0.76,0.11-1.52,0.16-2.28,0.17"/>
<path d="M155.86,92.05c0.43,0.09,0.86,0.18,1.29,0.27c0.66,0.12,1.32,0.06,1.98,0.13c1.19,0.13,2.36-0.06,3.54-0.35
	c1.14-0.28,2.31-0.5,3.45-0.37c1.64,0.19,3.29,0.2,4.94,0.64c1.43,0.38,2.9,0.44,4.35,0.67c1.65,0.27,3.29,0.56,4.94,0.86
	c0.19,0.04,0.38,0.18,0.57,0.28c0.35,0.18,0.69,0.39,1.04,0.55c0.3,0.14,0.55-0.04,0.57-0.35c0.02-0.33-0.15-0.79-0.35-0.88
	c-0.51-0.22-1.03-0.46-1.55-0.6c-1.7-0.46-3.41-0.78-5.13-0.93c-0.99-0.09-1.98-0.16-2.96-0.44c-0.88-0.25-1.78-0.27-2.67-0.41
	c-0.96-0.15-1.91-0.32-2.87-0.47c-1.57-0.25-3.11,0.08-4.64,0.45c-1.38,0.33-2.77,0.29-4.15,0.24c-0.61-0.02-1.21-0.11-1.81-0.22"/>
</svg>
